<svg width="38" height="38" viewBox="0 0 38 38" fill="none" xmlns="http://www.w3.org/2000/svg">
<path d="M34.4375 9.5H3.5625C2.90666 9.5 2.375 10.0317 2.375 10.6875V27.3125C2.375 27.9683 2.90666 28.5 3.5625 28.5H34.4375C35.0933 28.5 35.625 27.9683 35.625 27.3125V10.6875C35.625 10.0317 35.0933 9.5 34.4375 9.5Z" stroke="black" stroke-width="2" stroke-linecap="round" stroke-linejoin="round"/>
<path d="M19 23.75C21.6234 23.75 23.75 21.6234 23.75 19C23.75 16.3766 21.6234 14.25 19 14.25C16.3766 14.25 14.25 16.3766 14.25 19C14.25 21.6234 16.3766 23.75 19 23.75Z" stroke="black" stroke-width="2" stroke-linecap="round" stroke-linejoin="round"/>
<path d="M26.125 9.5L35.625 17.8125" stroke="black" stroke-width="2" stroke-linecap="round" stroke-linejoin="round"/>
<path d="M26.125 28.5L35.625 20.1875" stroke="black" stroke-width="2" stroke-linecap="round" stroke-linejoin="round"/>
<path d="M11.875 9.5L2.375 17.8125" stroke="black" stroke-width="2" stroke-linecap="round" stroke-linejoin="round"/>
<path d="M11.875 28.5L2.375 20.1875" stroke="black" stroke-width="2" stroke-linecap="round" stroke-linejoin="round"/>
</svg>
