<svg width="38" height="38" viewBox="0 0 38 38" fill="none" xmlns="http://www.w3.org/2000/svg">
<path d="M30.875 5.9375H7.125C6.46916 5.9375 5.9375 6.46916 5.9375 7.125V30.875C5.9375 31.5308 6.46916 32.0625 7.125 32.0625H30.875C31.5308 32.0625 32.0625 31.5308 32.0625 30.875V7.125C32.0625 6.46916 31.5308 5.9375 30.875 5.9375Z" stroke="black" stroke-width="2" stroke-linecap="round" stroke-linejoin="round"/>
<path d="M26.125 3.5625V8.3125" stroke="black" stroke-width="2" stroke-linecap="round" stroke-linejoin="round"/>
<path d="M11.875 3.5625V8.3125" stroke="black" stroke-width="2" stroke-linecap="round" stroke-linejoin="round"/>
<path d="M5.9375 13.0625H32.0625" stroke="black" stroke-width="2" stroke-linecap="round" stroke-linejoin="round"/>
<path d="M13.6562 18.9995H17.8125L15.4375 21.9683C15.828 21.9683 16.2125 22.0646 16.5569 22.2486C16.9013 22.4327 17.195 22.6988 17.412 23.0235C17.629 23.3481 17.7626 23.7213 17.801 24.1099C17.8394 24.4986 17.7813 24.8906 17.632 25.2515C17.4827 25.6123 17.2467 25.9307 16.9449 26.1786C16.6431 26.4264 16.2849 26.5961 15.9019 26.6724C15.5189 26.7488 15.123 26.7295 14.7493 26.6164C14.3755 26.5032 14.0354 26.2996 13.7591 26.0237" stroke="black" stroke-width="2" stroke-linecap="round" stroke-linejoin="round"/>
<path d="M21.375 20.7808L23.75 18.9996V26.7183" stroke="black" stroke-width="2" stroke-linecap="round" stroke-linejoin="round"/>
</svg>
