<svg width="135" height="216" viewBox="0 0 135 216" fill="none" xmlns="http://www.w3.org/2000/svg">
<path d="M57.1301 100.689L60.8512 102.823L62.9853 102.331C62.9853 102.331 66.214 99.9777 69.8804 103.371L75.6809 101.236L78.8548 103.042L81.7004 95.4358L82.959 100.689L82.0834 103.644L80.7701 105.122L82.959 110.539C82.959 110.539 80.8796 115.683 78.8548 115.847C76.8301 116.011 73.5468 113.494 73.5468 113.494C73.5468 113.494 71.9598 116.449 68.8406 115.847C65.7215 115.245 59.7567 110.539 60.0303 109.39C60.304 108.241 56.0903 106.599 56.0903 106.599L57.1301 100.689Z" fill="#77F169"/>
<path d="M108.514 94.6149L108.679 107.748C108.679 107.748 117.379 95.2168 118.638 97.7888C119.897 100.361 120.717 102.987 120.717 102.987L122.195 103.699L122.25 89.4163L108.514 94.6149Z" fill="#77F169"/>
<path d="M54.1204 119.404C54.1204 119.404 68.9502 131.99 75.1885 130.349C81.4269 128.707 85.6952 119.404 85.6952 119.404C85.6952 119.404 84.4913 132.155 83.561 133.577C82.576 135 91.4411 123.18 89.9088 112.509C88.3766 101.838 91.0033 117.325 95.8736 112.509C100.744 107.694 98.938 106.928 95.8736 103.699C92.8091 100.47 87.0085 91.4958 87.0085 91.4958L99.8683 93.247L105.559 96.6397L106.107 101.291C106.107 101.291 103.699 105.341 101.291 106.873C98.8833 108.46 93.7394 115.3 94.7244 119.404C95.7094 123.508 83.7799 139.597 80.1135 144.522C76.4471 149.447 70.8107 152.402 70.8107 152.402C70.8107 152.402 67.1443 143.975 63.7515 140.855C60.3588 137.682 53.8468 128.269 54.1204 119.404Z" fill="#0049E5"/>
<path d="M97.5154 144.522C96.202 146.273 96.0379 160.829 102.495 170.077C102.495 170.077 113.111 186.111 106.107 190.051C99.157 193.991 71.4128 195.632 71.4128 195.632C71.4128 195.632 45.5839 189.887 42.6289 188.573C39.6739 187.26 46.8425 162.744 46.8425 162.744C46.8425 162.744 60.2495 182.773 65.1197 181.514C69.99 180.255 84.7103 171.828 89.1428 163.893C93.5206 155.959 97.5154 144.522 97.5154 144.522Z" fill="#0049E5"/>
<path d="M54.9414 60.2494C52.8619 60.2494 48.1558 60.2494 44.9819 64.463C41.808 68.6767 40.6589 68.7861 42.0269 71.6317C43.3403 74.4772 45.5291 76.8303 44.4894 80.2778C43.4497 83.7253 43.778 85.0386 43.0666 87.0634C42.41 89.0881 47.1708 90.1278 48.4294 88.9786C48.4294 88.9786 51.7675 91.8242 54.2847 93.9584C56.7472 96.0378 59.6475 101.127 56.0906 106.654C52.5336 112.181 51.0014 124.822 57.1303 133.413C63.2592 142.005 72.0695 149.502 69.5523 155.302C67.0898 161.157 63.0403 159.406 63.0403 159.406C63.0403 159.406 65.5028 159.899 60.2495 154.262C54.9961 148.626 50.7825 146.492 51.4392 138.94C51.4392 138.94 49.7975 154.317 41.6986 156.451C41.6986 156.451 41.0419 160.939 43.6139 166.028C43.6139 166.028 27.8538 157.382 27.7444 138.448C27.6349 119.514 32.0675 112.455 32.0675 112.455C32.0675 112.455 17.5113 83.2875 28.8936 62.1647C28.8936 62.1647 37.868 40.4947 57.8964 44.9272C57.8964 44.9272 67.3634 46.3499 68.2936 52.0958C69.2239 57.8416 69.99 61.0703 74.6962 64.4083C79.4023 67.7464 81.9742 76.1189 80.442 78.472C79.6759 79.6211 79.1834 79.6211 79.1834 79.6211C79.1834 79.6211 78.5267 88.5409 82.7951 89.7448C87.1181 91.0034 89.6901 98.7192 93.0281 104.575C96.3662 110.43 97.8984 107.913 97.8984 107.913C97.8984 107.913 93.7943 114.808 90.0731 107.53C90.0731 107.53 89.6901 129.254 84.6009 132.592C84.6009 132.592 89.1976 107.42 79.5117 91.1675C79.5117 91.1675 79.6759 75.1886 73.2734 66.5972C66.8709 58.0058 62.1647 54.3941 58.8267 55.5433C55.4886 56.6925 55.8717 59.4833 55.5981 59.7569C55.3244 60.0305 54.9414 60.2494 54.9414 60.2494Z" fill="black"/>
<path d="M57.5131 71.3578C58.6623 71.9598 57.5131 73.3826 56.2545 73.3826C54.9959 73.3826 51.0011 74.6412 50.3445 74.6959C49.6878 74.8054 47.7725 76.7754 47.882 77.9245C47.882 77.9245 47.4989 78.8001 47.3347 77.9245C47.1706 77.049 49.6331 73.8204 50.1256 73.5467C50.5634 73.2731 56.6375 70.9201 57.5131 71.3578Z" fill="black"/>
<path d="M63.1497 68.2935C63.6422 68.9501 64.0799 69.3332 64.4083 69.0596C64.6819 68.786 67.9652 64.5724 68.2388 64.2987C68.5124 64.0251 69.8258 63.7515 70.4277 63.7515C71.0297 63.6968 70.9202 62.9854 69.6616 63.2043C68.403 63.3685 67.9105 63.3137 66.9802 64.3535C66.0499 65.3385 62.6572 67.6368 63.1497 68.2935Z" fill="black"/>
<path d="M66.2139 71.9051C66.4875 71.6862 66.7611 71.5767 66.98 71.4126C67.2536 71.3031 67.4725 71.1937 67.7461 71.1937C68.0197 71.1937 68.348 71.2484 68.6217 71.139C68.8953 71.0295 69.1142 70.8653 69.2783 70.5917C69.4425 70.3728 69.5519 70.0992 69.7708 69.9351C69.8803 69.7162 70.0444 69.4973 70.2086 69.2784C70.5369 68.8953 70.8653 68.4576 71.3578 68.0198C71.3578 68.0198 71.4125 68.0198 71.4672 68.0198C71.6314 68.6764 71.4672 69.3331 71.1389 69.8803C70.7558 70.4276 70.2633 70.8653 69.6067 71.0295C69.4425 71.0842 69.333 71.1389 69.1689 71.1937C69.0047 71.2484 68.8953 71.3031 68.7858 71.4126C68.5122 71.5767 68.348 71.8503 68.0744 72.0145C67.8008 72.1787 67.4725 72.2334 67.1989 72.2334C66.8705 72.2334 66.5422 72.1787 66.2686 72.0145C66.2139 72.0145 66.2139 71.9598 66.2139 71.9051Z" fill="black"/>
<path d="M58.5529 76.666C58.6623 77.0491 58.5529 77.4322 58.4434 77.7605C58.2793 78.0888 58.0604 78.3624 57.7868 78.5813C57.4584 78.7455 57.1301 78.8002 56.8018 78.9644C56.5281 79.0738 56.2545 79.2927 55.9809 79.5663C55.8715 79.6758 55.7073 79.7852 55.5979 79.8947C55.4337 80.0041 55.3242 80.0588 55.1601 80.1136C54.8317 80.2777 54.5581 80.3872 54.2298 80.4419C53.9015 80.4966 53.5731 80.4966 53.2448 80.4419C52.9165 80.3872 52.5881 80.3324 52.2598 80.1683C52.2051 80.1683 52.2051 80.1136 52.2051 80.1136C52.5334 79.8947 52.807 79.7305 53.0806 79.6211C53.3542 79.5116 53.6826 79.4022 53.9562 79.2927C54.2298 79.1833 54.5581 79.1833 54.8317 79.1285C55.1054 79.0738 55.4337 79.0191 55.762 79.0191C56.0904 79.0191 56.364 78.9097 56.6376 78.6908C56.747 78.5813 56.8565 78.4719 56.9112 78.3077C56.9659 78.1435 57.0754 78.0341 57.1301 77.9247C57.4584 77.4322 57.8962 77.1585 58.4434 76.666C58.4434 76.6113 58.4981 76.6113 58.5529 76.666C58.5529 76.666 58.5529 76.6113 58.5529 76.666Z" fill="black"/>
<path d="M46.8422 86.5709L50.618 89.7448C51.8766 90.7845 53.19 91.8242 54.4486 92.8639C55.1053 93.3564 55.7072 93.9037 56.3639 94.3962C56.6922 94.6698 57.0205 94.8887 57.3489 95.1623L58.3886 95.8189C59.1 96.2567 59.8114 96.6398 60.5775 96.9681C61.3436 97.2964 62.1097 97.6248 62.8758 97.8437C63.2589 97.9531 63.642 98.1173 64.025 98.172L65.2289 98.4456C65.612 98.5551 66.0497 98.6098 66.4328 98.6645C66.8158 98.7192 67.2536 98.8287 67.6367 98.8834C69.2236 99.157 70.8653 99.2665 72.4523 99.2117C73.2731 99.2117 74.0392 99.1023 74.8053 98.9928C75.5714 98.7739 76.2828 98.5551 76.9395 98.1173C77.5414 97.6795 78.0887 97.1323 78.4717 96.4209C78.8548 95.7095 79.0737 94.9434 79.2378 94.1226C79.2378 94.0678 79.2925 94.0678 79.2925 94.0678L79.3473 94.1226C79.3473 94.5603 79.3473 94.9434 79.2925 95.3812C79.2378 95.6001 79.2378 95.8189 79.1831 96.0378C79.1284 96.2567 79.0737 96.4756 79.0189 96.6398C78.6906 97.4606 78.1981 98.2267 77.4867 98.774C76.7753 99.3759 75.9545 99.7042 75.1336 99.9778C74.3128 100.197 73.4373 100.306 72.5617 100.361C70.8653 100.416 69.1689 100.197 67.5272 99.8684C65.8856 99.5401 64.2439 99.1023 62.7117 98.3909C61.1794 97.7342 59.7019 96.9134 58.2792 96.0926C56.8017 95.2717 55.3789 94.4509 53.9561 93.5206C52.588 92.5356 51.3294 91.4959 50.1255 90.292C48.9216 89.1428 47.7725 87.8842 46.8422 86.5161V86.4614C46.7875 86.5161 46.8422 86.5161 46.8422 86.5709Z" fill="black"/>
<path d="M63.8061 73.2732C64.5723 73.8204 65.2289 74.4224 65.8856 75.0791C66.5423 75.7357 67.1442 76.3924 67.6914 77.1038C68.2387 77.8152 68.7312 78.5813 69.3331 79.238C69.6614 79.5663 69.9898 79.8399 70.3181 80.1135C70.4275 80.1682 70.4823 80.223 70.5917 80.2777C70.7012 80.3324 70.8106 80.4419 70.92 80.5513C71.1389 80.7702 71.2484 80.9891 71.3031 81.2627C71.522 82.3024 71.1389 83.2874 70.7012 84.1082C70.5917 84.3271 70.4823 84.546 70.3181 84.7649C70.0992 85.0932 69.7162 85.2574 69.3878 85.3121C69.0595 85.3669 68.7859 85.3121 68.5123 85.2574C68.2934 85.2027 68.0198 85.148 67.8009 85.0933C67.3631 84.9838 66.98 84.8744 66.597 84.8744C66.4875 84.8744 66.4328 84.8744 66.3234 84.8744L65.995 84.9291C65.7761 84.9291 65.5025 84.9838 65.2289 84.9291C64.9553 84.9291 64.6817 84.8744 64.4081 84.7102C64.1345 84.6008 63.9156 84.3271 63.8061 84.1082C63.5873 83.6157 63.5873 83.1232 63.642 82.6307C63.642 82.576 63.6967 82.576 63.6967 82.576C63.6967 82.576 63.7514 82.576 63.7514 82.6307C63.8609 83.0685 64.025 83.5063 64.2439 83.7799C64.5175 84.0535 64.7911 84.0535 65.1742 84.0535C65.3931 84.0535 65.5573 83.9988 65.7761 83.9441L66.1045 83.8894C66.2139 83.8894 66.3781 83.8346 66.4875 83.8346C67.0348 83.7799 67.5273 83.8894 67.965 83.9441C68.4028 84.0535 68.8406 84.163 69.1142 84.1082C69.2237 84.1082 69.2784 84.1082 69.3331 84.0535C69.4425 83.8894 69.6067 83.7252 69.7162 83.561C69.935 83.2327 70.1539 82.8496 70.3181 82.4666C70.4823 82.0835 70.6464 81.7005 70.6464 81.3174C70.6464 81.1532 70.5917 80.9344 70.4823 80.8249C70.3728 80.6607 70.2087 80.5513 70.0445 80.3871C69.6614 80.1135 69.3331 79.7852 69.0048 79.4569C68.3481 78.8549 67.582 78.3077 66.9253 77.651C66.2686 76.9943 65.6667 76.3377 65.1195 75.5716C64.5723 74.8602 64.0798 74.0941 63.642 73.2732V73.2185C63.7514 73.2185 63.7514 73.2185 63.8061 73.2732Z" fill="black"/>
<path d="M68.8406 78.3077C69.2237 78.1983 69.552 78.1983 69.8803 78.253C70.2087 78.3077 70.537 78.3624 70.8106 78.5813C71.0842 78.7455 71.3578 79.0738 71.6314 79.238C71.9051 79.4022 72.2334 79.5116 72.5617 79.7305C72.7259 79.8399 72.9448 80.0041 72.9995 80.223C73.1089 80.4419 73.1637 80.6608 73.1637 80.8249C73.1637 81.208 73.1089 81.6458 72.9995 81.9741C72.8353 82.3024 72.6164 82.6308 72.3976 82.8497C72.1239 83.1233 71.7956 83.3422 71.4673 83.3969C71.4126 83.3969 71.4126 83.3969 71.4126 83.3422C71.4126 83.3422 71.4126 83.3422 71.4126 83.2874L71.9598 81.4816C72.0692 81.208 72.1787 80.9891 72.1787 80.7155C72.2334 80.606 72.2334 80.4966 72.2334 80.3872C72.2334 80.2777 72.2334 80.1683 72.1787 80.0588C72.0692 79.7852 71.7956 79.5663 71.522 79.4569C71.2484 79.3474 70.8653 79.4022 70.537 79.3474C70.2087 79.2927 69.935 79.1285 69.6614 79.0191C69.3878 78.8549 69.1142 78.6908 68.8406 78.3624C68.7859 78.3624 68.7859 78.3624 68.8406 78.3077C68.8406 78.3077 68.7859 78.3077 68.8406 78.3077Z" fill="black"/>
<path d="M62.274 89.854C63.4779 89.4162 64.5723 88.869 65.7215 88.3765C66.8707 87.884 67.9651 87.3368 69.1143 86.8443C69.6615 86.5707 70.2635 86.3518 70.8107 86.0782C71.3032 85.8045 71.7957 85.4215 72.1787 84.9837C72.9449 84.0534 73.4921 82.8495 73.6562 81.6456C73.6562 81.5362 73.8204 81.4268 73.9299 81.4268C74.0393 81.4268 74.094 81.5362 74.1487 81.6456C74.3676 83.0684 74.5318 84.4912 74.4224 85.9687C74.3676 86.6801 74.2582 87.4462 74.0393 88.2123C73.9846 88.3765 73.8751 88.5954 73.8204 88.7595C73.711 88.9237 73.6015 89.1426 73.4374 89.3068C73.2185 89.5804 72.9449 89.854 72.6712 90.1276C72.124 90.6748 71.4126 91.0579 70.6465 91.2768C69.9351 91.4957 69.169 91.6051 68.4029 91.6051C66.9254 91.6051 65.5026 91.3315 64.1346 90.8937C64.0798 90.8937 64.0798 90.839 64.0798 90.839L64.1346 90.7843C65.5573 90.839 66.9801 90.839 68.2935 90.6748C69.6615 90.5107 70.8654 90.0729 71.7957 89.1973C72.0146 88.9784 72.2335 88.7595 72.4524 88.4859C72.5618 88.3765 72.6165 88.267 72.726 88.1576C72.7807 88.0482 72.8901 87.884 72.9449 87.7745C73.1637 87.1726 73.3279 86.5159 73.3826 85.8593C73.5468 84.4912 73.6562 83.0684 73.6015 81.7004H74.094C73.711 82.959 73.1637 84.1081 72.4524 85.2026C72.0693 85.7498 71.6315 86.2423 71.0843 86.6801C70.5371 87.0632 69.9898 87.3915 69.4426 87.6651C68.2935 88.267 67.1443 88.7048 65.9404 89.1426C65.3384 89.3615 64.7365 89.5257 64.0798 89.6898C63.4779 89.854 62.8212 89.9634 62.1646 89.9634C62.274 89.9634 62.274 89.9634 62.274 89.854C62.274 89.9087 62.274 89.9087 62.274 89.854Z" fill="black"/>
<path d="M74.149 84.7103C74.3131 85.2028 74.2037 85.6953 74.0395 86.1331C73.8753 86.5708 73.6017 87.0086 73.2734 87.3369C73.1092 87.5011 72.8903 87.6106 72.6715 87.72C72.4526 87.8295 72.2337 87.9389 72.0695 88.0483C71.6865 88.2672 71.3581 88.5956 70.9751 88.9239C70.2637 89.5806 69.3881 89.9636 68.5126 90.2372C68.0748 90.3467 67.5823 90.4014 67.1445 90.4014C66.652 90.4014 66.2142 90.4014 65.7217 90.292C65.667 90.292 65.667 90.2372 65.667 90.2372V90.1825C66.05 89.9089 66.4878 89.7447 66.9256 89.5806C67.3087 89.4164 67.7464 89.2522 68.1295 89.0881C68.5126 88.9239 68.9503 88.8692 69.3334 88.705C69.7164 88.5408 70.1542 88.4861 70.592 88.322C71.0298 88.2125 71.4128 87.9936 71.7412 87.72C71.9053 87.5558 72.0148 87.3917 72.1242 87.2275C72.2337 87.0086 72.3431 86.8444 72.4526 86.6803C72.8903 85.9689 73.3828 85.4217 73.9301 84.6008C74.0395 84.6556 74.0942 84.6556 74.149 84.7103Z" fill="black"/>
<path d="M80.4965 92.7544C80.7154 93.3016 80.8249 93.9035 80.8796 94.5055C80.9343 95.1074 80.8796 95.6547 80.7154 96.2566C80.5513 96.8038 80.2777 97.3511 80.1682 97.953C80.004 98.5002 79.9493 99.1022 79.5663 99.7041L79.3474 99.0474C79.7852 99.0474 80.2229 99.1022 80.6607 99.1569C81.0985 99.2116 81.5363 99.2663 81.9741 99.3211H81.7004C81.591 99.3758 81.591 99.3758 81.591 99.3758L81.6457 99.3211C81.7004 99.2663 81.7552 99.1569 81.8099 99.0474C81.9193 98.8833 82.0288 98.6644 82.1382 98.4455C82.3571 98.0077 82.576 97.5152 82.9043 97.0774C82.9043 97.0774 82.9591 97.0227 82.9591 97.0774C82.9591 97.0774 82.9591 97.0774 82.9591 97.1322C83.0138 97.6794 83.0138 98.2266 82.9043 98.7738C82.8496 99.0474 82.7949 99.3211 82.6854 99.5947C82.6307 99.7588 82.576 99.8683 82.4666 100.032C82.4118 100.087 82.3571 100.197 82.3024 100.251C82.2477 100.306 82.2477 100.306 82.1929 100.361C82.1929 100.361 82.1382 100.416 82.0835 100.416C82.0288 100.47 82.0288 100.47 81.8646 100.525C81.8099 100.525 81.7552 100.58 81.7004 100.525H81.6457C81.2079 100.47 80.7702 100.361 80.3871 100.251C79.9493 100.142 79.5115 100.032 79.1285 99.923L78.9643 99.8683C78.8002 99.8136 78.6907 99.5947 78.7454 99.4305C78.7454 99.3758 78.8002 99.3211 78.8549 99.2663C79.2379 98.9927 79.5663 98.5002 79.7304 97.953C79.8946 97.4058 79.8399 96.8586 79.7852 96.2566C79.7304 95.7094 79.7852 95.1622 79.8946 94.5602C80.004 94.013 80.0588 93.4658 80.2777 92.8638C80.3871 92.7544 80.4418 92.6997 80.4965 92.7544Z" fill="black"/>
<path d="M83.6159 98.8285C83.8348 99.2662 83.8348 99.7588 83.7801 100.142C83.7801 100.361 83.7254 100.58 83.6159 100.744C83.5065 100.963 83.3423 101.127 83.2329 101.291C83.014 101.674 83.014 102.112 82.9593 102.55C82.9593 102.987 82.7951 103.425 82.5762 103.863C82.5215 104.027 82.3573 104.137 82.1931 104.137H82.0837C81.7006 104.191 81.3723 104.137 80.9892 104.027C80.6062 103.972 80.2779 103.808 79.8948 103.589C79.8401 103.589 79.8401 103.535 79.8948 103.48C80.2779 103.261 80.6062 103.152 80.9892 103.042C81.3723 102.933 81.7006 102.933 82.0837 102.933L81.5912 103.206C81.8101 102.933 82.029 102.55 82.3026 102.221C82.5762 101.893 82.7951 101.51 82.7951 101.072C82.7951 100.853 82.7404 100.634 82.7404 100.415C82.7404 100.197 82.7404 99.9776 82.8498 99.8135C82.9593 99.4304 83.1781 99.0474 83.5065 98.6643C83.5065 98.7738 83.5612 98.7737 83.6159 98.8285C83.5612 98.8285 83.5612 98.8285 83.6159 98.8285Z" fill="black"/>
<path d="M66.2688 108.35C67.2538 109.062 68.2388 109.718 69.1144 110.648C69.5521 111.086 69.8805 111.633 70.1541 112.235C70.373 112.837 70.5371 113.549 70.4277 114.205C70.373 114.534 70.2088 114.917 69.9899 115.19C69.771 115.464 69.4974 115.738 69.1691 115.847C68.5124 116.121 67.8558 116.121 67.2538 115.957C66.6519 115.847 66.0499 115.628 65.5027 115.355C64.9555 115.081 64.4082 114.807 63.9157 114.479C62.876 113.822 61.891 113.056 61.1249 112.071C60.7418 111.579 60.3588 111.032 60.0852 110.43C59.8116 109.828 59.5927 109.116 59.7021 108.405C59.7568 107.639 60.3041 106.873 61.0155 106.599C61.7268 106.325 62.4382 106.38 63.0402 106.544C64.2988 106.927 65.2838 107.693 66.2688 108.35ZM66.2141 108.46C65.2291 107.803 64.0799 107.365 62.9307 107.31C62.3835 107.31 61.8363 107.42 61.4532 107.639C61.0702 107.858 60.8513 108.186 60.7966 108.624C60.7418 109.062 60.8513 109.554 61.0702 110.047C61.2891 110.539 61.5627 111.032 61.891 111.469C62.5477 112.4 63.3685 113.22 64.2441 114.041C65.1196 114.807 66.1594 115.519 67.3085 115.683C67.8558 115.792 68.4577 115.683 68.8955 115.409C69.3333 115.136 69.4974 114.643 69.4974 114.151C69.4974 113.658 69.4427 113.111 69.2238 112.618C69.0596 112.126 68.8408 111.579 68.5124 111.086C67.9652 110.047 67.1991 109.116 66.2141 108.46Z" fill="black"/>
<path d="M57.349 99.8135C57.7321 99.9229 58.1152 100.087 58.4435 100.306C58.7718 100.525 59.1002 100.744 59.3738 100.963C59.6474 101.236 59.921 101.565 60.1399 101.893C60.3588 102.221 60.6324 102.495 60.9607 102.714C61.0155 102.768 61.0702 102.878 61.0154 102.933C60.6324 103.261 60.3588 103.753 59.9757 104.137C59.6474 104.52 59.2643 104.903 58.8813 105.231C58.7171 105.395 58.3888 105.45 58.2246 105.286L58.1699 105.231C57.7321 104.903 57.3491 104.52 56.966 104.137C56.5829 103.753 56.2546 103.316 55.9263 102.823C55.9263 102.768 55.9263 102.768 55.9263 102.768H55.981C56.5282 102.933 57.0207 103.152 57.5132 103.425C58.0057 103.699 58.4435 103.972 58.8813 104.355H58.1699C58.6077 104.027 58.9907 103.753 59.4832 103.48C59.921 103.206 60.4135 102.987 60.8513 102.659V102.933C60.5777 102.659 60.2493 102.44 59.8663 102.276C59.4832 102.112 59.1549 101.948 58.8266 101.674C58.5529 101.4 58.2793 101.127 58.0057 100.853C57.7321 100.58 57.5132 100.251 57.349 99.8682C57.2943 99.8682 57.2943 99.8135 57.349 99.8135Z" fill="black"/>
<path d="M58.5531 104.848C58.772 105.176 58.9361 105.505 59.0456 105.833C59.155 106.161 59.2097 106.544 59.2645 106.873C59.2645 107.201 59.155 107.584 59.1003 107.967C59.0456 108.35 59.1003 108.678 59.2097 109.007C59.2645 109.116 59.155 109.226 59.1003 109.226C59.0456 109.226 58.9909 109.226 58.9361 109.226L58.8814 109.171C58.4984 108.952 58.1153 108.788 57.787 108.514C57.4586 108.241 57.1303 108.022 56.802 107.748C56.4736 107.475 56.2547 107.146 55.9811 106.763C55.7622 106.435 55.4886 106.052 55.3245 105.614C55.3245 105.559 55.3245 105.559 55.3792 105.559H55.4339C55.8717 105.723 56.2547 105.888 56.6378 106.107C57.0209 106.325 57.3492 106.599 57.6228 106.873C57.9511 107.146 58.17 107.475 58.4436 107.803C58.7172 108.131 58.9361 108.514 59.155 108.843L58.772 109.007C58.772 108.624 58.772 108.295 58.6625 107.967C58.5531 107.639 58.3342 107.31 58.2795 106.927C58.2247 106.599 58.2247 106.216 58.2247 105.888C58.2795 105.505 58.2795 105.176 58.4436 104.793C58.4436 104.848 58.4984 104.793 58.5531 104.848C58.5531 104.848 58.4984 104.848 58.5531 104.848Z" fill="black"/>
<path d="M58.8811 108.186C58.6622 107.967 58.5527 107.748 58.5527 107.475C58.498 107.256 58.498 106.982 58.6622 106.763C58.7716 106.544 59.0452 106.38 59.1547 106.161C59.2094 106.052 59.2641 105.942 59.3189 105.833C59.3736 105.723 59.3736 105.614 59.4283 105.45C59.483 105.176 59.5925 104.957 59.7566 104.738C59.9208 104.52 60.085 104.355 60.3586 104.246C60.8511 104.027 61.3983 104.027 61.8908 104.246C61.9455 104.246 61.9455 104.301 61.9455 104.355C61.7814 104.574 61.6172 104.738 61.453 104.903C61.2889 105.067 61.1247 105.176 61.0153 105.286C60.8511 105.395 60.6869 105.45 60.5228 105.559C60.3586 105.669 60.1944 105.723 59.9755 105.833C59.7566 105.942 59.5925 106.107 59.5925 106.325C59.5378 106.544 59.6472 106.763 59.6472 106.982C59.6472 107.201 59.5925 107.365 59.5377 107.584C59.4283 107.803 59.3736 107.967 59.1547 108.186C58.9905 108.241 58.9358 108.241 58.8811 108.186Z" fill="black"/>
<path d="M59.9758 105.231C60.4136 104.684 60.9061 104.191 61.3439 103.644C61.7817 103.097 62.2742 102.604 62.7667 102.112C62.8214 102.057 62.9308 102.002 62.9856 102.002C65.0103 102.057 66.9256 102.659 68.622 103.589C69.4975 104.082 70.2636 104.684 70.975 105.395C71.3034 105.778 71.6317 106.107 71.9053 106.544C72.2336 106.927 72.4525 107.365 72.6714 107.803C73.1639 108.679 73.4922 109.609 73.6564 110.539C73.8206 111.469 73.8753 112.509 73.547 113.439C73.2734 114.424 72.5072 115.245 71.6317 115.683C70.7014 116.121 69.6617 116.285 68.6767 116.285C68.4578 116.285 68.2936 116.121 68.2936 115.902C68.2936 115.738 68.4031 115.574 68.5672 115.519H68.622C69.9353 115.026 71.1939 114.041 71.2486 112.783C71.3034 112.181 71.0845 111.524 70.8109 110.922L70.2636 109.992C70.0995 109.664 69.8259 109.39 69.6617 109.116C68.7861 107.967 67.7464 106.927 66.4331 106.271C65.1745 105.614 63.6969 105.231 62.2742 105.286L62.4931 105.122C62.11 105.669 61.7817 106.216 61.3986 106.763C61.0156 107.311 60.6325 107.858 60.2494 108.405C60.2494 108.405 60.1947 108.46 60.1947 108.405C60.1947 108.405 60.14 108.35 60.1947 108.35C60.4683 107.748 60.7967 107.146 61.0703 106.544C61.3439 105.942 61.6722 105.395 62.0006 104.793C62.0553 104.684 62.11 104.684 62.2194 104.629C63.0403 104.465 63.8611 104.52 64.6272 104.629C65.3933 104.739 66.2142 104.957 66.9256 105.341C68.4031 105.997 69.6617 107.146 70.592 108.405C70.8109 108.733 71.0845 109.062 71.2486 109.39C71.4675 109.718 71.6317 110.101 71.8506 110.43C72.1789 111.196 72.4525 112.071 72.3431 112.947C72.2336 113.822 71.6864 114.643 71.0845 115.191C70.4278 115.738 69.7164 116.121 68.8956 116.34L68.7861 115.519C69.6617 115.574 70.592 115.574 71.4675 115.245C72.2884 114.917 72.9998 114.26 73.2734 113.385C73.6017 112.509 73.6017 111.579 73.3828 110.649C73.1639 109.718 72.7809 108.897 72.2336 108.131C71.1939 106.599 69.7711 105.395 68.1842 104.465C66.5972 103.535 64.7914 102.933 62.9856 102.714L63.2592 102.604C62.7119 103.042 62.2194 103.535 61.6722 103.972C61.125 104.41 60.5778 104.848 60.0306 105.286H59.9758C59.9758 105.231 59.9758 105.231 59.9758 105.231Z" fill="black"/>
<path d="M62.9856 102.276C63.7517 101.893 64.6273 101.729 65.5028 101.674C66.3784 101.674 67.2539 101.784 68.0748 102.057C68.8956 102.385 69.607 102.878 70.3184 103.316C70.7014 103.535 71.0298 103.808 71.3581 104.027C71.6865 104.301 72.0695 104.465 72.3978 104.793C73.1092 105.286 73.7112 105.942 74.149 106.709C74.5867 107.475 74.9151 108.35 75.0245 109.226C75.1887 111.032 74.532 112.892 73.2734 114.041H73.2187V113.987C73.8753 112.454 74.0942 110.867 73.8753 109.39C73.7659 108.624 73.547 107.912 73.2734 107.201C72.9451 106.544 72.5073 105.833 72.0148 105.231C71.7959 104.903 71.4676 104.629 71.1939 104.355C70.8656 104.082 70.5373 103.863 70.2089 103.644C69.4976 103.261 68.6767 103.097 67.9106 102.933C66.3784 102.604 64.8462 102.331 63.1498 102.331C62.9856 102.385 62.9856 102.385 62.9856 102.276C62.9856 102.276 62.9856 102.331 62.9856 102.276Z" fill="black"/>
<path d="M75.6811 101.182C76.0094 100.908 76.3377 100.634 76.7208 100.416C76.7755 100.361 76.885 100.361 76.9397 100.416L76.9944 100.47C77.5416 100.689 78.0341 101.018 78.4719 101.401C78.9097 101.784 79.2927 102.221 79.5663 102.714C79.84 103.206 80.1136 103.699 80.3872 104.191C80.5514 104.41 80.6608 104.684 80.825 104.903C80.9891 105.122 81.1533 105.341 81.3175 105.614C81.9741 106.544 82.4119 107.584 82.795 108.624C82.9591 109.171 83.0686 109.718 83.178 110.266C83.2327 110.813 83.2875 111.36 83.2875 111.962V112.071C83.2875 112.181 83.2327 112.29 83.0686 112.345C82.6308 112.454 82.193 112.564 81.7005 112.673C81.6458 112.673 81.6458 112.673 81.6458 112.619V112.564C82.0289 112.236 82.3572 111.962 82.7402 111.743L82.5214 112.126C82.3572 111.634 82.193 111.086 82.0289 110.594C81.8647 110.101 81.7005 109.554 81.5911 109.062C81.3175 108.022 80.9891 107.037 80.7155 105.997C80.6608 105.724 80.5513 105.505 80.4419 105.231C80.3325 104.958 80.223 104.739 80.0588 104.52C79.7852 104.082 79.3475 103.699 78.9644 103.316C78.1436 102.659 77.4322 101.838 76.6661 101.182H76.9397C76.5019 101.291 76.1188 101.401 75.6811 101.455C75.6811 101.291 75.6811 101.291 75.6811 101.182C75.6811 101.236 75.6263 101.236 75.6811 101.182Z" fill="black"/>
<path d="M72.6165 102.112C72.6165 102.002 72.6165 102.002 72.6712 101.893C72.6712 101.838 72.7259 101.784 72.7259 101.729C72.7806 101.619 72.8353 101.51 72.8901 101.4C72.9995 101.182 73.1637 101.017 73.3278 100.853C73.492 100.689 73.7109 100.58 73.9298 100.47C74.2581 100.361 74.5317 100.415 74.8053 100.47C75.7356 100.799 76.447 101.455 77.1037 102.057C78.417 103.316 79.5662 104.793 80.1681 106.599C80.4417 107.475 80.6606 108.35 80.8248 109.226C80.989 110.101 81.1531 110.977 81.2626 111.907C81.3173 112.345 81.3173 112.783 81.372 113.275C81.372 113.494 81.372 113.713 81.372 113.932C81.372 114.151 81.3173 114.424 81.2626 114.643C81.1531 115.136 80.7701 115.628 80.3323 115.902C79.8398 116.175 79.3473 116.285 78.8001 116.285C78.5812 116.285 78.3623 116.066 78.3623 115.847V115.792C78.4717 114.589 78.3623 113.275 78.1434 112.017C77.8698 110.758 77.5415 109.554 77.049 108.405C76.5565 107.256 75.9545 106.107 75.1884 105.067C74.8601 104.52 74.4223 104.027 73.9845 103.535C73.5467 103.097 73.0542 102.604 72.6165 102.112ZM72.7259 102.112L73.5467 102.659C73.8203 102.878 74.094 102.987 74.3128 103.206C74.8053 103.644 75.3526 104.082 75.7903 104.574C76.7206 105.559 77.4867 106.709 78.0887 107.912C78.6906 109.116 79.0737 110.484 79.2926 111.798C79.4567 113.166 79.5662 114.479 79.2926 115.902L78.9095 115.355C79.2379 115.409 79.6756 115.355 79.9492 115.19C80.2776 115.026 80.5512 114.807 80.6606 114.424C80.8248 114.096 80.8248 113.658 80.8795 113.166C80.9342 112.728 80.9342 112.29 80.8795 111.852C80.8248 110.977 80.6606 110.101 80.4417 109.226C80.1681 108.405 79.8398 107.529 79.4567 106.763C79.0737 105.997 78.5812 105.286 78.0887 104.574C77.5962 103.863 77.049 103.206 76.447 102.55C76.1734 102.221 75.8451 101.948 75.5167 101.619C75.1884 101.346 74.8601 101.072 74.5317 100.908C74.3676 100.853 74.2034 100.744 74.094 100.799C73.8751 100.853 73.7109 100.908 73.5467 101.017C73.3826 101.127 73.2184 101.236 73.0542 101.4C72.9995 101.455 72.8901 101.565 72.8353 101.619C72.7806 101.674 72.7806 101.729 72.7259 101.729C72.7806 102.002 72.7259 102.112 72.7259 102.112Z" fill="black"/>
<path d="M72.6713 102.167C72.4524 102.276 72.3429 102.331 72.1788 102.386C72.0693 102.386 71.9599 102.44 71.8504 102.386C71.741 102.331 71.6315 102.112 71.4674 102.112C71.3579 102.112 71.1938 102.221 71.139 102.331C71.0843 102.386 71.0843 102.495 71.0843 102.55C71.0843 102.605 71.0296 102.659 71.0296 102.714C70.9749 102.823 70.9201 102.933 70.8654 102.988C70.756 103.042 70.7013 103.152 70.5371 103.206C70.4276 103.261 70.2635 103.371 70.0446 103.425C69.9899 103.425 69.9899 103.425 69.9351 103.371C69.7163 102.988 69.771 102.605 69.9351 102.276C70.0446 102.112 70.2088 102.003 70.3729 101.893C70.5371 101.784 70.756 101.784 70.9201 101.784C71.139 101.784 71.3032 101.838 71.4126 101.729C71.5768 101.674 71.741 101.51 71.9052 101.401C72.0693 101.346 72.2882 101.401 72.3976 101.51C72.5618 101.62 72.6713 101.784 72.726 102.003C72.726 102.112 72.6713 102.167 72.6713 102.167Z" fill="black"/>
<path d="M73.5468 113.549C73.8752 113.658 74.094 113.822 74.2582 113.987C74.4771 114.151 74.6413 114.315 74.7507 114.534C74.8602 114.753 74.9696 115.026 75.1338 115.245C75.2979 115.409 75.5715 115.519 75.8452 115.519C76.1188 115.519 76.3377 115.519 76.6113 115.574C76.8302 115.574 77.0491 115.574 77.2679 115.628C77.7057 115.738 78.1435 115.738 78.8002 115.957C78.8549 115.957 78.8549 116.011 78.8549 116.011C78.4718 116.504 77.8699 116.777 77.2679 116.723C76.9396 116.723 76.666 116.613 76.3924 116.504C76.2829 116.449 76.1188 116.394 76.0093 116.285C75.8999 116.23 75.7904 116.066 75.681 115.957C75.5715 115.847 75.4621 115.738 75.3527 115.628C75.2432 115.519 75.1338 115.464 75.0243 115.409C74.8054 115.3 74.4771 115.245 74.2035 115.081C73.9299 114.917 73.7657 114.698 73.6563 114.424C73.5468 114.151 73.4374 113.877 73.4921 113.549C73.4921 113.549 73.4921 113.549 73.5468 113.549Z" fill="black"/>
<path d="M52.6976 116.121L57.1301 119.568L61.5626 122.961C63.0401 124.11 64.5176 125.259 66.1046 126.19C67.6915 127.12 69.4426 127.886 71.2485 128.269C72.124 128.488 73.0543 128.597 73.9299 128.543C74.8054 128.488 75.6262 128.269 76.4471 127.941C78.0888 127.229 79.4568 126.025 80.606 124.657C81.7551 123.289 82.7402 121.702 83.561 120.061C84.3818 118.419 85.0932 116.668 85.6404 114.862C85.6404 114.807 85.6952 114.807 85.6952 114.807L85.7499 114.862C85.531 116.723 85.0385 118.583 84.3271 120.389C83.6157 122.14 82.7402 123.891 81.4815 125.424C80.2776 126.956 78.6907 128.214 76.8301 128.926C75.9546 129.309 74.9149 129.528 73.9299 129.473C72.9448 129.473 71.9598 129.199 71.0843 128.926C70.154 128.652 69.2785 128.269 68.4576 127.831C67.5821 127.448 66.7612 127.01 65.9404 126.573C64.2987 125.697 62.6023 124.767 61.0154 123.727C59.4284 122.687 57.9509 121.483 56.5829 120.225C55.1601 118.966 53.8467 117.653 52.5881 116.175V116.121C52.6429 116.066 52.6429 116.066 52.6976 116.121Z" fill="black"/>
<path d="M41.808 156.451C45.3102 159.734 48.703 163.182 51.9864 166.739C53.628 168.49 55.215 170.351 56.7472 172.211C57.5133 173.141 58.2247 174.126 58.9361 175.111C59.5928 176.096 60.3042 177.081 61.0155 178.012C61.7269 178.942 62.5478 179.818 63.4781 180.419C64.4083 181.021 65.5575 181.295 66.7067 181.131C67.8558 180.967 68.9503 180.529 69.99 179.982C71.0297 179.434 72.0147 178.723 72.9997 178.012C76.7756 175.057 80.2231 171.664 83.2328 167.888C86.1878 164.112 88.705 160.008 90.5656 155.63C91.0034 154.536 91.4959 153.387 91.9884 152.292C92.262 151.745 92.4809 151.198 92.8092 150.651C93.0828 150.103 93.3565 149.556 93.6848 149.064C94.8887 146.929 96.3115 144.959 97.9531 143.099C101.127 139.378 105.122 136.313 109.5 134.234L112.728 132.647C113.275 132.373 113.823 132.1 114.315 131.826C114.808 131.552 115.355 131.224 115.683 130.841C115.847 130.677 115.957 130.349 116.121 130.13L116.613 129.364C116.942 128.871 117.215 128.324 117.434 127.777C117.653 127.229 117.763 126.627 117.598 126.135C117.38 125.588 116.778 125.314 116.23 125.259C116.176 125.259 116.176 125.205 116.176 125.205C116.176 125.15 116.23 125.15 116.23 125.15C116.559 125.205 116.832 125.259 117.106 125.369C117.38 125.533 117.653 125.752 117.763 126.025C118.036 126.627 117.872 127.284 117.708 127.886C117.544 128.488 117.27 129.035 116.996 129.582L116.559 130.403C116.395 130.677 116.285 130.95 116.066 131.224C115.628 131.771 115.081 132.045 114.534 132.373C113.987 132.702 113.494 132.975 112.947 133.304L109.773 135.055C105.505 137.189 101.784 140.308 98.7192 143.92C97.187 145.725 95.819 147.696 94.6151 149.72C94.2867 150.213 94.0678 150.76 93.7395 151.307C93.4659 151.854 93.1923 152.347 92.9734 152.894C92.4809 153.989 92.0431 155.083 91.5506 156.177C89.5806 160.61 86.9539 164.824 83.7253 168.435C82.1384 170.241 80.442 171.992 78.6361 173.634C76.885 175.276 75.0792 176.863 73.1639 178.395C72.1789 179.106 71.1939 179.818 70.1542 180.419C69.1145 181.021 67.9653 181.569 66.7067 181.788C66.1047 181.897 65.4481 181.897 64.7914 181.788C64.1347 181.678 63.5328 181.459 62.9855 181.131C61.8911 180.474 61.0155 179.544 60.1947 178.614C59.4286 177.683 58.7172 176.698 58.0058 175.713C57.2944 174.728 56.583 173.798 55.8716 172.868C54.3941 171.007 52.8072 169.147 51.2202 167.341C48.0463 163.729 44.8177 160.172 41.5891 156.561V156.506C41.7533 156.451 41.7533 156.451 41.808 156.451Z" fill="black"/>
<path d="M117.27 123.618C117.16 124.11 116.942 124.548 116.723 124.931C116.504 125.314 116.23 125.697 115.902 126.026C115.573 126.354 115.136 126.628 114.862 126.956C114.534 127.284 114.315 127.722 114.151 128.105C113.987 128.543 113.768 128.926 113.494 129.309C113.385 129.528 113.275 129.692 113.111 129.911C113.056 129.966 113.056 130.02 113.002 130.075C112.947 130.184 112.837 130.239 112.783 130.294C112.618 130.403 112.4 130.458 112.29 130.513C111.962 130.568 111.743 130.568 111.469 130.568C111.25 130.568 111.032 130.513 110.813 130.458C110.375 130.403 109.992 130.349 109.499 130.349C109.445 130.349 109.445 130.349 109.445 130.294V130.239C110.156 129.528 111.415 129.528 112.017 129.364C112.071 129.364 112.126 129.309 112.126 129.309C112.126 129.309 112.181 129.254 112.235 129.199C112.4 129.035 112.509 128.871 112.673 128.707C112.947 128.379 113.33 128.05 113.658 127.722C113.987 127.394 114.315 127.065 114.588 126.682C114.807 126.299 114.972 125.807 115.19 125.424C115.409 125.041 115.738 124.658 116.011 124.329C116.34 124.001 116.668 123.673 117.106 123.454C117.215 123.563 117.215 123.563 117.27 123.618Z" fill="black"/>
<path d="M107.748 126.956C107.912 126.518 108.186 126.19 108.46 125.862C108.733 125.533 109.007 125.26 109.39 125.041C109.773 124.822 110.156 124.658 110.484 124.439C110.813 124.165 111.086 123.837 111.305 123.508C111.524 123.125 111.743 122.797 111.962 122.469C112.236 122.086 112.509 121.757 112.892 121.484C113.275 121.21 113.768 120.991 114.26 120.991C114.753 120.991 115.245 121.155 115.628 121.484C115.628 121.484 115.628 121.538 115.628 121.593C115.628 121.593 115.628 121.593 115.574 121.593C114.643 121.648 114.151 121.976 113.604 122.469C113.33 122.688 113.056 122.961 112.728 123.235C112.564 123.344 112.4 123.563 112.236 123.673C112.071 123.782 111.852 123.946 111.688 124.056C111.305 124.275 110.977 124.548 110.703 124.822C110.43 125.15 110.211 125.533 109.937 125.862C109.664 126.19 109.335 126.409 108.952 126.682C108.569 126.901 108.186 127.12 107.748 127.23C107.803 127.011 107.748 127.011 107.748 126.956Z" fill="black"/>
<path d="M119.24 107.311C118.638 107.201 118.091 106.818 117.653 106.326C117.27 105.833 116.996 105.122 117.106 104.41L117.161 104.137L117.215 103.863C117.27 103.699 117.325 103.535 117.434 103.371C117.598 103.042 117.927 102.769 118.255 102.604C118.912 102.221 119.678 102.276 120.28 102.386C120.608 102.495 120.882 102.55 121.155 102.714C121.429 102.878 121.703 102.988 121.921 103.152C122.414 103.48 122.906 103.754 123.454 104.082C124.493 104.629 125.533 105.122 126.628 105.559C127.175 105.778 127.722 105.997 128.269 106.161C128.379 106.216 128.543 106.271 128.652 106.271C128.707 106.271 128.816 106.326 128.926 106.38C128.981 106.435 129.035 106.435 129.09 106.49L129.2 106.599C129.528 106.873 129.637 107.201 129.801 107.475C130.349 108.624 130.568 109.773 130.841 110.922C130.951 111.469 131.06 112.071 131.224 112.619C131.279 112.728 131.279 112.892 131.334 113.002L131.498 113.439C131.607 113.713 131.717 113.987 131.771 114.315C131.936 114.917 132.045 115.574 131.936 116.23C131.881 116.559 131.717 116.832 131.553 117.106C131.388 117.379 131.17 117.598 130.951 117.763H130.896V117.708C131.224 117.215 131.443 116.668 131.443 116.176C131.443 115.628 131.279 115.136 131.06 114.643C130.841 114.096 130.568 113.658 130.294 113.002C130.075 112.4 129.966 111.853 129.801 111.251L129.418 109.554C129.309 109.007 129.145 108.46 128.981 107.967C128.871 107.748 128.762 107.475 128.652 107.365L128.598 107.311C128.598 107.311 128.598 107.311 128.543 107.311C128.543 107.311 128.543 107.256 128.433 107.256C128.269 107.201 128.105 107.146 127.996 107.037C127.448 106.763 126.956 106.435 126.463 106.161C125.478 105.559 124.439 104.958 123.399 104.465C122.852 104.191 122.304 103.973 121.757 103.808C121.484 103.699 121.21 103.589 120.936 103.535C120.663 103.425 120.444 103.425 120.17 103.371C119.678 103.316 119.185 103.316 118.802 103.535C118.419 103.699 118.146 104.082 118.036 104.574C117.927 105.067 118.036 105.559 118.255 106.052C118.474 106.544 118.857 106.928 119.349 107.256C119.349 107.256 119.404 107.311 119.349 107.311C119.295 107.311 119.295 107.311 119.24 107.311Z" fill="black"/>
<path d="M119.24 127.886C118.802 126.956 118.2 126.135 117.653 125.314C117.106 124.439 116.559 123.618 116.121 122.633C116.066 122.523 116.011 122.414 115.957 122.25L115.792 121.921C115.683 121.702 115.574 121.484 115.464 121.265C115.191 120.827 114.972 120.389 114.698 119.897C114.424 119.459 114.206 118.966 113.987 118.474C113.822 117.927 113.768 117.325 113.987 116.777C114.206 116.23 114.698 115.683 115.409 115.574C116.066 115.464 116.723 115.738 117.215 116.066C117.708 116.449 118.036 116.777 118.419 117.106C118.802 117.434 119.131 117.817 119.514 118.2C120.936 119.732 122.195 121.319 123.344 123.071V123.125H123.289C121.648 121.867 120.17 120.444 118.693 118.966C118.364 118.583 117.981 118.255 117.653 117.872C117.325 117.489 116.942 117.106 116.613 116.832C116.285 116.559 115.902 116.394 115.574 116.394C115.245 116.394 114.862 116.613 114.589 116.996C114.37 117.379 114.26 117.872 114.37 118.31C114.479 118.802 114.753 119.24 115.026 119.623C115.3 120.061 115.628 120.444 116.011 120.827C116.176 121.046 116.34 121.21 116.504 121.429C116.613 121.538 116.668 121.648 116.723 121.757L116.942 122.086C117.489 122.961 117.981 123.837 118.419 124.767C118.638 125.259 118.857 125.697 119.021 126.19C119.185 126.682 119.349 127.175 119.349 127.722C119.349 127.941 119.295 127.941 119.24 127.886C119.24 127.941 119.24 127.941 119.24 127.886Z" fill="black"/>
<path d="M122.031 121.976C121.757 121.265 121.538 120.553 121.265 119.842C121.1 119.514 120.936 119.185 120.772 118.912C120.717 118.857 120.663 118.802 120.663 118.747C120.608 118.693 120.553 118.638 120.498 118.638L120.006 118.364C118.693 117.598 117.379 116.832 116.121 116.011C115.519 115.574 114.862 115.136 114.26 114.643C113.932 114.424 113.658 114.206 113.33 113.932C113.001 113.658 112.837 113.221 112.728 112.837C112.618 112.454 112.618 112.017 112.673 111.634C112.728 111.251 112.947 110.813 113.33 110.594C113.439 110.539 113.549 110.484 113.658 110.484C113.768 110.43 113.877 110.43 113.986 110.43C114.096 110.43 114.205 110.43 114.315 110.43L114.643 110.484C115.026 110.539 115.409 110.703 115.792 110.813C117.27 111.305 118.693 111.798 120.061 112.4C121.483 113.002 122.906 113.549 124.274 114.206C124.986 114.534 125.642 114.862 126.354 115.245C126.682 115.409 127.01 115.628 127.393 115.847C127.503 115.902 127.558 115.957 127.667 116.066C127.777 116.176 127.831 116.285 127.941 116.394C128.105 116.613 128.16 116.832 128.214 116.996C128.488 117.817 128.488 118.583 128.543 119.349C128.597 120.116 128.543 120.882 128.597 121.648C128.597 121.702 128.597 121.702 128.543 121.702C128.543 121.702 128.488 121.702 128.488 121.648C128.269 120.882 128.16 120.17 127.995 119.404C127.831 118.693 127.667 117.927 127.448 117.27C127.393 117.106 127.284 116.996 127.229 116.887C127.175 116.832 127.12 116.777 127.12 116.777C127.12 116.723 127.01 116.723 126.956 116.668C126.682 116.504 126.299 116.34 125.971 116.176L123.891 115.245C122.523 114.643 121.155 113.987 119.787 113.33C118.419 112.673 117.051 112.017 115.683 111.36C115.355 111.196 115.026 111.032 114.698 110.922C114.37 110.813 113.986 110.813 113.713 110.922C113.439 111.032 113.275 111.36 113.22 111.688C113.166 112.017 113.22 112.4 113.275 112.728C113.385 113.056 113.549 113.385 113.768 113.549C114.041 113.768 114.424 113.932 114.753 114.096L116.777 115.191C118.091 115.957 119.404 116.723 120.663 117.598C120.827 117.708 120.991 117.817 121.155 117.927C121.265 117.981 121.319 118.036 121.429 118.146C121.538 118.255 121.593 118.364 121.648 118.419C121.867 118.802 121.976 119.185 122.085 119.568C122.304 120.334 122.414 121.101 122.414 121.867C122.414 121.921 122.414 121.921 122.359 121.921C122.085 122.031 122.085 122.031 122.031 121.976Z" fill="black"/>
<path d="M115.628 111.086C115.081 110.813 114.753 110.211 114.589 109.663C114.424 109.062 114.424 108.46 114.643 107.858C114.753 107.584 114.917 107.256 115.19 107.037C115.464 106.818 115.792 106.654 116.121 106.654C116.449 106.599 116.777 106.654 117.106 106.708C117.434 106.763 117.653 106.873 117.981 106.982C120.17 107.693 122.414 108.35 124.603 109.116L126.244 109.663L127.065 109.937L127.503 110.101C127.612 110.156 127.831 110.265 127.995 110.375C128.597 110.867 128.871 111.415 129.145 111.962C129.418 112.509 129.637 113.056 129.801 113.604C130.184 114.698 130.458 115.847 130.786 116.942C130.95 117.489 131.06 118.036 131.224 118.583C131.279 118.857 131.388 119.13 131.498 119.349C131.607 119.623 131.717 120.006 131.717 120.334C131.771 121.046 131.443 121.702 131.06 122.195C130.677 122.687 130.184 123.125 129.692 123.454C129.582 123.563 129.418 123.618 129.309 123.727L129.09 123.837L128.926 123.946C128.762 124.055 128.652 124.274 128.543 124.548C128.433 124.822 128.324 125.15 128.16 125.424C127.995 125.697 127.722 125.916 127.503 126.08C127.229 126.244 126.956 126.409 126.737 126.518C126.463 126.627 126.244 126.792 125.971 126.901C125.478 127.175 124.986 127.503 124.493 127.777C123.508 128.379 122.578 129.09 121.593 129.692C121.429 129.801 121.319 130.075 121.265 130.349C121.155 130.622 121.1 130.896 121.046 131.169C120.936 131.717 120.882 132.319 120.827 132.866C120.717 134.015 120.608 135.164 120.553 136.313C120.444 138.612 120.444 140.965 120.444 143.263V146.765C120.444 147.914 120.444 149.064 120.389 150.267C120.28 152.621 119.787 154.974 119.021 157.217C118.638 158.312 118.2 159.406 117.653 160.501C117.106 161.54 116.504 162.58 115.847 163.565C115.136 164.55 114.424 165.48 113.549 166.301C112.728 167.122 111.907 167.943 110.977 168.709C110.101 169.475 109.171 170.241 108.131 170.843C107.584 171.171 107.037 171.445 106.435 171.609C105.833 171.828 105.176 171.883 104.465 171.828C103.808 171.719 103.152 171.39 102.659 170.953C102.44 170.734 102.221 170.46 102.002 170.241L101.455 169.584C100.744 168.654 100.032 167.779 99.321 166.794C97.9529 164.878 96.9132 162.689 96.366 160.391C95.8187 158.093 95.764 155.74 96.0376 153.441C96.0376 153.387 96.0924 153.387 96.0924 153.387C96.1471 153.387 96.1471 153.441 96.1471 153.441C96.0376 155.74 96.2565 158.093 96.9132 160.282C97.5699 162.471 98.6643 164.495 100.032 166.301C100.689 167.231 101.455 168.107 102.221 168.983L102.768 169.639C102.933 169.858 103.097 170.022 103.316 170.186C103.699 170.515 104.137 170.734 104.629 170.788C105.614 170.898 106.599 170.46 107.529 169.858C108.46 169.256 109.335 168.545 110.211 167.779C111.032 167.013 111.907 166.192 112.673 165.371C113.494 164.55 114.205 163.674 114.862 162.744C115.519 161.814 116.121 160.884 116.613 159.844C117.16 158.859 117.598 157.819 117.981 156.725C118.747 154.591 119.24 152.347 119.404 150.103C119.459 148.954 119.514 147.805 119.514 146.656C119.568 145.507 119.623 144.357 119.678 143.154C119.787 140.855 119.897 138.502 120.115 136.204C120.225 135.055 120.28 133.906 120.444 132.702C120.499 132.1 120.608 131.552 120.717 130.95C120.772 130.677 120.827 130.349 120.936 130.075C120.991 129.911 121.046 129.801 121.1 129.637C121.155 129.528 121.265 129.309 121.429 129.254C122.414 128.652 123.344 127.941 124.274 127.284C124.767 126.956 125.259 126.627 125.752 126.354C126.244 126.025 126.792 125.807 127.229 125.478C127.448 125.314 127.612 125.095 127.777 124.931C127.886 124.712 127.995 124.493 128.05 124.22C128.105 123.946 128.269 123.563 128.597 123.344L128.816 123.18L128.98 123.07C129.09 123.016 129.199 122.906 129.309 122.852C130.184 122.195 130.95 121.265 130.841 120.334C130.841 120.115 130.732 119.897 130.622 119.623C130.513 119.349 130.403 119.076 130.294 118.747C130.13 118.2 129.965 117.598 129.801 117.051C129.473 115.957 129.199 114.807 128.816 113.768C128.652 113.22 128.433 112.673 128.214 112.181C127.995 111.688 127.722 111.196 127.394 110.922C127.284 110.813 127.01 110.703 126.737 110.594L125.916 110.265L124.274 109.663L117.762 107.256C117.215 107.037 116.723 106.818 116.175 106.873C115.683 106.873 115.245 107.256 115.026 107.748C114.807 108.241 114.753 108.788 114.862 109.335C114.972 109.882 115.19 110.43 115.683 110.703C115.683 110.703 115.738 110.758 115.683 110.758C115.683 111.086 115.683 111.086 115.628 111.086Z" fill="black"/>
<path d="M109.554 134.726C109.499 135.876 109.28 137.025 109.007 138.119C108.733 139.214 108.46 140.308 108.077 141.402C107.31 143.591 106.052 145.507 104.793 147.422C104.465 147.914 104.137 148.352 103.754 148.79C103.589 149.009 103.37 149.228 103.152 149.447C102.987 149.666 102.769 149.884 102.604 150.103C101.948 150.979 101.346 151.909 100.908 152.894C99.9777 154.864 99.321 156.944 98.7191 159.187C98.7191 159.242 98.6643 159.242 98.6643 159.242C98.6643 159.242 98.6096 159.242 98.6096 159.187C98.4454 158.038 98.5002 156.834 98.7191 155.685C98.9379 154.536 99.321 153.387 99.8682 152.402C100.47 151.362 101.127 150.377 102.057 149.666C102.276 149.447 102.495 149.282 102.714 149.118C102.933 148.954 103.152 148.79 103.316 148.571C103.699 148.188 104.082 147.75 104.355 147.258C105.669 145.397 106.161 143.154 106.982 141.074C107.748 138.995 108.46 136.861 109.28 134.726C109.28 134.672 109.335 134.672 109.335 134.672C109.499 134.672 109.554 134.672 109.554 134.726Z" fill="black"/>
<path d="M114.643 117.379C114.807 117.161 114.972 116.942 115.136 116.778C115.3 116.613 115.464 116.449 115.574 116.34C115.683 116.176 115.902 116.121 116.121 116.23L116.23 116.285C116.777 116.559 116.942 117.215 117.27 117.653C117.434 117.872 117.653 118.091 117.762 118.419C117.817 118.583 117.872 118.857 117.762 119.076C117.708 119.185 117.653 119.24 117.544 119.349C117.489 119.459 117.434 119.459 117.379 119.514C117.161 119.678 116.832 119.897 116.394 119.951C115.957 120.006 115.464 119.787 115.245 119.514C114.972 119.24 114.862 118.966 114.753 118.693C114.643 118.419 114.643 118.091 114.643 117.817C114.643 117.763 114.698 117.763 114.698 117.763C114.698 117.763 114.698 117.763 114.753 117.763C115.245 118.091 115.628 118.529 115.957 118.693C116.121 118.802 116.176 118.802 116.285 118.802C116.394 118.802 116.613 118.802 116.832 118.693C116.887 118.693 116.942 118.638 116.996 118.638H117.051C117.106 118.638 117.161 118.583 117.161 118.529C117.215 118.31 117.106 118.091 116.942 117.872C116.777 117.653 116.504 117.544 116.285 117.434C116.011 117.325 115.792 117.215 115.628 117.051L116.285 116.996C116.066 117.215 115.792 117.325 115.574 117.379C115.464 117.434 115.3 117.434 115.191 117.434C115.081 117.434 114.917 117.434 114.753 117.434C114.643 117.434 114.643 117.434 114.643 117.379Z" fill="black"/>
<path d="M114.37 110.649C114.315 111.032 114.151 111.305 114.041 111.524C113.987 111.634 113.932 111.743 113.877 111.852C113.822 111.962 113.768 112.017 113.658 112.071L113.494 111.798C113.658 112.126 113.987 112.4 114.315 112.4C114.479 112.4 114.698 112.4 114.862 112.4C115.026 112.4 115.19 112.4 115.245 112.4C115.3 112.4 115.3 112.345 115.3 112.345H115.245C115.245 112.345 115.245 112.345 115.3 112.29C115.355 112.235 115.409 112.181 115.464 112.071C115.628 111.852 115.738 111.524 115.957 111.141C115.957 111.086 116.011 111.086 116.066 111.141C116.394 111.469 116.504 111.907 116.449 112.345C116.449 112.564 116.34 112.837 116.121 113.056C116.066 113.111 116.011 113.166 115.957 113.22C115.902 113.275 115.792 113.33 115.683 113.33C115.519 113.385 115.355 113.385 115.19 113.385C114.643 113.33 114.37 113.002 114.041 112.728C113.768 112.454 113.439 112.29 113.002 112.235C112.947 112.235 112.947 112.181 112.947 112.181L112.892 111.962C112.837 111.743 112.837 111.469 112.892 111.305C112.947 111.086 113.111 110.977 113.22 110.867C113.33 110.758 113.494 110.649 113.658 110.594C113.822 110.539 113.987 110.484 114.205 110.484C114.315 110.539 114.37 110.594 114.37 110.649C114.37 110.649 114.37 110.594 114.37 110.649Z" fill="black"/>
<path d="M116.832 106.928C116.887 107.256 116.832 107.529 116.723 107.803C116.668 107.913 116.613 108.022 116.558 108.131C116.504 108.241 116.34 108.296 116.23 108.35V107.913C116.23 108.022 116.285 108.186 116.394 108.296C116.504 108.405 116.668 108.405 116.832 108.405C116.996 108.405 117.106 108.296 117.27 108.241C117.379 108.186 117.543 108.131 117.653 108.077C117.872 107.967 118.145 107.858 118.419 107.803C118.693 107.748 119.021 107.694 119.404 107.694C119.459 107.694 119.459 107.748 119.459 107.748C119.349 108.131 119.13 108.405 118.857 108.679C118.583 108.898 118.255 109.062 117.817 109.062C117.653 109.062 117.434 109.062 117.27 109.007C117.106 108.952 116.887 108.843 116.723 108.788C116.558 108.679 116.394 108.624 116.23 108.569C116.066 108.514 115.902 108.514 115.628 108.405C115.573 108.35 115.573 108.296 115.573 108.296L115.628 107.967C115.628 107.803 115.683 107.694 115.738 107.584C115.792 107.475 115.902 107.365 116.011 107.311C116.23 107.146 116.449 106.982 116.777 106.928C116.777 106.873 116.832 106.873 116.832 106.928Z" fill="black"/>
<path d="M120.061 103.042C120.116 103.425 120.006 103.753 119.897 104.082C119.787 104.41 119.623 104.684 119.35 104.903L119.295 104.41C119.404 104.574 119.459 104.793 119.623 104.957C119.787 105.122 119.952 105.231 120.17 105.286C120.389 105.34 120.608 105.395 120.772 105.395C120.937 105.395 121.101 105.395 121.21 105.34C121.265 105.34 121.265 105.286 121.265 105.286C121.265 105.286 121.265 105.286 121.265 105.231L121.32 105.176C121.429 105.067 121.539 104.903 121.593 104.793C121.812 104.52 121.976 104.191 122.14 103.699C122.14 103.644 122.195 103.644 122.195 103.644C122.523 104.027 122.633 104.574 122.524 105.122C122.469 105.395 122.359 105.669 122.195 105.833C122.14 105.888 122.14 105.942 122.031 105.997C121.976 106.052 121.867 106.107 121.812 106.161C121.648 106.271 121.429 106.325 121.265 106.325C120.553 106.325 120.225 105.888 119.897 105.559C119.733 105.395 119.568 105.286 119.35 105.176C119.131 105.067 118.912 105.012 118.693 104.903C118.638 104.848 118.583 104.793 118.583 104.684L118.638 104.41C118.693 104.082 118.912 103.808 119.076 103.535C119.295 103.261 119.568 103.042 119.897 102.878C120.006 102.987 120.061 102.987 120.061 103.042Z" fill="black"/>
<path d="M119.349 102.769C119.623 102.221 119.733 101.674 119.733 101.182C119.733 100.634 119.514 100.142 119.185 99.8683C118.529 99.2116 117.434 99.54 116.613 100.197C116.394 100.361 116.23 100.525 116.011 100.744C115.793 100.963 115.574 101.127 115.355 101.346L114.041 102.495C113.166 103.261 112.29 104.082 111.524 104.903C109.992 106.654 108.624 108.514 107.201 110.375C106.873 110.813 106.544 111.36 106.216 111.798C105.888 112.29 105.45 112.728 105.067 113.166C104.191 113.987 103.316 114.753 102.386 115.464H102.331V115.409C102.878 114.37 103.644 113.439 104.301 112.509C104.629 112.071 104.957 111.579 105.341 111.141C105.669 110.703 106.052 110.266 106.435 109.773C107.912 107.912 109.664 106.38 111.305 104.739C112.126 103.918 112.892 103.042 113.658 102.112C114.041 101.674 114.424 101.236 114.808 100.799C114.972 100.58 115.191 100.361 115.409 100.142C115.628 99.923 115.847 99.7041 116.121 99.4852C116.613 99.1022 117.215 98.7739 117.927 98.6644C118.638 98.555 119.404 98.8286 119.897 99.3758C120.334 99.923 120.499 100.634 120.389 101.291C120.28 101.948 120.006 102.495 119.568 102.933H119.514C119.295 102.823 119.295 102.823 119.349 102.769Z" fill="black"/>
<path d="M97.5697 122.578C97.6792 122.742 97.7886 122.797 97.8433 122.797C97.9528 122.797 98.0622 122.797 98.2264 122.797C98.5 122.797 98.8283 122.742 99.1019 122.797C99.4303 122.852 99.7586 123.016 100.087 123.016C100.415 123.016 100.744 122.906 101.072 122.742C101.4 122.578 101.674 122.414 102.002 122.359C102.331 122.25 102.604 122.14 102.933 122.086C103.589 121.976 104.246 121.921 105.012 122.031C105.067 122.031 105.067 122.086 105.067 122.086C105.067 122.086 105.067 122.086 105.067 122.14C104.519 122.688 103.918 123.016 103.261 123.235C102.933 123.344 102.604 123.399 102.221 123.399C101.893 123.454 101.51 123.454 101.181 123.399C100.853 123.344 100.47 123.344 100.142 123.454C99.8133 123.508 99.485 123.727 99.1567 123.837C98.8283 123.891 98.4453 123.891 98.0622 123.727C97.8981 123.673 97.6792 123.563 97.515 123.344C97.4056 123.235 97.3508 123.125 97.3508 122.961C97.3508 122.852 97.4056 122.742 97.4603 122.633C97.4603 122.523 97.515 122.523 97.5697 122.578C97.5697 122.523 97.515 122.523 97.5697 122.578Z" fill="black"/>
<path d="M113.002 112.947C113.056 113.275 113.002 113.549 112.892 113.768C112.783 113.987 112.728 114.26 112.509 114.424C112.29 114.589 112.017 114.698 111.852 114.917C111.688 115.081 111.579 115.355 111.524 115.628C111.469 115.902 111.415 116.121 111.25 116.394C111.141 116.613 111.032 116.832 110.867 117.051C110.703 117.27 110.484 117.434 110.265 117.598C110.047 117.762 109.773 117.872 109.445 117.927C109.39 117.927 109.39 117.927 109.39 117.872C109.499 117.325 109.664 116.832 109.882 116.394C109.992 116.175 110.211 116.011 110.375 115.847C110.539 115.683 110.758 115.519 110.977 115.355C111.196 115.19 111.415 115.026 111.524 114.807C111.634 114.589 111.634 114.26 111.688 114.041C111.743 113.822 111.962 113.604 112.126 113.439C112.345 113.275 112.509 113.111 112.837 113.002C112.947 112.892 112.947 112.892 113.002 112.947Z" fill="black"/>
<path d="M117.215 100.087C116.887 100.197 116.613 100.415 116.395 100.744C116.23 101.017 116.121 101.346 115.957 101.674C115.902 101.729 115.902 101.838 115.847 101.893C115.793 101.948 115.683 102.167 115.793 101.948C115.793 101.893 115.738 102.112 115.793 102.221C115.847 102.495 115.957 102.878 116.176 103.097C116.395 103.316 116.723 103.425 117.051 103.37C117.325 103.316 117.598 103.042 117.872 102.823C118.091 102.604 118.31 102.385 118.474 102.112C118.638 101.893 118.802 101.565 118.857 101.346V101.455C118.857 101.291 118.857 101.072 118.802 100.908C118.748 100.744 118.748 100.58 118.638 100.415C118.529 100.251 118.31 100.142 118.091 100.032C117.981 99.9776 117.817 99.9776 117.708 99.9776C117.489 100.032 117.325 100.087 117.215 100.087ZM117.215 99.9776C117.325 99.9229 117.489 99.9229 117.598 99.8682C117.708 99.8135 117.872 99.8135 117.981 99.7587C118.255 99.704 118.583 99.6493 118.966 99.7587C119.295 99.8682 119.623 100.197 119.733 100.47C119.897 100.798 119.951 101.127 119.951 101.51C119.951 101.565 119.951 101.619 119.951 101.619C119.787 102.112 119.568 102.385 119.295 102.714C119.021 103.042 118.693 103.261 118.31 103.425C117.927 103.589 117.544 103.699 117.106 103.644C116.668 103.644 116.285 103.48 115.957 103.261C115.628 103.042 115.3 102.768 115.081 102.385C114.972 102.167 114.862 102.002 114.862 101.619C114.862 101.51 114.972 101.291 114.972 101.291L115.026 101.182C115.081 101.127 115.136 101.017 115.191 100.963C115.41 100.634 115.793 100.415 116.121 100.251C116.449 100.197 116.832 100.087 117.215 99.9776Z" fill="black"/>
<path d="M121.593 103.425C121.593 101.565 121.702 99.7041 121.812 97.8983C121.976 96.0377 122.14 94.2319 122.359 92.3713L122.578 91.0033L122.633 90.6749C122.633 90.5655 122.633 90.5108 122.633 90.456C122.633 90.2919 122.578 90.1277 122.468 90.0183C122.25 89.7447 121.867 89.6352 121.483 89.7447L120.17 90.1277C118.419 90.6749 116.668 91.3316 114.971 92.043C113.275 92.7544 111.524 93.4111 109.773 94.013L109.445 94.1224C109.335 94.1772 109.335 94.1772 109.28 94.2319C109.171 94.2866 109.116 94.3961 109.061 94.5055C109.061 94.5602 109.007 94.6149 109.007 94.6697V94.998L108.952 95.7094C108.897 96.6397 108.788 97.5699 108.733 98.4455C108.405 102.112 107.912 105.778 107.256 109.445C107.256 109.499 107.201 109.499 107.201 109.499L107.146 109.445C107.091 105.724 107.31 102.057 107.529 98.3908C107.584 97.4605 107.693 96.5302 107.748 95.6547L107.803 94.9433L107.858 94.6149C107.858 94.4508 107.912 94.2866 107.967 94.1224C108.076 93.7941 108.35 93.5205 108.624 93.3563C108.733 93.2469 108.952 93.1922 109.061 93.1374L109.39 93.028C111.141 92.4808 112.947 91.9335 114.698 91.441C116.504 90.9485 118.255 90.4013 120.006 89.7994L121.319 89.3069C121.812 89.088 122.468 89.1974 122.906 89.5805C123.125 89.7994 123.289 90.073 123.344 90.3466C123.399 90.5108 123.399 90.6202 123.399 90.7844V91.1127L123.344 92.4808C123.235 94.3413 122.961 96.1472 122.687 98.0077C122.414 99.8136 122.14 101.674 121.702 103.48C121.702 103.48 121.702 103.48 121.593 103.425C121.593 103.48 121.648 103.48 121.593 103.425Z" fill="black"/>
<path d="M125.041 105.176C124.822 104.848 124.767 104.574 124.658 104.246C124.603 103.972 124.548 103.644 124.548 103.37C124.603 103.097 124.712 102.769 124.658 102.44C124.658 102.167 124.493 101.838 124.274 101.674C124.165 101.565 124.056 101.565 124.001 101.51C123.946 101.51 123.946 101.51 123.891 101.51C123.837 101.51 123.782 101.51 123.672 101.51C123.399 101.51 123.18 101.51 123.016 101.51C122.852 101.51 122.687 101.565 122.469 101.674C122.25 101.784 122.031 102.002 121.812 102.276C121.812 102.276 121.757 102.331 121.702 102.276C121.593 101.948 121.593 101.565 121.757 101.182C121.921 100.799 122.304 100.525 122.742 100.415C123.18 100.306 123.563 100.415 123.891 100.525L124.165 100.634C124.22 100.689 124.384 100.744 124.493 100.853C124.658 101.017 124.767 101.236 124.822 101.4C124.931 101.784 124.931 102.057 125.041 102.385C125.15 102.659 125.369 102.987 125.478 103.261C125.588 103.589 125.533 103.918 125.533 104.191C125.478 104.52 125.369 104.848 125.15 105.122C125.095 105.231 125.095 105.231 125.041 105.176Z" fill="black"/>
<path d="M107.31 108.131C107.31 107.748 107.201 107.31 107.092 106.927C106.982 106.544 106.763 106.161 106.49 105.888C106.216 105.614 105.833 105.505 105.505 105.559C105.34 105.559 105.122 105.614 104.957 105.669C104.793 105.723 104.629 105.833 104.52 105.997C103.972 106.544 103.535 107.256 103.097 107.912C102.659 108.624 102.276 109.335 101.783 110.101C101.674 110.265 101.51 110.484 101.346 110.648C101.182 110.813 100.963 110.977 100.798 111.086C100.47 111.305 100.197 111.579 99.9229 111.907C99.3757 112.509 98.8832 113.166 98.336 113.822C97.8435 114.479 97.3509 115.136 97.0226 115.847C96.6943 116.558 96.5301 117.379 96.4754 118.2C96.4207 119.021 96.4754 119.842 96.5301 120.717C96.5848 121.648 96.2565 122.468 95.9829 123.235C95.3809 124.822 94.5601 126.299 93.6846 127.777C91.9882 130.677 90.1276 133.522 88.2123 136.313C86.297 139.049 84.2723 141.785 82.1381 144.412C81.6456 145.069 81.0984 145.78 80.4965 146.382C79.8945 146.984 79.2926 147.586 78.6906 148.188C77.432 149.337 76.1734 150.432 74.9148 151.526C72.3428 153.715 69.7709 155.849 67.2537 158.038C65.995 159.132 64.7912 160.282 63.642 161.54C62.5475 162.744 61.3984 164.057 60.8511 165.644C60.8511 165.699 60.7964 165.699 60.7964 165.699L60.7417 165.644C60.9059 164.824 61.2889 164.003 61.7267 163.291C62.1645 162.58 62.657 161.869 63.2042 161.212C64.2987 159.899 65.4478 158.64 66.6517 157.491C69.0595 155.138 71.6314 152.894 74.1487 150.705C75.4073 149.611 76.6659 148.516 77.9245 147.367C78.5265 146.82 79.1284 146.218 79.7304 145.671C80.3323 145.069 80.8248 144.467 81.372 143.81C83.5062 141.184 85.5856 138.557 87.6104 135.875C89.6351 133.194 91.6051 130.513 93.4109 127.667C94.2865 126.244 95.1073 124.767 95.7093 123.235C95.9829 122.468 96.2565 121.648 96.2018 120.882C96.0923 120.061 96.0376 119.185 96.0376 118.364C96.0376 117.489 96.1471 116.613 96.4207 115.792C96.6943 114.972 97.1868 114.205 97.6246 113.494C97.8434 113.111 98.1171 112.783 98.336 112.454C98.6096 112.126 98.8285 111.743 99.1568 111.415C99.4304 111.086 99.8134 110.758 100.142 110.484C100.47 110.265 100.689 110.047 100.963 109.718C101.455 109.116 101.893 108.35 102.385 107.639C102.878 106.927 103.37 106.271 104.082 105.669C104.246 105.505 104.465 105.395 104.684 105.34C104.957 105.286 105.176 105.231 105.395 105.231C105.888 105.231 106.38 105.45 106.654 105.778C106.982 106.107 107.146 106.544 107.201 106.982C107.31 107.42 107.31 107.858 107.256 108.241C107.256 108.295 107.201 108.295 107.201 108.295C107.31 108.186 107.31 108.186 107.31 108.131Z" fill="black"/>
<path d="M103.042 170.624C103.59 171.719 104.082 172.813 104.52 173.908C104.958 175.002 105.45 176.151 105.833 177.3C106.654 179.599 107.365 181.897 107.749 184.305C107.913 185.509 108.022 186.767 107.858 188.026C107.749 188.683 107.53 189.339 107.037 189.886C106.928 190.051 106.764 190.16 106.654 190.27C106.49 190.379 106.326 190.488 106.216 190.543L105.341 190.926C104.192 191.419 103.042 191.747 101.839 192.021C101.237 192.185 100.635 192.294 100.087 192.404C99.4855 192.513 98.8835 192.623 98.2816 192.732C93.5207 193.553 88.7052 193.936 83.9443 194.538C81.5365 194.812 79.1835 195.14 76.8304 195.578C76.2285 195.687 75.6265 195.797 75.0793 195.906L74.2037 196.125L73.3282 196.398C72.7809 196.563 72.1243 196.782 71.5223 196.836C71.194 196.891 70.9204 196.891 70.5921 196.891C70.2637 196.891 69.9901 196.891 69.6618 196.891C67.1993 196.836 64.7915 196.398 62.4384 195.851C60.0854 195.304 57.7323 194.702 55.434 193.991C53.1356 193.279 50.8373 192.513 48.5937 191.638C47.4445 191.2 46.3501 190.762 45.2009 190.324C44.1064 189.832 42.9573 189.394 41.8628 188.792C41.5892 188.628 41.3156 188.464 41.042 188.245C40.9873 188.19 40.8231 188.081 40.7684 187.971C40.7137 187.862 40.6589 187.807 40.6042 187.698C40.5495 187.588 40.4948 187.533 40.4948 187.424L40.44 187.15C40.2759 186.494 40.2759 185.837 40.2759 185.235C40.2759 183.976 40.3853 182.773 40.5495 181.569C40.8778 179.161 41.3156 176.808 41.8081 174.4C42.7931 169.694 43.9423 164.988 45.3103 160.391C45.3103 160.336 45.3651 160.336 45.3651 160.336C45.4198 160.336 45.4198 160.391 45.4198 160.391C44.4348 165.097 43.5045 169.803 42.6837 174.564C42.3006 176.917 41.9175 179.325 41.6439 181.678C41.5345 182.882 41.425 184.031 41.425 185.235C41.425 185.837 41.4798 186.384 41.5892 186.877L41.6439 187.041C41.6439 187.096 41.6987 187.15 41.6987 187.205C41.6987 187.26 41.7534 187.315 41.7534 187.315C41.7534 187.315 41.7534 187.315 41.8081 187.369C41.9723 187.479 42.2459 187.643 42.5195 187.807C44.5989 188.901 46.8426 189.777 49.0862 190.653C51.3298 191.528 53.5734 192.349 55.8717 193.06C58.1701 193.827 60.4684 194.483 62.7668 195.085C65.0651 195.632 67.4182 196.18 69.7712 196.344C70.0448 196.344 70.3732 196.344 70.6468 196.398C70.9204 196.398 71.2487 196.398 71.5223 196.344C72.1243 196.289 72.6168 196.125 73.2187 196.015L74.0943 195.797L74.9698 195.632C75.5718 195.523 76.1737 195.413 76.7757 195.304C79.1835 194.921 81.5365 194.593 83.9443 194.264C86.3521 193.936 88.7052 193.608 91.1129 193.225C93.466 192.842 95.8738 192.458 98.2268 191.966C100.58 191.473 102.933 190.981 105.067 190.105L105.888 189.777C106.052 189.722 106.107 189.668 106.216 189.613C106.326 189.558 106.38 189.449 106.49 189.394C106.818 189.066 106.982 188.518 107.092 188.026C107.311 186.931 107.256 185.728 107.092 184.578C106.764 182.225 106.162 179.927 105.45 177.629C104.739 175.33 103.973 173.087 103.097 170.843C103.097 170.788 103.097 170.788 103.152 170.788C102.988 170.57 103.042 170.624 103.042 170.624Z" fill="black"/>
<path d="M41.2061 187.698C41.1514 188.847 41.042 189.996 40.8778 191.145C40.7136 192.294 40.5495 193.389 40.2759 194.538C40.0023 195.632 39.6192 196.727 39.455 197.876C39.2361 199.025 39.1267 200.12 39.072 201.269C39.0173 202.418 38.9625 203.567 38.8531 204.716L38.6342 208.109C38.47 210.353 38.2511 212.651 38.1964 214.949C38.1964 215.004 38.1964 215.004 38.1417 215.004C38.1417 215.004 38.087 215.004 38.087 214.949C37.9228 214.402 37.8134 213.8 37.7039 213.253C37.6492 212.651 37.5945 212.104 37.5398 211.502C37.485 210.353 37.4303 209.203 37.5398 208C37.5945 206.85 37.7586 205.701 37.9228 204.552C38.087 203.403 38.3059 202.254 38.5795 201.159C38.7984 200.01 39.072 198.916 39.1814 197.766C39.3456 196.617 39.3456 195.468 39.5098 194.319C39.6739 193.17 39.8928 192.075 40.1664 190.926C40.44 189.832 40.7684 188.683 41.2061 187.643C41.1514 187.643 41.1514 187.588 41.2061 187.698C41.2061 187.643 41.2061 187.643 41.2061 187.698Z" fill="black"/>
<path d="M106.161 190.051C106.599 191.036 106.928 192.021 107.256 193.06C107.42 193.553 107.53 194.1 107.639 194.593C107.748 195.085 107.858 195.632 107.913 196.125C108.077 197.165 108.077 198.259 108.186 199.299C108.296 200.338 108.569 201.378 108.788 202.418C109.062 203.458 109.281 204.497 109.39 205.537L109.609 207.124C109.664 207.671 109.718 208.164 109.718 208.711C109.773 210.845 109.718 212.979 109.171 215.059C109.171 215.114 109.116 215.114 109.116 215.114C109.116 215.114 109.062 215.114 109.062 215.059L108.515 208.82C108.46 207.781 108.405 206.741 108.296 205.701L108.186 204.114L108.131 202.527C108.077 201.98 108.077 201.488 108.022 200.94C107.967 200.448 107.858 199.901 107.748 199.408C107.53 198.368 107.201 197.383 106.928 196.398C106.654 195.359 106.49 194.374 106.326 193.334C106.161 192.294 106.052 191.255 105.997 190.215C106.052 190.051 106.052 189.996 106.161 190.051C106.161 190.051 106.107 189.996 106.161 190.051Z" fill="black"/>
<path d="M83.5611 91.1675C84.6555 90.9487 85.8047 90.8392 86.8991 90.7845C87.9936 90.7298 89.1427 90.7298 90.2372 90.8939C90.7844 90.9487 91.3316 91.0581 91.8789 91.0581C92.4261 91.1128 92.9733 91.1128 93.5205 91.0581C94.615 91.0034 95.7641 90.8392 96.8586 90.7298L97.2964 90.675H97.5153H97.7889C98.1172 90.7298 98.4455 90.7845 98.7191 90.8939C99.2664 91.1128 99.8136 91.3317 100.306 91.6053C100.799 91.8789 101.291 92.1526 101.784 92.4262C102.276 92.7545 102.714 93.0281 103.206 93.3564C105.012 94.6698 106.763 96.0926 108.296 97.6795V97.7342H108.241C106.326 96.5851 104.465 95.3812 102.604 94.232C102.167 93.9584 101.674 93.6301 101.182 93.3564C100.744 93.0828 100.251 92.8092 99.7589 92.5356C99.2664 92.262 98.8286 91.9884 98.3361 91.8242C98.1172 91.7148 97.8436 91.66 97.6794 91.6053H97.5153H97.2964H96.8586C95.7641 91.5506 94.615 91.3864 93.5205 91.3317C92.9733 91.277 92.4261 91.277 91.8789 91.3317C91.3316 91.3317 90.7844 91.4412 90.2372 91.4959C89.1427 91.6601 87.9936 91.66 86.8991 91.6053C85.8047 91.5506 84.6555 91.4412 83.5611 91.1675C83.5063 91.2223 83.5063 91.277 83.5611 91.1675C83.5063 91.1675 83.5063 91.1675 83.5611 91.1675Z" fill="black"/>
<path d="M113.658 97.8436C113.658 98.1719 113.658 98.555 113.494 98.938C113.33 99.3211 112.837 99.5947 112.4 99.4853C111.962 99.4305 111.634 99.0475 111.415 98.7739C111.196 98.5003 110.977 98.1719 110.867 97.7889C110.594 96.968 111.415 95.9283 112.4 95.983C112.619 95.983 112.892 96.0378 113.056 96.1472C113.275 96.2566 113.385 96.4208 113.494 96.6397C113.713 97.1322 113.658 97.5153 113.658 97.8436ZM113.549 97.8436C113.549 97.5153 113.275 97.2964 113.002 97.2416C112.728 97.1869 112.564 97.1869 112.4 97.2416C112.236 97.2416 112.071 97.2964 111.907 97.3511C111.743 97.4605 111.579 97.6247 111.469 97.8436C111.36 98.0625 111.415 98.3908 111.634 98.555C111.852 98.7191 112.181 98.6644 112.345 98.555C112.564 98.5003 112.673 98.4455 112.947 98.3908C113.275 98.3908 113.604 98.1719 113.549 97.8436Z" fill="black"/>
<path d="M105.067 105.341C105.505 105.669 105.724 106.216 105.778 106.763C105.778 107.037 105.724 107.311 105.614 107.584C105.505 107.858 105.341 108.022 105.177 108.241C105.012 108.46 104.903 108.679 104.629 108.898C104.41 109.116 104.082 109.171 103.754 109.116C103.152 109.007 102.714 108.569 102.495 108.077V108.022C102.988 108.241 103.425 108.46 103.808 108.569C104.027 108.624 104.192 108.624 104.41 108.569C104.629 108.514 104.848 108.405 105.012 108.186C105.341 107.748 105.286 107.256 105.286 106.818C105.286 106.38 105.177 105.888 105.067 105.341C105.012 105.341 105.012 105.395 105.067 105.341Z" fill="black"/>
<path d="M131.717 162.635C133.53 162.635 135 161.165 135 159.351C135 157.538 133.53 156.068 131.717 156.068C129.903 156.068 128.433 157.538 128.433 159.351C128.433 161.165 129.903 162.635 131.717 162.635Z" fill="#F089C0"/>
<path d="M129.254 138.721C130.372 138.721 131.279 137.815 131.279 136.696C131.279 135.578 130.372 134.672 129.254 134.672C128.136 134.672 127.229 135.578 127.229 136.696C127.229 137.815 128.136 138.721 129.254 138.721Z" fill="#77F169"/>
<path d="M91.4957 71.3579C93.3091 71.3579 94.7791 69.8879 94.7791 68.0746C94.7791 66.2613 93.3091 64.7913 91.4957 64.7913C89.6824 64.7913 88.2124 66.2613 88.2124 68.0746C88.2124 69.8879 89.6824 71.3579 91.4957 71.3579Z" fill="#F089C0"/>
<path d="M126.956 69.1689C129.585 69.1689 131.717 67.0374 131.717 64.4081C131.717 61.7787 129.585 59.6472 126.956 59.6472C124.327 59.6472 122.195 61.7787 122.195 64.4081C122.195 67.0374 124.327 69.1689 126.956 69.1689Z" fill="#77F169"/>
<path d="M60.5776 34.475C63.0558 34.475 65.0648 32.4659 65.0648 29.9877C65.0648 27.5095 63.0558 25.5005 60.5776 25.5005C58.0993 25.5005 56.0903 27.5095 56.0903 29.9877C56.0903 32.4659 58.0993 34.475 60.5776 34.475Z" fill="#FAE058"/>
<path d="M14.7203 63.0949C15.6572 63.0949 16.4167 62.3354 16.4167 61.3985C16.4167 60.4616 15.6572 59.7021 14.7203 59.7021C13.7834 59.7021 13.0239 60.4616 13.0239 61.3985C13.0239 62.3354 13.7834 63.0949 14.7203 63.0949Z" fill="#77F169"/>
<path d="M25.6646 45.8025C30.7722 45.8025 34.9127 41.662 34.9127 36.5545C34.9127 31.4469 30.7722 27.3064 25.6646 27.3064C20.557 27.3064 16.4165 31.4469 16.4165 36.5545C16.4165 41.662 20.557 45.8025 25.6646 45.8025Z" fill="#F089C0"/>
<path d="M2.24362 103.535C3.48273 103.535 4.48723 102.53 4.48723 101.291C4.48723 100.052 3.48273 99.0474 2.24362 99.0474C1.0045 99.0474 0 100.052 0 101.291C0 102.53 1.0045 103.535 2.24362 103.535Z" fill="#0049E5"/>
<path d="M10.5616 123.618C12.3145 123.618 13.7355 122.197 13.7355 120.444C13.7355 118.691 12.3145 117.27 10.5616 117.27C8.8087 117.27 7.3877 118.691 7.3877 120.444C7.3877 122.197 8.8087 123.618 10.5616 123.618Z" fill="#77F169"/>
<path d="M20.1924 108.077C21.0689 108.077 21.7794 107.366 21.7794 106.49C21.7794 105.613 21.0689 104.903 20.1924 104.903C19.316 104.903 18.6055 105.613 18.6055 106.49C18.6055 107.366 19.316 108.077 20.1924 108.077Z" fill="#77F169"/>
<path d="M16.1976 160.938C17.5274 160.938 18.6054 159.86 18.6054 158.531C18.6054 157.201 17.5274 156.123 16.1976 156.123C14.8678 156.123 13.7898 157.201 13.7898 158.531C13.7898 159.86 14.8678 160.938 16.1976 160.938Z" fill="#F089C0"/>
<path d="M53.7373 8.53669C56.0947 8.53669 58.0057 6.62568 58.0057 4.26834C58.0057 1.911 56.0947 0 53.7373 0C51.38 0 49.469 1.911 49.469 4.26834C49.469 6.62568 51.38 8.53669 53.7373 8.53669Z" fill="#0049E5"/>
<path d="M87.9936 53.5732C89.263 53.5732 90.292 52.5442 90.292 51.2749C90.292 50.0056 89.263 48.9766 87.9936 48.9766C86.7243 48.9766 85.6953 50.0056 85.6953 51.2749C85.6953 52.5442 86.7243 53.5732 87.9936 53.5732Z" fill="#77F169"/>
<path d="M91.4957 25.1722C93.3091 25.1722 94.7791 23.7021 94.7791 21.8888C94.7791 20.0755 93.3091 18.6055 91.4957 18.6055C89.6824 18.6055 88.2124 20.0755 88.2124 21.8888C88.2124 23.7021 89.6824 25.1722 91.4957 25.1722Z" fill="#77F169"/>
<path d="M111.469 50.1256C112.678 50.1256 113.658 49.1456 113.658 47.9367C113.658 46.7278 112.678 45.7478 111.469 45.7478C110.26 45.7478 109.28 46.7278 109.28 47.9367C109.28 49.1456 110.26 50.1256 111.469 50.1256Z" fill="#0049E5"/>
</svg>
