<svg width="299" height="162" viewBox="0 0 299 162" fill="none" xmlns="http://www.w3.org/2000/svg">
<path d="M179.371 35.0063C171.01 34.6287 170.417 33.9275 174.408 45.4707C178.4 57.0139 163.513 68.1257 159.683 75.084C155.853 82.0423 163.728 77.9968 164.106 80.532C164.483 83.0132 166.102 139.543 166.102 139.543C166.102 139.543 220.15 142.132 222.146 137.223C224.141 132.315 214.324 122.605 214.324 122.605C214.324 122.605 223.602 103.025 217.83 91.6976C212.059 80.4241 189.026 56.2048 189.026 56.2048C189.026 56.2048 193.773 43.5288 193.611 40.0767C193.395 36.5166 179.371 35.0063 179.371 35.0063Z" fill="#ECCEFF"/>
<path d="M227.432 98.2795V103.134H231.37L230.237 107.018L228.727 109.014L229.374 116.781L227.378 119.1V122.607H231.316V126.275L227.378 128.486C227.378 128.486 226.083 134.042 227.378 133.179C228.673 132.316 266.053 132.316 266.053 132.316V128.702L267.564 127.461V123.793L264.759 123.362V117.752H266.053L264.759 108.043H268.696L295.613 133.287L298.633 128.972L272.688 102.109L269.883 106.209L268.642 103.188H264.705V98.3334H227.432V98.2795Z" fill="#FAE058"/>
<path d="M139.617 77.5125L100.78 85.9272L111.352 155.996C111.352 155.996 128.559 147.905 129.368 148.174C130.178 148.444 164.106 151.195 164.484 150.656C164.861 150.116 165.778 83.3381 164.484 82.9605C163.189 82.6368 151.484 81.558 151.484 81.558L150.621 78.2677L140.049 79.0228L139.617 77.5125Z" fill="#77F169"/>
<path d="M150.081 80.5862C152.077 80.4783 154.073 80.4244 156.069 80.3705L162.056 80.2626C162.272 80.2626 162.434 80.4244 162.434 80.6402C162.488 83.5529 162.488 86.4657 162.542 89.3785C162.542 92.2913 162.542 95.2041 162.488 98.1169C162.38 103.942 162.164 109.768 162.218 115.594C162.218 121.419 162.434 127.245 162.488 133.07L162.595 141.809C162.595 144.721 162.649 147.634 162.649 150.547C162.649 150.871 162.38 151.14 162.056 151.14C159.575 151.14 157.04 151.14 154.558 151.086L147.061 150.978C144.579 150.978 142.044 150.871 139.563 150.817C137.082 150.763 134.547 150.655 132.065 150.601C132.011 150.601 132.011 150.601 132.011 150.547C132.011 150.493 132.011 150.493 132.065 150.493C134.547 150.385 137.082 150.331 139.563 150.277C142.044 150.223 144.579 150.169 147.061 150.115L154.558 150.007C157.04 150.007 159.575 149.954 162.056 149.954L161.463 150.547C161.463 147.634 161.463 144.721 161.517 141.809L161.625 133.07C161.679 127.245 161.894 121.419 161.894 115.594C161.948 109.768 161.786 103.942 161.625 98.1169C161.571 95.2041 161.571 92.2913 161.571 89.3785C161.571 86.4657 161.625 83.5529 161.679 80.6402L162.056 81.0177L156.069 80.9099C154.073 80.8559 152.077 80.802 150.081 80.6941C150.081 80.6941 150.027 80.6402 150.081 80.5862Z" fill="black"/>
<path d="M156.015 148.121C156.608 147.959 157.256 147.852 157.849 147.798C158.442 147.744 159.09 147.69 159.683 147.69L159.197 148.175C159.197 147.474 159.251 146.719 159.359 146.018C159.467 145.316 159.521 144.561 159.467 143.86C159.413 143.159 159.305 142.404 159.251 141.702C159.197 141.001 159.143 140.246 159.09 139.545L160.06 139.922C159.737 140.354 159.413 140.731 159.09 141.109C158.766 141.487 158.388 141.864 158.011 142.242C157.256 142.997 156.5 143.698 155.691 144.345H155.637V144.291C156.123 143.321 156.716 142.458 157.31 141.648C157.633 141.217 157.903 140.785 158.227 140.408C158.55 139.976 158.874 139.599 159.251 139.221L159.305 139.167C159.521 138.951 159.845 138.951 160.06 139.113C160.168 139.221 160.222 139.383 160.222 139.545C160.168 140.246 160.168 141.001 160.06 141.702C159.953 142.404 159.845 143.159 159.845 143.86C159.791 144.561 159.845 145.316 159.953 146.018C160.06 146.719 160.168 147.474 160.114 148.175V148.229C160.114 148.499 159.899 148.715 159.629 148.661C159.036 148.661 158.388 148.607 157.795 148.553C157.202 148.499 156.554 148.391 155.961 148.229C156.015 148.229 155.961 148.175 156.015 148.121Z" fill="black"/>
<path d="M159.683 82.961C159.845 84.2555 160.007 85.658 160.06 87.1683C160.114 87.9235 160.114 88.6786 160.114 89.4338C160.114 90.189 160.007 90.9441 159.953 91.6993V91.7533C159.953 91.9151 159.791 92.0229 159.629 92.0229C159.521 92.0229 159.467 91.969 159.413 91.9151C158.874 91.106 158.28 90.4047 157.687 89.6496C157.04 88.9483 156.392 88.2471 155.745 87.5998C155.044 86.9526 154.451 86.2513 153.803 85.5501C153.156 84.8489 152.509 84.1477 151.915 83.4464C151.7 83.1767 151.754 82.8531 151.969 82.6373C152.077 82.5294 152.185 82.5294 152.347 82.5294C152.994 82.5294 153.642 82.5834 154.289 82.5834C154.936 82.6373 155.583 82.6373 156.177 82.6913C157.417 82.6913 158.604 82.7991 159.683 82.961ZM159.629 83.0149C158.28 83.1767 157.04 83.2846 155.853 83.3925C155.26 83.4464 154.666 83.5004 154.073 83.5004C153.48 83.5004 152.94 83.5543 152.347 83.5543L152.778 82.5834C153.372 83.2846 153.965 84.0398 154.559 84.7949C155.152 85.5501 155.745 86.3053 156.285 87.0604C156.824 87.8156 157.363 88.6247 157.957 89.3259C158.55 90.0811 159.197 90.7823 159.845 91.4296L159.359 91.5914C159.305 90.8902 159.197 90.189 159.197 89.4878C159.143 88.7865 159.197 88.0853 159.251 87.3841C159.305 86.0895 159.467 84.6331 159.629 83.0149Z" fill="black"/>
<path d="M138.862 79.9905C140.696 79.7208 142.53 79.559 144.364 79.3432L149.92 78.7499C150.135 78.7499 150.297 78.8578 150.297 79.0735C150.89 84.8452 151.484 90.6707 151.915 96.4423C152.347 102.268 152.617 108.093 153.156 113.865C153.641 119.691 154.289 125.462 154.936 131.234C155.529 137.006 156.069 142.831 156.608 148.603C156.662 148.926 156.392 149.196 156.123 149.196C150.243 149.735 144.364 150.221 138.43 150.652L134.007 150.976L129.584 151.246C126.617 151.462 123.704 151.623 120.738 151.785C120.684 151.785 120.684 151.785 120.684 151.731C120.684 151.677 120.684 151.677 120.738 151.677C123.651 151.3 126.617 150.976 129.53 150.652L133.953 150.167L138.376 149.735C144.256 149.142 150.135 148.603 156.015 148.063L155.475 148.657C154.99 142.831 154.558 137.059 154.127 131.234C153.749 125.408 153.372 119.637 152.832 113.811C152.347 107.986 151.592 102.214 150.998 96.4423C150.405 90.6707 149.973 84.8452 149.596 79.0196L149.973 79.3432L144.418 79.7208C142.584 79.8287 140.696 79.9366 138.862 79.9905C138.808 79.9905 138.808 79.9905 138.808 79.9366C138.808 79.9905 138.862 79.9905 138.862 79.9905Z" fill="black"/>
<path d="M146.198 147.094C146.791 146.879 147.384 146.771 147.978 146.663C148.571 146.555 149.164 146.447 149.758 146.393C150.351 146.339 150.944 146.285 151.592 146.285C152.185 146.285 152.832 146.339 153.426 146.339L153.21 146.555C153.21 145.854 153.156 145.099 153.048 144.397C152.94 143.696 152.778 142.995 152.617 142.24C152.509 141.538 152.401 140.783 152.293 140.082C152.185 139.381 152.131 138.626 152.077 137.924L153.102 138.194C152.617 138.895 152.077 139.543 151.538 140.19C150.998 140.837 150.405 141.485 149.758 142.078H149.704V142.024C150.027 141.215 150.459 140.46 150.891 139.705C151.322 138.949 151.754 138.248 152.239 137.547C152.401 137.277 152.778 137.223 152.994 137.385C153.156 137.493 153.21 137.655 153.264 137.763V137.817C153.372 138.518 153.372 139.273 153.426 139.974C153.48 140.675 153.48 141.431 153.48 142.132C153.48 142.833 153.426 143.588 153.426 144.289C153.426 144.991 153.48 145.746 153.642 146.447C153.642 146.555 153.588 146.663 153.48 146.663H153.426C152.832 146.771 152.239 146.933 151.646 147.04C151.052 147.148 150.459 147.202 149.812 147.256C149.218 147.31 148.571 147.31 147.978 147.31C147.384 147.31 146.737 147.256 146.144 147.202C146.198 147.202 146.144 147.202 146.198 147.094C146.144 147.148 146.198 147.148 146.198 147.094Z" fill="black"/>
<path d="M147.816 81.5571C148.14 82.7977 148.355 84.2541 148.571 85.7105C148.679 86.4657 148.787 87.2208 148.787 87.976C148.841 88.7312 148.787 89.4863 148.841 90.2415V90.2954C148.841 90.4573 148.733 90.5651 148.571 90.5651C148.463 90.5651 148.409 90.5112 148.355 90.4573C147.762 89.7021 147.115 89.0009 146.413 88.3536C145.712 87.7063 145.011 87.113 144.256 86.4657C143.501 85.8723 142.853 85.2251 142.152 84.5778C141.451 83.9305 140.75 83.2832 140.102 82.6359C139.887 82.4202 139.887 82.0426 140.102 81.8268C140.21 81.7189 140.318 81.665 140.426 81.665C141.073 81.611 141.721 81.5571 142.368 81.5571C143.015 81.5571 143.663 81.5032 144.256 81.5032C145.55 81.5032 146.737 81.5032 147.816 81.5571ZM147.762 81.665C146.413 81.9347 145.227 82.1504 144.04 82.3662C143.447 82.4741 142.853 82.528 142.314 82.6359C141.721 82.6898 141.181 82.7977 140.588 82.8517L140.965 81.8807C141.613 82.528 142.26 83.2293 142.907 83.9305C143.555 84.6317 144.202 85.3329 144.795 86.0342C145.389 86.7354 146.036 87.4905 146.683 88.1918C147.33 88.893 148.032 89.5403 148.787 90.1336L148.301 90.3494C148.193 89.6482 148.032 88.9469 147.978 88.2996C147.87 87.5984 147.87 86.9511 147.816 86.2499C147.708 84.7396 147.708 83.2832 147.762 81.665Z" fill="black"/>
<path d="M150.675 146.606L131.472 150.274C128.235 150.867 124.999 151.514 121.762 152.054L112.053 153.834C111.784 153.888 111.568 153.726 111.514 153.456L110.003 144.826L108.547 136.195L105.688 118.934L104.232 110.304L102.722 101.673C101.697 96.0636 100.618 90.3459 99.539 84.6283C99.4851 84.4664 99.593 84.3046 99.7548 84.3046C106.174 83.1179 112.593 81.8773 119.065 80.7445L138.376 77.2384C138.7 77.1845 138.969 77.4002 139.023 77.6699C140.102 83.4416 141.073 89.2132 142.044 94.9848L143.554 103.615L145.011 112.246L147.87 129.453L150.675 146.606ZM150.567 146.552L147.276 129.237L144.094 112.084L142.53 103.507L141.019 94.9848C139.994 89.2671 138.969 83.6034 137.999 77.8857L138.646 78.3172L119.227 81.6076C112.754 82.6864 106.336 83.7652 99.8627 84.844L100.078 84.5204C101.049 90.238 101.966 96.0097 102.991 101.727L104.502 110.358L106.066 118.934L109.302 136.087L110.867 144.664L112.377 153.294L111.837 152.917L121.439 151.299C124.621 150.759 127.858 150.22 131.04 149.68L150.567 146.552Z" fill="black"/>
<path d="M135.733 113.703C136.218 116.454 135.733 119.42 134.169 121.848C132.658 124.329 129.961 126.055 127.103 126.487C125.646 126.702 124.19 126.594 122.787 126.271C121.385 125.893 120.09 125.3 118.958 124.437C116.638 122.765 114.966 120.283 114.373 117.479C113.779 114.674 114.373 111.599 115.991 109.172C116.8 107.985 117.879 106.906 119.119 106.097C120.36 105.288 121.762 104.749 123.165 104.479C124.621 104.263 126.132 104.263 127.534 104.641C128.937 104.964 130.285 105.666 131.418 106.529C133.791 108.363 135.248 110.952 135.733 113.703ZM135.625 113.757C135.355 112.408 134.87 111.06 134.061 109.981C133.252 108.848 132.281 107.931 131.094 107.176C128.775 105.773 126.024 105.18 123.435 105.666C120.845 106.151 118.418 107.607 116.908 109.765C115.344 111.923 114.642 114.674 115.02 117.371C115.236 118.719 115.667 120.014 116.368 121.2C117.07 122.387 118.041 123.358 119.173 124.167C121.439 125.731 124.352 126.163 126.941 125.624C129.584 125.084 131.957 123.628 133.629 121.524C134.438 120.445 135.086 119.205 135.463 117.91C135.841 116.508 135.895 115.105 135.625 113.757Z" fill="black"/>
<path d="M102.668 86.46C103.153 88.0242 103.531 89.4267 103.8 90.7752C103.962 91.4764 104.124 92.1237 104.178 92.8249C104.286 93.5262 104.286 94.1734 104.394 94.9286L103.854 94.8207C104.394 94.0656 104.933 93.2565 105.365 92.4473C105.796 91.6382 106.228 90.7752 106.605 89.9121C106.983 89.0491 107.414 88.1861 107.9 87.3769C108.331 86.5678 108.763 85.7048 109.248 84.8957L109.842 85.7587C109.302 85.8666 108.709 85.9206 108.116 86.0284C107.522 86.0824 106.983 86.1363 106.39 86.1903C105.257 86.2981 104.016 86.406 102.668 86.46ZM102.56 86.406C103.585 86.0824 104.771 85.7587 105.958 85.4351C106.551 85.2733 107.199 85.1115 107.792 85.0036C108.439 84.8957 109.033 84.7339 109.68 84.626C110.004 84.5721 110.273 84.7878 110.327 85.1115C110.327 85.2733 110.327 85.3812 110.273 85.489C109.788 86.2981 109.302 87.1072 108.817 87.9164C108.331 88.7255 107.792 89.5346 107.253 90.2897C106.713 91.0449 106.174 91.854 105.688 92.6631C105.203 93.4722 104.771 94.2813 104.394 95.1983C104.34 95.3601 104.178 95.4141 104.016 95.3601C103.962 95.3062 103.908 95.2522 103.854 95.1983V95.1444C103.639 94.4431 103.423 93.688 103.315 92.9328C103.153 92.1776 103.045 91.4225 102.937 90.7213C102.722 89.157 102.614 87.7006 102.56 86.406Z" fill="black"/>
<path d="M113.887 150.704C113.51 149.464 113.078 148.061 112.754 146.659C112.593 145.958 112.431 145.202 112.323 144.447C112.215 143.692 112.161 142.937 112.107 142.182V142.128C112.107 141.966 112.215 141.858 112.377 141.804C112.485 141.804 112.539 141.804 112.593 141.912C113.24 142.613 113.941 143.207 114.696 143.8C115.451 144.393 116.207 144.933 116.962 145.472C117.717 146.012 118.472 146.605 119.227 147.144C119.982 147.738 120.738 148.277 121.439 148.924C121.709 149.14 121.709 149.518 121.493 149.733C121.385 149.841 121.277 149.895 121.169 149.949C120.522 150.057 119.875 150.165 119.281 150.219C118.634 150.273 118.041 150.381 117.393 150.435C116.153 150.597 114.966 150.65 113.887 150.704ZM113.941 150.596C115.236 150.219 116.422 149.895 117.609 149.572C118.202 149.41 118.742 149.302 119.335 149.14C119.875 149.032 120.468 148.87 121.007 148.816L120.738 149.841C119.982 149.248 119.335 148.601 118.634 147.953C117.933 147.306 117.231 146.713 116.584 146.012C115.937 145.364 115.236 144.663 114.534 144.07C113.833 143.422 113.078 142.883 112.269 142.344L112.754 142.074C112.916 142.775 113.132 143.422 113.294 144.07C113.456 144.717 113.51 145.418 113.617 146.119C113.725 147.522 113.833 148.978 113.941 150.596Z" fill="black"/>
<path d="M147.816 144.662C147.33 143.098 146.953 141.696 146.683 140.347C146.521 139.646 146.359 138.999 146.305 138.297C146.198 137.596 146.198 136.949 146.09 136.194L146.629 136.302C146.09 137.057 145.55 137.866 145.119 138.675C144.687 139.484 144.256 140.347 143.878 141.21C143.5 142.073 143.069 142.936 142.584 143.745C142.152 144.554 141.72 145.417 141.235 146.227L140.642 145.364C141.181 145.256 141.774 145.202 142.368 145.094C142.961 145.04 143.501 144.986 144.094 144.932C145.227 144.824 146.467 144.716 147.816 144.662ZM147.87 144.716C146.845 145.04 145.658 145.364 144.471 145.687C143.878 145.849 143.231 146.011 142.637 146.119C141.99 146.227 141.397 146.388 140.75 146.496C140.426 146.55 140.156 146.334 140.102 146.011C140.102 145.849 140.102 145.741 140.156 145.633C140.642 144.824 141.127 144.015 141.613 143.206C142.098 142.397 142.637 141.588 143.177 140.833C143.716 140.077 144.256 139.268 144.741 138.459C145.227 137.65 145.658 136.841 146.036 135.924C146.09 135.762 146.251 135.708 146.413 135.762C146.467 135.816 146.521 135.87 146.575 135.924V135.978C146.791 136.679 147.007 137.434 147.115 138.189C147.276 138.945 147.384 139.7 147.492 140.401C147.708 141.965 147.87 143.422 147.87 144.716Z" fill="black"/>
<path d="M136.542 80.4191C136.92 81.6597 137.351 83.0621 137.675 84.4646C137.837 85.1658 137.999 85.921 138.107 86.6761C138.214 87.4313 138.268 88.1865 138.322 88.9416V88.9956C138.322 89.1574 138.214 89.2653 138.053 89.3192C137.945 89.3192 137.891 89.3192 137.837 89.2113C137.19 88.5101 136.488 87.9168 135.733 87.3234C134.978 86.7301 134.223 86.1907 133.468 85.6513C132.712 85.1119 131.957 84.5185 131.202 83.9791C130.447 83.3858 129.692 82.8464 128.991 82.1991C128.721 81.9833 128.721 81.6057 128.937 81.39C129.045 81.2821 129.152 81.2282 129.26 81.1742C129.908 81.0663 130.555 80.9585 131.148 80.9045C131.796 80.8506 132.389 80.7427 133.036 80.6888C134.277 80.5809 135.463 80.473 136.542 80.4191ZM136.488 80.5269C135.194 80.9045 134.007 81.2282 132.82 81.5518C132.227 81.7136 131.688 81.8215 131.094 81.9833C130.555 82.0912 129.962 82.253 129.422 82.307L129.692 81.2821C130.447 81.8754 131.094 82.5227 131.796 83.17C132.497 83.8173 133.198 84.4106 133.845 85.1119C134.493 85.7592 135.194 86.4604 135.895 87.0537C136.596 87.701 137.351 88.2404 138.16 88.7798L137.675 89.0495C137.513 88.3483 137.297 87.701 137.136 87.0537C136.974 86.4064 136.92 85.7052 136.812 85.004C136.704 83.6015 136.596 82.1451 136.488 80.5269Z" fill="black"/>
<path d="M162.056 139.76C168.475 140.461 174.948 140.839 181.367 141.055C184.603 141.163 187.84 141.163 191.076 141.163C192.694 141.163 194.313 141.163 195.931 141.109C197.549 141.109 199.167 141.055 200.786 141.001L208.067 140.677L210.495 140.515C212.113 140.354 213.677 140.138 215.242 139.868C216.806 139.598 218.37 139.167 219.773 138.52C220.15 138.358 220.42 138.142 220.797 137.98L221.445 137.495L221.66 137.279C222.2 136.793 222.577 136.146 222.739 135.445C223.009 134.042 222.416 132.532 221.66 131.184C220.851 129.835 219.88 128.541 218.856 127.3L217.345 125.412C216.86 124.765 216.32 124.117 215.943 123.362C215.889 123.308 215.889 123.2 215.889 123.147C217.129 117.321 217.831 111.388 218.208 105.4C218.37 102.433 218.424 99.4127 218.37 96.446C218.37 94.9357 218.208 93.4793 217.831 92.0229C217.453 90.5665 216.914 89.218 216.32 87.8695C215.08 85.1725 213.461 82.6373 211.681 80.2639C209.955 77.8366 208.014 75.5711 206.018 73.3595C202.026 68.9364 197.765 64.7291 193.288 60.7375L189.943 57.7708C189.404 57.2853 188.811 56.7998 188.271 56.2065C188.217 56.1526 188.163 56.0986 188.11 55.9907C188.056 55.9368 188.056 55.8289 188.002 55.775C187.948 55.6132 187.948 55.5053 187.948 55.3435C187.948 55.0737 188.002 54.858 188.056 54.6422C188.163 54.2107 188.325 53.8871 188.433 53.5095C189.026 52.107 189.782 50.8125 190.537 49.464C191.238 48.1694 191.993 46.8748 192.641 45.5263C193.288 44.1778 193.935 42.8832 194.313 41.4808C194.528 40.7795 194.636 40.0783 194.636 39.431C194.636 38.7838 194.474 38.1365 194.043 37.7049C193.665 37.2734 193.018 37.0037 192.371 36.8958C192.047 36.8419 191.724 36.788 191.346 36.788L190.213 36.6801C188.703 36.5722 187.246 36.4104 185.736 36.3025C182.769 36.0328 179.803 35.7092 176.836 35.7092C175.38 35.7092 173.869 35.7631 172.575 36.1946C171.927 36.4104 171.388 36.788 171.226 37.2734C171.064 37.7589 171.226 38.4062 171.496 39.0535C171.604 39.3771 171.82 39.6468 171.981 39.9704L172.575 40.9414C172.952 41.5887 173.33 42.2359 173.653 42.9372C174.355 44.2857 175.002 45.6342 175.595 47.0366C176.782 49.7876 177.861 52.5925 178.724 55.5053C178.778 55.721 178.67 55.9368 178.508 56.0447C175.919 57.3932 173.438 58.9575 171.064 60.6296C168.691 62.3018 166.372 64.1897 164.268 66.2394C162.164 68.2891 160.222 70.5007 158.604 72.928C157.795 74.1686 157.094 75.4093 156.447 76.7578C155.853 78.1063 155.314 79.4548 154.936 80.9112C154.936 80.9651 154.882 80.9651 154.882 80.9651C154.828 80.9651 154.828 80.9112 154.828 80.9112C155.152 79.4548 155.637 78.0524 156.231 76.7038C156.824 75.3553 157.525 74.0608 158.28 72.7662C159.09 71.5256 159.953 70.2849 160.87 69.1522C161.787 68.0194 162.811 66.8867 163.836 65.8618C165.94 63.7582 168.206 61.8163 170.579 60.0902C172.952 58.3102 175.434 56.7459 178.077 55.3435L177.861 55.8829C176.998 53.078 175.919 50.2731 174.678 47.576C174.031 46.2275 173.438 44.879 172.683 43.5844C172.305 42.9372 171.981 42.2899 171.604 41.6426L171.01 40.6717C170.849 40.348 170.579 40.0244 170.417 39.6468C170.255 39.2692 170.093 38.8916 170.039 38.4601C170.039 38.2443 169.986 38.0286 169.986 37.7589C169.986 37.651 169.986 37.5431 170.039 37.3813L170.147 37.0037C170.201 36.8958 170.255 36.788 170.309 36.6801C170.363 36.5722 170.417 36.4643 170.525 36.3564C170.687 36.1946 170.849 35.9789 171.01 35.871C171.172 35.7092 171.388 35.6013 171.55 35.5473C171.766 35.4394 171.927 35.3855 172.143 35.2776C173.707 34.7382 175.218 34.7382 176.782 34.6843C179.803 34.6843 182.823 35.0079 185.79 35.2237C187.3 35.3855 188.757 35.4934 190.267 35.6013L191.4 35.6552C191.777 35.7092 192.209 35.7092 192.587 35.817C193.396 35.9789 194.259 36.3025 194.852 37.0037C195.499 37.7049 195.715 38.6219 195.715 39.431C195.715 40.2401 195.553 41.0492 195.338 41.8044C194.906 43.3147 194.259 44.6633 193.557 46.0118C192.856 47.3603 192.155 48.6548 191.4 49.9494C190.645 51.244 189.89 52.5386 189.35 53.8871C189.188 54.2107 189.08 54.5343 189.026 54.858C188.919 55.1816 188.973 55.5053 189.026 55.4513C189.512 55.9368 190.105 56.4762 190.645 56.9617L193.935 59.9823C198.304 64.0818 202.566 68.2891 206.503 72.8201C210.441 77.3511 214.109 82.2058 216.644 87.6537C217.237 89.0562 217.831 90.4586 218.154 91.915C218.532 93.3714 218.694 94.8818 218.694 96.3921C218.748 99.4127 218.748 102.379 218.586 105.4C218.424 108.367 218.154 111.388 217.885 114.354C217.561 117.321 217.129 120.288 216.59 123.254L216.536 123.039C216.914 123.686 217.399 124.333 217.885 124.927L219.449 126.761C220.474 128.001 221.553 129.242 222.416 130.698C222.847 131.399 223.225 132.155 223.494 132.964C223.764 133.773 223.872 134.69 223.71 135.553C223.548 136.47 223.063 137.279 222.416 137.872L222.2 138.088L221.93 138.304L221.391 138.681C221.013 138.897 220.636 139.113 220.258 139.275C218.748 139.976 217.129 140.407 215.511 140.731C214.702 140.893 213.893 141.001 213.084 141.163C212.275 141.27 211.466 141.324 210.657 141.432L208.229 141.594L203.375 141.81L200.947 141.864C199.329 141.918 197.711 141.972 196.093 141.972C194.474 142.026 192.856 141.972 191.238 141.972C188.002 141.918 184.765 141.864 181.529 141.702C175.056 141.378 168.583 140.839 162.218 139.922C162.164 139.922 162.164 139.868 162.164 139.868C162.002 139.76 162.056 139.76 162.056 139.76Z" fill="black"/>
<path d="M178.346 55.3955C179.209 55.7731 179.964 55.9888 180.773 56.3125C180.989 56.4204 181.151 56.5283 181.367 56.6361C181.583 56.744 181.798 56.798 182.014 56.8519C182.446 56.9058 182.877 56.9058 183.309 56.744C183.74 56.6361 184.172 56.4743 184.603 56.3664C185.035 56.2586 185.412 56.0967 185.844 55.9888C186.275 55.881 186.707 55.7731 187.138 55.7192C187.57 55.6113 188.001 55.5573 188.541 55.5573C188.595 55.5573 188.595 55.5573 188.595 55.6113V55.6652C188.271 55.9889 187.894 56.2586 187.462 56.5283C187.031 56.744 186.599 56.9598 186.167 57.1216C185.736 57.2295 185.251 57.3374 184.765 57.3913C184.549 57.3913 184.28 57.4452 184.064 57.4452C183.848 57.4452 183.578 57.3913 183.363 57.3374C183.147 57.2834 182.877 57.2834 182.661 57.2295C182.446 57.1755 182.176 57.1755 181.96 57.1755C181.744 57.1755 181.475 57.1755 181.259 57.1755C181.043 57.1755 180.773 57.1755 180.504 57.1755C180.018 57.0677 179.587 56.9058 179.155 56.5822C178.778 56.2586 178.4 55.9349 178.238 55.4494C178.238 55.4494 178.292 55.3955 178.346 55.3955Z" fill="black"/>
<path d="M182.122 57.068C181.96 57.7692 181.744 58.4165 181.475 59.0638C181.205 59.7111 180.935 60.3584 180.612 60.9517C180.234 61.545 179.802 62.0844 179.533 62.7317C179.263 63.379 178.993 64.0263 178.885 64.6736C178.724 65.3748 178.562 66.0221 178.4 66.6694C178.238 67.3167 178.076 68.0179 177.915 68.6652C177.537 69.9597 177.159 71.2543 176.782 72.6568C176.782 72.7107 176.728 72.7107 176.728 72.7107C176.728 72.7107 176.674 72.7107 176.674 72.6568C176.296 71.2543 176.458 69.7979 176.782 68.3955C176.944 67.6942 177.213 67.047 177.429 66.3997C177.699 65.7524 177.969 65.1051 178.346 64.5118C178.67 63.9184 178.993 63.2711 179.263 62.6239C179.533 61.9766 179.641 61.2753 179.856 60.6281C179.964 60.3044 180.126 59.9808 180.288 59.6571C180.45 59.3335 180.612 59.0638 180.827 58.7401C181.205 58.1468 181.583 57.5535 182.122 57.068C182.068 56.9601 182.068 57.0141 182.122 57.068Z" fill="black"/>
<path d="M183.471 57.0698C183.794 57.8789 184.01 58.688 184.226 59.4971C184.388 60.3062 184.549 61.1693 184.603 61.9784C184.657 62.8414 184.603 63.7045 184.657 64.5136C184.711 65.3766 184.873 66.1857 185.035 66.9948C185.197 67.8039 185.412 68.667 185.466 69.4761C185.574 70.3391 185.682 71.1483 185.682 72.0113C185.682 72.8743 185.682 73.7374 185.574 74.5465C185.466 75.4095 185.305 76.2726 184.981 77.0817C184.981 77.1356 184.927 77.1356 184.927 77.1356L184.873 77.0817C184.819 75.4095 184.603 73.7374 184.495 72.1192C184.441 71.3101 184.441 70.447 184.388 69.6379C184.334 68.8288 184.334 67.9658 184.388 67.1027C184.388 66.2397 184.388 65.4306 184.226 64.5675C184.118 63.7584 183.794 62.9493 183.632 62.0863C183.471 61.2772 183.363 60.4141 183.309 59.605C183.255 58.742 183.201 57.9329 183.309 57.0698C183.363 57.0159 183.363 57.0159 183.471 57.0698C183.417 57.0159 183.471 57.0159 183.471 57.0698Z" fill="black"/>
<path d="M180.827 56.798C180.774 56.8519 180.774 56.744 180.774 56.744L180.396 55.9888L179.964 55.1797C179.695 54.6403 179.425 54.1009 179.101 53.6155C178.508 52.5906 177.915 51.5657 177.213 50.6488C176.89 50.1633 176.512 49.7318 176.081 49.3542C175.649 48.9766 175.11 48.7069 174.57 48.599C174.031 48.5451 173.438 48.7069 172.952 48.9766C172.467 49.3002 172.035 49.6778 171.658 50.1633C170.956 51.0803 170.956 52.213 171.55 53.0761C172.143 53.9931 173.114 54.6403 174.085 55.1797C176.081 56.3125 178.454 56.9058 180.827 56.798ZM180.881 56.8519C180.774 56.9058 180.612 56.9598 180.396 57.0137C180.234 57.0677 180.072 57.0677 179.911 57.1216C179.587 57.1755 179.317 57.2295 178.994 57.2834C178.346 57.3374 177.753 57.3374 177.106 57.2834C175.865 57.1755 174.624 56.798 173.492 56.2046C172.359 55.6113 171.28 54.8022 170.633 53.5615C170.309 52.9682 170.093 52.213 170.255 51.5118C170.363 50.8106 170.741 50.2172 171.226 49.7318C171.712 49.2463 172.197 48.9227 172.79 48.653C173.33 48.3833 173.977 48.2214 174.624 48.2214C175.919 48.3293 177.106 49.0845 177.915 50.0015C178.778 50.9724 179.371 52.0512 179.857 53.1839C180.072 53.7773 180.288 54.3167 180.504 54.91C180.612 55.1797 180.666 55.5034 180.72 55.827L180.881 56.4743V56.5822C180.881 56.744 180.881 56.744 180.881 56.8519Z" fill="black"/>
<path d="M182.931 57.0693C182.931 56.9614 182.931 56.9614 182.931 56.9075V56.7996L182.985 56.5838L183.093 56.2062C183.147 55.9365 183.255 55.7208 183.309 55.4511C183.471 54.9656 183.686 54.4801 183.902 54.0486C184.388 53.1316 184.927 52.2146 185.79 51.5134C186.599 50.8122 187.678 50.3267 188.757 50.4346C189.296 50.4886 189.836 50.6504 190.267 50.9201C190.752 51.1898 191.184 51.5134 191.508 51.9989C191.831 52.4844 191.993 53.0777 191.993 53.671C191.993 54.2644 191.777 54.8038 191.508 55.2892C190.968 56.2602 190.105 57.0693 189.08 57.5547C188.055 58.0402 186.977 58.202 185.898 58.0942C185.358 58.0402 184.819 57.9323 184.334 57.7705C184.064 57.7166 183.848 57.5547 183.632 57.4469C183.363 57.3929 183.093 57.2311 182.931 57.0693ZM182.985 57.0693C183.147 57.1232 183.255 57.1232 183.363 57.1232L183.686 57.1772C183.956 57.2311 184.172 57.2311 184.441 57.285C184.927 57.339 185.412 57.339 185.898 57.285C186.869 57.2311 187.786 56.9614 188.595 56.5299C189.404 56.0984 190.159 55.559 190.645 54.8038C191.13 54.0486 191.346 53.1316 191.022 52.3225C190.645 51.5134 189.728 50.8661 188.757 50.8661C188.271 50.8661 187.84 51.028 187.462 51.2977C187.085 51.5674 186.761 51.891 186.437 52.2686C185.79 52.9698 185.197 53.7789 184.657 54.588C184.388 55.0196 184.118 55.3971 183.848 55.8287L183.471 56.4759L183.147 56.9614L182.985 57.0693C183.039 57.0153 183.039 57.1232 182.985 57.0693Z" fill="black"/>
<path d="M179.317 56.2601C179.101 55.8825 178.993 55.5049 178.886 55.0734C178.778 54.6958 178.724 54.2643 178.778 53.8867C178.832 53.5091 178.939 53.0776 178.939 52.7C178.939 52.3224 178.832 51.8909 178.724 51.5133C178.562 51.1357 178.454 50.7581 178.4 50.3806C178.292 50.003 178.238 49.6254 178.184 49.1939C178.13 48.3848 178.13 47.6296 178.292 46.7665C178.292 46.7126 178.346 46.7126 178.346 46.7126H178.4C178.939 47.4138 179.209 48.2229 179.371 48.9781C179.425 49.3557 179.425 49.7872 179.479 50.1648C179.479 50.5424 179.479 50.9739 179.371 51.4054C179.317 51.8369 179.317 52.2145 179.371 52.5921C179.425 52.9697 179.641 53.3473 179.749 53.7788C179.856 54.1564 179.856 54.5879 179.803 54.9655C179.749 55.3431 179.695 55.7746 179.533 56.2061C179.425 56.2601 179.371 56.314 179.317 56.2601Z" fill="black"/>
<path d="M181.475 56.9622C181.259 56.6385 181.151 56.3149 181.097 55.9913C181.043 55.6676 180.989 55.344 181.043 55.0203C181.097 54.6967 181.313 54.373 181.313 54.0494C181.367 53.7258 181.313 53.4021 181.205 53.0785C181.097 52.7548 181.043 52.4312 181.043 52.1076C181.043 51.7839 180.989 51.4603 181.043 51.0827C181.097 50.759 181.205 50.4354 181.313 50.1118C181.475 49.7881 181.637 49.4105 182.014 49.2487H182.068V49.3027C182.068 49.9499 182.23 50.5433 182.176 51.1906C182.176 51.5142 182.122 51.8378 182.068 52.1615C182.014 52.4851 181.906 52.8088 181.798 53.1324C181.691 53.4561 181.637 53.7797 181.637 54.1033C181.691 54.427 181.852 54.7506 181.906 55.0743C181.96 55.3979 181.96 55.7216 181.906 56.0452C181.852 56.3688 181.745 56.6925 181.583 57.0161C181.583 57.0161 181.529 57.0161 181.475 56.9622Z" fill="black"/>
<path d="M184.172 56.9614C184.01 56.4759 184.01 56.0444 184.01 55.6129C184.01 55.1814 184.064 54.6959 184.226 54.3183C184.388 53.8868 184.603 53.5092 184.765 53.0777C184.873 52.6462 184.927 52.2147 184.927 51.7292C184.927 51.2977 184.927 50.8122 185.035 50.3807C185.089 49.9492 185.197 49.5176 185.305 49.0861C185.358 48.8703 185.466 48.6546 185.574 48.4388C185.682 48.2231 185.79 48.0073 185.898 47.8455C186.006 47.6297 186.168 47.4679 186.329 47.2521C186.491 47.0903 186.707 46.9285 186.923 46.7667H186.977V46.8206C186.761 47.6837 186.653 48.4928 186.437 49.3558C186.329 49.7873 186.168 50.1649 186.06 50.5964C185.952 51.028 185.736 51.4056 185.574 51.8371C185.358 52.2686 185.251 52.6462 185.197 53.1316C185.143 53.5632 185.251 54.0486 185.197 54.4802C185.197 54.9117 185.089 55.3432 184.927 55.7747C184.765 56.2062 184.603 56.6378 184.334 57.0154C184.28 57.0154 184.226 57.0154 184.172 56.9614Z" fill="black"/>
<path d="M183.417 117.592C184.55 117.646 185.682 117.646 186.815 117.377C187.354 117.269 187.894 117.053 188.325 116.729C188.757 116.406 189.188 116.028 189.458 115.543C190.051 114.626 190.159 113.385 189.674 112.36C189.458 111.875 189.027 111.443 188.595 111.12C188.164 110.796 187.678 110.526 187.139 110.256C183.039 108.476 178.454 107.398 174.732 104.485C172.898 103.028 171.496 100.979 171.01 98.6054C170.741 97.4187 170.741 96.232 170.795 95.0992C170.849 93.9125 171.064 92.7258 171.496 91.647C172.305 89.3815 173.977 87.4936 175.973 86.253C177.969 85.0124 180.288 84.3651 182.554 84.0954L182.176 84.473L182.608 79.3486C182.608 79.1868 182.716 79.0789 182.877 79.025C183.417 78.9171 183.956 78.8632 184.496 78.8092C185.035 78.7553 185.574 78.7553 186.114 78.7553C187.193 78.8092 188.271 78.9171 189.296 79.2408C189.836 79.4026 190.321 79.6723 190.753 80.0499C191.184 80.4274 191.454 81.0208 191.562 81.5602C191.831 82.639 191.67 83.7178 191.616 84.7966L191.454 84.5808C192.91 84.8505 194.313 85.2821 195.661 85.8215C196.362 86.0912 197.01 86.4688 197.603 86.8463C198.25 87.2239 198.844 87.7094 199.275 88.3027C199.761 88.8961 200.084 89.5973 200.246 90.3525C200.408 91.1076 200.354 91.8628 200.138 92.618C199.976 93.3731 199.545 94.0204 199.059 94.6138C198.574 95.2071 198.035 95.6926 197.441 96.1241C197.387 96.178 197.279 96.178 197.226 96.1241C196.201 95.315 194.96 94.7216 193.719 94.2901C192.479 93.8047 191.184 93.535 189.89 93.3192C188.595 93.1574 187.247 93.0495 185.952 93.1574C185.305 93.2113 184.657 93.3192 184.064 93.5889C183.471 93.8046 182.931 94.1822 182.608 94.6677C182.23 95.1532 182.122 95.7465 182.176 96.3399C182.23 96.9332 182.5 97.4187 182.985 97.7423C184.01 98.4975 185.251 98.9829 186.491 99.4684C187.732 99.9539 188.973 100.439 190.213 100.979C191.454 101.518 192.695 102.111 193.881 102.813C195.068 103.46 196.201 104.269 197.279 105.186C198.304 106.103 199.221 107.182 199.923 108.476C200.57 109.717 200.947 111.12 201.109 112.522C201.217 113.924 201.163 115.327 200.893 116.675C200.624 118.078 200.138 119.426 199.383 120.613C198.628 121.8 197.603 122.879 196.47 123.688C194.151 125.36 191.4 126.115 188.703 126.493L189.188 126.007L188.811 131.077V131.131C188.811 131.401 188.595 131.563 188.379 131.617L186.761 131.779C186.222 131.833 185.682 131.833 185.143 131.833C184.064 131.779 182.985 131.671 181.906 131.347C181.367 131.185 180.828 130.916 180.342 130.538C179.857 130.107 179.533 129.513 179.425 128.974C179.102 127.841 179.263 126.708 179.371 125.683L179.749 126.169C178.077 125.845 176.458 125.414 174.84 124.712C174.031 124.389 173.276 123.957 172.575 123.526C171.874 123.04 171.172 122.501 170.633 121.854C170.093 121.152 169.662 120.343 169.5 119.48C169.338 118.617 169.392 117.754 169.662 116.891C169.878 116.028 170.417 115.273 171.118 114.734C171.766 114.14 172.467 113.655 173.222 113.331C173.276 113.331 173.33 113.331 173.384 113.331C174.031 113.978 174.786 114.518 175.595 115.057C176.351 115.543 177.214 116.028 178.023 116.406C179.695 117.053 181.529 117.484 183.417 117.592ZM183.417 117.7C181.529 117.592 179.695 117.215 177.969 116.406C176.243 115.597 174.624 114.626 173.222 113.331H173.384C172.629 113.709 171.981 114.194 171.388 114.787C170.795 115.327 170.309 116.028 170.147 116.783C169.932 117.538 169.932 118.401 170.093 119.157C170.255 119.912 170.633 120.667 171.172 121.26C171.712 121.854 172.359 122.339 173.06 122.771C173.761 123.202 174.517 123.526 175.272 123.849C176.782 124.443 178.4 124.82 180.019 125.144C180.234 125.198 180.396 125.36 180.396 125.629C180.342 126.708 180.234 127.679 180.504 128.596C180.612 129.028 180.828 129.405 181.151 129.675C181.475 129.945 181.906 130.16 182.392 130.268C183.309 130.538 184.334 130.646 185.359 130.646C185.844 130.646 186.383 130.646 186.869 130.592L188.379 130.43L187.948 130.916L188.271 125.845C188.271 125.576 188.487 125.36 188.757 125.36C191.346 125.036 193.935 124.281 195.985 122.771C198.035 121.26 199.491 118.995 199.976 116.46C200.462 113.924 200.354 111.227 199.167 108.962C198.574 107.829 197.765 106.804 196.794 105.941C195.823 105.078 194.744 104.323 193.611 103.676C192.479 103.028 191.292 102.381 190.051 101.842C188.865 101.302 187.57 100.817 186.33 100.278C185.089 99.7381 183.794 99.2526 182.662 98.3896C182.392 98.1738 182.068 97.8502 181.906 97.5265C181.691 97.2029 181.637 96.7714 181.583 96.3938C181.529 95.6386 181.745 94.8295 182.23 94.2901C182.716 93.6968 183.309 93.3192 184.01 93.0495C184.657 92.7798 185.359 92.6719 186.06 92.618C187.462 92.5101 188.811 92.6719 190.159 92.8337C191.508 93.0495 192.856 93.3731 194.097 93.9125C195.338 94.398 196.578 94.9913 197.657 95.8544H197.441C198.035 95.4768 198.574 94.9374 199.006 94.398C199.491 93.8586 199.815 93.2653 199.976 92.564C200.138 91.8628 200.192 91.1616 200.084 90.4604C199.976 89.7591 199.653 89.1118 199.221 88.5724C198.79 88.033 198.196 87.6015 197.603 87.2239C197.01 86.8463 196.362 86.5227 195.661 86.253C194.313 85.7136 192.91 85.336 191.508 85.0663C191.4 85.0663 191.346 84.9584 191.346 84.8506C191.4 83.7718 191.562 82.7469 191.292 81.776C191.184 81.2905 190.914 80.859 190.591 80.5353C190.213 80.2117 189.782 79.9959 189.296 79.8341C188.325 79.5105 187.3 79.4565 186.276 79.4565C185.736 79.4565 185.251 79.4565 184.711 79.5105C184.172 79.5644 183.686 79.6183 183.201 79.7802L183.471 79.4565L183.201 84.6348C183.201 84.8506 183.039 84.9584 182.877 85.0124C180.666 85.336 178.508 85.9833 176.674 87.17C174.84 88.3567 173.33 90.0828 172.629 92.1325C172.251 93.1574 172.035 94.2362 171.981 95.315C171.927 96.3938 171.927 97.5266 172.143 98.6054C172.359 99.6842 172.791 100.709 173.33 101.626C173.923 102.543 174.624 103.352 175.488 104.107C177.16 105.564 179.209 106.535 181.259 107.506C182.284 107.991 183.363 108.369 184.388 108.8C185.413 109.232 186.491 109.609 187.516 110.149C188.002 110.418 188.541 110.742 188.973 111.066C189.404 111.443 189.836 111.875 190.105 112.414C190.375 112.953 190.429 113.547 190.375 114.14C190.321 114.734 190.159 115.273 189.836 115.812C189.188 116.783 188.164 117.484 187.031 117.7C185.682 117.808 184.55 117.808 183.417 117.7Z" fill="black"/>
<path d="M266.107 132.316C264.597 132.37 263.087 132.424 261.576 132.477L256.937 132.585C253.863 132.639 250.734 132.693 247.552 132.693C244.423 132.693 241.241 132.585 238.058 132.477C234.93 132.37 231.801 132.37 228.673 132.423C228.565 132.423 228.457 132.316 228.457 132.262C228.457 130.643 228.403 129.025 228.349 127.407C228.349 127.245 228.457 127.137 228.619 127.137C231.747 127.029 234.822 126.976 237.95 126.922C241.079 126.922 244.154 126.868 247.282 126.868C248.846 126.868 250.411 126.868 251.975 126.868C253.539 126.868 255.104 126.922 256.668 126.922L261.361 127.029L266.053 127.191C266.215 127.191 266.323 127.299 266.323 127.461C266.323 128.324 266.269 129.133 266.215 129.942L266.107 132.316ZM266.053 132.208L265.946 129.78C265.892 128.971 265.838 128.216 265.838 127.407L266.107 127.677L261.415 127.839L256.722 127.946C255.157 128 253.593 128 252.029 128C250.465 128 248.9 128 247.336 128C244.208 128 241.133 127.946 238.004 127.946C234.876 127.893 231.801 127.839 228.673 127.731L228.942 127.461C228.888 129.079 228.835 130.697 228.835 132.316L228.619 132.1C231.693 132.154 234.822 132.154 237.897 132.046C240.971 131.992 244.046 131.83 247.066 131.83C250.141 131.83 253.216 131.884 256.344 131.938L261.037 132.046L266.053 132.208Z" fill="black"/>
<path d="M267.618 127.461C266.107 127.515 264.597 127.569 263.087 127.623L258.448 127.731C255.373 127.785 252.245 127.839 249.062 127.839C245.934 127.839 242.751 127.731 239.569 127.623C236.44 127.515 233.312 127.515 230.183 127.569C230.075 127.569 229.967 127.461 229.967 127.407C229.967 125.789 229.913 124.171 229.859 122.553C229.859 122.391 229.967 122.283 230.129 122.283C233.258 122.175 236.332 122.121 239.461 122.067C242.589 122.067 245.664 121.959 248.792 122.013C250.357 122.013 251.921 122.013 253.485 122.013C255.05 122.013 256.614 122.067 258.178 122.067L262.871 122.175L267.564 122.337C267.726 122.337 267.833 122.445 267.833 122.607C267.833 123.47 267.779 124.279 267.726 125.088L267.618 127.461ZM267.564 127.353L267.456 124.926C267.402 124.117 267.348 123.362 267.348 122.553L267.618 122.822L262.925 122.984L258.232 123.092C256.668 123.146 255.103 123.146 253.539 123.146C251.975 123.146 250.411 123.146 248.846 123.146C245.718 123.146 242.643 123.092 239.515 123.092C236.386 123.038 233.312 122.984 230.183 122.876L230.453 122.607C230.399 124.225 230.345 125.843 230.345 127.461L230.129 127.246C233.204 127.299 236.332 127.299 239.407 127.192C242.481 127.138 245.556 126.976 248.577 126.976C251.651 126.976 254.726 127.03 257.854 127.084L262.547 127.192L267.564 127.353Z" fill="black"/>
<path d="M264.813 122.607C263.302 122.661 261.792 122.715 260.282 122.769L255.643 122.877C252.568 122.931 249.44 122.985 246.257 122.985C243.129 122.985 239.946 122.877 236.764 122.769C233.635 122.661 230.507 122.661 227.378 122.715C227.27 122.715 227.162 122.607 227.162 122.553C227.162 120.935 227.108 119.317 227.054 117.698C227.054 117.537 227.162 117.429 227.324 117.429C230.453 117.321 233.527 117.267 236.656 117.213C239.784 117.213 242.859 117.105 245.988 117.159C247.552 117.159 249.116 117.159 250.68 117.159C252.245 117.159 253.809 117.213 255.373 117.213L260.066 117.321L264.759 117.483C264.921 117.483 265.028 117.591 265.028 117.752C265.028 118.615 264.975 119.425 264.921 120.234L264.813 122.607ZM264.705 122.499L264.597 120.072C264.543 119.263 264.489 118.508 264.489 117.698L264.759 117.968L260.066 118.13L255.373 118.238C253.809 118.292 252.245 118.292 250.68 118.292C249.116 118.292 247.552 118.292 245.988 118.292C242.859 118.292 239.784 118.238 236.656 118.238C233.527 118.184 230.453 118.13 227.324 118.022L227.594 117.752C227.54 119.371 227.486 120.989 227.486 122.607L227.27 122.391C230.345 122.445 233.473 122.445 236.548 122.337C239.623 122.283 242.697 122.122 245.718 122.122C248.792 122.122 251.867 122.175 254.996 122.229L259.688 122.337L264.705 122.499Z" fill="black"/>
<path d="M266.107 117.751C264.597 117.805 263.087 117.859 261.576 117.913L256.937 118.021C253.863 118.075 250.734 118.129 247.552 118.129C244.423 118.129 241.241 118.021 238.058 117.913C234.93 117.805 231.801 117.805 228.673 117.859C228.565 117.859 228.457 117.751 228.457 117.697C228.457 116.079 228.403 114.461 228.349 112.843C228.349 112.681 228.457 112.573 228.619 112.573C231.747 112.465 234.822 112.411 237.95 112.357C241.079 112.357 244.154 112.303 247.282 112.303C248.846 112.303 250.411 112.303 251.975 112.303C253.539 112.303 255.104 112.357 256.668 112.357L261.361 112.465L266.053 112.627C266.215 112.627 266.323 112.735 266.323 112.897C266.323 113.76 266.269 114.569 266.215 115.378L266.107 117.751ZM266.053 117.643L265.946 115.216C265.892 114.407 265.838 113.652 265.838 112.843L266.107 113.112L261.415 113.274L256.722 113.382C255.157 113.436 253.593 113.436 252.029 113.436C250.465 113.436 248.9 113.436 247.336 113.436C244.208 113.436 241.133 113.382 238.004 113.382C234.876 113.328 231.801 113.274 228.673 113.166L228.942 112.897C228.888 114.515 228.835 116.133 228.835 117.751L228.619 117.535C231.693 117.589 234.822 117.589 237.897 117.481C240.971 117.428 244.046 117.266 247.066 117.266C250.141 117.266 253.216 117.32 256.344 117.374L261.037 117.481L266.053 117.643Z" fill="black"/>
<path d="M266.107 112.897C264.597 112.951 263.087 113.005 261.576 113.059L256.937 113.167C253.863 113.221 250.734 113.275 247.552 113.275C244.423 113.275 241.241 113.167 238.058 113.059C234.93 112.951 231.801 112.951 228.673 113.005C228.565 113.005 228.457 112.897 228.457 112.843C228.457 111.225 228.403 109.607 228.349 107.988C228.349 107.827 228.457 107.719 228.619 107.719C231.747 107.611 234.822 107.557 237.95 107.503C241.079 107.503 244.154 107.449 247.282 107.449C248.846 107.449 250.411 107.449 251.975 107.449C253.539 107.449 255.104 107.503 256.668 107.503L261.361 107.611L266.053 107.773C266.215 107.773 266.323 107.88 266.323 108.042C266.323 108.905 266.269 109.714 266.215 110.524L266.107 112.897ZM266.053 112.789L265.946 110.362C265.892 109.553 265.838 108.797 265.838 107.988L266.107 108.258L261.415 108.42L256.722 108.528C255.157 108.582 253.593 108.582 252.029 108.582C250.465 108.582 248.9 108.582 247.336 108.582C244.208 108.582 241.133 108.528 238.004 108.528C234.876 108.474 231.801 108.42 228.673 108.312L228.942 108.042C228.888 109.661 228.835 111.279 228.835 112.897L228.619 112.681C231.693 112.735 234.822 112.735 237.897 112.627C240.971 112.573 244.046 112.411 247.066 112.411C250.141 112.411 253.216 112.465 256.344 112.519L261.037 112.627L266.053 112.789Z" fill="black"/>
<path d="M268.75 108.043C267.24 108.097 265.73 108.15 264.219 108.204L259.58 108.312C256.506 108.366 253.377 108.42 250.195 108.42C247.066 108.42 243.884 108.312 240.701 108.204C237.573 108.097 234.444 108.097 231.316 108.15C231.208 108.15 231.1 108.043 231.1 107.989C231.1 106.37 231.046 104.752 230.992 103.134C230.992 102.972 231.1 102.864 231.262 102.864C234.39 102.756 237.465 102.702 240.593 102.649C243.722 102.649 246.797 102.541 249.925 102.595C251.489 102.595 253.054 102.595 254.618 102.595C256.182 102.595 257.746 102.649 259.311 102.649L264.004 102.756L268.696 102.918C268.858 102.918 268.966 103.026 268.966 103.188C268.966 104.051 268.912 104.86 268.858 105.669L268.75 108.043ZM268.696 107.935L268.589 105.507C268.535 104.698 268.481 103.943 268.481 103.134L268.75 103.404L264.057 103.566L259.365 103.673C257.8 103.727 256.236 103.727 254.672 103.727C253.108 103.727 251.543 103.727 249.979 103.727C246.851 103.727 243.776 103.673 240.647 103.673C237.519 103.619 234.444 103.566 231.316 103.458L231.585 103.188C231.531 104.806 231.478 106.424 231.478 108.043L231.262 107.827C234.336 107.881 237.465 107.881 240.539 107.773C243.614 107.719 246.689 107.557 249.709 107.557C252.784 107.557 255.859 107.611 258.987 107.665L263.68 107.773L268.696 107.935Z" fill="black"/>
<path d="M266.107 103.188C264.597 103.242 263.087 103.296 261.576 103.35L256.937 103.458C253.863 103.512 250.734 103.566 247.552 103.566C244.423 103.566 241.241 103.458 238.058 103.35C234.93 103.242 231.801 103.242 228.673 103.296C228.565 103.296 228.457 103.188 228.457 103.134C228.457 101.516 228.403 99.898 228.349 98.2798C228.349 98.118 228.457 98.0101 228.619 98.0101C231.747 97.9022 234.822 97.8483 237.95 97.7943C241.079 97.7943 244.154 97.6864 247.282 97.7404C248.846 97.7404 250.411 97.7404 251.975 97.7404C253.539 97.7404 255.104 97.7943 256.668 97.7943L261.361 97.9022L266.053 98.064C266.215 98.064 266.323 98.1719 266.323 98.3337C266.323 99.1968 266.269 100.006 266.215 100.815L266.107 103.188ZM266.053 103.08L265.946 100.653C265.892 99.844 265.838 99.0889 265.838 98.2798L266.107 98.5495L261.415 98.7113L256.722 98.8192C255.157 98.8731 253.593 98.8731 252.029 98.8731C250.465 98.8731 248.9 98.8731 247.336 98.8731C244.208 98.8731 241.133 98.8192 238.004 98.8192C234.876 98.7652 231.801 98.7113 228.673 98.6034L228.942 98.3337C228.888 99.9519 228.835 101.57 228.835 103.188L228.619 102.973C231.693 103.027 234.822 103.027 237.897 102.919C240.971 102.865 244.046 102.703 247.066 102.703C250.141 102.703 253.216 102.757 256.344 102.811L261.037 102.919L266.053 103.08Z" fill="black"/>
<path d="M295.181 132.316C294.102 131.291 293.023 130.212 291.891 129.187L288.6 125.951C286.389 123.739 284.177 121.581 282.02 119.316C279.808 117.05 277.704 114.677 275.601 112.358C273.497 110.038 271.339 107.773 269.128 105.561C269.074 105.507 269.074 105.345 269.128 105.291C270.261 104.159 271.393 102.972 272.526 101.839C272.634 101.731 272.796 101.731 272.958 101.839C275.169 103.997 277.381 106.208 279.592 108.42C281.75 110.632 283.962 112.843 286.119 115.055C287.198 116.187 288.277 117.32 289.356 118.399C290.434 119.532 291.513 120.664 292.538 121.797L295.721 125.195L298.849 128.648C298.957 128.756 298.957 128.917 298.849 129.025C298.256 129.619 297.608 130.158 296.961 130.697L295.181 132.316ZM295.181 132.208L296.853 130.428C297.393 129.834 297.932 129.241 298.471 128.702V129.079L295.127 125.843L291.837 122.552C290.758 121.474 289.625 120.341 288.546 119.262C287.468 118.129 286.389 117.05 285.31 115.918C283.152 113.706 281.049 111.387 278.891 109.175C276.733 106.91 274.63 104.644 272.526 102.325H272.958C271.771 103.404 270.584 104.482 269.398 105.615V105.345C271.501 107.611 273.659 109.822 275.87 111.98C278.082 114.138 280.24 116.241 282.397 118.453C284.555 120.664 286.659 122.93 288.762 125.195L291.945 128.648L295.181 132.208Z" fill="black"/>
<path d="M222.362 74.6004C225.043 74.6004 227.216 72.4269 227.216 69.7457C227.216 67.0646 225.043 64.8911 222.362 64.8911C219.68 64.8911 217.507 67.0646 217.507 69.7457C217.507 72.4269 219.68 74.6004 222.362 74.6004Z" fill="#77F169"/>
<path d="M138.7 63.4347C140.279 63.4347 141.559 62.1548 141.559 60.5759C141.559 58.997 140.279 57.717 138.7 57.717C137.121 57.717 135.841 58.997 135.841 60.5759C135.841 62.1548 137.121 63.4347 138.7 63.4347Z" fill="#ECCEFF"/>
<path d="M154.559 27.671C157.895 27.671 160.6 24.9662 160.6 21.6297C160.6 18.2931 157.895 15.5883 154.559 15.5883C151.222 15.5883 148.517 18.2931 148.517 21.6297C148.517 24.9662 151.222 27.671 154.559 27.671Z" fill="#0049E5"/>
<path d="M127.265 48.33C128.397 48.33 129.314 47.4123 129.314 46.2803C129.314 45.1483 128.397 44.2306 127.265 44.2306C126.133 44.2306 125.215 45.1483 125.215 46.2803C125.215 47.4123 126.133 48.33 127.265 48.33Z" fill="#77F169"/>
<path d="M90.6392 122.552C96.0014 122.552 100.348 118.205 100.348 112.843C100.348 107.481 96.0014 103.134 90.6392 103.134C85.2769 103.134 80.9299 107.481 80.9299 112.843C80.9299 118.205 85.2769 122.552 90.6392 122.552Z" fill="#F089C0"/>
<path d="M176.081 161.497C177.6 161.497 178.832 160.265 178.832 158.746C178.832 157.226 177.6 155.995 176.081 155.995C174.561 155.995 173.33 157.226 173.33 158.746C173.33 160.265 174.561 161.497 176.081 161.497Z" fill="#F089C0"/>
<path d="M108.386 72.8725C109.607 72.8725 110.597 71.8824 110.597 70.661C110.597 69.4396 109.607 68.4494 108.386 68.4494C107.164 68.4494 106.174 69.4396 106.174 70.661C106.174 71.8824 107.164 72.8725 108.386 72.8725Z" fill="#0049E5"/>
<path d="M210.926 20.9843C213.578 20.9843 215.727 18.8349 215.727 16.1836C215.727 13.5322 213.578 11.3829 210.926 11.3829C208.275 11.3829 206.126 13.5322 206.126 16.1836C206.126 18.8349 208.275 20.9843 210.926 20.9843Z" fill="#ECCEFF"/>
<path d="M234.013 93.4784C236.098 93.4784 237.788 91.7879 237.788 89.7026C237.788 87.6172 236.098 85.9267 234.013 85.9267C231.927 85.9267 230.237 87.6172 230.237 89.7026C230.237 91.7879 231.927 93.4784 234.013 93.4784Z" fill="#0049E5"/>
<path d="M248.684 60.4129C249.37 60.4129 249.925 59.8574 249.925 59.1722C249.925 58.4871 249.37 57.9316 248.684 57.9316C247.999 57.9316 247.444 58.4871 247.444 59.1722C247.444 59.8574 247.999 60.4129 248.684 60.4129Z" fill="#ECCEFF"/>
<path d="M186.761 7.55165C188.846 7.55165 190.537 5.86116 190.537 3.77583C190.537 1.6905 188.846 0 186.761 0C184.675 0 182.985 1.6905 182.985 3.77583C182.985 5.86116 184.675 7.55165 186.761 7.55165Z" fill="#F089C0"/>
<path d="M88.7381 137.572L43.8116 149.61C42.0757 150.075 40.3148 149.059 39.8496 147.323L15.9597 58.1643C15.4945 56.4283 16.5112 54.6674 18.2471 54.2023L63.1736 42.1643C64.9095 41.6991 66.6704 42.7158 67.1356 44.4517L91.0162 133.576C91.4814 135.311 90.474 137.107 88.7381 137.572Z" fill="#0049E5"/>
<path d="M35.711 61.4674C31.6489 62.5558 28.8714 63.3 28.8714 63.3L26.1468 59.9368L19.6525 62.0863C19.6525 62.0863 37.9296 143.074 41.4307 143.364C44.9318 143.653 52.9445 141.06 52.9445 141.06L84.6923 129.278L63.035 48.4525L57.2549 49.5175C57.2549 49.5175 55.1884 56.2484 53.8164 57.0998C52.4444 57.9511 35.711 61.4674 35.711 61.4674Z" fill="#0051FF"/>
<path d="M87.9066 139.469L69.9407 144.357L51.9842 149.28C49.0076 150.115 45.9871 150.924 43.0012 151.724C42.2027 151.938 41.2857 151.849 40.5466 151.452C39.7729 151.064 39.1863 150.402 38.8681 149.632C38.7218 149.224 38.6288 148.877 38.5264 148.495L37.624 145.128C35.9799 139.13 34.4145 133.149 32.8051 127.143L28.0904 109.131L23.3409 91.1276C21.7662 85.1119 20.1314 79.1495 18.5219 73.1431L16.0778 64.1602L15.1754 60.7924C15.073 60.4105 14.9453 60.0726 14.9031 59.6374C14.7933 58.811 14.9798 57.9795 15.4652 57.2913C15.9159 56.6124 16.6307 56.0859 17.4293 55.8719L53.361 46.0952L62.3532 43.6858C63.1865 43.4625 64.1128 43.5864 64.8866 43.9745C65.6603 44.3625 66.2816 45.0147 66.6091 45.82C66.7554 46.2274 66.8578 46.6093 66.9601 46.9912L72.6814 68.3434C75.8909 80.3215 79.075 92.3436 82.1804 104.35L86.8604 122.371L89.2352 131.373L90.1376 134.741C90.2399 135.122 90.3422 135.504 90.4098 135.896C90.5103 136.687 90.3145 137.484 89.8545 138.128C89.3598 138.782 88.6704 139.264 87.9066 139.469ZM87.888 139.399C88.6171 139.204 89.3065 138.722 89.7317 138.087C90.157 137.452 90.3529 136.655 90.2617 135.898C90.2033 135.542 90.101 135.16 89.9987 134.778L89.0963 131.41L86.6521 122.427L81.6943 104.48C78.3806 92.5296 75.1271 80.5261 71.9176 68.5481L66.1963 47.1959C66.0939 46.8139 65.9916 46.432 65.8732 46.1289C65.627 45.4878 65.1123 44.9559 64.5053 44.6348C63.8983 44.3137 63.1735 44.2474 62.5046 44.3894L17.4529 56.2377C16.7585 56.4238 16.0945 56.8622 15.704 57.4878C15.3041 58.0787 15.099 58.8407 15.1809 59.563C15.2392 59.9195 15.3415 60.3014 15.4438 60.6833L16.3462 64.051L18.721 73.0526C20.3304 79.059 21.8958 85.04 23.5399 91.037L28.4282 109.003L33.3513 126.959C34.9607 132.966 36.5956 138.928 38.1702 144.944L39.0726 148.312C39.175 148.694 39.2773 149.076 39.3957 149.379C39.6512 150.054 40.1659 150.586 40.8076 150.898C41.4493 151.21 42.1834 151.311 42.8778 151.125L69.9103 144.105L87.888 139.399Z" fill="black"/>
<path d="M26.8866 58.8086L28.4187 60.2215L29.1628 60.9152C29.4108 61.1464 29.6935 61.3684 29.9831 61.4768C30.2819 61.62 30.6316 61.6752 30.9627 61.6609C31.2938 61.6466 31.641 61.5536 31.9534 61.4698L33.9324 60.9396C36.6058 60.2232 39.2444 59.5162 41.9085 58.7652L49.8753 56.5561L52.8611 55.756C53.1736 55.6723 53.4675 55.5191 53.708 55.3058C53.9485 55.0925 54.1451 54.8538 54.2882 54.555C54.3967 54.2654 54.4959 53.9411 54.5951 53.6169L55.1808 51.6366L55.3469 51.1455C55.4139 50.9787 55.4715 50.7772 55.5825 50.6358C55.7511 50.293 56.0077 50.0009 56.327 49.8037C56.637 49.5718 57.0096 49.4348 57.3568 49.3418L60.3426 48.5417C60.6898 48.4487 61.081 48.3811 61.4654 48.4269C61.8498 48.4728 62.2181 48.5973 62.561 48.766C62.8785 48.9786 63.1705 49.2352 63.4024 49.5452C63.5183 49.7002 63.5996 49.8645 63.6901 50.0635C63.7714 50.2278 63.8272 50.4361 63.8644 50.575L65.4645 56.5467C66.9226 61.8494 68.3205 67.2054 69.7438 72.5174L73.919 88.5161L78.129 104.505C79.5176 109.827 80.985 115.164 82.4083 120.476L84.5827 128.452L84.8525 129.459C84.9455 129.806 84.9344 130.181 84.8885 130.566C84.7528 131.309 84.2928 131.953 83.645 132.313C83.3257 132.51 82.9438 132.613 82.6313 132.696L79.6455 133.496L47.7412 142.194L43.7485 143.264C42.9753 143.434 42.1532 143.282 41.4997 142.787C41.1729 142.54 40.9063 142.239 40.7091 141.92C40.6279 141.756 40.5374 141.557 40.4908 141.383C40.4443 141.209 40.3978 141.036 40.3513 140.862L38.1769 132.886L33.8976 116.915C31.0415 106.257 28.2296 95.6233 25.4777 84.9367L20.3021 64.9267L19.7719 62.9477C19.6788 62.6005 19.5951 62.2881 19.5368 61.9316C19.4785 61.5751 19.5336 61.2254 19.6235 60.8664C19.8125 60.1832 20.3258 59.5991 21.0016 59.3436C21.3395 59.2158 21.652 59.1321 21.9992 59.0391L24.0129 58.4995C24.3601 58.4065 24.6632 58.288 25.029 58.2644C25.6447 58.0623 26.3465 58.3207 26.8866 58.8086ZM26.8265 58.862C26.3304 58.3995 25.6379 58.1757 24.9503 58.2483C24.6285 58.2973 24.2906 58.4251 23.9341 58.4834L21.9204 59.023C21.5732 59.116 21.2608 59.1997 20.9576 59.3182C20.3258 59.5991 19.838 60.1391 19.6743 60.7784C19.5752 61.1026 19.5547 61.443 19.6037 61.7648C19.6527 62.0866 19.7805 62.4244 19.8642 62.7369L20.3945 64.7159L25.9173 84.6328C28.8774 95.2637 31.7589 105.878 34.6149 116.537L38.8942 132.508L40.9992 140.503C41.0457 140.676 41.0922 140.85 41.1294 140.989C41.1666 141.128 41.2386 141.257 41.3105 141.387C41.4543 141.646 41.6583 141.852 41.8971 142.048C42.3652 142.406 42.9951 142.535 43.5599 142.421L47.5526 141.351L79.5313 132.932L82.5172 132.132C82.8644 132.039 83.1768 131.955 83.436 131.811C83.989 131.514 84.3889 130.923 84.5178 130.293C84.5822 129.978 84.5679 129.647 84.4842 129.335L84.2144 128.328L82.1095 120.333C80.6861 115.021 79.2882 109.665 77.8301 104.362L73.4813 88.4101L69.0978 72.4673C67.6745 67.1553 66.2071 61.8178 64.8185 56.4965L63.2183 50.5248C63.1718 50.3512 63.1346 50.2124 63.0627 50.0828C62.9908 49.9532 62.9535 49.8143 62.8469 49.6941C62.6683 49.4442 62.4643 49.2384 62.2002 49.0859C61.6719 48.7809 61.0513 48.6867 60.4357 48.8889L57.4498 49.6889C57.1373 49.7727 56.8342 49.8911 56.5843 50.0697C56.3345 50.2483 56.1033 50.4963 55.9508 50.7604C55.8745 50.8925 55.7983 51.0246 55.766 51.182L55.5999 51.6731L54.9702 53.628C54.871 53.9523 54.7718 54.2765 54.6032 54.6194C54.4346 54.9623 54.2127 55.245 53.912 55.5116C53.6367 55.7342 53.2827 55.9407 52.9355 56.0338L49.9497 56.8338L41.9457 58.9041C39.263 59.5857 36.6244 60.2927 33.951 61.009L31.972 61.5393C31.6596 61.623 31.3217 61.7508 30.9466 61.7396C30.5808 61.7632 30.2311 61.7081 29.9323 61.5649C29.5987 61.431 29.3159 61.2091 29.0679 60.9778L28.3239 60.2841L26.8265 58.862Z" fill="black"/>
<path d="M41.5789 54.2025C41.7277 54.758 42.1798 55.1951 42.6708 55.3612C43.1619 55.5273 43.6597 55.58 44.1551 55.4844C44.6505 55.3889 45.1874 55.1706 45.4669 54.6864C45.7558 54.2369 45.8153 53.6255 45.6063 53.1234C45.3973 52.6212 45.0427 52.2697 44.6024 52.0155C44.1715 51.7961 43.6737 51.7434 43.1876 51.8737C42.7362 51.9946 42.3221 52.2544 41.9452 52.6531C41.647 53.0679 41.43 53.647 41.5789 54.2025ZM41.5095 54.2211C41.3606 53.6656 41.3413 53.0382 41.549 52.4244C41.7566 51.8106 42.3326 51.3213 42.9922 51.1446C43.6519 50.9678 44.386 51.0688 44.9328 51.4432C45.5051 51.7736 45.8995 52.4122 45.9882 53.021C46.0862 53.6646 45.948 54.2598 45.6871 54.8135C45.4168 55.3324 44.9636 55.8632 44.3132 56.0747C44.0101 56.1931 43.679 56.2074 43.3293 56.1523C43.0144 56.0878 42.6808 55.9539 42.4421 55.7574C41.9646 55.3644 41.693 54.7673 41.5095 54.2211Z" fill="black"/>
<path d="M36.3018 55.617C36.4041 55.9989 36.7401 56.281 37.0991 56.3708C37.4581 56.4607 37.7545 56.4557 38.0856 56.4414C38.4073 56.3924 38.7892 56.2901 38.9926 55.9379C39.2052 55.6205 39.207 55.2106 39.0446 54.8821C38.8821 54.5535 38.6341 54.3222 38.3352 54.179C38.0364 54.0359 37.74 54.0408 37.4182 54.0898C37.1405 54.1643 36.8466 54.3174 36.5807 54.5748C36.3494 54.8228 36.1994 55.2351 36.3018 55.617ZM36.2323 55.6356C36.13 55.2537 36.0785 54.7837 36.2192 54.3367C36.3115 54.1259 36.4386 53.9058 36.6097 53.7111C36.7901 53.5511 37.0146 53.4166 37.2576 53.3514C37.7437 53.2212 38.2855 53.2993 38.7003 53.5975C39.1059 53.8609 39.375 54.3098 39.4265 54.7797C39.478 55.2497 39.372 55.6874 39.178 56.0743C38.9839 56.4612 38.6764 56.8413 38.209 57.041C37.7762 57.2313 37.1903 57.1278 36.845 56.8111C36.525 56.4503 36.344 56.0522 36.2323 55.6356Z" fill="black"/>
<path d="M81.836 74.0395C83.9069 73.4846 85.1359 71.356 84.581 69.2851C84.0261 67.2143 81.8975 65.9853 79.8266 66.5402C77.7557 67.0951 76.5268 69.2237 77.0817 71.2946C77.6366 73.3655 79.7652 74.5944 81.836 74.0395Z" fill="#ECCEFF"/>
<path d="M41.9044 39.8629C42.9015 39.5957 43.4932 38.5708 43.2261 37.5737C42.9589 36.5766 41.934 35.9849 40.9369 36.2521C39.9398 36.5192 39.3481 37.5441 39.6153 38.5412C39.8825 39.5383 40.9073 40.13 41.9044 39.8629Z" fill="#0049E5"/>
<path d="M69.6157 41.07C71.3606 40.6025 72.3961 38.8089 71.9286 37.064C71.461 35.3191 69.6675 34.2836 67.9226 34.7511C66.1777 35.2187 65.1422 37.0122 65.6097 38.7571C66.0773 40.502 67.8708 41.5375 69.6157 41.07Z" fill="#FAE058"/>
<path d="M19.0675 33.5158C19.6619 33.3565 20.0146 32.7456 19.8554 32.1511C19.6961 31.5567 19.0851 31.204 18.4907 31.3632C17.8963 31.5225 17.5435 32.1335 17.7028 32.7279C17.862 33.3223 18.473 33.6751 19.0675 33.5158Z" fill="#ECCEFF"/>
<path d="M5.45657 90.4874C7.39322 89.9684 8.54252 87.9778 8.02359 86.0411C7.50467 84.1045 5.51403 82.9552 3.57737 83.4741C1.64072 83.993 0.491418 85.9837 1.01034 87.9203C1.52927 89.857 3.51991 91.0063 5.45657 90.4874Z" fill="#77F169"/>
<path d="M19.8765 108.057C20.5093 107.887 20.8848 107.237 20.7153 106.604C20.5457 105.971 19.8953 105.596 19.2625 105.766C18.6298 105.935 18.2543 106.585 18.4238 107.218C18.5934 107.851 19.2438 108.227 19.8765 108.057Z" fill="#ECCEFF"/>
<path d="M9.09205 65.5864C10.9712 65.0829 12.0863 63.1514 11.5828 61.2723C11.0793 59.3931 9.14781 58.278 7.26868 58.7815C5.38955 59.285 4.27439 61.2165 4.7779 63.0956C5.28141 64.9748 7.21292 66.0899 9.09205 65.5864Z" fill="#ECCEFF"/>
<path d="M87.52 110.251C88.4212 110.009 88.956 109.083 88.7146 108.182C88.4731 107.28 87.5468 106.746 86.6455 106.987C85.7443 107.229 85.2095 108.155 85.451 109.056C85.6925 109.957 86.6188 110.492 87.52 110.251Z" fill="#FAE058"/>
<path d="M43.6487 26.9297C45.3169 26.4827 46.3069 24.768 45.8599 23.0998C45.4129 21.4316 43.6982 20.4416 42.03 20.8886C40.3618 21.3356 39.3718 23.0503 39.8188 24.7185C40.2658 26.3867 41.9805 27.3767 43.6487 26.9297Z" fill="#ECCEFF"/>
<path d="M19.9782 47.7474C21.493 47.3415 22.392 45.7845 21.9861 44.2697C21.5802 42.7549 20.0232 41.8559 18.5084 42.2618C16.9935 42.6677 16.0946 44.2247 16.5005 45.7395C16.9064 47.2543 18.4634 48.1533 19.9782 47.7474Z" fill="#FAE058"/>
<path d="M63.8591 102.64C63.9813 103.096 64.0154 103.571 63.9592 104.038C63.9031 104.504 63.7579 104.954 63.5319 105.36C63.3059 105.766 63.0036 106.122 62.6422 106.406C62.2808 106.689 61.8674 106.897 61.4256 107.015C60.9838 107.133 60.5223 107.161 60.0673 107.095C59.6124 107.03 59.1729 106.874 58.7741 106.635C58.3753 106.396 58.0249 106.08 57.7429 105.703C57.4609 105.327 57.2528 104.899 57.1306 104.443L63.8591 102.64Z" fill="white"/>
<path d="M63.8591 102.64L57.1306 104.443L56.1451 100.765L62.8736 98.9619L63.8591 102.64Z" fill="white"/>
<path d="M61.9428 95.4882C62.0651 95.9444 62.0991 96.4194 62.0429 96.8862C61.9868 97.3529 61.8416 97.8022 61.6156 98.2085C61.3896 98.6148 61.0873 98.97 60.7259 99.2539C60.3645 99.5379 59.9511 99.7449 59.5093 99.8633C59.0675 99.9817 58.606 100.009 58.1511 99.9439C57.6961 99.8787 57.2567 99.7222 56.8579 99.4833C56.459 99.2445 56.1086 98.9279 55.8266 98.5518C55.5446 98.1757 55.3366 97.7473 55.2143 97.2911L61.9428 95.4882Z" fill="white"/>
<path d="M61.9428 95.4882L55.2143 97.2911L54.2288 93.6132L60.9573 91.8103L61.9428 95.4882Z" fill="white"/>
<path d="M46.5148 91.7381C46.3926 91.282 46.3586 90.807 46.4147 90.3402C46.4709 89.8735 46.6161 89.4241 46.8421 89.0179C47.068 88.6116 47.3703 88.2564 47.7317 87.9724C48.0931 87.6885 48.5065 87.4814 48.9483 87.3631C49.3901 87.2447 49.8517 87.2173 50.3066 87.2825C50.7616 87.3477 51.201 87.5042 51.5998 87.743C51.9987 87.9819 52.3491 88.2984 52.6311 88.6746C52.9131 89.0507 53.1211 89.4791 53.2433 89.9352L46.5148 91.7381Z" fill="white"/>
<path d="M46.5148 91.7381L53.2433 89.9352L54.2288 93.6132L47.5003 95.4161L46.5148 91.7381Z" fill="white"/>
<path d="M48.4859 99.094C48.6081 99.5502 48.6421 100.025 48.586 100.492C48.5298 100.959 48.3846 101.408 48.1586 101.814C47.9327 102.221 47.6304 102.576 47.269 102.86C46.9076 103.144 46.4942 103.351 46.0524 103.469C45.6106 103.587 45.149 103.615 44.6941 103.55C44.2391 103.484 43.7997 103.328 43.4009 103.089C43.002 102.85 42.6516 102.534 42.3696 102.158C42.0876 101.781 41.8796 101.353 41.7574 100.897L48.4859 99.094Z" fill="white"/>
<path d="M48.4859 99.094L41.7574 100.897L40.7719 97.219L47.5003 95.4161L48.4859 99.094Z" fill="white"/>
</svg>
