<svg width="325" height="183" viewBox="0 0 325 183" fill="none" xmlns="http://www.w3.org/2000/svg">
<path d="M66.1968 31.1862C66.1968 31.1862 90.1875 30.8304 88.4339 42.2018C86.6802 53.5732 81.8035 54.6492 94.4904 56.3979C107.177 58.1466 107.831 79.078 114.547 83.8021C120.389 87.9112 116.97 91.7593 124.856 92.9979C132.742 94.2365 146.03 99.8282 148.278 105.74C150.528 111.652 153.241 113.031 153.241 113.031C153.241 113.031 146.683 110.024 145.319 105.406C143.955 100.789 142.741 94.6076 135.268 94.1044C127.796 93.5994 121.58 96.0598 118.507 94.8923C115.433 93.7248 123.07 90.6341 116.575 83.7615C110.08 76.8888 101.502 66.6849 100.835 59.7732C100.168 52.8616 80.2683 55.898 86.3231 42.7339C91.7177 31.0083 79.7875 31.8962 77.9086 29.4088C76.0297 26.9213 66.1968 31.1862 66.1968 31.1862Z" fill="#0049E5"/>
<path d="M153.241 113.03C153.241 113.03 159.541 87.7333 174.76 83.8005C189.978 79.866 200.507 80.6335 206.069 65.3259C211.631 50.0183 225.835 39.7127 242.161 40.7785C258.487 41.8443 262.825 32.6062 263.14 29.4071C263.14 29.4071 250.707 36.8694 246.078 43.6201C241.448 50.3708 220.24 47.1378 213.628 46.8006C207.017 46.4634 214.436 69.0181 204.117 74.847C193.798 80.6759 187.337 76.6635 180.013 80.5742C172.689 84.4833 155.14 99.0809 153.392 102.087C151.641 105.096 153.241 113.03 153.241 113.03Z" fill="#0049E5"/>
<path d="M44.2356 54.8577L39.0356 67.7422L49.6185 62.9114L44.2356 54.8577Z" fill="#77F169"/>
<path d="M60.9409 78.7985L71.1361 84.0733L63.0043 92.9962L60.9409 78.7985Z" fill="#F089C0"/>
<path d="M97.6792 96.58L107.678 98.2676L100.812 109.859L97.6792 96.58Z" fill="#77F169"/>
<path d="M141.874 110.008L137.957 121.661L134.194 107.729L141.874 110.008Z" fill="#0049E5"/>
<path d="M172.674 105.738L163.227 108.443L171.67 121.241L172.674 105.738Z" fill="#F089C0"/>
<path d="M183.207 102.15L192.324 98.5082V112.193L183.207 102.15Z" fill="#77F169"/>
<path d="M204.252 86.72L212.619 79.7643L216.045 94.8923L204.252 86.72Z" fill="#0049E5"/>
<path d="M253.234 82.3365L254.556 67.3627L245.341 70.0839L253.234 82.3365Z" fill="#F089C0"/>
<path d="M270.744 59.7732L278.223 55.8048L280.411 69.6925L270.744 59.7732Z" fill="#77F169"/>
<path d="M29.3315 47.8833C29.3315 47.8833 48.19 52.7514 51.3181 64.0907C54.4463 75.4299 86.7719 95.7886 96.4982 96.4698C106.223 97.1527 146.814 106.514 154.577 114.553C154.577 114.553 108.046 99.1419 97.9793 94.7974C87.9128 90.4528 61.361 79.9608 56.9142 76.4465C52.4675 72.9323 49.6576 58.2838 44.9992 53.1717C40.3409 48.0595 29.3315 47.8833 29.3315 47.8833Z" fill="#0049E5"/>
<path d="M153.273 114.555C153.273 114.555 150.194 108.87 171.966 104.132C193.737 99.3944 200.364 98.21 203.914 88.7346C207.464 79.2593 224.739 68.4386 242.961 68.5182C261.183 68.5979 271.36 60.5442 273.726 56.2809C276.093 52.0177 294.078 53.2021 294.078 53.2021C294.078 53.2021 282.718 55.3337 278.222 55.8082C273.726 56.2826 263.313 59.1242 255.267 65.5207C247.222 71.9173 226.634 72.8645 221.071 76.1805C215.511 79.4965 203.205 83.287 200.364 86.8403C197.524 90.3935 189.479 102.002 180.485 104.371C171.494 106.736 159.9 107.211 153.273 114.555Z" fill="#0049E5"/>
<path d="M16.25 95.1296C16.25 95.1296 33.5258 85.8915 55.0604 95.1296C76.5951 104.368 79.6453 106.264 93.8573 104.842C108.069 103.42 118.483 102.948 128.422 109.343C138.362 115.737 154.576 114.555 154.576 114.555C154.576 114.555 134.103 110.291 128.422 111.711C122.743 113.133 108.543 103.427 100.261 102.832C91.9784 102.236 73.9934 102.717 68.3126 102.832C62.6336 102.948 45.5948 90.8663 38.0216 89.6819C30.4501 88.4958 16.25 95.1296 16.25 95.1296Z" fill="#0049E5"/>
<path d="M154.576 114.555C154.576 114.555 173.15 108.633 183.325 110.054C193.502 111.476 209.704 110.473 219.706 102.09C229.709 93.7079 230.418 90.1546 242.252 92.0507C254.084 93.9451 260.474 91.8135 265.206 85.4169C269.939 79.0204 284.612 75.2299 291.948 78.0732C299.284 80.9165 308.75 71.4395 308.75 71.4395C308.75 71.4395 301.6 75.2062 297.864 76.8888C294.128 78.5714 268.519 81.0487 264.496 81.2198C260.472 81.3909 255.03 94.1823 242.25 95.1295C229.47 96.0767 218.379 101.807 208.172 106.026C197.965 110.246 188.633 113.538 177.988 112.423C167.343 111.308 154.576 114.555 154.576 114.555Z" fill="#0049E5"/>
<path d="M37.5817 81.2181C38.3838 81.2181 39.0341 80.5672 39.0341 79.7643C39.0341 78.9613 38.3838 78.3104 37.5817 78.3104C36.7796 78.3104 36.1294 78.9613 36.1294 79.7643C36.1294 80.5672 36.7796 81.2181 37.5817 81.2181Z" fill="#77F169"/>
<path d="M55.3448 89.5395C55.7636 89.5395 56.1031 89.1996 56.1031 88.7804C56.1031 88.3611 55.7636 88.0212 55.3448 88.0212C54.9259 88.0212 54.5864 88.3611 54.5864 88.7804C54.5864 89.1996 54.9259 89.5395 55.3448 89.5395Z" fill="#0049E5"/>
<path d="M99.0183 80.0862C99.5082 80.0862 99.9053 79.6887 99.9053 79.1983C99.9053 78.7079 99.5082 78.3104 99.0183 78.3104C98.5285 78.3104 98.1313 78.7079 98.1313 79.1983C98.1313 79.6887 98.5285 80.0862 99.0183 80.0862Z" fill="#0049E5"/>
<path d="M280.41 99.1555C280.9 99.1555 281.297 98.758 281.297 98.2677C281.297 97.7773 280.9 97.3798 280.41 97.3798C279.921 97.3798 279.523 97.7773 279.523 98.2677C279.523 98.758 279.921 99.1555 280.41 99.1555Z" fill="#0049E5"/>
<path d="M134.195 81.2181C134.997 81.2181 135.647 80.5672 135.647 79.7643C135.647 78.9613 134.997 78.3104 134.195 78.3104C133.392 78.3104 132.742 78.9613 132.742 79.7643C132.742 80.5672 133.392 81.2181 134.195 81.2181Z" fill="#77F169"/>
<path d="M104.093 67.7404C105.425 67.7404 106.505 66.6594 106.505 65.3258C106.505 63.9923 105.425 62.9113 104.093 62.9113C102.761 62.9113 101.681 63.9923 101.681 65.3258C101.681 66.6594 102.761 67.7404 104.093 67.7404Z" fill="#FAE058"/>
<path d="M166.731 73.1949C167.216 73.1949 167.608 72.8019 167.608 72.3172C167.608 71.8324 167.216 71.4395 166.731 71.4395C166.247 71.4395 165.854 71.8324 165.854 72.3172C165.854 72.8019 166.247 73.1949 166.731 73.1949Z" fill="#FAE058"/>
<path d="M158.83 152.142C159.314 152.142 159.707 151.749 159.707 151.265C159.707 150.78 159.314 150.387 158.83 150.387C158.346 150.387 157.953 150.78 157.953 151.265C157.953 151.749 158.346 152.142 158.83 152.142Z" fill="#FAE058"/>
<path d="M209.593 92.9962C209.985 92.9962 210.302 92.6784 210.302 92.2863C210.302 91.8942 209.985 91.5763 209.593 91.5763C209.201 91.5763 208.884 91.8942 208.884 92.2863C208.884 92.6784 209.201 92.9962 209.593 92.9962Z" fill="#0049E5"/>
<path d="M241.897 120.594C242.288 120.594 242.606 120.276 242.606 119.884C242.606 119.492 242.288 119.174 241.897 119.174C241.505 119.174 241.188 119.492 241.188 119.884C241.188 120.276 241.505 120.594 241.897 120.594Z" fill="#0049E5"/>
<path d="M51.3923 121.661C52.373 121.661 53.168 120.865 53.168 119.884C53.168 118.902 52.373 118.106 51.3923 118.106C50.4117 118.106 49.6167 118.902 49.6167 119.884C49.6167 120.865 50.4117 121.661 51.3923 121.661Z" fill="#77F169"/>
<path d="M76.3498 123.088C76.7434 123.088 77.0625 122.768 77.0625 122.374C77.0625 121.981 76.7434 121.661 76.3498 121.661C75.9563 121.661 75.6372 121.981 75.6372 122.374C75.6372 122.768 75.9563 123.088 76.3498 123.088Z" fill="#FAE058"/>
<path d="M64.5092 113.54C65.3403 113.54 66.014 112.865 66.014 112.033C66.014 111.201 65.3403 110.527 64.5092 110.527C63.6781 110.527 63.0044 111.201 63.0044 112.033C63.0044 112.865 63.6781 113.54 64.5092 113.54Z" fill="#77F169"/>
<path d="M208.292 59.1226C208.619 59.1226 208.884 58.8571 208.884 58.5296C208.884 58.202 208.619 57.9365 208.292 57.9365C207.964 57.9365 207.699 58.202 207.699 58.5296C207.699 58.8571 207.964 59.1226 208.292 59.1226Z" fill="#77F169"/>
<path d="M170.557 89.5378C171.172 89.5378 171.669 89.0393 171.669 88.4245C171.669 87.8097 171.172 87.3113 170.557 87.3113C169.943 87.3113 169.445 87.8097 169.445 88.4245C169.445 89.0393 169.943 89.5378 170.557 89.5378Z" fill="#0049E5"/>
<path d="M125.968 154.369C126.582 154.369 127.08 153.871 127.08 153.256C127.08 152.641 126.582 152.142 125.968 152.142C125.354 152.142 124.856 152.641 124.856 153.256C124.856 153.871 125.354 154.369 125.968 154.369Z" fill="#0049E5"/>
<path d="M146.265 62.9114C146.788 62.9114 147.211 62.4873 147.211 61.9642C147.211 61.441 146.788 61.017 146.265 61.017C145.742 61.017 145.319 61.441 145.319 61.9642C145.319 62.4873 145.742 62.9114 146.265 62.9114Z" fill="#0049E5"/>
<path d="M240.417 56.3962C240.841 56.3962 241.185 56.0518 241.185 55.6269C241.185 55.2021 240.841 54.8577 240.417 54.8577C239.993 54.8577 239.648 55.2021 239.648 55.6269C239.648 56.0518 239.993 56.3962 240.417 56.3962Z" fill="#77F169"/>
<path d="M182.438 56.3962C182.863 56.3962 183.207 56.0518 183.207 55.6269C183.207 55.2021 182.863 54.8577 182.438 54.8577C182.014 54.8577 181.67 55.2021 181.67 55.6269C181.67 56.0518 182.014 56.3962 182.438 56.3962Z" fill="#0049E5"/>
<path d="M185.115 80.7081C186.168 80.7081 187.022 79.8531 187.022 78.7984C187.022 77.7438 186.168 76.8888 185.115 76.8888C184.061 76.8888 183.207 77.7438 183.207 78.7984C183.207 79.8531 184.061 80.7081 185.115 80.7081Z" fill="#F089C0"/>
<path d="M254.556 84.468C256.255 84.468 257.632 83.0896 257.632 81.3892C257.632 79.6889 256.255 78.3104 254.556 78.3104C252.857 78.3104 251.48 79.6889 251.48 81.3892C251.48 83.0896 252.857 84.468 254.556 84.468Z" fill="#77F169"/>
<path d="M276.671 66.4883C276.992 66.4883 277.252 66.2281 277.252 65.9071C277.252 65.5861 276.992 65.3259 276.671 65.3259C276.351 65.3259 276.091 65.5861 276.091 65.9071C276.091 66.2281 276.351 66.4883 276.671 66.4883Z" fill="#FAE058"/>
<path d="M292.243 61.017C292.93 61.017 293.486 60.4602 293.486 59.7733C293.486 59.0864 292.93 58.5295 292.243 58.5295C291.557 58.5295 291.001 59.0864 291.001 59.7733C291.001 60.4602 291.557 61.017 292.243 61.017Z" fill="#0049E5"/>
<path d="M294.121 53.048C295.844 53.048 297.24 51.6498 297.24 49.9251C297.24 48.2004 295.844 46.8022 294.121 46.8022C292.398 46.8022 291.001 48.2004 291.001 49.9251C291.001 51.6498 292.398 53.048 294.121 53.048Z" fill="#0049E5"/>
<path d="M176.463 130.425C177.639 130.425 178.593 129.47 178.593 128.293C178.593 127.116 177.639 126.161 176.463 126.161C175.287 126.161 174.334 127.116 174.334 128.293C174.334 129.47 175.287 130.425 176.463 130.425Z" fill="#0049E5"/>
<path d="M113.628 126.162C114.476 126.162 115.163 125.474 115.163 124.625C115.163 123.776 114.476 123.088 113.628 123.088C112.78 123.088 112.093 123.776 112.093 124.625C112.093 125.474 112.78 126.162 113.628 126.162Z" fill="#0049E5"/>
<path d="M103.988 119.884C104.478 119.884 104.875 119.486 104.875 118.996C104.875 118.505 104.478 118.108 103.988 118.108C103.498 118.108 103.101 118.505 103.101 118.996C103.101 119.486 103.498 119.884 103.988 119.884Z" fill="#FAE058"/>
<path d="M110.082 88.0231C110.801 88.0231 111.384 87.4397 111.384 86.72C111.384 86.0004 110.801 85.417 110.082 85.417C109.363 85.417 108.78 86.0004 108.78 86.72C108.78 87.4397 109.363 88.0231 110.082 88.0231Z" fill="#0049E5"/>
<path d="M35.1526 67.7405C35.6583 67.7405 36.0683 67.3301 36.0683 66.8238C36.0683 66.3175 35.6583 65.9071 35.1526 65.9071C34.6468 65.9071 34.2368 66.3175 34.2368 66.8238C34.2368 67.3301 34.6468 67.7405 35.1526 67.7405Z" fill="#FAE058"/>
<path d="M73.6377 62.9114C75.0101 62.9114 76.1226 61.7977 76.1226 60.424C76.1226 59.0502 75.0101 57.9365 73.6377 57.9365C72.2654 57.9365 71.1528 59.0502 71.1528 60.424C71.1528 61.7977 72.2654 62.9114 73.6377 62.9114Z" fill="#0049E5"/>
<path d="M110.082 80.0862C110.965 80.0862 111.68 79.3701 111.68 78.4866C111.68 77.6032 110.965 76.8871 110.082 76.8871C109.2 76.8871 108.484 77.6032 108.484 78.4866C108.484 79.3701 109.2 80.0862 110.082 80.0862Z" fill="#77F169"/>
<path d="M82.5875 81.3893C83.4373 81.3893 84.1262 80.6997 84.1262 79.8491C84.1262 78.9984 83.4373 78.3088 82.5875 78.3088C81.7377 78.3088 81.0488 78.9984 81.0488 79.8491C81.0488 80.6997 81.7377 81.3893 82.5875 81.3893Z" fill="#77F169"/>
<path d="M70.6791 94.8923C71.5944 94.8923 72.3363 94.1496 72.3363 93.2334C72.3363 92.3173 71.5944 91.5746 70.6791 91.5746C69.7639 91.5746 69.022 92.3173 69.022 93.2334C69.022 94.1496 69.7639 94.8923 70.6791 94.8923Z" fill="#0049E5"/>
<path d="M32.5795 105.406C33.4948 105.406 34.2367 104.664 34.2367 103.747C34.2367 102.831 33.4948 102.089 32.5795 102.089C31.6643 102.089 30.9224 102.831 30.9224 103.747C30.9224 104.664 31.6643 105.406 32.5795 105.406Z" fill="#0049E5"/>
<path d="M74.994 122.598C75.7429 122.598 76.3499 121.991 76.3499 121.241C76.3499 120.491 75.7429 119.884 74.994 119.884C74.2452 119.884 73.6382 120.491 73.6382 121.241C73.6382 121.991 74.2452 122.598 74.994 122.598Z" fill="#0049E5"/>
<path d="M92.5894 115.912C92.9399 115.912 93.2241 115.627 93.2241 115.276C93.2241 114.925 92.9399 114.641 92.5894 114.641C92.2388 114.641 91.9546 114.925 91.9546 115.276C91.9546 115.627 92.2388 115.912 92.5894 115.912Z" fill="#0049E5"/>
<path d="M128.457 124.626C129.391 124.626 130.148 123.869 130.148 122.934C130.148 121.999 129.391 121.241 128.457 121.241C127.523 121.241 126.766 121.999 126.766 122.934C126.766 123.869 127.523 124.626 128.457 124.626Z" fill="#77F169"/>
<path d="M136.876 101.324C137.474 101.324 137.959 100.839 137.959 100.24C137.959 99.641 137.474 99.1555 136.876 99.1555C136.278 99.1555 135.792 99.641 135.792 100.24C135.792 100.839 136.278 101.324 136.876 101.324Z" fill="#0049E5"/>
<path d="M149.838 93.9433C150.296 93.9433 150.666 93.5723 150.666 93.1147C150.666 92.6571 150.296 92.2861 149.838 92.2861C149.381 92.2861 149.011 92.6571 149.011 93.1147C149.011 93.5723 149.381 93.9433 149.838 93.9433Z" fill="#F089C0"/>
<path d="M60.1722 88.4246C60.6425 88.4246 61.0237 88.043 61.0237 87.5723C61.0237 87.1016 60.6425 86.72 60.1722 86.72C59.702 86.72 59.3208 87.1016 59.3208 87.5723C59.3208 88.043 59.702 88.4246 60.1722 88.4246Z" fill="#F089C0"/>
<path d="M148.278 128.293C148.866 128.293 149.342 127.816 149.342 127.227C149.342 126.639 148.866 126.161 148.278 126.161C147.69 126.161 147.213 126.639 147.213 127.227C147.213 127.816 147.69 128.293 148.278 128.293Z" fill="#F089C0"/>
<path d="M214.948 118.108C215.554 118.108 216.045 117.616 216.045 117.01C216.045 116.403 215.554 115.912 214.948 115.912C214.343 115.912 213.852 116.403 213.852 117.01C213.852 117.616 214.343 118.108 214.948 118.108Z" fill="#F089C0"/>
<path d="M200.719 103.747C201.176 103.747 201.547 103.377 201.547 102.919C201.547 102.461 201.176 102.09 200.719 102.09C200.262 102.09 199.892 102.461 199.892 102.919C199.892 103.377 200.262 103.747 200.719 103.747Z" fill="#F089C0"/>
<path d="M259.623 107.729C260.721 107.729 261.612 106.838 261.612 105.738C261.612 104.639 260.721 103.747 259.623 103.747C258.524 103.747 257.634 104.639 257.634 105.738C257.634 106.838 258.524 107.729 259.623 107.729Z" fill="#F089C0"/>
<path d="M240.417 86.9556C240.841 86.9556 241.185 86.6111 241.185 86.1863C241.185 85.7614 240.841 85.417 240.417 85.417C239.993 85.417 239.648 85.7614 239.648 86.1863C239.648 86.6111 239.993 86.9556 240.417 86.9556Z" fill="#F089C0"/>
<path d="M230.893 103.688C231.318 103.688 231.662 103.344 231.662 102.919C231.662 102.494 231.318 102.15 230.893 102.15C230.469 102.15 230.125 102.494 230.125 102.919C230.125 103.344 230.469 103.688 230.893 103.688Z" fill="#F089C0"/>
<path d="M232.475 81.3892C232.923 81.3892 233.287 81.0251 233.287 80.5759C233.287 80.1267 232.923 79.7626 232.475 79.7626C232.026 79.7626 231.662 80.1267 231.662 80.5759C231.662 81.0251 232.026 81.3892 232.475 81.3892Z" fill="#F089C0"/>
<path d="M217.604 49.9251C218.465 49.9251 219.163 49.2264 219.163 48.3645C219.163 47.5027 218.465 46.804 217.604 46.804C216.743 46.804 216.045 47.5027 216.045 48.3645C216.045 49.2264 216.743 49.9251 217.604 49.9251Z" fill="#F089C0"/>
<path d="M211.052 66.8238C211.465 66.8238 211.8 66.4885 211.8 66.0749C211.8 65.6612 211.465 65.3259 211.052 65.3259C210.639 65.3259 210.304 65.6612 210.304 66.0749C210.304 66.4885 210.639 66.8238 211.052 66.8238Z" fill="#F089C0"/>
<path d="M252.357 73.1949C252.842 73.1949 253.234 72.8019 253.234 72.3172C253.234 71.8324 252.842 71.4395 252.357 71.4395C251.873 71.4395 251.48 71.8324 251.48 72.3172C251.48 72.8019 251.873 73.1949 252.357 73.1949Z" fill="#F089C0"/>
<path d="M27.8469 76.8871C28.2386 76.8871 28.5562 76.5692 28.5562 76.1771C28.5562 75.785 28.2386 75.4672 27.8469 75.4672C27.4552 75.4672 27.1377 75.785 27.1377 76.1771C27.1377 76.5692 27.4552 76.8871 27.8469 76.8871Z" fill="#F089C0"/>
<path d="M19.0477 112.967L17.0991 114.918L19.0477 116.868L20.9963 114.918L19.0477 112.967Z" fill="#F089C0"/>
<path d="M90.0848 142.456L88.1362 144.406L90.0848 146.357L92.0334 144.406L90.0848 142.456Z" fill="#0049E5"/>
<path d="M184.135 89.6262L182.187 91.5768L184.135 93.5274L186.084 91.5768L184.135 89.6262Z" fill="#0049E5"/>
<path d="M158.829 97.2069L156.881 99.1575L158.829 101.108L160.778 99.1575L158.829 97.2069Z" fill="#77F169"/>
<path d="M219.553 91.9944L217.604 93.9449L219.553 95.8955L221.502 93.945L219.553 91.9944Z" fill="#77F169"/>
<path d="M182.436 140.083L180.487 142.033L182.436 143.984L184.384 142.033L182.436 140.083Z" fill="#FAE058"/>
<path d="M87.3602 67.7423L85.4116 69.6929L87.3602 71.6434L89.3088 69.6929L87.3602 67.7423Z" fill="#F089C0"/>
<path d="M32.5794 57.822L30.6309 59.7726L32.5794 61.7232L34.528 59.7726L32.5794 57.822Z" fill="#F089C0"/>
<path d="M132.741 90.3352L130.792 92.2858L132.741 94.2363L134.689 92.2858L132.741 90.3352Z" fill="#F089C0"/>
<path d="M162.262 51.0984L160.313 53.049L162.262 54.9995L164.211 53.049L162.262 51.0984Z" fill="#F089C0"/>
<path d="M16.25 95.1295L27.1358 91.7406L25.0064 105.406L16.25 95.1295Z" fill="#77F169"/>
<path d="M40.3945 91.2798L50.3917 94.8923L43.2281 105.738L40.3945 91.2798Z" fill="#0049E5"/>
<path d="M67.084 102.709L79.1225 104.464L72.3365 117.01L67.084 102.709Z" fill="#ECCEFF"/>
<path d="M96.4741 105.406L108.484 105.738L101.681 118.108L96.4741 105.406Z" fill="#77F169"/>
<path d="M126.766 112.033L135.793 112.596L131.278 127.227L126.766 112.033Z" fill="#ECCEFF"/>
<path d="M190.848 111.757L199.89 110.008L198.707 124.625L190.848 111.757Z" fill="#ECCEFF"/>
<path d="M162.263 113.54L172.673 112.193L169.445 128.293L162.263 113.54Z" fill="#FAE058"/>
<path d="M219.707 102.09L227.345 98.2676L228.526 112.193L219.707 102.09Z" fill="#77F169"/>
<path d="M247.22 94.8922L254.571 92.2861V103.747L247.22 94.8922Z" fill="#0049E5"/>
<path d="M267.588 83.0074L276.092 80.1896V92.9962L267.588 83.0074Z" fill="#77F169"/>
<path d="M296.419 78.4867L287.883 78.7985L294.078 91.5763L296.419 78.4867Z" fill="#0049E5"/>
<path d="M148.065 97.4474C148.61 97.4474 148.61 96.6002 148.065 96.6002C147.519 96.6002 147.519 97.4474 148.065 97.4474Z" fill="#0049E5"/>
<path d="M111.082 99.081C109.501 99.652 108.101 100.662 107.092 102.011C106.603 102.665 106.205 103.565 106.524 104.378C106.815 105.125 107.56 105.517 108.331 105.564C109.323 105.625 110.199 105.032 110.967 104.48C111.35 104.205 111.128 103.597 110.64 103.705C109.098 104.047 107.539 104.776 106.387 105.872C105.831 106.399 105.354 107.094 105.318 107.882C105.28 108.704 105.798 109.376 106.434 109.834C107.17 110.364 108.111 110.613 109.012 110.554C108.941 110.291 108.87 110.027 108.799 109.764C107.389 110.405 106.226 111.65 105.755 113.135C105.291 114.595 105.632 116.385 107.116 117.1C107.824 117.44 108.648 117.488 109.34 117.084C109.811 116.81 109.386 116.078 108.914 116.352C108.037 116.863 106.877 116.21 106.549 115.304C106.104 114.073 106.674 112.687 107.5 111.759C107.983 111.217 108.565 110.795 109.225 110.495C109.608 110.322 109.417 109.678 109.012 109.705C108.353 109.749 107.703 109.61 107.131 109.275C106.651 108.992 106.158 108.546 106.163 107.945C106.168 107.35 106.6 106.83 107.011 106.445C107.5 105.988 108.084 105.618 108.677 105.31C109.369 104.949 110.105 104.69 110.867 104.52C110.759 104.263 110.65 104.003 110.54 103.746C109.978 104.151 109.356 104.627 108.646 104.71C108.176 104.766 107.573 104.612 107.348 104.156C107.06 103.575 107.487 102.878 107.832 102.424C108.237 101.894 108.729 101.411 109.261 101.009C109.884 100.54 110.574 100.159 111.307 99.8943C111.522 99.8164 111.666 99.6063 111.603 99.3725C111.546 99.1691 111.297 99.0031 111.082 99.081Z" fill="#0049E5"/>
<path d="M200.727 93.6943C199.354 94.04 198.465 95.3007 197.893 96.5156C197.571 97.1985 197.294 98.0186 197.571 98.7658C197.788 99.3487 198.286 99.6842 198.897 99.7317C199.554 99.7825 200.119 99.3877 200.198 98.7252C200.242 98.3625 199.704 98.1626 199.476 98.4252C198.298 99.7774 196.564 100.782 196.161 102.661C195.975 103.532 196.144 104.441 196.762 105.105C197.336 105.72 198.196 106.02 199.024 105.886C199.955 105.737 200.73 105.027 201.023 104.142C201.094 103.927 200.94 103.676 200.727 103.62C199.249 103.243 198.123 104.571 197.433 105.691C197.025 106.352 196.586 107.092 196.603 107.895C196.618 108.605 196.989 109.365 197.707 109.587C198.38 109.797 199.266 109.415 199.396 108.677C199.481 108.197 198.907 107.953 198.623 108.35C197.453 109.978 196.205 111.722 195.86 113.745C195.706 114.651 195.736 115.632 196.192 116.452C196.59 117.171 197.275 117.606 198.089 117.669C198.941 117.735 199.774 117.312 200.077 116.49C200.156 116.275 199.989 116.025 199.78 115.968C199.543 115.903 199.339 116.047 199.259 116.264C199.23 116.341 199.173 116.435 199.108 116.505C199.015 116.602 198.958 116.642 198.814 116.713C198.775 116.732 198.601 116.788 198.499 116.808C198.419 116.824 198.247 116.829 198.111 116.824C197.885 116.813 197.609 116.72 197.392 116.578C197.17 116.43 196.96 116.139 196.837 115.863C196.546 115.215 196.569 114.434 196.715 113.753C196.898 112.889 197.246 112.077 197.676 111.31C198.171 110.425 198.761 109.598 199.35 108.777C199.093 108.668 198.834 108.56 198.577 108.45C198.548 108.616 198.499 108.685 198.32 108.758C198.213 108.8 198.044 108.814 197.905 108.76C197.541 108.619 197.407 108.067 197.455 107.684C197.524 107.106 197.876 106.572 198.176 106.089C198.452 105.645 198.765 105.223 199.156 104.874C199.532 104.539 199.997 104.307 200.498 104.435C200.4 104.261 200.302 104.088 200.202 103.914C200.014 104.478 199.518 104.905 198.942 105.037C198.35 105.174 197.734 104.92 197.334 104.479C196.336 103.376 197.294 101.78 198.127 100.918C198.756 100.267 199.472 99.7045 200.068 99.02C199.828 98.92 199.586 98.82 199.345 98.7201C199.359 98.6116 199.298 98.8438 199.339 98.7336C199.327 98.7557 199.315 98.776 199.3 98.7963C199.328 98.759 199.327 98.7573 199.295 98.7946C199.259 98.8268 199.257 98.8268 199.293 98.798C199.273 98.8116 199.251 98.8251 199.229 98.837C199.185 98.859 199.183 98.859 199.223 98.8404C199.198 98.8488 199.173 98.8573 199.147 98.8641C199.122 98.8709 199.095 98.876 199.068 98.881C199.113 98.876 199.11 98.876 199.058 98.881C199.002 98.8844 198.946 98.8844 198.888 98.8793C198.836 98.8743 198.832 98.8743 198.873 98.8776C198.844 98.8726 198.817 98.8658 198.788 98.859C198.773 98.8556 198.628 98.8048 198.687 98.8302C198.46 98.7319 198.397 98.6438 198.326 98.3727C198.24 98.0423 198.331 97.6831 198.438 97.3696C198.651 96.7393 199.01 96.1072 199.42 95.5836C199.816 95.0804 200.312 94.6636 200.942 94.5043C201.48 94.3789 201.256 93.5622 200.727 93.6943Z" fill="#0049E5"/>
<path d="M246.68 94.6703C247.379 95.1871 247.765 96.0767 247.705 96.9392C247.646 97.7881 247.116 98.5675 246.389 98.9843C246.04 99.1843 246.174 99.6249 246.49 99.7587C247.695 100.267 249.112 100.899 249.732 102.131C250.436 103.532 249.542 105.044 248.535 106.018C247.402 107.114 245.777 108.039 244.163 108.002C243.973 107.997 243.785 107.982 243.599 107.945C243.457 107.916 243.264 107.887 243.167 107.765C242.986 107.535 243.13 107.094 243.227 106.858C243.464 106.282 243.973 105.864 244.518 105.596C246.236 104.751 248.186 105.637 249.777 106.364C249.986 106.459 250.233 106.423 250.356 106.211C250.463 106.03 250.414 105.727 250.204 105.632C248.46 104.835 246.436 103.946 244.516 104.681C243.751 104.974 243.051 105.466 242.626 106.181C242.192 106.909 241.972 108.128 242.881 108.6C243.321 108.829 243.888 108.865 244.376 108.851C244.865 108.838 245.358 108.751 245.827 108.607C246.769 108.317 247.651 107.821 248.432 107.221C249.842 106.135 251.135 104.427 250.759 102.544C250.371 100.594 248.364 99.6418 246.715 98.9454C246.749 99.2029 246.783 99.4622 246.817 99.7197C247.814 99.147 248.474 98.0897 248.554 96.9425C248.635 95.7649 248.042 94.633 247.11 93.9417C246.925 93.8061 246.637 93.9112 246.531 94.0942C246.402 94.306 246.495 94.5347 246.68 94.6703Z" fill="#0049E5"/>
<path d="M271.201 81.2012C270.338 81.8858 269.906 83.0549 270.044 84.1394C270.193 85.3035 270.981 86.2286 272.056 86.6641C272.644 86.903 273.287 86.9505 273.906 86.8234C273.798 86.5658 273.69 86.3066 273.58 86.049C271.9 86.9505 270.675 88.5043 269.846 90.1936C269.421 91.0612 268.999 92.0016 268.916 92.9742C268.838 93.8774 269.196 94.7754 270.074 95.1177C270.834 95.4125 271.839 95.1635 272.075 94.3044C272.192 93.8791 271.675 93.6198 271.367 93.8926C270.316 94.8246 269.431 95.9548 268.789 97.2053C268.156 98.4388 267.511 100.149 268.591 101.331C269.06 101.845 269.832 102.143 270.502 101.872C270.714 101.785 270.863 101.59 270.799 101.35C270.743 101.148 270.49 100.967 270.277 101.053C269.873 101.218 269.482 101.052 269.189 100.731C268.82 100.328 268.801 99.7317 268.908 99.2217C269.035 98.6184 269.297 98.0474 269.583 97.5052C269.862 96.9782 270.184 96.4716 270.546 95.9988C270.966 95.4498 271.447 94.9466 271.963 94.4891C271.728 94.3518 271.491 94.2146 271.256 94.0773C271.228 94.1773 271.218 94.2146 271.139 94.2739C271.071 94.3247 271.117 94.2891 271.13 94.2806C271.108 94.2959 271.085 94.3095 271.063 94.3213C270.953 94.3806 271.105 94.3095 271.034 94.3366C270.995 94.3518 270.954 94.3603 270.915 94.3721C270.905 94.3755 270.82 94.3908 270.868 94.384C270.925 94.3755 270.787 94.3891 270.795 94.3891C270.736 94.3925 270.678 94.3908 270.619 94.3857C270.531 94.3789 270.58 94.3806 270.599 94.384C270.562 94.3789 270.526 94.3705 270.489 94.3603C270.433 94.3467 270.33 94.3128 270.304 94.3027C270.086 94.2061 269.937 94.0587 269.84 93.7893C269.712 93.4334 269.73 93.0403 269.805 92.6743C269.966 91.8881 270.311 91.1239 270.677 90.4122C271.037 89.7107 271.462 89.0346 271.977 88.4348C272.552 87.7655 273.224 87.1979 274.003 86.7793C274.443 86.5421 274.13 85.9118 273.676 86.005C272.637 86.2202 271.481 85.6322 271.044 84.6613C270.599 83.6717 270.963 82.4602 271.794 81.7994C271.973 81.657 271.943 81.3486 271.794 81.1995C271.623 81.025 271.381 81.0589 271.201 81.2012Z" fill="#0049E5"/>
<path d="M259.924 64.8921C260.745 65.6394 261.605 66.5933 261.578 67.7777C261.568 68.2352 261.419 68.7148 261.094 69.0469C260.796 69.3519 260.41 69.4552 260.046 69.3875C259.824 69.3468 259.611 69.2604 259.465 69.135C259.282 68.9808 259.211 68.8486 259.169 68.6097C258.962 68.769 258.754 68.9283 258.548 69.0875C260.056 70.0737 261.227 71.514 261.954 73.161C262.302 73.9523 262.541 74.808 262.653 75.6671C262.751 76.4364 262.856 77.4259 262.426 78.1189C262.373 78.2054 262.309 78.2799 262.235 78.3477C262.199 78.3799 262.182 78.3934 262.143 78.4188C262.133 78.4256 262.028 78.4799 262.079 78.4578C261.921 78.5239 261.791 78.5188 261.659 78.4883C261.491 78.4494 261.39 78.3968 261.295 78.3019C261.288 78.2952 261.243 78.2409 261.28 78.2901C261.268 78.2748 261.2 78.141 261.229 78.2087C261.221 78.1884 261.209 78.1477 261.209 78.1291C261.209 78.2359 261.234 78.0071 261.216 78.0952C260.98 78.1579 260.743 78.2206 260.508 78.2816C261.728 79.8388 262.441 81.7874 262.536 83.7614C262.561 84.3037 263.409 84.307 263.382 83.7614C263.276 81.5434 262.473 79.427 261.105 77.6835C260.913 77.4378 260.455 77.5767 260.398 77.8699C260.2 78.8797 261.275 79.5067 262.169 79.3135C263.252 79.0797 263.555 77.7563 263.565 76.8159C263.589 74.6928 262.841 72.5459 261.586 70.843C260.865 69.8653 259.99 69.0232 258.973 68.3572C258.636 68.137 258.292 68.4996 258.351 68.8351C258.575 70.0957 260.232 70.5939 261.256 69.989C262.521 69.2434 262.651 67.532 262.106 66.307C261.755 65.519 261.155 64.8667 260.525 64.2923C260.12 63.9263 259.519 64.5244 259.924 64.8921Z" fill="#0049E5"/>
<path d="M117.454 67.0966C119.515 68.02 121.046 69.9331 121.508 72.146C121.57 72.4425 121.618 72.7458 121.626 73.0474C121.63 73.1627 121.625 73.2694 121.572 73.3575C121.596 73.3186 121.625 73.3575 121.596 73.3389C121.555 73.3101 121.604 73.3423 121.609 73.3457C121.63 73.3677 121.709 73.4677 121.667 73.3728C121.474 73.5659 121.281 73.7591 121.088 73.9523C122.865 75.296 123.507 78.0071 122.562 80.0201C122.429 80.3047 122.271 80.647 122.009 80.8351C121.911 80.9063 121.823 80.9317 121.733 80.8961C121.691 80.8792 121.689 80.8605 121.648 80.8402C121.618 80.8232 121.641 80.7843 121.631 80.8402C121.533 80.9385 121.435 81.0367 121.335 81.1367C121.741 81.0656 122.085 81.6451 122.256 81.9331C122.491 82.3313 122.688 82.7498 122.84 83.187C123.155 84.0867 123.299 85.0339 123.282 85.9862C123.248 87.8433 122.594 89.7242 121.354 91.1204C121.042 91.4711 120.714 91.7965 120.272 91.9507C120.071 92.0201 119.92 92.0642 119.708 92.0337C119.786 92.0456 119.651 92.0151 119.649 92.0134C119.6 91.9964 119.595 91.9947 119.632 92.0083C119.607 91.9964 119.583 91.9812 119.559 91.9659C119.619 92.015 119.515 91.9202 119.515 91.9202C119.543 91.9507 119.466 91.8321 119.456 91.81C119.356 91.605 119.063 91.5491 118.877 91.6575C118.667 91.7795 118.625 92.0303 118.725 92.237C119.258 93.3299 120.71 92.8267 121.427 92.2421C121.843 91.9032 122.192 91.4576 122.505 91.0238C122.825 90.5799 123.097 90.1003 123.321 89.6005C124.233 87.557 124.402 85.1729 123.686 83.043C123.485 82.4431 123.221 81.8518 122.875 81.3197C122.478 80.7046 121.889 80.1811 121.11 80.3166C120.976 80.3403 120.841 80.481 120.814 80.6131C120.726 81.0554 120.947 81.4604 121.355 81.6501C121.785 81.8501 122.231 81.7382 122.588 81.4485C123.156 80.9859 123.476 80.1455 123.652 79.4541C124.021 78.0088 123.813 76.4414 123.131 75.1214C122.742 74.3708 122.187 73.7303 121.515 73.2203C121.367 73.1084 121.124 73.1644 121.002 73.2864C120.859 73.4287 120.858 73.6253 120.936 73.7998C121.09 74.1471 121.53 74.2556 121.867 74.1387C122.258 74.0031 122.437 73.6253 122.469 73.2338C122.498 72.8712 122.427 72.4883 122.364 72.1324C122.307 71.8071 122.225 71.4852 122.124 71.17C121.691 69.8314 120.902 68.6029 119.856 67.6608C119.267 67.1304 118.603 66.6865 117.88 66.3629C117.672 66.2697 117.425 66.3019 117.301 66.5154C117.196 66.6984 117.244 67.0034 117.454 67.0966Z" fill="#0049E5"/>
<path d="M69.159 61.8591C67.0262 62.3301 64.9543 63.418 63.4258 64.9938C62.6962 65.7461 62.0598 66.6916 61.8397 67.732C61.6197 68.7775 61.8753 69.8094 62.593 70.6058C63.292 71.3819 64.2924 71.8546 65.2302 72.2765C66.3491 72.7781 67.5255 73.1847 68.7595 73.2491C69.3147 73.2779 69.9427 73.2593 70.4725 73.0729C70.9346 72.9102 71.4407 72.573 71.5491 72.0596C71.6777 71.4479 71.2004 71.0616 70.6993 70.8413C70.2406 70.638 69.7633 70.4923 69.2656 70.4177C67.3681 70.1347 65.3199 70.7532 64.003 72.1816C63.6255 72.5917 63.2887 73.0966 63.1939 73.6541C63.0923 74.237 63.2548 74.7792 63.6424 75.2232C63.981 75.6095 64.4499 75.867 64.9001 76.1009C65.4282 76.3754 65.9699 76.6211 66.5234 76.843C67.6186 77.2836 68.7595 77.6106 69.9207 77.8173C70.2203 77.8716 70.5216 77.9156 70.8229 77.9546C71.1327 77.9953 71.3849 77.8495 71.5169 77.5615C71.7556 77.0464 71.4644 76.4923 70.9888 76.2432C70.5081 75.9907 69.9224 75.8687 69.3943 75.7569C68.8374 75.6383 68.2551 75.562 67.6863 75.6214C66.6808 75.7264 65.804 76.2246 65.2624 77.0887C64.2857 78.6459 64.5988 80.7013 65.6111 82.15C66.2357 83.043 67.0516 83.7598 67.9182 84.4087C68.3346 84.7222 68.7629 85.0204 69.1945 85.3119C69.6025 85.5864 70.0629 85.8422 70.5504 85.9354C71.07 86.0337 71.5711 85.949 71.9655 85.5762C72.3616 85.2017 71.7624 84.6019 71.3663 84.9764C71.0176 85.3068 70.4437 85.0543 70.0798 84.8595C69.5466 84.5748 69.0506 84.1952 68.5631 83.8394C67.5966 83.1345 66.6572 82.3229 66.0545 81.2723C65.5704 80.4285 65.391 79.4237 65.6043 78.4799C65.8176 77.5395 66.4049 76.7634 67.3766 76.5262C68.0723 76.355 68.8103 76.4787 69.4941 76.6499C69.8276 76.7329 70.1864 76.8108 70.5013 76.9464C70.5927 76.9854 70.718 77.0667 70.7433 77.126C70.762 77.1684 70.745 77.1802 70.7518 77.1989C70.7366 77.1599 70.7958 77.1921 70.7518 77.1955C70.7332 77.226 70.7383 77.2226 70.7687 77.187C70.8094 77.1514 70.806 77.1497 70.7552 77.1819C70.8263 77.1633 70.8974 77.143 70.9685 77.1243C69.6346 76.96 68.3177 76.6245 67.0617 76.1483C66.4422 75.9145 65.8396 75.64 65.2539 75.3316C64.8172 75.1028 64.2552 74.8267 64.0605 74.3387C63.854 73.8168 64.1943 73.239 64.5277 72.856C64.873 72.4612 65.2844 72.1342 65.7397 71.8732C66.6521 71.353 67.7134 71.1277 68.7578 71.2039C69.269 71.2412 69.7853 71.3632 70.2575 71.5649C70.3913 71.6208 70.7112 71.7411 70.7197 71.8698C70.723 71.9156 70.7315 71.8546 70.7112 71.8987C70.6909 71.9444 70.6621 71.9766 70.6282 72.0122C70.5419 72.1037 70.4285 72.1732 70.3151 72.224C69.7785 72.4663 69.0642 72.4341 68.4937 72.3799C67.8336 72.3172 67.1836 72.1325 66.5607 71.9088C65.9344 71.6835 65.3267 71.4056 64.7359 71.1006C64.24 70.8447 63.7474 70.5583 63.3445 70.1652C62.9603 69.7908 62.6793 69.318 62.6133 68.7792C62.5506 68.2641 62.6691 67.732 62.8723 67.261C63.3428 66.1664 64.2298 65.2886 65.1743 64.5905C66.168 63.8551 67.2801 63.2841 68.4599 62.9181C68.7629 62.8232 69.071 62.7436 69.3824 62.6758C69.9156 62.5589 69.6905 61.7422 69.159 61.8591Z" fill="#0049E5"/>
<path d="M42.6153 73.9353C41.3542 73.6354 40.0102 73.6998 38.7897 74.1387C37.5981 74.5674 36.4233 75.3332 35.8123 76.477C35.5059 77.0514 35.3722 77.6902 35.489 78.3341C35.5922 78.9119 35.9308 79.4355 36.3522 79.8354C37.2781 80.7148 38.5951 81.1706 39.8121 81.4604C41.383 81.8348 43.0097 81.8789 44.6008 81.6129C44.853 81.5705 45.0071 81.1977 44.853 80.991C44.0101 79.8574 42.4951 80.2353 41.388 80.7148C40.0711 81.2841 38.7525 81.906 37.6421 82.8312C36.5909 83.7072 35.7835 84.9187 35.5821 86.2895C35.384 87.6264 35.7953 88.9786 36.8617 89.8479C37.8571 90.6595 39.1418 91.0001 40.4046 91.0611C41.0715 91.0933 41.8671 91.0916 42.3004 90.4951C42.7219 89.9139 42.4528 89.1718 42.0397 88.6719C41.2797 87.7552 39.8748 87.4723 38.7457 87.6129C37.5625 87.7586 36.4369 88.3008 35.6024 89.1599C33.6879 91.1272 33.8453 94.311 35.2232 96.5291C35.4009 96.8137 35.6007 97.0848 35.814 97.3424C35.9595 97.5186 36.2608 97.4932 36.4132 97.3424C36.5875 97.1679 36.5587 96.9205 36.4132 96.7426C35.0201 95.0549 34.4852 92.437 35.643 90.4833C36.6061 88.8583 38.8337 87.9433 40.6009 88.6753C41.0106 88.8448 41.4168 89.1176 41.6047 89.5378C41.6826 89.7123 41.7114 89.8919 41.6013 90.0241C41.4574 90.1952 41.1849 90.2122 40.9784 90.2206C39.9425 90.2613 38.8321 90.0732 37.9231 89.5564C37.0124 89.0379 36.4064 88.1551 36.3725 87.091C36.3387 85.971 36.8364 84.8611 37.5879 84.0478C38.4427 83.1226 39.5532 82.4974 40.6805 81.9619C41.1968 81.7162 41.7181 81.4587 42.2615 81.2808C42.7101 81.1333 43.2365 81.0096 43.6834 81.135C43.8526 81.1825 44.0101 81.2655 44.1235 81.4197C44.2081 81.213 44.2927 81.0046 44.3757 80.7978C43.1434 81.0029 41.8654 80.9944 40.6365 80.7707C39.521 80.5674 38.3547 80.2302 37.4017 79.5965C37.0073 79.3338 36.6434 78.9916 36.4403 78.5578C36.2321 78.1121 36.2524 77.6174 36.4233 77.1633C36.7991 76.1686 37.7893 75.4688 38.7305 75.0672C39.8781 74.5775 41.1782 74.464 42.3901 74.7538C42.9199 74.8774 43.1468 74.0607 42.6153 73.9353Z" fill="#0049E5"/>
<path d="M197.763 51.523C195.571 53.4868 193.587 56.1132 193.693 59.2039C193.741 60.5933 194.198 61.976 195.127 63.0232C195.973 63.9771 197.196 64.5007 198.463 64.5278C199.838 64.5566 201.211 63.972 201.967 62.7927C202.145 62.5148 201.91 62.1607 201.602 62.1556C198.496 62.0997 195.386 63.4349 193.292 65.736C192.737 66.346 192.233 67.017 191.931 67.7896C191.65 68.5149 191.633 69.3265 191.88 70.0636C192.395 71.597 193.759 72.6476 195.3 73.0153C196.136 73.2152 197.009 73.2457 197.864 73.1695C198.606 73.1034 199.569 73.0543 200.055 72.3985C200.53 71.7563 200.182 70.9328 199.587 70.5126C198.907 70.0314 198.03 70.2262 197.383 70.6685C196.75 71.1023 196.234 71.6987 195.769 72.3036C195.33 72.873 194.948 73.4796 194.626 74.1218C193.973 75.4282 193.566 76.838 193.401 78.2884C193.238 79.7151 193.331 81.1774 193.683 82.5703C193.861 83.2735 194.111 83.9597 194.423 84.6155C194.68 85.1577 195.244 85.7474 195.914 85.6067C196.248 85.5372 196.434 85.2594 196.444 84.9289C196.459 84.3833 195.613 84.3833 195.598 84.9289C195.594 85.0425 195.596 84.9306 195.598 84.9289C195.588 84.934 195.792 84.7307 195.704 84.7951C195.713 84.7883 195.76 84.7544 195.736 84.7815C195.708 84.812 195.801 84.7798 195.75 84.7781C195.703 84.7764 195.764 84.7832 195.77 84.7849C195.747 84.7764 195.716 84.7747 195.692 84.7663C195.62 84.7442 195.635 84.751 195.589 84.7256C195.477 84.6663 195.432 84.6307 195.356 84.5528C195.296 84.4918 195.239 84.363 195.181 84.2444C194.916 83.6937 194.707 83.1159 194.548 82.5245C194.227 81.3367 194.117 80.1015 194.196 78.8747C194.354 76.4347 195.305 74.0133 196.955 72.1986C197.368 71.7445 197.881 71.1836 198.521 71.0853C198.766 71.048 198.988 71.1006 199.181 71.2666C199.264 71.3378 199.333 71.4208 199.383 71.5208C199.418 71.5937 199.442 71.6869 199.437 71.736C199.415 71.9546 199.188 72.0749 198.988 72.1376C198.673 72.2376 198.336 72.2748 198.008 72.3087C197.28 72.385 196.529 72.3968 195.808 72.2613C194.518 72.019 193.321 71.2988 192.778 70.0585C192.536 69.5078 192.48 68.8944 192.646 68.3149C192.833 67.6558 193.25 67.0763 193.692 66.5612C195.417 64.5465 197.957 63.24 200.603 63.0316C200.935 63.0062 201.268 62.9977 201.6 63.0028C201.478 62.791 201.356 62.5775 201.234 62.3657C200.087 64.15 197.292 64.0212 195.887 62.6012C195.056 61.7608 194.624 60.5866 194.547 59.4191C194.46 58.1245 194.783 56.8655 195.386 55.7235C196.121 54.334 197.192 53.1632 198.357 52.1211C198.768 51.7585 198.169 51.1604 197.763 51.523Z" fill="#0049E5"/>
<path d="M231.13 116.103C230.234 120.124 226.827 123.701 223.761 123.017C220.696 122.332 219.128 117.645 220.026 113.624C220.923 109.603 223.939 107.77 227.006 108.455C230.073 109.139 232.025 112.081 231.13 116.103Z" fill="#0049E5"/>
<path d="M222.734 122.61C221.529 123.512 221.353 123.757 222.455 123.861C223.557 123.964 222.727 125.32 223.824 124.199C224.921 123.079 225.232 125.326 225.359 124.154C225.486 122.979 224.41 121.57 224.41 121.57L222.734 122.61Z" fill="#0049E5"/>
<path d="M223.018 123.854C222.707 124.562 221.981 125.011 221.884 125.821C221.803 126.506 222.169 127.227 222.912 127.28C222.841 127.017 222.77 126.753 222.699 126.49C222.211 126.773 221.72 127.073 221.375 127.529C221.033 127.98 220.854 128.6 221.04 129.151C221.228 129.703 221.718 130.049 222.203 130.327C222.734 130.63 223.308 130.864 223.899 131.026C224.037 131.065 224.212 131.028 224.31 130.918C224.544 130.655 224.51 130.281 224.198 130.093C223.949 129.944 223.64 129.957 223.389 130.089C222.908 130.345 222.504 130.798 222.258 131.281C221.729 132.323 221.856 133.524 222.585 134.432C222.971 134.913 223.516 135.263 224.112 135.418C224.64 135.556 224.865 134.739 224.337 134.602C223.516 134.388 222.826 133.643 222.773 132.775C222.746 132.331 222.863 131.897 223.096 131.519C223.213 131.331 223.359 131.164 223.526 131.02C223.609 130.948 223.706 130.903 223.79 130.835C223.89 130.757 223.745 130.83 223.789 130.83C223.819 130.83 223.821 130.83 223.794 130.833C223.748 130.818 223.711 130.789 223.682 130.745C223.663 130.674 223.643 130.603 223.624 130.532C223.626 130.513 223.628 130.494 223.628 130.476C223.663 130.413 223.701 130.35 223.736 130.289C223.728 130.299 223.719 130.31 223.711 130.318C223.848 130.283 223.985 130.245 224.122 130.21C223.672 130.086 223.24 129.922 222.826 129.703C222.492 129.527 222.03 129.312 221.862 128.947C221.72 128.636 221.866 128.258 222.067 128.007C222.343 127.661 222.748 127.441 223.123 127.222C223.504 127.002 223.313 126.462 222.91 126.433C222.929 126.434 222.895 126.434 222.868 126.419C222.807 126.385 222.868 126.436 222.82 126.379C222.859 126.428 222.79 126.333 222.783 126.321C222.76 126.277 222.76 126.279 222.739 126.204C222.697 126.043 222.702 125.87 222.775 125.696C222.974 125.213 223.518 124.804 223.746 124.284C223.838 124.076 223.807 123.83 223.594 123.705C223.418 123.596 223.112 123.644 223.018 123.854Z" fill="#0049E5"/>
<path d="M123.16 47.4834C124.226 52.2702 128.28 56.5266 131.929 55.7116C135.579 54.8966 137.443 49.3201 136.376 44.5333C135.31 39.7465 131.718 37.5658 128.068 38.3808C124.419 39.1958 122.093 42.6982 123.16 47.4834Z" fill="#0049E5"/>
<path d="M133.152 55.2286C134.587 56.3029 134.795 56.5944 133.483 56.718C132.172 56.8417 133.158 58.4548 131.853 57.1213C130.548 55.7878 130.178 58.4633 130.025 57.0654C129.873 55.6692 131.156 53.99 131.156 53.99L133.152 55.2286Z" fill="#0049E5"/>
<path d="M132.011 57.1773C132.163 57.5264 132.402 57.8246 132.642 58.1177C132.835 58.3549 133.093 58.6549 133.186 58.9056C133.27 59.1293 133.27 59.3479 133.209 59.558C133.179 59.6597 133.15 59.719 133.089 59.7834C133.028 59.8477 132.996 59.8545 132.939 59.8579C132.534 59.8833 132.344 60.4272 132.725 60.6475C133.174 60.9085 133.641 61.1694 133.98 61.571C134.249 61.8879 134.443 62.3843 134.264 62.7893C134.068 63.2366 133.528 63.4993 133.123 63.7162C132.612 63.989 132.077 64.1957 131.518 64.3499C131.655 64.3855 131.793 64.4227 131.93 64.4583C131.95 64.4922 131.972 64.5261 131.992 64.56C131.992 64.6346 131.992 64.7108 131.992 64.7854C131.97 64.8379 131.94 64.8819 131.901 64.9209C131.867 64.9396 131.875 64.9396 131.926 64.9226C131.921 64.948 131.879 64.9141 131.872 64.9107C131.984 64.9514 132.102 65.0463 132.195 65.1192C132.409 65.2852 132.598 65.4919 132.747 65.719C133.054 66.1867 133.216 66.7306 133.189 67.2914C133.137 68.3691 132.294 69.3112 131.266 69.5756C130.74 69.7111 130.963 70.5278 131.491 70.3923C132.707 70.0788 133.724 69.0401 133.971 67.7998C134.232 66.4917 133.66 65.1344 132.586 64.3617C132.295 64.1516 131.975 64.0076 131.615 64.1296C131.205 64.2686 131.016 64.7159 131.334 65.0582C131.435 65.1683 131.605 65.2056 131.745 65.1666C132.431 64.9785 133.098 64.7074 133.717 64.3567C134.294 64.0313 134.877 63.6297 135.098 62.974C135.303 62.3657 135.105 61.6625 134.733 61.1609C134.323 60.6119 133.739 60.2527 133.155 59.9138C133.084 60.1765 133.013 60.4408 132.942 60.7034C133.825 60.6475 134.189 59.7512 134.073 58.9683C133.941 58.072 133.093 57.545 132.744 56.7486C132.652 56.5385 132.346 56.4911 132.165 56.5961C131.947 56.7232 131.919 56.9672 132.011 57.1773Z" fill="#0049E5"/>
<path d="M57.6451 100.653C56.2588 105.357 57.7416 111.047 61.3284 112.106C64.9153 113.165 69.2469 109.192 70.6332 104.49C72.0196 99.7858 69.9358 96.1343 66.349 95.0753C62.7621 94.0163 59.0314 95.9513 57.6451 100.653Z" fill="#0049E5"/>
<path d="M62.6302 112.277C63.3649 113.912 63.4055 114.27 62.1986 113.741C60.9917 113.213 61.073 115.104 60.577 113.302C60.081 111.503 58.4611 113.662 59.0062 112.367C59.5512 111.073 61.4843 110.225 61.4843 110.225L62.6302 112.277Z" fill="#0049E5"/>
<path d="M60.6903 113.418C60.6564 113.787 60.714 114.151 60.7783 114.514C60.8342 114.831 60.9188 115.168 60.8832 115.493C60.8595 115.704 60.758 115.912 60.6124 116.064C60.5498 116.13 60.4635 116.197 60.3941 116.224C60.3094 116.254 60.2756 116.258 60.2129 116.227C59.8507 116.058 59.4004 116.417 59.634 116.807C59.9099 117.267 60.2214 117.755 60.2993 118.298C60.3551 118.679 60.2806 119.142 59.9743 119.404C59.6154 119.711 59.0348 119.691 58.593 119.687C57.987 119.684 57.3895 119.607 56.7987 119.465C56.8969 119.563 56.9951 119.662 57.095 119.762C57.0848 119.833 57.0763 119.904 57.0662 119.973C57.0154 120.024 56.9646 120.075 56.9138 120.126C56.8631 120.163 56.7429 120.114 56.8241 120.15C56.9071 120.185 56.8478 120.16 56.8309 120.145C56.8089 120.104 56.8174 120.116 56.8529 120.177C56.8749 120.214 56.8952 120.251 56.9155 120.289C56.946 120.345 56.9748 120.402 57.0002 120.461C57.1051 120.702 57.1728 120.973 57.1931 121.236C57.2371 121.805 57.117 122.375 56.8106 122.859C56.2401 123.761 55.062 124.179 54.0447 123.915C53.5166 123.778 53.2914 124.594 53.8196 124.731C55.0383 125.048 56.4331 124.643 57.2541 123.674C58.1241 122.646 58.2849 121.151 57.6908 119.948C57.5368 119.635 57.3269 119.382 56.9663 119.318C56.5482 119.243 56.164 119.54 56.2774 119.987C56.3129 120.126 56.4331 120.25 56.5736 120.284C57.2845 120.456 58.0209 120.546 58.7521 120.536C59.4089 120.526 60.1249 120.451 60.6141 119.965C61.0339 119.548 61.2065 118.911 61.1473 118.332C61.0745 117.615 60.7258 116.99 60.3636 116.383C60.1706 116.576 59.9776 116.769 59.7847 116.962C60.587 117.337 61.3318 116.756 61.6213 116.009C61.948 115.163 61.4588 114.285 61.5383 113.421C61.5586 113.192 61.3284 112.997 61.1151 112.997C60.8663 112.994 60.7106 113.189 60.6903 113.418Z" fill="#0049E5"/>
<path d="M232.7 57.967C232.7 62.8707 229.668 67.9083 225.929 67.9083C222.19 67.9083 219.158 62.8707 219.158 57.967C219.158 53.0633 222.19 50.1505 225.929 50.1505C229.668 50.1522 232.7 53.0633 232.7 57.967Z" fill="#F089C0"/>
<path d="M224.632 67.7033C223.466 69.0639 223.325 69.3943 224.632 69.2283C225.939 69.0622 225.326 70.8532 226.311 69.2673C227.295 67.6813 228.239 70.2111 228.084 68.8148C227.928 67.4186 226.311 66.058 226.311 66.058L224.632 67.7033Z" fill="#F089C0"/>
<path d="M225.357 69.1148C225.191 69.9671 224.473 70.6635 224.548 71.5701C224.614 72.3766 225.174 73.1323 226.051 72.9968C225.914 72.7613 225.777 72.524 225.64 72.2885C225.159 72.7324 224.661 73.2035 224.394 73.8135C224.136 74.3998 224.086 75.103 224.411 75.6757C224.734 76.2433 225.359 76.5094 225.949 76.7008C226.672 76.9347 227.429 77.0618 228.187 77.099C228.334 77.1058 228.478 77.0126 228.553 76.8889C228.744 76.567 228.575 76.1857 228.218 76.0858C227.903 75.9976 227.59 76.0959 227.353 76.3094C226.882 76.733 226.55 77.3295 226.393 77.9395C226.064 79.2137 226.496 80.5676 227.532 81.386C228.118 81.8486 228.82 82.1197 229.568 82.1451C230.113 82.162 230.112 81.3148 229.568 81.2979C228.502 81.264 227.496 80.5049 227.212 79.4679C227.066 78.9392 227.112 78.3834 227.3 77.87C227.386 77.6328 227.518 77.3989 227.674 77.2007C227.755 77.0973 227.871 77.0041 227.945 76.9093C227.911 76.9516 227.989 76.894 227.937 76.9025C227.991 76.9042 227.996 76.9025 227.952 76.894C228.135 76.9499 228.091 76.8059 227.818 76.4619C227.94 76.3924 228.062 76.3213 228.184 76.2518C227.578 76.223 226.984 76.123 226.401 75.9553C225.98 75.8333 225.433 75.691 225.171 75.3046C224.923 74.9403 225.012 74.4286 225.206 74.0643C225.453 73.6 225.851 73.2425 226.234 72.8917C226.371 72.7646 226.391 72.5359 226.3 72.3783C226.198 72.2038 226.01 72.1546 225.822 72.1834C225.829 72.1818 225.799 72.1834 225.768 72.1767C225.719 72.1597 225.711 72.158 225.743 72.1733C225.716 72.1597 225.69 72.1462 225.665 72.1292C225.626 72.1021 225.551 72.0157 225.504 71.9276C225.406 71.7497 225.365 71.504 225.389 71.3244C225.435 70.9973 225.616 70.6906 225.761 70.4009C225.931 70.062 226.097 69.7163 226.169 69.3419C226.213 69.1182 226.105 68.8844 225.873 68.82C225.67 68.7624 225.401 68.8895 225.357 69.1148Z" fill="#F089C0"/>
<path d="M61.3508 45.6754C60.2556 48.6644 60.9767 52.4126 63.2551 53.2496C65.5334 54.0867 68.5075 51.6958 69.6027 48.7068C70.6979 45.7178 69.5028 43.2642 67.2228 42.4272C64.9444 41.5918 62.4476 42.6864 61.3508 45.6754Z" fill="#0049E5"/>
<path d="M64.093 53.4157C64.4993 54.5069 64.5111 54.739 63.7528 54.3459C62.9944 53.9528 62.9657 55.1813 62.7219 53.9935C62.4765 52.8074 61.3356 54.1375 61.7435 53.3208C62.1498 52.5041 63.4396 52.0381 63.4396 52.0381L64.093 53.4157Z" fill="#0049E5"/>
<path d="M62.6522 53.9782C62.6184 54.2036 62.6116 54.4171 62.6336 54.6442C62.6556 54.8644 62.6979 55.0898 62.6844 55.3135C62.6759 55.4372 62.6421 55.5422 62.5591 55.6371C62.5202 55.6829 62.4813 55.715 62.4288 55.7388C62.4626 55.7235 62.3932 55.7218 62.4169 55.7337C62.0361 55.5337 61.6434 55.9336 61.838 56.3132C62.031 56.691 62.4372 57.4349 61.9904 57.7941C61.7652 57.9754 61.3488 57.9127 61.0882 57.8907C60.7293 57.8619 60.3772 57.7823 60.0336 57.6755C60.1369 57.8111 60.2401 57.9483 60.3451 58.0839C60.3417 58.1008 60.3366 58.1195 60.3332 58.1364C60.2977 58.1991 60.2604 58.2618 60.2249 58.3228C60.23 58.316 60.2367 58.3109 60.2418 58.3042C60.1792 58.3397 60.1165 58.377 60.0556 58.4126C60.0387 58.4194 59.9845 58.4177 59.9642 58.4109C59.9151 58.3957 59.8762 58.2872 59.8931 58.3668C59.905 58.4245 59.9507 58.4922 59.9693 58.5499C60.0184 58.7024 60.0438 58.8532 60.0455 59.0141C60.0488 59.3412 59.9524 59.6699 59.7577 59.9342C59.3751 60.4561 58.6625 60.6306 58.065 60.4375C57.5453 60.2697 57.3236 61.0864 57.8399 61.2542C59.0044 61.632 60.2926 61.017 60.7361 59.8817C60.9409 59.3581 60.9477 58.7328 60.7445 58.2076C60.6345 57.9246 60.4872 57.667 60.1707 57.5874C59.8576 57.5095 59.4513 57.7077 59.5004 58.0805C59.5258 58.2753 59.6155 58.4278 59.8119 58.4888C60.2909 58.638 60.7885 58.7244 61.2896 58.7464C61.7534 58.7667 62.2443 58.7142 62.5997 58.3821C63.3395 57.6891 62.9637 56.6402 62.5744 55.8811C62.3814 56.0743 62.1884 56.2674 61.9954 56.4606C62.5287 56.7402 63.116 56.442 63.3767 55.9319C63.5138 55.6659 63.551 55.3829 63.5307 55.0847C63.5121 54.795 63.4292 54.4883 63.4732 54.1968C63.507 53.9715 63.4173 53.741 63.177 53.6749C62.9738 53.6275 62.6861 53.7495 62.6522 53.9782Z" fill="#0049E5"/>
</svg>
