<svg width="82" height="62" viewBox="0 0 82 62" fill="none" xmlns="http://www.w3.org/2000/svg">
<path d="M17.932 28.8098C15.8339 28.5653 0.800881 19.2285 1.71426 18.3088C1.8889 18.1327 54.2351 10.8837 65.423 7.12233C66.9859 6.59785 79.6501 1.1174 80.2745 1.43158C80.6715 1.63174 75.4953 10.6382 75.2252 11.6146C67.9251 38.009 63.1907 61.9935 63.0173 60.6037C62.6643 57.7546 43.7884 45.7364 37.504 40.6664" stroke="black" stroke-width="2" stroke-linecap="round" stroke-linejoin="round"/>
<path d="M71.6593 8.02088C65.4592 10.0783 60.146 13.5647 54.4321 16.7065C49.2207 19.5734 29.3865 28.7594 25.9189 31.3831C25.0771 32.019 25.8146 33.6444 25.9189 34.3779C27.4667 45.3021 29.6402 55.4484 29.7797 55.342C33.1643 52.7829 31.0913 41.6827 35.7198 38.57C50.374 28.7201 66.179 21.3255 75.5201 5.62524" stroke="black" stroke-width="2" stroke-linecap="round" stroke-linejoin="round"/>
<path d="M30.1064 55.4591C34.3504 52.2733 38.3927 48.7887 42.8514 46.6658" stroke="black" stroke-width="2" stroke-linecap="round" stroke-linejoin="round"/>
</svg>
