<svg width="79" height="67" viewBox="0 0 79 67" fill="none" xmlns="http://www.w3.org/2000/svg">
<path opacity="0.502139" d="M1.14404 30.6969C5.16699 30.6969 12.134 28.9979 14.6746 30.6968C15.3509 31.1492 14.9486 33.3245 14.9486 34.0013C14.9486 37.6523 17.547 59.4564 16.3226 60.9901C14.2572 63.5775 6.24324 64.5391 3.13696 65.6721" stroke="black" stroke-width="2" stroke-linecap="round" stroke-linejoin="round"/>
<path d="M17.7671 31.8027C22.2661 30.196 26.1905 29.7556 30.2837 29.1973" stroke="black" stroke-width="2" stroke-linecap="round" stroke-linejoin="round"/>
<path d="M31.0107 29.1973C31.4012 27.1683 35.0675 22.9123 37.3422 17.7254C39.6169 12.5384 37.3422 11.565 41.5575 6.22671C55.0259 -10.8297 48.5107 24.9198 49.5672 25.2682C50.6963 25.6406 50.0811 22.5032 51.1206 22.042C57.1551 19.365 61.9148 20.1469 71.3901 22.042C80.8654 23.9371 74.3812 28.1976 74.3812 28.5246C74.3812 30.0785 77.6394 29.9579 77.2899 35.2987C77.1017 38.1758 76.2619 40.5698 73.7956 41.5456C72.8642 41.9142 75.4567 44.679 75.4567 46.2102C75.4567 49.1137 72.8817 49.9772 72.8817 51.2762C72.8817 52.4565 73.8251 54.2513 72.8817 56.3822C72.0844 58.1831 68.4288 58.2028 61.9148 57.6789C57.5842 57.6789 55.026 57.0403 54.2404 55.7633" stroke="black" stroke-width="2" stroke-linecap="round" stroke-linejoin="round"/>
<path d="M54.2412 55.9949C42.6415 58.2266 30.9568 57.5038 19.2554 59.3446" stroke="black" stroke-width="2" stroke-linecap="round" stroke-linejoin="round"/>
<path d="M58.7075 47.8065C60.9544 49.4378 63.0097 50.4293 64.8736 50.7811C67.6694 51.3087 71.133 51.4532 73.5951 50.0402" stroke="black" stroke-width="2" stroke-linecap="round" stroke-linejoin="round"/>
<path d="M60.4917 38.8343C63.4632 40.4823 65.7985 41.4662 67.4975 41.7862C70.0461 42.2662 73.1607 42.7079 75.3793 40.5908" stroke="black" stroke-width="2" stroke-linecap="round" stroke-linejoin="round"/>
<path d="M59.9429 29.3853C61.864 30.155 63.9067 30.6512 66.0709 30.874C69.3172 31.2082 72.0322 31.2082 74.6482 28.2677" stroke="black" stroke-width="2" stroke-linecap="round" stroke-linejoin="round"/>
</svg>
