<svg width="89" height="87" viewBox="0 0 89 87" fill="none" xmlns="http://www.w3.org/2000/svg">
<path d="M72.303 13.6045H16.8484C15.3171 13.6045 14.0757 14.8074 14.0757 16.2912V70.026C14.0757 71.5098 15.3171 72.7127 16.8484 72.7127H72.303C73.8343 72.7127 75.0757 71.5098 75.0757 70.026V16.2912C75.0757 14.8074 73.8343 13.6045 72.303 13.6045Z" fill="#32E27C" stroke="#263238" stroke-width="2" stroke-linecap="round" stroke-linejoin="round"/>
<path d="M61.2114 8.23096V18.9779" stroke="#263238" stroke-width="2" stroke-linecap="round" stroke-linejoin="round"/>
<path d="M27.939 8.23096V18.9779" stroke="#263238" stroke-width="2" stroke-linecap="round" stroke-linejoin="round"/>
<path d="M14.0757 29.7249H75.0757" stroke="#263238" stroke-width="2" stroke-linecap="round" stroke-linejoin="round"/>
<path d="M32.0981 43.1572H41.8027L36.2572 49.8741C37.1691 49.8741 38.0668 50.0919 38.871 50.5084C39.6752 50.9248 40.361 51.527 40.8676 52.2615C41.3743 52.9961 41.6863 53.8404 41.7759 54.7196C41.8655 55.5989 41.7299 56.486 41.3812 57.3024C41.0325 58.1188 40.4815 58.8392 39.7769 59.4C39.0723 59.9608 38.2358 60.3445 37.3416 60.5173C36.4474 60.6901 35.523 60.6465 34.6503 60.3905C33.7776 60.1345 32.9835 59.6739 32.3384 59.0495" stroke="#263238" stroke-width="2" stroke-linecap="round" stroke-linejoin="round"/>
<path d="M50.1216 47.1876L55.667 43.1575V60.6213" stroke="#263238" stroke-width="2" stroke-linecap="round" stroke-linejoin="round"/>
</svg>
