<?xml version="1.0" encoding="UTF-8" standalone="no"?>
<svg
   xmlns:dc="http://purl.org/dc/elements/1.1/"
   xmlns:cc="http://creativecommons.org/ns#"
   xmlns:rdf="http://www.w3.org/1999/02/22-rdf-syntax-ns#"
   xmlns:svg="http://www.w3.org/2000/svg"
   xmlns="http://www.w3.org/2000/svg"
   viewBox="0 0 1440 273.00534"
   height="273.00534"
   width="1440"
   xml:space="preserve"
   id="svg2"
   version="1.1"><metadata
     id="metadata8"><rdf:RDF><cc:Work
         rdf:about=""><dc:format>image/svg+xml</dc:format><dc:type
           rdf:resource="http://purl.org/dc/dcmitype/StillImage" /></cc:Work></rdf:RDF></metadata><defs
     id="defs6"><clipPath
       id="clipPath18"
       clipPathUnits="userSpaceOnUse"><path
         id="path16"
         d="M 0,204.754 H 1080 V 0 H 0 Z" /></clipPath></defs><g
     transform="matrix(1.3333333,0,0,-1.3333333,0,273.00533)"
     id="g10"><g
       id="g12"><g
         clip-path="url(#clipPath18)"
         id="g14"><g
           transform="translate(128.6802,41.6304)"
           id="g20"><path
             id="path22"
             style="fill:#f089c0;fill-opacity:1;fill-rule:nonzero;stroke:none"
             d="m 0,0 c 0,-16.882 13.686,-30.568 30.568,-30.568 16.882,0 30.568,13.686 30.568,30.568 V 30.568 H 30.568 0 Z" /></g><g
           transform="translate(6.4087,102.7661)"
           id="g24"><path
             id="path26"
             style="fill:#0049e5;fill-opacity:1;fill-rule:nonzero;stroke:none"
             d="m 0,0 c 0,-16.882 13.686,-30.568 30.568,-30.568 16.882,0 30.568,13.686 30.568,30.568 V 30.567 H 0 Z" /></g><g
           transform="translate(128.6802,102.7661)"
           id="g28"><path
             id="path30"
             style="fill:#fae058;fill-opacity:1;fill-rule:nonzero;stroke:none"
             d="m 0,0 c 0,-16.882 13.686,-30.568 30.568,-30.568 16.882,0 30.568,13.686 30.568,30.568 V 30.567 H 0 Z" /></g><g
           transform="translate(98.1123,194.4697)"
           id="g32"><path
             id="path34"
             style="fill:#77f169;fill-opacity:1;fill-rule:nonzero;stroke:none"
             d="m 0,0 c -16.882,0 -30.568,-13.686 -30.568,-30.568 v -30.568 h 61.136 v 30.568 C 30.568,-13.686 16.882,0 0,0" /></g><g
           transform="translate(263.8208,85.4477)"
           id="g36"><path
             id="path38"
             style="fill:#0049e5;fill-opacity:1;fill-rule:nonzero;stroke:none"
             d="m 0,0 c 2.636,0 4.747,0.791 6.33,2.374 1.582,1.583 2.373,4.086 2.373,7.517 0,1.978 -0.266,3.822 -0.791,5.537 -0.529,1.713 -1.121,3.097 -1.78,4.154 h -29.076 v 16.417 c 0,4.352 -1.089,7.385 -3.264,9.099 -2.176,1.714 -5.573,2.573 -10.188,2.573 -2.373,0 -4.583,-0.199 -6.626,-0.594 -2.045,-0.396 -3.594,-0.726 -4.648,-0.99 v -90.79 c 0,-10.812 2.998,-18.561 9.001,-23.241 5.999,-4.679 14.207,-7.021 24.625,-7.021 7.912,0 13.649,1.286 17.21,3.857 3.559,2.572 5.339,5.835 5.339,9.791 0,1.979 -0.365,3.725 -1.088,5.241 -0.726,1.514 -1.616,2.8 -2.67,3.857 -1.848,-0.79 -3.926,-1.452 -6.231,-1.976 -2.308,-0.53 -4.583,-0.793 -6.824,-0.793 -4.617,0 -8.209,0.922 -10.78,2.769 -2.572,1.846 -3.856,4.877 -3.856,9.099 l 0,43.12 z" /></g><g
           transform="translate(346.8931,33.0322)"
           id="g40"><path
             id="path42"
             style="fill:#0049e5;fill-opacity:1;fill-rule:nonzero;stroke:none"
             d="m 0,0 c -1.453,-1.057 -3.758,-1.948 -6.923,-2.671 -3.165,-0.726 -6.66,-1.088 -10.484,-1.088 -6.329,0 -10.912,1.054 -13.746,3.165 -2.837,2.108 -4.253,5.075 -4.253,8.901 0,3.822 1.385,6.628 4.154,8.407 2.768,1.78 6.79,2.932 12.065,3.461 L 0,21.955 Z m 12.758,68.438 c -7.714,5.537 -18.034,8.306 -30.955,8.306 -5.013,0 -9.958,-0.394 -14.835,-1.185 -4.881,-0.791 -9.232,-1.978 -13.056,-3.562 -2.769,-1.32 -4.781,-2.802 -6.033,-4.45 C -53.375,65.896 -54,63.755 -54,61.12 c 0,-2.112 0.495,-4.055 1.484,-5.835 0.99,-1.782 2.207,-3.2 3.659,-4.254 3.823,1.845 8.175,3.394 13.056,4.649 4.877,1.251 9.89,1.879 15.032,1.879 6.592,0 11.702,-1.186 15.329,-3.56 C -1.814,51.625 0,47.932 0,42.92 v -3.559 l -27.098,-2.768 c -10.682,-1.057 -18.826,-3.926 -24.428,-8.604 -5.607,-4.683 -8.408,-11.443 -8.408,-20.277 0,-10.155 3.789,-17.77 11.374,-22.844 7.581,-5.075 17.966,-7.616 31.153,-7.616 7.251,0 13.713,0.663 19.385,1.978 5.668,1.317 10.35,3.098 14.043,5.342 2.375,1.449 4.352,3.097 5.935,4.943 1.582,1.845 2.373,4.353 2.373,7.517 v 45.693 c 0,11.602 -3.857,20.175 -11.571,25.713" /></g><g
           transform="translate(471.6035,100.7773)"
           id="g44"><path
             id="path46"
             style="fill:#0049e5;fill-opacity:1;fill-rule:nonzero;stroke:none"
             d="m 0,0 c -7.452,5.998 -17.969,8.999 -31.549,8.999 -7.65,0 -14.638,-0.888 -20.968,-2.668 -6.329,-1.782 -11.407,-3.991 -15.23,-6.628 -2.769,-1.849 -4.815,-3.758 -6.132,-5.736 -1.32,-1.977 -1.977,-4.55 -1.977,-7.713 V -77.24 c 0,-4.353 1.118,-7.387 3.363,-9.1 2.24,-1.711 5.667,-2.57 10.285,-2.57 2.503,0 4.748,0.199 6.725,0.594 1.978,0.396 3.56,0.726 4.747,0.989 v 71.602 c 2.374,1.45 5.174,2.637 8.406,3.559 3.231,0.923 6.757,1.385 10.583,1.385 5.538,0 9.92,-1.319 13.153,-3.954 3.231,-2.64 4.846,-6.793 4.846,-12.463 V -77.24 c 0,-4.353 1.089,-7.387 3.264,-9.1 2.176,-1.711 5.637,-2.57 10.384,-2.57 2.374,0 4.58,0.199 6.627,0.594 2.043,0.396 3.591,0.726 4.648,0.989 v 60.922 C 11.175,-14.805 7.448,-6.002 0,0" /></g><g
           transform="translate(569.8076,34.2178)"
           id="g48"><path
             id="path50"
             style="fill:#0049e5;fill-opacity:1;fill-rule:nonzero;stroke:none"
             d="m 0,0 c -1.715,-1.057 -3.792,-1.977 -6.23,-2.769 -2.442,-0.791 -5.375,-1.186 -8.803,-1.186 -8.044,0 -14.408,2.338 -19.088,7.021 -4.681,4.68 -7.022,12.096 -7.022,22.252 0,10.812 2.439,18.594 7.319,23.342 4.877,4.747 11.009,7.119 18.396,7.119 3.032,0 5.866,-0.396 8.506,-1.186 2.636,-0.79 4.943,-1.78 6.922,-2.968 z m 11.274,109.186 c -2.373,0 -4.583,-0.167 -6.626,-0.496 C 2.603,108.36 1.054,107.998 0,107.603 V 71.801 c -2.506,1.054 -5.34,1.945 -8.505,2.671 -3.165,0.723 -6.528,1.087 -10.088,1.087 -6.725,0 -12.99,-0.989 -18.791,-2.965 -5.804,-1.979 -10.848,-5.013 -15.132,-9.1 -4.286,-4.089 -7.683,-9.265 -10.186,-15.527 -2.507,-6.265 -3.758,-13.748 -3.758,-22.45 0,-16.748 4.647,-29.175 13.944,-37.285 9.297,-8.11 21.858,-12.166 37.681,-12.166 7.121,0 13.382,0.891 18.791,2.671 5.406,1.78 9.757,3.724 13.055,5.835 2.636,1.713 4.614,3.492 5.933,5.341 1.317,1.845 1.979,4.283 1.979,7.318 V 97.517 c 0,4.349 -1.089,7.381 -3.263,9.096 -2.177,1.714 -5.638,2.573 -10.386,2.573" /></g><g
           transform="translate(674.4399,33.0322)"
           id="g52"><path
             id="path54"
             style="fill:#0049e5;fill-opacity:1;fill-rule:nonzero;stroke:none"
             d="m 0,0 c -1.453,-1.057 -3.758,-1.948 -6.922,-2.671 -3.166,-0.726 -6.661,-1.088 -10.485,-1.088 -6.329,0 -10.912,1.054 -13.746,3.165 -2.837,2.108 -4.253,5.075 -4.253,8.901 0,3.822 1.385,6.628 4.154,8.407 2.769,1.78 6.79,2.932 12.066,3.461 L 0,21.955 Z m 12.758,68.438 c -7.714,5.537 -18.033,8.306 -30.955,8.306 -5.013,0 -9.958,-0.394 -14.835,-1.185 -4.881,-0.791 -9.232,-1.978 -13.055,-3.562 -2.769,-1.32 -4.782,-2.802 -6.033,-4.45 -1.255,-1.651 -1.879,-3.792 -1.879,-6.427 0,-2.112 0.495,-4.055 1.483,-5.835 0.99,-1.782 2.207,-3.2 3.66,-4.254 3.822,1.845 8.174,3.394 13.055,4.649 4.877,1.251 9.89,1.879 15.032,1.879 6.592,0 11.702,-1.186 15.329,-3.56 C -1.814,51.625 0,47.932 0,42.92 v -3.559 l -27.098,-2.768 c -10.682,-1.057 -18.825,-3.926 -24.428,-8.604 -5.607,-4.683 -8.408,-11.443 -8.408,-20.277 0,-10.155 3.79,-17.77 11.374,-22.844 7.581,-5.075 17.966,-7.616 31.153,-7.616 7.251,0 13.714,0.663 19.386,1.978 5.667,1.317 10.349,3.098 14.043,5.342 2.374,1.449 4.351,3.097 5.934,4.943 1.582,1.845 2.373,4.353 2.373,7.517 v 45.693 c 0,11.602 -3.857,20.175 -11.571,25.713" /></g><g
           transform="translate(851.7642,101.8652)"
           id="g56"><path
             id="path58"
             style="fill:#0049e5;fill-opacity:1;fill-rule:nonzero;stroke:none"
             d="m 0,0 c -3.363,2.769 -7.354,4.779 -11.967,6.034 -4.617,1.25 -9.494,1.877 -14.637,1.877 -6.726,0 -12.56,-0.924 -17.505,-2.769 -4.945,-1.846 -9.33,-4.153 -13.154,-6.921 -7.516,6.46 -17.276,9.69 -29.274,9.69 -6.463,0 -12.727,-0.888 -18.791,-2.668 -6.066,-1.782 -11.077,-3.991 -15.033,-6.628 -2.769,-1.849 -4.814,-3.791 -6.132,-5.834 -1.32,-2.046 -1.977,-4.582 -1.977,-7.615 v -63.494 c 0,-4.353 1.118,-7.387 3.363,-9.1 2.24,-1.711 5.668,-2.57 10.285,-2.57 2.504,0 4.748,0.199 6.725,0.594 1.979,0.396 3.56,0.726 4.747,0.989 v 71.801 c 1.845,1.054 4.154,2.108 6.923,3.164 2.77,1.054 5.802,1.581 9.1,1.581 4.746,0 8.635,-1.186 11.669,-3.559 3.032,-2.374 4.549,-6.199 4.549,-11.471 v -51.429 c 0,-4.353 1.088,-7.387 3.265,-9.1 2.175,-1.711 5.637,-2.57 10.384,-2.57 2.373,0 4.581,0.199 6.626,0.594 2.043,0.396 3.592,0.726 4.648,0.989 v 64.481 c 0,1.845 -0.198,3.691 -0.593,5.538 2.241,1.979 4.846,3.562 7.812,4.748 2.968,1.188 6.034,1.779 9.198,1.779 4.748,0 8.57,-1.186 11.473,-3.559 2.899,-2.374 4.352,-6.199 4.352,-11.471 v -51.429 c 0,-4.353 1.086,-7.387 3.263,-9.1 2.175,-1.711 5.637,-2.57 10.384,-2.57 2.374,0 4.58,0.199 6.625,0.594 2.043,0.396 3.593,0.726 4.65,0.989 v 62.502 c 0,5.936 -0.99,11.045 -2.968,15.33 C 6.033,-6.297 3.363,-2.769 0,0" /></g><g
           transform="translate(948.6821,38.0757)"
           id="g60"><path
             id="path62"
             style="fill:#0049e5;fill-opacity:1;fill-rule:nonzero;stroke:none"
             d="m 0,0 c -4.024,-5.211 -9.66,-7.812 -16.911,-7.812 -7.255,0 -12.891,2.569 -16.913,7.712 -4.024,5.143 -6.031,12.527 -6.031,22.154 0,9.495 2.041,16.843 6.129,22.055 4.087,5.208 9.694,7.812 16.815,7.812 7.119,0 12.724,-2.604 16.813,-7.812 C 3.988,38.897 6.034,31.549 6.034,22.054 6.034,12.56 4.021,5.208 0,0 m 18.197,58.251 c -4.285,4.353 -9.394,7.68 -15.33,9.989 -5.933,2.306 -12.527,3.461 -19.778,3.461 -7.255,0 -13.847,-1.155 -19.78,-3.461 -5.935,-2.309 -11.047,-5.605 -15.33,-9.89 -4.287,-4.285 -7.583,-9.493 -9.89,-15.625 -2.309,-6.132 -3.461,-13.025 -3.461,-20.671 0,-7.782 1.152,-14.736 3.461,-20.867 2.307,-6.133 5.569,-11.342 9.792,-15.627 4.218,-4.286 9.296,-7.584 15.229,-9.891 5.935,-2.304 12.592,-3.461 19.979,-3.461 7.383,0 14.044,1.157 19.977,3.461 5.933,2.307 11.009,5.639 15.231,9.991 4.219,4.35 7.481,9.593 9.79,15.725 2.307,6.132 3.461,13.021 3.461,20.669 0,7.516 -1.154,14.341 -3.461,20.472 -2.309,6.133 -5.605,11.373 -9.89,15.725" /></g><g
           transform="translate(1066.2715,58.647)"
           id="g64"><path
             id="path66"
             style="fill:#0049e5;fill-opacity:1;fill-rule:nonzero;stroke:none"
             d="m 0,0 c -4.879,4.812 -12.791,8.47 -23.735,10.978 l -9.691,2.373 c -4.091,0.92 -6.959,2.108 -8.606,3.56 -1.651,1.449 -2.472,3.296 -2.472,5.538 0,3.032 1.449,5.372 4.352,7.022 2.898,1.648 6.922,2.473 12.065,2.473 2.503,0 5.044,-0.233 7.614,-0.693 2.573,-0.462 5.012,-1.022 7.32,-1.681 2.305,-0.661 4.417,-1.385 6.329,-2.175 1.911,-0.791 3.461,-1.583 4.649,-2.374 1.449,1.055 2.702,2.472 3.758,4.252 1.054,1.782 1.584,3.859 1.584,6.232 0,2.503 -0.827,4.712 -2.475,6.625 -1.65,1.91 -3.954,3.56 -6.922,4.944 -2.968,1.387 -6.463,2.439 -10.484,3.167 -4.024,0.723 -8.406,1.088 -13.153,1.088 -12.396,0 -22.025,-2.671 -28.88,-8.013 -6.857,-5.338 -10.285,-12.297 -10.285,-20.867 0,-7.516 2.34,-13.517 7.023,-17.999 4.678,-4.484 11.898,-7.846 21.658,-10.089 l 11.078,-2.569 c 7.912,-1.715 11.866,-5.277 11.866,-10.681 0,-3.167 -1.384,-5.639 -4.153,-7.418 -2.769,-1.78 -6.858,-2.671 -12.264,-2.671 -6.328,0 -11.902,0.92 -16.714,2.77 -4.815,1.843 -9.066,3.956 -12.757,6.329 -1.85,-1.187 -3.332,-2.703 -4.451,-4.55 -1.121,-1.847 -1.681,-4.024 -1.681,-6.527 0,-2.64 0.891,-5.045 2.67,-7.22 1.78,-2.175 4.283,-4.024 7.517,-5.538 3.229,-1.518 7.052,-2.671 11.473,-3.461 4.415,-0.793 9.328,-1.188 14.736,-1.188 13.184,0 23.205,2.606 30.066,7.814 6.853,5.207 10.285,12.426 10.285,21.66 C 7.32,-11.112 4.877,-4.817 0,0" /></g></g></g></g></svg>