<svg width="30" height="30" viewBox="0 0 30 30" fill="none" xmlns="http://www.w3.org/2000/svg">
<path fill-rule="evenodd" clip-rule="evenodd" d="M21.7674 9.08323C21.7674 12.8169 18.7406 15.8437 15.0069 15.8437C11.2732 15.8437 8.24645 12.8169 8.24645 9.08323C8.24645 5.34952 11.2732 2.32275 15.0069 2.32275C18.7406 2.32275 21.7674 5.34952 21.7674 9.08323ZM23.7674 9.08323C23.7674 13.9215 19.8452 17.8437 15.0069 17.8437C10.1686 17.8437 6.24645 13.9215 6.24645 9.08323C6.24645 4.24495 10.1686 0.322754 15.0069 0.322754C19.8452 0.322754 23.7674 4.24495 23.7674 9.08323ZM0.937417 28.2319C1.24084 24.0639 3.42589 20.4066 6.66378 18.0729C7.17592 18.5484 7.72875 18.9807 8.31648 19.364C5.58742 21.1378 3.64239 23.9636 3.07312 27.232H26.9391C26.3699 23.9639 24.4252 21.1384 21.6965 19.3645C22.2843 18.9813 22.8372 18.5491 23.3493 18.0736C26.5867 20.4073 28.7714 24.0643 29.0748 28.2319C29.1149 28.7827 28.6633 29.232 28.111 29.232H1.90114C1.34886 29.232 0.897317 28.7827 0.937417 28.2319Z" fill="#263238"/>
</svg>
