<svg width="144" height="162" viewBox="0 0 144 162" fill="none" xmlns="http://www.w3.org/2000/svg">
<path d="M79.7799 39.6553C63.2491 39.6553 23.8441 58.5654 20.1872 91.5743C16.5303 124.583 35.2626 144.239 35.2626 144.239L63.473 158.226C63.473 158.226 99.7436 163.448 111.983 148.566C124.222 133.684 145.641 112.126 131.275 75.5734C116.909 39.0212 79.7799 39.6553 79.7799 39.6553Z" fill="#F089C0"/>
<path d="M75.7498 50.2852C58.025 52.6349 36.1209 67.9645 31.6804 81.541C27.2398 95.1175 37.1284 126.411 37.1284 126.411C37.1284 126.411 58.137 152.855 77.7648 148.678C97.3927 144.5 118.849 135.362 124.446 112.498C130.044 89.6347 99.7809 53.7539 92.9895 52.4111C86.1981 51.0684 75.7498 50.2852 75.7498 50.2852Z" fill="#FAE058"/>
<path d="M138.776 100.563C138.776 108.545 137.208 116.527 134.186 123.912C131.163 131.297 126.686 138.122 121.051 143.792C115.416 149.498 108.625 154.049 101.236 157.144C93.848 160.24 85.7879 161.769 77.8024 161.769C69.7796 161.732 61.7941 160.128 54.4057 157.032C47.0172 153.937 40.2632 149.386 34.6285 143.717C28.9939 138.048 24.4414 131.297 21.3816 123.912C18.2844 116.527 16.7172 108.545 16.6799 100.526C16.6425 92.5066 18.2098 84.5248 21.2696 77.1024C24.2922 69.6801 28.8447 62.8918 34.5166 57.1852C40.1885 51.5159 46.9799 46.9282 54.4057 43.8698C61.8314 40.774 69.8542 39.2075 77.877 39.2075C85.8998 39.2075 93.9227 40.774 101.348 43.9071C108.737 47.0028 115.528 51.5532 121.163 57.2598C126.798 62.9664 131.275 69.7547 134.298 77.1397C137.208 84.5994 138.776 92.5812 138.776 100.563ZM138.701 100.563C138.664 92.5812 137.097 84.6367 133.999 77.2889C130.902 69.9412 126.35 63.2275 120.715 57.6701C115.043 52.1127 108.326 47.5996 100.975 44.6158C97.3184 43.1238 93.4749 41.9676 89.5941 41.1843C85.7133 40.4011 81.7578 40.0281 77.7651 40.0281C69.8169 40.0281 61.9061 41.5946 54.5923 44.6158C47.2785 47.6369 40.5244 52.1127 34.9271 57.7074C29.3298 63.3021 24.7773 70.0158 21.7174 77.3262C18.6576 84.674 17.053 92.6185 17.0157 100.563C17.0157 108.507 18.5456 116.452 21.5682 123.837C23.0981 127.53 24.9639 131.036 27.1655 134.355C29.3671 137.675 31.9418 140.733 34.7405 143.568C37.5765 146.365 40.6736 148.901 43.9574 151.102C47.2785 153.303 50.8234 155.167 54.4803 156.659C61.8314 159.681 69.7796 161.21 77.7278 161.172C81.6832 161.172 85.676 160.762 89.5568 159.979C93.4376 159.196 97.2437 158.039 100.938 156.548C108.289 153.526 115.006 149.051 120.678 143.456C126.35 137.861 130.902 131.147 133.962 123.837C137.097 116.489 138.664 108.545 138.701 100.563Z" fill="black"/>
<path d="M125.976 100.563C126.014 106.866 124.745 113.17 122.357 119.026C119.969 124.881 116.424 130.252 111.983 134.765C107.543 139.278 102.169 142.896 96.3106 145.321C90.4521 147.782 84.1085 148.976 77.7649 148.976C71.4212 148.939 65.0776 147.67 59.2564 145.209C53.4352 142.747 48.0991 139.129 43.6213 134.653C39.1808 130.178 35.5612 124.844 33.1357 118.988C30.7102 113.17 29.4041 106.829 29.4041 100.526C29.3668 94.1849 30.5982 87.8443 32.9864 81.9884C35.3746 76.1326 38.9569 70.7244 43.4347 66.2486C47.9126 61.7355 53.286 58.1549 59.1445 55.6932C65.003 53.2316 71.3839 52.0007 77.7275 52.0007C84.0712 52.0007 90.4521 53.2316 96.3106 55.7305C102.169 58.1922 107.543 61.8101 111.983 66.3232C116.424 70.8363 119.969 76.2072 122.357 82.063C124.745 87.9562 125.976 94.2595 125.976 100.563ZM125.902 100.563C125.864 94.2595 124.633 87.9562 122.17 82.1749C119.707 76.3937 116.125 71.0974 111.647 66.6962C107.169 62.295 101.871 58.789 96.0494 56.4019C90.2655 54.0521 83.9965 52.784 77.7649 52.784C71.4959 52.784 65.2642 54.0521 59.4803 56.4019C53.6964 58.789 48.3977 62.3323 43.9571 66.7335C39.5166 71.1347 35.9343 76.431 33.5461 82.2122C31.1207 87.9935 29.8519 94.2595 29.8146 100.526C29.7773 106.792 30.9714 113.095 33.3969 118.914C35.7851 124.732 39.33 130.066 43.8079 134.504C46.0468 136.705 48.4723 138.719 51.0844 140.472C53.6964 142.188 56.4951 143.68 59.4057 144.873C65.2269 147.26 71.4959 148.454 77.7649 148.416C80.8993 148.416 84.0338 148.081 87.0937 147.484C90.1536 146.887 93.1761 145.955 96.0867 144.761C101.871 142.374 107.207 138.831 111.685 134.467C116.162 130.066 119.745 124.769 122.207 118.988C124.633 113.132 125.864 106.866 125.902 100.563Z" fill="black"/>
<path d="M77.765 103.547C79.4137 103.547 80.7502 102.211 80.7502 100.563C80.7502 98.915 79.4137 97.5791 77.765 97.5791C76.1163 97.5791 74.7798 98.915 74.7798 100.563C74.7798 102.211 76.1163 103.547 77.765 103.547Z" fill="black"/>
<path d="M77.765 58.901C78.8779 58.901 79.78 57.9993 79.78 56.8869C79.78 55.7745 78.8779 54.8728 77.765 54.8728C76.6522 54.8728 75.75 55.7745 75.75 56.8869C75.75 57.9993 76.6522 58.901 77.765 58.901Z" fill="black"/>
<path d="M55.9354 64.7567C57.0483 64.7567 57.9505 63.855 57.9505 62.7426C57.9505 61.6303 57.0483 60.7285 55.9354 60.7285C54.8226 60.7285 53.9204 61.6303 53.9204 62.7426C53.9204 63.855 54.8226 64.7567 55.9354 64.7567Z" fill="black"/>
<path d="M39.9271 80.7203C41.04 80.7203 41.9422 79.8186 41.9422 78.7062C41.9422 77.5939 41.04 76.6921 39.9271 76.6921C38.8143 76.6921 37.9121 77.5939 37.9121 78.7062C37.9121 79.8186 38.8143 80.7203 39.9271 80.7203Z" fill="black"/>
<path d="M34.0687 102.577C35.1816 102.577 36.0838 101.675 36.0838 100.563C36.0838 99.4506 35.1816 98.5488 34.0687 98.5488C32.9559 98.5488 32.0537 99.4506 32.0537 100.563C32.0537 101.675 32.9559 102.577 34.0687 102.577Z" fill="black"/>
<path d="M39.9271 124.396C41.04 124.396 41.9422 123.495 41.9422 122.382C41.9422 121.27 41.04 120.368 39.9271 120.368C38.8143 120.368 37.9121 121.27 37.9121 122.382C37.9121 123.495 38.8143 124.396 39.9271 124.396Z" fill="black"/>
<path d="M55.9354 140.397C57.0483 140.397 57.9505 139.496 57.9505 138.383C57.9505 137.271 57.0483 136.369 55.9354 136.369C54.8226 136.369 53.9204 137.271 53.9204 138.383C53.9204 139.496 54.8226 140.397 55.9354 140.397Z" fill="black"/>
<path d="M77.765 146.253C78.8779 146.253 79.78 145.352 79.78 144.239C79.78 143.127 78.8779 142.225 77.765 142.225C76.6522 142.225 75.75 143.127 75.75 144.239C75.75 145.352 76.6522 146.253 77.765 146.253Z" fill="black"/>
<path d="M99.6317 140.397C100.745 140.397 101.647 139.496 101.647 138.383C101.647 137.271 100.745 136.369 99.6317 136.369C98.5189 136.369 97.6167 137.271 97.6167 138.383C97.6167 139.496 98.5189 140.397 99.6317 140.397Z" fill="black"/>
<path d="M115.64 124.396C116.753 124.396 117.655 123.495 117.655 122.382C117.655 121.27 116.753 120.368 115.64 120.368C114.527 120.368 113.625 121.27 113.625 122.382C113.625 123.495 114.527 124.396 115.64 124.396Z" fill="black"/>
<path d="M121.498 102.577C122.611 102.577 123.513 101.675 123.513 100.563C123.513 99.4506 122.611 98.5488 121.498 98.5488C120.386 98.5488 119.483 99.4506 119.483 100.563C119.483 101.675 120.386 102.577 121.498 102.577Z" fill="black"/>
<path d="M115.64 80.7203C116.753 80.7203 117.655 79.8186 117.655 78.7062C117.655 77.5939 116.753 76.6921 115.64 76.6921C114.527 76.6921 113.625 77.5939 113.625 78.7062C113.625 79.8186 114.527 80.7203 115.64 80.7203Z" fill="black"/>
<path d="M99.6317 64.7567C100.745 64.7567 101.647 63.855 101.647 62.7426C101.647 61.6303 100.745 60.7285 99.6317 60.7285C98.5189 60.7285 97.6167 61.6303 97.6167 62.7426C97.6167 63.855 98.5189 64.7567 99.6317 64.7567Z" fill="black"/>
<path d="M77.5786 98.9218C77.2054 98.2504 76.9815 97.5791 76.7576 96.9077C76.571 96.2363 76.4218 95.565 76.3098 94.8936C76.1979 94.2222 76.1233 93.5508 76.0859 92.8795C76.0486 92.2081 76.0486 91.5368 76.1979 90.8654C76.4218 89.5226 77.0561 88.1799 77.1681 86.7999C77.28 85.4571 77.0935 84.1144 76.7576 82.7344C76.571 82.063 76.4218 81.3916 76.2725 80.7203C76.1233 80.0489 76.0859 79.3775 76.0113 78.7062C75.8621 77.3634 75.7128 76.0207 75.7874 74.6407C75.8621 73.2979 76.0113 71.9552 76.3098 70.5752C76.6084 69.2324 76.9815 67.8897 77.6159 66.5097C77.6532 66.3978 77.8025 66.3605 77.8771 66.3978C77.9144 66.4351 77.9517 66.4724 77.989 66.5097C78.6234 67.8524 78.9965 69.1951 79.2951 70.5752C79.5563 71.9179 79.7428 73.2606 79.8175 74.6407C79.8921 75.9834 79.7428 77.3261 79.5936 78.7062C79.519 79.3775 79.4443 80.0489 79.3324 80.7203C79.2204 81.3916 79.0339 82.063 78.8473 82.7344C78.4741 84.0771 78.2875 85.4198 78.4368 86.7999C78.5488 88.1426 79.1458 89.4853 79.407 90.8654C79.519 91.5368 79.5563 92.2081 79.519 92.8795C79.4816 93.5508 79.407 94.2222 79.2951 94.8936C79.1831 95.565 79.0339 96.2363 78.8473 96.9077C78.6234 97.5791 78.3995 98.2504 78.0263 98.9218C77.9517 99.0337 77.8398 99.071 77.7278 98.9964C77.6532 98.9964 77.6159 98.9591 77.5786 98.9218Z" fill="black"/>
<path d="M77.6903 100.414C77.9142 99.8542 78.2128 99.4067 78.5113 98.9964C78.8098 98.5861 79.183 98.2131 79.5188 97.8774C79.892 97.5418 80.2651 97.2434 80.6383 96.9823C81.0487 96.7212 81.4592 96.4974 81.9443 96.3855C82.8772 96.1244 84.034 96.1617 84.8922 95.7887C85.7878 95.4158 86.4968 94.7817 87.1685 93.9984C87.5043 93.6254 87.8028 93.2152 88.176 92.8795C88.5118 92.5438 88.9223 92.2454 89.2954 91.947C90.0417 91.3503 90.788 90.7535 91.6463 90.3432C92.5045 89.9329 93.4374 89.5972 94.3703 89.3735C95.3405 89.1497 96.348 89.0005 97.5048 89.0751C97.6167 89.0751 97.7287 89.187 97.7287 89.2989C97.7287 89.3362 97.7287 89.3735 97.6914 89.3735C97.169 90.3805 96.5346 91.2011 95.8629 91.9097C95.1912 92.6184 94.4449 93.2525 93.624 93.7746C92.8404 94.2968 91.9448 94.6325 91.0119 95.0055C90.5641 95.192 90.1164 95.3785 89.6313 95.4904C89.1462 95.6023 88.6611 95.6768 88.1386 95.7887C87.1311 95.9379 86.1982 96.2736 85.4519 96.8331C84.6683 97.3926 84.1459 98.3996 83.4369 99.071C83.1011 99.4067 82.6906 99.6677 82.2428 99.8542C81.795 100.078 81.3846 100.227 80.8995 100.376C80.4517 100.526 79.9666 100.638 79.4442 100.675C78.9218 100.749 78.3993 100.749 77.8023 100.675C77.6903 100.675 77.5784 100.526 77.6157 100.414C77.653 100.451 77.6903 100.414 77.6903 100.414Z" fill="black"/>
<path d="M141.052 150.207C142.309 150.207 143.328 149.188 143.328 147.932C143.328 146.675 142.309 145.656 141.052 145.656C139.795 145.656 138.775 146.675 138.775 147.932C138.775 149.188 139.795 150.207 141.052 150.207Z" fill="#0049E5"/>
<path d="M138.328 67.5542C140.327 67.5542 141.948 65.9344 141.948 63.9363C141.948 61.9382 140.327 60.3184 138.328 60.3184C136.329 60.3184 134.708 61.9382 134.708 63.9363C134.708 65.9344 136.329 67.5542 138.328 67.5542Z" fill="#F089C0"/>
<path d="M131.126 47.2639C132.033 47.2639 132.768 46.5292 132.768 45.6228C132.768 44.7164 132.033 43.9817 131.126 43.9817C130.219 43.9817 129.484 44.7164 129.484 45.6228C129.484 46.5292 130.219 47.2639 131.126 47.2639Z" fill="#ECCEFF"/>
<path d="M105.752 29.6963C108.019 29.6963 109.856 27.8594 109.856 25.5935C109.856 23.3276 108.019 21.4907 105.752 21.4907C103.485 21.4907 101.647 23.3276 101.647 25.5935C101.647 27.8594 103.485 29.6963 105.752 29.6963Z" fill="#77F169"/>
<path d="M81.4221 34.9182C82.3289 34.9182 83.064 34.1835 83.064 33.2771C83.064 32.3707 82.3289 31.636 81.4221 31.636C80.5154 31.636 79.7803 32.3707 79.7803 33.2771C79.7803 34.1835 80.5154 34.9182 81.4221 34.9182Z" fill="#0049E5"/>
<path d="M83.7357 8.10081C85.9202 8.10081 87.6911 6.33072 87.6911 4.14721C87.6911 1.96369 85.9202 0.193604 83.7357 0.193604C81.5512 0.193604 79.7803 1.96369 79.7803 4.14721C79.7803 6.33072 81.5512 8.10081 83.7357 8.10081Z" fill="#77F169"/>
<path d="M48.8829 33.2769C49.8722 33.2769 50.6741 32.4754 50.6741 31.4866C50.6741 30.4978 49.8722 29.6963 48.8829 29.6963C47.8937 29.6963 47.0918 30.4978 47.0918 31.4866C47.0918 32.4754 47.8937 33.2769 48.8829 33.2769Z" fill="#ECCEFF"/>
<path d="M11.1946 56.3647C13.7088 56.3647 15.747 54.3274 15.747 51.8143C15.747 49.3012 13.7088 47.2639 11.1946 47.2639C8.6803 47.2639 6.64209 49.3012 6.64209 51.8143C6.64209 54.3274 8.6803 56.3647 11.1946 56.3647Z" fill="#0049E5"/>
<path d="M25.7476 63.9361C26.6338 63.9361 27.3522 63.2181 27.3522 62.3323C27.3522 61.4466 26.6338 60.7285 25.7476 60.7285C24.8615 60.7285 24.1431 61.4466 24.1431 62.3323C24.1431 63.2181 24.8615 63.9361 25.7476 63.9361Z" fill="#0049E5"/>
<path d="M20.5606 34.0976C22.5184 34.0976 24.1055 32.5112 24.1055 30.5543C24.1055 28.5974 22.5184 27.011 20.5606 27.011C18.6028 27.011 17.0156 28.5974 17.0156 30.5543C17.0156 32.5112 18.6028 34.0976 20.5606 34.0976Z" fill="#F089C0"/>
<path d="M5.33601 103.211C7.93271 103.211 10.0377 101.107 10.0377 98.5116C10.0377 95.9161 7.93271 93.812 5.33601 93.812C2.73932 93.812 0.634277 95.9161 0.634277 98.5116C0.634277 101.107 2.73932 103.211 5.33601 103.211Z" fill="#77F169"/>
</svg>
