<svg width="33" height="33" viewBox="0 0 33 33" fill="none" xmlns="http://www.w3.org/2000/svg">
<path d="M17.0686 24.5866L23.5701 28.7057C24.4011 29.2322 25.4329 28.4491 25.1863 27.479L23.3079 20.0898C23.255 19.884 23.2613 19.6675 23.326 19.465C23.3907 19.2626 23.5112 19.0826 23.6737 18.9457L29.5038 14.0932C30.2698 13.4556 29.8744 12.1842 28.8902 12.1204L21.2765 11.6262C21.0714 11.6116 20.8747 11.539 20.7093 11.4169C20.5439 11.2948 20.4166 11.1282 20.3422 10.9365L17.5026 3.78569C17.4254 3.58226 17.2882 3.40712 17.1091 3.28353C16.93 3.15994 16.7176 3.09375 16.5 3.09375C16.2824 3.09375 16.07 3.15994 15.8909 3.28353C15.7118 3.40712 15.5746 3.58226 15.4974 3.78569L12.6578 10.9365C12.5834 11.1282 12.4561 11.2948 12.2907 11.4169C12.1253 11.539 11.9286 11.6116 11.7235 11.6262L4.10979 12.1204C3.12558 12.1842 2.7302 13.4556 3.49624 14.0932L9.32633 18.9457C9.4888 19.0826 9.60932 19.2626 9.67403 19.465C9.73874 19.6675 9.745 19.884 9.69211 20.0898L7.95009 26.9425C7.65417 28.1066 8.89233 29.0463 9.88959 28.4145L15.9314 24.5866C16.1013 24.4785 16.2986 24.421 16.5 24.421C16.7014 24.421 16.8987 24.4785 17.0686 24.5866V24.5866Z" stroke="black" stroke-width="2" stroke-linecap="round" stroke-linejoin="round"/>
</svg>
