<?xml version="1.0" encoding="utf-8"?>
<!-- Generator: Adobe Illustrator 25.4.1, SVG Export Plug-In . SVG Version: 6.00 Build 0)  -->
<svg version="1.1" id="Capa_1" xmlns="http://www.w3.org/2000/svg" xmlns:xlink="http://www.w3.org/1999/xlink" x="0px" y="0px"
	 viewBox="0 0 408.2 393.9" style="enable-background:new 0 0 408.2 393.9;" xml:space="preserve">
<style type="text/css">
	.st0{fill:#77F169;}
	.st1{fill:#F089C0;}
	.st2{fill:#ECCEFF;}
	.st3{fill:#FAE058;}
	.st4{fill:#0049E5;}
</style>
<g>
	<circle class="st0" cx="399.8" cy="211.1" r="4.2"/>
	<circle class="st0" cx="382.8" cy="112.9" r="4.2"/>
	<circle class="st0" cx="122.2" cy="293.4" r="4.2"/>
	<g>
		<path class="st1" d="M166,196.9c0,0-4.4,3.3-2.7,7.1c1.7,3.8,8,19.3,8,19.3l9,7.3c0,0-4.3-17.2-6.9-19.5c-2.6-2.2-4.9-5.9-4.3-8.8
			S166,196.9,166,196.9z"/>
		<path class="st0" d="M199.2,187.2l-6.4,4.1l-5.6-4.1C187.2,187.2,194.1,182.9,199.2,187.2z"/>
		<path class="st0" d="M173.4,204.9l6.6,2.9c0,0-3.5,9.9,3.7,11.6c7.3,1.8,9.9-2.8,9.9-2.8l5.5,3.2c0,0-2.5,13.6,2,16.1
			c4.5,2.5,10.2-1.4,10.2-1.4s1.3,7.4,7.1,7.4s12.1-4.9,12.1-4.9s11.6,0,14.9,0s13.3-2.5,13.3-2.5s-1.2,8.8,1.4,12.6
			c2.6,3.9,1.5,13.5,1.1,15.4c-0.4,1.9,3.3,15.5,5.6,24.3c2.3,8.9,18.6,73.4,17.5,82.7c-1.2,9.3-37.3,18.9-37.3,18.9l-26.2-1l2.9-56
			c0,0,1.3-47.5-2.8-59.5c-4.2-12-11.8-14.7-15.6-16.2c-3.7-1.6-16.8-21.1-16.8-21.1L173.4,204.9z"/>
		<path class="st1" d="M202.1,189.2l-5,4.3c0,0,8.6,7.7,11.1,5.9C210.6,197.5,202.1,189.2,202.1,189.2z"/>
		<path class="st1" d="M183.9,211.3c0,0-1.1,5.6,2.1,5.4c3.3-0.2,4.9-2.7,4.9-2.7L183.9,211.3z"/>
		<path class="st1" d="M203.2,221c-2.1,4.7-3.4,10,0.1,11.5c3.5,1.5,10.3-5.7,10.3-5.7L203.2,221z"/>
		<path class="st1" d="M217.9,229.9c0,0-5.1,3.2-0.6,6s14.1-0.7,10.6-1.9C224.2,232.8,217.9,229.9,217.9,229.9z"/>
		<path class="st1" d="M380.7,9.7l16.4,46.7v5.8l-88.4,83.7c0,0-10.7-0.7-16.4,3.9c-5.8,4.6-23.1-2.1-23.1-2.1s48.7-73.9,63.9-89.5
			S380.7,9.7,380.7,9.7z"/>
		<path class="st2" d="M264.5,235.9c0,0,2.5,12.8,2.3,15.9s-1.3,12.4,0,14.9c1.3,2.5,31.7,3.4,33.4,0s-0.7-5.4,5.2-4.1
			s8.8,1.5,8.8-2.1c0-3.6-7.1-8-7.1-8s4.5-3.1,1.6-5.3S274.6,236,264.5,235.9z"/>
		<path class="st2" d="M79,226.8c-0.2,0.2,47.1,11.7,56.1,12.2s26.2,8.5,28.1,10.1c18.7,15.9,40,21.3,48.2,21.7
			c3.4,0.2,2.3-6.2-20.4-18.3c-3.3-1.7-5.7-12.9-5.7-12.9l-22-16.3l-5.4-15.7l0.7-7.4c0,0-9.9-2.9-17.6-0.9s-58.2-9-58.2-9l-7,6.5
			L79,226.8z"/>
		<path class="st3" d="M387.5,133.1c0,0-74.5,19.8-78.7,18.4c-4.2-1.4-9.5,1.5-12.3,3.1c-2.7,1.6-25.2,2.8-29.7-3.1
			s-21.3-10.2-21.3-10.2s-7-2.1-6.1-1.5s26.9,16.5,32.3,23.9s3.4,28.1,20.7,27.5c17.3-0.7,28-10.2,38.5-9.7
			c10.4,0.4,59.3-10,59.3-10l3.7-25.7L387.5,133.1z"/>
		<path class="st4" d="M390.1,234.1c0,0-71.4-23.9-75.9-26.4s-11.6-11.3-18.5-10.8c-6.8,0.6-17.4-5.4-25.1-20.8s-24.9-29.1-39-33.8
			s-19.7-9-19.5-5c0.3,4.1,1.4,7,1.4,7l-26.5,10.3c0,0-3.9,3.8,1.4,3.8c5.3,0-15.6,11.2-13.9,14.1c1.7,2.8,4.8,6.6-1.3,9
			c-6.1,2.4-13.8,4.8-8.3,8.2s26.2-7.8,31.1-7.1s20.3,13.4,17.5,19.2c-2.8,5.8-30.3-10.9-31.7-11.5c-1.4-0.6-15.4,1.4-7.7,9
			s49.2,33.2,57.8,32.8c8.6-0.4,37.1-3.2,49.3,0.9c12.2,4.1,90.8,47.9,91.8,46.8s24.1-23.2,24.1-23.2L390.1,234.1z"/>
		<g>
			<path d="M390.1,230c-8.8-2.4-17.6-5-26.3-7.6c-8.7-2.7-17.4-5.4-26.1-8.4c-8.6-3.1-17.2-6.2-25.7-9.8c-2.2-1-4-2.3-5.9-3.7
				c-1.9-1.3-3.7-2.7-5.7-3.7c-1-0.5-2.1-0.8-3.2-0.9c-1.1-0.1-2.3-0.1-3.4-0.2c-2.3-0.1-4.7-0.7-6.7-1.9c-2-1.2-3.8-2.9-5.2-4.8
				c-1.4-1.9-2.5-3.8-3.8-5.8l-7.4-11.6l-7.3-11.6c-0.1-0.2-0.3-0.5-0.4-0.7c-0.2-0.1-0.2-0.3-0.4-0.4l-0.6-0.5l-0.6-0.5
				c-0.9-0.7-1.8-1.3-2.7-2c-1.9-1.3-3.8-2.5-5.7-3.7c-1.9-1.2-3.8-2.4-5.8-3.6l-2.9-1.8l-1.5-0.9l-0.7-0.5
				c-0.2-0.1-0.4-0.2-0.7-0.4c-1.9-0.9-4.1-1.6-6.3-2.4c-2.2-0.7-4.3-1.4-6.5-2.2c-1.1-0.4-2.2-0.8-3.2-1.3c-1.1-0.5-2-1-3.1-1.5
				c-2.1-0.9-4.2-1.8-6.3-2.7c-0.5-0.2-1.1-0.5-1.6-0.7c-0.3-0.1-0.5-0.3-0.8-0.4c-0.1-0.1-0.3-0.2-0.4-0.3c0,0,0,0-0.1,0
				c-0.4,0-0.9,0.4-1.2,0.7c-0.4,0.4-0.7,0.8-1,1.3c-0.5,0.9-0.7,2.1-0.4,3.1c0.3,1.1,1,2,1.9,2.7c0,0,0,0.1,0,0.1c0,0-0.1,0-0.1,0
				c-0.9-0.7-1.8-1.6-2.2-2.7c-0.4-1.1-0.3-2.4,0.3-3.5c0.3-0.5,0.6-1.1,1-1.5c0.4-0.4,0.9-0.9,1.7-1c0.2,0,0.5,0,0.7,0.2
				c0.1,0.1,0.2,0.1,0.3,0.2c0.2,0.1,0.5,0.2,0.8,0.3c0.5,0.2,1,0.4,1.6,0.6c2.1,0.8,4.3,1.6,6.4,2.4c1.1,0.4,2.2,0.9,3.2,1.3
				c1,0.4,2.1,0.8,3.1,1.1c2.2,0.7,4.3,1.4,6.5,2c2.2,0.7,4.4,1.3,6.6,2.3c0.3,0.1,0.6,0.3,0.8,0.4l0.7,0.4l1.5,0.9l2.9,1.8
				c2,1.2,3.9,2.4,5.9,3.6c1.9,1.2,3.9,2.5,5.8,3.8c0.9,0.7,1.9,1.3,2.8,2.1l0.7,0.6l0.7,0.6c0.2,0.2,0.5,0.6,0.7,0.9
				c0.2,0.3,0.3,0.5,0.5,0.8l7.1,11.7l7.1,11.7l1.8,2.9c0.6,1,1.2,1.9,1.8,2.9c1.2,1.8,2.8,3.5,4.6,4.7c1.8,1.2,4,1.8,6.2,2
				c1.1,0.1,2.2,0.2,3.4,0.3c1.2,0.1,2.3,0.5,3.4,1c2.1,1.1,3.9,2.5,5.7,3.9c1.8,1.3,3.7,2.7,5.8,3.6c4.2,1.8,8.5,3.2,12.9,4.6
				c4.3,1.4,8.7,2.8,13,4.2c17.4,5.6,34.7,11.3,52,17.4c0.1,0,0.1,0.1,0.1,0.1C390.2,230,390.1,230,390.1,230z"/>
			<path d="M249,161.7c-0.7-1.4-1.7-2.6-2.9-3.5c-0.6-0.5-1.2-0.9-1.9-1.3c-0.6-0.4-1.3-0.7-2.1-1.1c-2.8-1.4-5.6-2.9-8.3-4.5
				c-2.7-1.6-5.3-3.4-8.1-4.9c-2.7-1.5-5.6-2.9-8.5-4.1c-1.3-0.5-2.8-0.2-4.2,0.2c-1.4,0.4-2.9,1-4.3,1.6l-8.6,3.8
				c-2.9,1.2-5.7,2.5-8.7,3.8c-0.7,0.3-1.5,0.6-2.3,0.9c-0.4,0.1-0.8,0.3-1.2,0.3c-0.3,0.1-0.6,0.2-0.9,0.4
				c-0.6,0.4-1.1,0.9-1.3,1.6c-0.3,0.7-0.2,1.4,0.3,2c0,0,0,0.1,0,0.1c0,0-0.1,0-0.1,0c-0.7-0.5-1-1.5-0.8-2.3
				c0.2-0.9,0.7-1.7,1.4-2.2c0.4-0.3,0.7-0.5,1.2-0.7c0.4-0.2,0.7-0.3,1-0.5c0.7-0.3,1.4-0.7,2.1-1.1c2.8-1.5,5.6-2.9,8.5-4.3
				c2.9-1.3,5.8-2.5,8.8-3.6c1.5-0.6,3-1.1,4.6-1.4c0.8-0.2,1.6-0.3,2.5-0.3c0.8,0,1.8,0.2,2.5,0.6c2.8,1.5,5.5,3.1,8.4,4.5
				c2.8,1.4,5.7,2.7,8.6,4c2.8,1.4,5.6,3,8.3,4.6c1.3,0.8,2.8,1.7,3.9,2.9c0.6,0.6,1,1.3,1.5,2c0.4,0.7,0.7,1.5,0.9,2.3
				c0,0.1,0,0.1-0.1,0.1C249.1,161.8,249.1,161.8,249,161.7L249,161.7z"/>
			<path d="M234.4,164.3c-0.6-1.6-1.3-3.1-2.1-4.5c-0.4-0.7-0.9-1.4-1.4-1.9c-0.5-0.6-1.1-1-1.7-1.2c-0.3-0.1-0.6-0.1-0.9-0.1
				l-0.6,0.1c-0.2,0-0.5,0.1-0.7,0.1l-1.3,0l-1.3-0.1c-1.7-0.1-3.4-0.4-5-0.7c-3.3-0.7-6.6-1.6-9.8-2.3c-3.3-0.7-6.6-1.2-9.9-1.4
				c-3.3-0.2-6.1,1.4-8.7,3.4c-2.6,2-4.9,4.4-7.3,6.7c-2.4,2.4-5,4.5-7.5,6.7c-1.2,1.1-2.5,2.2-3.1,3.6c-0.3,0.7-0.3,1.3,0.2,1.9
				c0.5,0.6,1.2,1.1,1.9,1.5c0,0,0.1,0.1,0,0.1c0,0-0.1,0.1-0.1,0c-0.8-0.2-1.6-0.6-2.3-1.2c-0.3-0.3-0.6-0.7-0.8-1.2
				c-0.1-0.5-0.1-1,0.1-1.5c0.3-0.9,0.8-1.7,1.3-2.4c0.5-0.7,1.1-1.4,1.7-2c2.3-2.5,4.8-4.7,7.1-7.1c2.4-2.4,4.9-4.7,7.7-6.7
				c1.4-1,2.9-1.9,4.6-2.5c1.7-0.6,3.6-0.7,5.3-0.5c3.4,0.6,6.6,1.4,9.9,1.9c3.3,0.5,6.7,0.9,10,1.3l4.9,0.6l1.2,0.1l1.2,0
				c0.2,0,0.4,0,0.5,0c0.2,0,0.3,0,0.6,0c0.5-0.1,1.1,0,1.6,0.2c1,0.4,1.7,1.1,2.2,1.8c0.5,0.7,1,1.5,1.3,2.3
				c0.7,1.6,1.1,3.3,1.4,4.9c0,0.1,0,0.1-0.1,0.1C234.5,164.3,234.4,164.3,234.4,164.3z"/>
			<path d="M222.9,168.6c-3-1.9-6.5-3.2-9.8-2.9c-0.4,0-0.8,0.1-1.2,0.2c-0.4,0.1-0.8,0.2-1.2,0.4c-0.9,0.3-1.8,0.6-2.6,0.8
				c-1.8,0.5-3.5,0.9-5.3,1.2c-3.6,0.6-7.2,1-10.8,1.5c-1.8,0.3-3.6,0.6-5.3,0.9c-0.9,0.2-1.8,0.3-2.7,0.5c-0.8,0.2-1.6,0.6-2.3,1
				c-2.9,1.9-5.4,4.5-7.9,7.1c-0.6,0.6-1.2,1.3-1.8,2l-0.9,1c-0.3,0.4-0.7,0.7-1,1c-1.4,1.3-3.1,2.3-4.8,3.1
				c-0.8,0.4-1.7,0.7-2.5,1.1c-0.8,0.4-1.6,0.7-2.2,1.1c-0.3,0.2-0.4,0.4-0.4,0.5c0,0.1,0,0.2,0.2,0.7c0.4,0.7,0.9,1.4,1.5,1.8
				c1.2,1,2.9,1.4,4.7,1.5c1.8,0.1,3.6,0,5.4-0.2c0.1,0,0.1,0,0.1,0.1c0,0,0,0.1-0.1,0.1c-1.7,0.5-3.5,0.9-5.4,1
				c-1.8,0.1-3.9-0.1-5.6-1.3c-0.8-0.6-1.5-1.4-2.1-2.2c-0.2-0.3-0.7-1.1-0.5-1.9c0.1-0.8,0.7-1.3,1.1-1.7c0.9-0.7,1.7-1.1,2.5-1.5
				c0.8-0.4,1.6-0.8,2.4-1.2c1.6-0.8,3.1-1.6,4.4-2.7c0.3-0.3,0.6-0.6,0.9-0.8l0.9-1c0.6-0.7,1.3-1.3,1.9-1.9
				c1.3-1.3,2.7-2.5,4.1-3.7c1.4-1.2,2.9-2.2,4.6-3.1c0.8-0.4,1.7-0.8,2.7-0.9c0.9-0.1,1.8-0.2,2.7-0.3c1.8-0.2,3.6-0.5,5.3-0.9
				c1.8-0.3,3.5-0.7,5.3-1.2c1.8-0.4,3.5-0.9,5.2-1.3l5.2-1.3c0.9-0.2,1.7-0.5,2.6-0.7c0.5-0.1,0.9-0.3,1.4-0.3c0.5,0,1-0.1,1.5-0.1
				c3.9-0.1,7.5,1.8,10.1,4.3c0,0,0,0.1,0,0.1C223,168.6,222.9,168.6,222.9,168.6L222.9,168.6z"/>
			<path d="M367.2,279.9c-11-6.6-21.9-13.3-32.9-19.7c-5.5-3.2-11.1-6.4-16.7-9.4c-5.6-3-11.2-6-17.1-8.4l-4.4-1.7
				c-1.5-0.5-3-1-4.6-1.4c-3-0.9-6.1-1.8-9.2-2.6c-6.2-1.6-12.4-3-18.7-3.7c-1.6-0.2-3.2-0.3-4.7-0.2c-0.8,0-1.6,0.1-2.3,0.3
				c-0.2,0.1-0.3,0.1-0.5,0.2l-0.6,0.3c-0.4,0.2-0.8,0.3-1.2,0.5c-3.1,0.9-6.4,1.1-9.6,1.2c-6.4,0.1-13-0.5-19-3
				c-3-1.2-5.9-2.7-8.7-4.1c-2.8-1.5-5.6-3-8.4-4.6l-8.3-4.8l-4.1-2.4c-1.4-0.8-2.8-1.6-4.1-2.2c-1.6-0.7-3-1.5-4.4-2.3
				c-1.4-0.8-2.7-1.7-4.1-2.6c-2.7-1.8-5.3-3.6-7.9-5.4l-2-1.4c-0.7-0.5-1.4-1.1-2-1.9c-1.1-1.5-1.6-3.3-1.6-5.1
				c0-1.8,0.5-3.6,1.7-5.1c0.6-0.7,1.3-1.4,2-1.9c0.8-0.5,1.6-0.8,2.5-1c1.7-0.4,3.5-0.3,5.2,0c1.7,0.3,3.3,0.8,4.8,1.5
				c3.1,1.3,5.8,3.1,8.4,4.9c2.6,1.8,5.3,3.4,8.2,4.7c1.4,0.6,2.9,1.1,4.4,1.5l1.1,0.3l1.1,0.2c0.4,0.1,0.9,0.2,0.8,0.1
				c0,0-0.1,0,0,0c0,0,0-0.1,0.1-0.3c0-0.6-0.2-1.3-0.4-2c-0.2-0.7-0.5-1.4-0.9-2.1c-0.7-1.4-1.4-2.8-2.3-4.1
				c-0.9-1.3-1.8-2.5-2.9-3.6c-0.5-0.5-1.1-1.1-1.7-1.5l-0.5-0.3c-0.2-0.1-0.3-0.2-0.4-0.2c-0.3-0.1-0.7-0.2-1.1-0.3
				c-3-0.7-6.3-0.8-9.4-0.6c-1.6,0.1-3.1,0.4-4.6,1c-0.7,0.3-1.5,0.6-2.2,0.9c-0.7,0.3-1.5,0.7-2,1.1l0,0c0,0-0.1,0-0.1,0
				c0,0,0-0.1,0-0.1c0.6-0.6,1.4-0.9,2.1-1.3c0.7-0.4,1.4-0.7,2.2-1c1.5-0.7,3.1-1,4.7-1.2c3.2-0.4,6.5-0.4,9.7,0.2
				c0.4,0.1,0.8,0.2,1.2,0.3c0.2,0.1,0.4,0.2,0.6,0.3l0.5,0.3c0.7,0.5,1.3,1,1.9,1.6c1.2,1.1,2.2,2.4,3.2,3.7c1,1.3,1.8,2.7,2.6,4.2
				c0.4,0.7,0.7,1.5,1,2.3c0.3,0.8,0.5,1.6,0.5,2.6c0,0.3-0.1,0.6-0.2,0.9c-0.1,0.2-0.2,0.3-0.4,0.5c-0.2,0.1-0.4,0.2-0.6,0.3
				c-0.1,0-0.2,0-0.3,0.1l-0.2,0l-0.2,0l-0.2,0l-0.6-0.1l-1.2-0.2l-1.2-0.3c-1.6-0.4-3.2-0.9-4.7-1.5c-3-1.2-5.9-2.9-8.6-4.6
				c-2.7-1.7-5.3-3.5-8.2-4.7c-2.8-1.2-5.9-1.9-8.7-1.3c-0.7,0.2-1.3,0.4-1.9,0.8c-0.6,0.4-1.1,0.8-1.5,1.4
				c-0.8,1.1-1.2,2.5-1.2,3.8c0,1.4,0.4,2.8,1.2,3.9c0.4,0.6,0.9,1,1.5,1.4l1.9,1.4c2.6,1.9,5.2,3.7,7.8,5.5c1.3,0.9,2.6,1.8,4,2.6
				c1.3,0.8,2.7,1.6,4.1,2.2c1.6,0.7,2.9,1.5,4.3,2.3c1.4,0.8,2.8,1.6,4.1,2.5l8.2,4.9c5.5,3.2,11,6.5,16.8,9.1
				c2.9,1.3,5.9,2.1,9.1,2.6c3.1,0.5,6.3,0.7,9.5,0.7c3.2-0.1,6.4-0.3,9.4-1.1c0.4-0.1,0.7-0.2,1.1-0.4l0.5-0.3
				c0.2-0.1,0.4-0.2,0.6-0.3c0.8-0.3,1.6-0.3,2.5-0.4c1.6-0.1,3.2,0,4.8,0.2c3.2,0.3,6.4,0.8,9.5,1.4c3.2,0.6,6.3,1.2,9.4,1.9
				c3.1,0.7,6.2,1.5,9.3,2.4c1.5,0.4,3.1,0.9,4.6,1.3c1.5,0.5,3.1,1,4.6,1.6l4.4,1.9l4.3,2.1c2.9,1.4,5.7,2.9,8.5,4.4
				c5.6,3.1,11.1,6.3,16.6,9.6c10.9,6.6,21.7,13.6,32.2,20.8l0,0c0,0,0.1,0.1,0,0.1C367.3,279.9,367.3,280,367.2,279.9z"/>
			<path d="M203.5,219.5c-0.2,1.3-0.6,2.5-0.9,3.7l-0.8,3.6c-0.3,1.2-0.6,2.4-0.4,3.6c0.2,1.2,1.2,2.2,2.2,2.6
				c1.1,0.4,2.2,0.4,3.2,0.1c1-0.3,2-1,2.9-1.7c1.9-1.4,3.7-3.2,5.6-4.9l0,0c0,0,0.1,0,0.1,0c0,0,0,0.1,0,0.1
				c-0.9,2.5-2.4,4.7-4.5,6.5c-1.1,0.9-2.3,1.5-3.8,1.8c-0.7,0.1-1.5,0.2-2.2,0c-0.7-0.2-1.4-0.5-2-0.9c-1.1-0.9-1.9-2.1-2.3-3.3
				c-0.4-1.3-0.7-2.6-0.7-4c0-0.7,0.1-1.3,0.3-2c0.2-0.6,0.4-1.3,0.7-1.9c0.6-1.2,1.2-2.3,2.1-3.3
				C203.3,219.4,203.4,219.4,203.5,219.5C203.5,219.4,203.5,219.5,203.5,219.5z"/>
			<path d="M217.3,227.5c-0.5,2.3-1.2,4.4-1.7,6.4c-0.2,1-0.5,2.1,0.1,3c0.3,0.4,0.8,0.6,1.3,0.9c0.5,0.2,1.1,0.3,1.6,0.4
				c1.1,0.1,2,0,3-0.3c0.9-0.3,1.9-0.9,2.8-1.4c1.9-1,3.9-2.2,6.1-3.1c0.1,0,0.1,0,0.1,0.1c0,0,0,0.1,0,0.1
				c-1.4,1.9-3.1,3.5-5.1,4.8c-1,0.6-2.1,1.1-3.4,1.4c-1.3,0.3-2.7,0.1-3.8-0.5c-0.6-0.3-1.1-0.6-1.6-0.9c-0.5-0.3-1.1-0.6-1.5-1
				c-0.9-0.9-1.3-2.3-1.3-3.6c0-0.6,0.1-1.2,0.3-1.8c0.2-0.6,0.4-1.1,0.7-1.7c0.6-1.1,1.2-2,2.1-2.8
				C217.2,227.3,217.3,227.3,217.3,227.5C217.3,227.4,217.4,227.4,217.3,227.5z"/>
			<path d="M227.8,139.2c1.7-0.3,3.4-0.6,5.1-0.8c1.7-0.2,3.4-0.4,5.1-0.6c3.4-0.3,6.9-0.6,10.4-0.3c0.9,0.1,1.8,0.2,2.7,0.4
				c0.5,0.1,0.9,0.2,1.4,0.4c0.5,0.3,0.9,0.5,1.2,0.8c1.4,1,2.8,1.9,4.3,2.9c2.9,1.9,5.8,3.7,8.7,5.4c2.9,1.7,6,3.4,9.1,4.7
				c3.1,1.3,6.4,2.5,9.8,2.3c3.3-0.4,6.6-1.5,9.8-2.9c1.6-0.7,3.1-1.4,4.7-2.1c1.6-0.7,3.3-1.2,5-1.6c1.7-0.4,3.5-0.6,5.1-0.9
				c0.8-0.1,1.7-0.3,2.5-0.5c0.8-0.2,1.7-0.3,2.5-0.5l10-2.3l20.1-4.8c13.4-3.1,26.8-6.1,40.3-8.8c0.1,0,0.1,0,0.1,0.1
				c0,0.1,0,0.1-0.1,0.1c-13.2,3.9-26.5,7.4-39.9,10.7c-6.7,1.6-13.4,3.1-20.1,4.5c-3.4,0.7-6.7,1.4-10.1,2
				c-1.7,0.3-3.4,0.6-5.1,0.8c-1.8,0.2-3.4,0.3-5.1,0.6c-3.3,0.6-6.5,1.9-9.7,3.3c-1.6,0.7-3.2,1.3-4.9,1.7
				c-1.7,0.5-3.3,0.9-5.1,1.1c-1.8,0.1-3.5-0.1-5.2-0.5c-1.7-0.4-3.4-0.9-5-1.5c-3.3-1.2-6.4-2.7-9.5-4.3c-3.1-1.6-6-3.4-8.9-5.4
				c-1.4-1-2.9-1.9-4.3-2.9c-0.4-0.2-0.7-0.5-1-0.6c-0.3-0.1-0.7-0.3-1.1-0.4c-0.8-0.2-1.6-0.3-2.4-0.4c-3.3-0.3-6.8-0.3-10.2-0.2
				c-3.4,0.1-6.9,0.3-10.3,0.5c-0.1,0-0.1,0-0.1-0.1C227.7,139.2,227.8,139.2,227.8,139.2z"/>
			<path d="M291.5,194.9c4-0.7,7.9-1.4,11.7-2.5c1.9-0.6,3.8-1.2,5.3-2.2l0.6-0.4l0.7-0.4c0.5-0.3,1-0.5,1.4-0.7
				c1-0.5,1.9-0.7,2.9-1.1c3.9-1.2,7.9-1.9,11.8-2.8l5.9-1.3l5.9-1.4c3.9-1,7.9-1.8,11.8-2.5c4-0.7,7.9-1.4,11.9-1.9
				c8-1,16-1.6,24.1-1.7c0.1,0,0.1,0,0.1,0.1c0,0.1,0,0.1-0.1,0.1c-8,1.3-15.9,2.4-23.8,3.6l-6,0.8c-2,0.3-4,0.5-6,0.8l-11.9,1.7
				c-4,0.6-7.9,1.3-11.8,2.3c-1.9,0.5-3.9,1.1-5.8,1.7c-1.9,0.6-3.8,1.3-5.6,2c-0.9,0.4-1.9,0.7-2.7,1.1c-0.4,0.2-0.9,0.4-1.2,0.6
				l-0.6,0.3l-0.7,0.4c-1.9,1.1-3.9,1.7-5.9,2.2c-4,0.9-8,1.2-12.1,1.2C291.5,195.1,291.5,195.1,291.5,194.9
				C291.5,195,291.5,194.9,291.5,194.9z"/>
			<path d="M203.4,187.3c-0.2,0.6-0.6,1-1,1.4c-0.4,0.4-0.8,0.7-1.3,0.9c-0.5,0.2-1.1,0.2-1.6,0.4c-0.5,0.2-0.9,0.6-1.2,1
				c-0.3,0.4-0.7,0.8-1.1,1.1c-0.4,0.3-0.8,0.7-1.3,0.9c-0.9,0.5-2,0.8-3.2,0.7c-0.1,0-0.1-0.1-0.1-0.1c0,0,0,0,0-0.1
				c0.6-1.1,1.4-1.8,2.2-2.4c0.4-0.3,0.9-0.5,1.4-0.7c0.5-0.2,1-0.4,1.5-0.5c0.5-0.1,1-0.3,1.4-0.6c0.4-0.3,0.7-0.9,1-1.3
				c0.4-0.4,0.9-0.6,1.3-0.8c0.5-0.2,1-0.3,1.7-0.3C203.4,187.1,203.4,187.2,203.4,187.3C203.4,187.3,203.4,187.3,203.4,187.3z"/>
			<path d="M183.1,207.7c0.1,1,0,2,0,2.9c-0.1,0.9-0.2,1.8-0.4,2.7c-0.1,0.4-0.2,0.9-0.3,1.3c-0.1,0.2-0.1,0.4-0.1,0.7
				c0,0.2,0,0.4,0.1,0.6c0.3,0.8,1.2,1.3,2.1,1.5c1.7,0.4,3.4,0.2,4.8-0.5c0.8-0.3,1.4-0.8,2.2-1.2c0.3-0.3,0.7-0.6,1-0.9
				c0.3-0.3,0.7-0.7,1.1-1l0,0c0,0,0.1,0,0.1,0c0,0,0,0.1,0,0.1c-0.3,2-1.6,3.9-3.6,4.9c-1,0.5-2.1,0.7-3.2,0.6
				c-0.5,0-1.1-0.1-1.6-0.3c-0.5-0.2-1-0.4-1.4-0.7c-0.9-0.6-1.6-1.3-2.2-2.2c-0.1-0.2-0.2-0.5-0.3-0.8c-0.1-0.2-0.2-0.5-0.2-0.7
				c-0.1-0.5-0.2-1-0.2-1.5c0-1,0.2-2,0.5-2.9c0.3-0.9,0.7-1.8,1.4-2.6C182.9,207.6,183,207.6,183.1,207.7
				C183,207.6,183.1,207.7,183.1,207.7z"/>
			<path d="M172.4,199.4c-0.8,1.9-1.1,4.2-0.2,6.1c0.2,0.5,0.5,0.9,0.8,1.2c0.2,0.2,0.4,0.3,0.6,0.5c0.2,0.1,0.5,0.4,0.6,0.6
				c0.7,0.9,1.2,1.9,1.7,2.8c2,3.8,3.8,7.8,5.6,11.6c3.6,7.8,7.3,15.5,11.7,22.8c1.1,1.8,2.3,3.6,3.6,5.3c1.3,1.7,2.7,3.3,4.3,4.6
				c0.8,0.7,1.6,1.3,2.5,1.8c0.9,0.5,1.9,0.8,2.9,1.3c2,0.9,3.8,2.1,5.5,3.4c3.4,2.7,6.2,6.2,7.8,10.2c0.8,2,1.2,4.2,1.3,6.4
				c0.1,2.2,0.2,4.3,0.3,6.4c0.3,8.6,0.4,17.2,0.4,25.8c0,8.6,0,17.2-0.3,25.8c-0.2,4.3-0.3,8.6-0.7,12.9l-0.3,3.2l-0.4,3.2
				c-0.3,2.1-0.5,4.2-0.7,6.4c-0.8,8.5-1.1,17.1-1,25.7c0,0.1,0,0.1-0.1,0.1c-0.1,0-0.1,0-0.1-0.1c-0.7-8.6-0.8-17.2-0.3-25.8
				c0.1-2.1,0.3-4.3,0.5-6.4l0.3-3.2l0.2-3.2c0.2-4.3,0.4-8.6,0.5-12.8c0.5-17.1,0.8-34.3,0.9-51.5c0-2.1,0-4.3,0-6.4
				c0-0.5,0-1.1-0.1-1.6c0-0.5-0.1-1-0.2-1.6c-0.1-0.5-0.2-1-0.3-1.5l-0.5-1.5c-1.5-4-4.2-7.4-7.6-10c-1.7-1.3-3.5-2.4-5.5-3.2
				c-0.5-0.2-1-0.3-1.5-0.5c-0.5-0.2-1.1-0.3-1.5-0.6c-1-0.5-1.9-1.1-2.8-1.8c-1.7-1.4-3.3-2.9-4.7-4.6c-1.4-1.7-2.7-3.4-3.9-5.2
				c-4.7-7.3-8.3-15.2-11.7-23c-1.7-3.9-3.3-8-5.1-11.8c-0.5-1-0.9-1.9-1.5-2.7c-0.2-0.2-0.3-0.3-0.5-0.5c-0.2-0.2-0.4-0.4-0.6-0.6
				c-0.4-0.5-0.7-1-0.9-1.5c-0.8-2.2-0.3-4.5,0.7-6.4c0,0,0.1-0.1,0.1,0C172.4,199.3,172.4,199.3,172.4,199.4L172.4,199.4z"/>
			<path d="M261.4,232.5c0.2,2.9,0.5,5.9,1,8.8c0.2,1.4,0.5,2.9,0.8,4.3c0.1,0.4,0.2,0.7,0.3,1c0.1,0.3,0.2,0.7,0.3,1l0.2,0.5
				l0.2,0.4c0.1,0.2,0.4,0.7,0.6,1.1c0.6,1.6,0.6,3.2,0.6,4.7c0,1.5-0.1,3-0.2,4.4c-0.1,2.9-0.2,5.8,0,8.7c0.1,2.9,0.7,5.7,1.4,8.6
				c0.7,2.9,1.4,5.7,2.2,8.6c1.5,5.7,3.3,11.3,5,17c1.8,5.6,3.4,11.3,5,17l2.3,8.6c0.7,2.9,1.4,5.7,2.1,8.6c0.6,2.9,1.3,5.8,1.8,8.7
				l0.8,4.4l0.7,4.4l0.3,2.2l0.2,2.2c0.1,1.5,0.3,2.9,0.4,4.4l0.2,4.4c-0.1,1.5-0.2,3-0.3,4.4c0,0.1-0.1,0.1-0.1,0.1
				c-0.1,0-0.1,0-0.1-0.1l0,0l-0.2-4.4l-0.5-4.4c-0.2-1.5-0.5-2.9-0.7-4.3l-0.4-2.2l-0.4-2.2l-0.9-4.3l-0.9-4.3
				c-0.6-2.9-1.3-5.7-2-8.6c-1.3-5.7-2.7-11.5-4.1-17.2l-4.2-17.2c-1.4-5.7-2.9-11.4-4.6-17.1c-0.8-2.8-1.8-5.6-2.6-8.4
				c-0.9-2.8-1.7-5.8-2-8.7c-0.3-3-0.3-6-0.1-9c0.1-1.5,0.2-2.9,0.3-4.4c0.1-1.4,0.1-2.9-0.3-4.1c-0.1-0.3-0.2-0.5-0.4-0.9
				c-0.1-0.2-0.2-0.4-0.3-0.6l-0.2-0.6c-0.1-0.4-0.2-0.7-0.3-1.1c-0.1-0.4-0.2-0.7-0.2-1.1c-0.3-1.5-0.5-3-0.6-4.5
				c-0.2-3-0.2-5.9-0.1-8.9C261.2,232.4,261.3,232.4,261.4,232.5C261.4,232.4,261.4,232.4,261.4,232.5z"/>
			<path d="M186.1,234.2c-1,0.6-2.1,1-3.4,0.8c-0.3-0.1-0.7-0.1-1-0.3c-0.3-0.2-0.5-0.3-0.7-0.5c-0.5-0.3-0.9-0.6-1.4-0.9
				c-1.8-1.3-3.7-2.6-5.4-4c-0.8-0.7-1.7-1.5-2.5-2.3c-0.8-0.9-1.4-1.9-2-2.8l-3.6-5.7c-1.2-1.9-2.3-3.9-3.3-5.9l-1.5-3
				c-0.2-0.5-0.5-1-0.7-1.5c-0.2-0.5-0.4-1-0.6-1.7c-0.3-1.3-0.3-2.6,0-3.8c0.3-1.2,0.8-2.3,1.3-3.3c1-2,2.2-3.9,3.4-5.8
				c0,0,0.1-0.1,0.1,0c0,0,0.1,0.1,0,0.1c-0.6,2.2-1.4,4.3-2.1,6.4c-0.7,2.1-1.2,4.1-0.7,5.9c0.1,0.4,0.3,0.9,0.6,1.4l0.6,1.5
				l1.2,3.1c0.9,2,1.7,4.1,2.5,6.1c0.9,2,1.8,4,3.1,5.8c0.7,0.9,1.4,1.7,2.2,2.3c0.9,0.6,1.9,1.2,2.8,1.8c1.8,1.2,3.6,2.6,5.3,4.1
				c0.4,0.4,0.8,0.7,1.3,1.1c0.2,0.2,0.4,0.4,0.6,0.5c0.2,0.1,0.4,0.2,0.6,0.3c0.9,0.3,2,0.2,3.1,0l0,0c0.1,0,0.1,0,0.1,0.1
				C186.1,234.1,186.1,234.1,186.1,234.2z"/>
			<path d="M170.1,181.6c-0.8-4.9-1.4-9.9-1.7-14.9c-0.1-1.2-0.1-2.5-0.2-3.8l0-3.7c-0.1-2.4-0.2-4.9-0.4-7.4
				c-0.3-5-0.5-9.9-1.1-14.9c-0.6-4.9-1.4-9.8-2.4-14.7l-3.1-14.6c-0.5-2.4-1.1-4.8-1.6-7.3l-1.7-7.3c-2.2-9.7-4.5-19.3-6.9-29
				c0-0.1,0-0.1,0.1-0.1c0,0,0.1,0,0.1,0.1c3.5,9.3,6.4,18.9,8.8,28.6c1.2,4.8,2.1,9.7,3.1,14.6c0.9,4.9,1.7,9.8,2.3,14.8l1,7.4
				l1,7.4l1.1,7.4c0.4,2.5,0.7,4.9,1,7.4c0.3,2.5,0.4,5,0.5,7.5l-0.1,3.7c0,1.2,0,2.5,0,3.7l0.3,14.9c0,0.1,0,0.1-0.1,0.1
				C170.2,181.6,170.1,181.6,170.1,181.6z"/>
			<path d="M193.7,43.8c0.7,4.2,1.3,8.5,1.8,12.7c0.5,4.2,0.9,8.5,1.2,12.8c0.2,4.3,0.3,8.5,0.6,12.8c0.3,4.3,0.8,8.5,1.3,12.7
				c0.6,4.2,1.1,8.5,1.5,12.7c0.4,4.2,0.9,8.5,1.2,12.8c0.3,4.3,0.6,8.5,0.7,12.8c0.1,4.3,0.3,8.5,0.1,12.8c0,0.1,0,0.1-0.1,0.1
				c0,0-0.1,0-0.1-0.1l0,0c-0.4-4.2-1-8.5-1.5-12.7c-0.5-4.2-0.9-8.5-1.3-12.7c-0.4-4.3-0.6-8.5-0.9-12.8c-0.3-4.3-0.5-8.5-0.7-12.8
				c-0.2-4.3-0.4-8.5-0.9-12.8c-0.4-4.2-1.1-8.5-1.6-12.7c-0.5-4.2-0.8-8.5-1.1-12.8c-0.3-4.3-0.4-8.5-0.5-12.8
				C193.5,43.8,193.6,43.7,193.7,43.8C193.7,43.7,193.7,43.7,193.7,43.8z"/>
			<path d="M264.5,268.8c3.5-0.1,6.9-0.1,10.4,0.1c3.5,0.1,6.9,0.3,10.4,0.6l5.2,0.5c1.7,0.2,3.4,0.3,5.2,0.4c0.4,0,0.9,0,1.3-0.1
				c0.4,0,0.8-0.1,1.2-0.3c0.8-0.3,1.5-0.7,2.1-1.3c0.3-0.3,0.5-0.6,0.8-0.9c0.2-0.4,0.4-0.7,0.5-1.1c0.2-0.4,0.2-0.8,0.3-1.2
				c0-0.4,0.1-0.8,0-1.2c-0.2-1.6-1.4-2.7-2.7-3.5c-1.4-0.7-3-1.3-4.7-1.8c-3.3-1-6.6-1.9-9.9-2.8c-6.6-1.9-13.3-3.8-19.9-6
				c-0.1,0-0.1-0.1-0.1-0.1c0,0,0.1-0.1,0.1-0.1c6.9,1,13.7,2.4,20.4,4.1c3.4,0.9,6.7,1.9,10,3.1c1.6,0.6,3.3,1.2,4.9,2.2
				c1.6,1,2.9,2.8,2.9,4.7c0.1,0.5,0,1-0.1,1.4c-0.1,0.5-0.2,0.9-0.5,1.3c-0.4,0.8-1,1.6-1.6,2.2c-0.7,0.6-1.5,1.1-2.3,1.4
				c-0.9,0.3-1.8,0.4-2.7,0.4c-3.5,0.1-7,0.1-10.4,0.1c-3.5-0.1-6.9-0.4-10.4-0.7c-3.4-0.3-6.9-0.8-10.3-1.4
				C264.4,269,264.4,269,264.5,268.8C264.4,268.9,264.4,268.8,264.5,268.8z"/>
			<path d="M275.2,238.9c2.7,0.7,5.3,1.6,8,2.5c2.6,0.9,5.2,1.9,7.7,3.1c2.5,1.2,5,2.5,7.5,3.6c2.5,1.1,5.2,2,7.8,2.9
				c2.6,0.9,5.3,1.8,7.9,2.8c0.3,0.1,0.6,0.2,1,0.4c0.5,0.2,0.8,0.6,1.1,0.9c0.6,0.7,0.9,1.5,1,2.3c0.3,1.6,0.2,3.1-0.3,4.6
				c-0.5,1.5-1.3,2.9-2.6,3.9c-1.3,1-3.2,1.3-4.7,0.9c-0.8-0.2-1.5-0.5-2.1-0.8c-0.6-0.3-1.2-0.6-1.8-0.9l-3.8-1.6
				c-0.1,0-0.1-0.1-0.1-0.1c0,0,0.1-0.1,0.1-0.1c1.4,0.2,2.7,0.5,4.1,0.9c0.7,0.2,1.4,0.4,2,0.6c0.7,0.2,1.2,0.4,1.9,0.5
				c1.2,0.2,2.3-0.1,3.2-0.9c0.8-0.7,1.5-1.8,1.8-3c0.3-1.2,0.4-2.4,0.3-3.6c-0.1-0.6-0.3-1.1-0.5-1.5c-0.1-0.2-0.3-0.3-0.4-0.4
				c-0.2-0.1-0.6-0.3-0.9-0.4c-2.5-1.1-5.1-2.3-7.5-3.5c-2.5-1.2-5-2.4-7.6-3.3c-2.6-1-5.3-1.7-7.9-2.7c-2.6-0.9-5.2-2-7.7-3.2
				c-2.5-1.2-5-2.4-7.4-3.7c0,0-0.1-0.1,0-0.1C275.1,238.9,275.2,238.8,275.2,238.9z"/>
			<path d="M309.5,245.6c0.5,0.1,0.7,0.4,1,0.7c0.2,0.3,0.4,0.6,0.3,1c0,0.4-0.3,0.7-0.3,1.1c0,0.3,0.1,0.6,0.3,1
				c0.2,0.3,0.3,0.7,0.3,1.1c0,0.2,0,0.4,0,0.6c0,0.2-0.1,0.4-0.2,0.6c-0.4,0.7-1.2,1.3-2.1,1.1c-0.1,0-0.1-0.1-0.1-0.2l0,0
				c0.1-0.9,0.1-1.3,0.2-1.8c0-0.1,0.1-0.2,0.1-0.3c0-0.1,0.1-0.2,0.2-0.3c0.1-0.1,0.1-0.2,0.2-0.4c0.1-0.1,0.2-0.3,0.3-0.4
				c0.2-0.3,0.3-0.6,0.2-0.9c-0.1-0.3-0.5-0.5-0.7-0.8c-0.2-0.3-0.2-0.5-0.2-0.9c0-0.3,0.1-0.6,0.3-1.1l0,0
				C309.4,245.6,309.5,245.5,309.5,245.6z"/>
			<path d="M182,212.3c0.4-0.2,0.8-0.3,1.1-0.3c0.3,0,0.6,0,0.9,0.2c0.3,0.2,0.5,0.6,0.8,0.7c0.3,0.1,0.6,0,0.9-0.2
				c0.3-0.2,0.5-0.4,0.7-0.5c0.1-0.1,0.2-0.1,0.3-0.2c0.1-0.1,0.2-0.1,0.2-0.2c0.3-0.1,0.8-0.3,1.6-0.7l0,0c0.1,0,0.2,0,0.2,0.1
				c0.4,0.8,0.1,1.8-0.6,2.4c-0.2,0.1-0.4,0.2-0.6,0.3c-0.2,0-0.4,0.1-0.6,0.1c-0.4,0-0.8-0.1-1.2-0.3c-0.4-0.2-0.7-0.3-1-0.3
				c-0.3,0-0.7,0.3-1.1,0.3c-0.4,0-0.7-0.1-1-0.4c-0.3-0.2-0.5-0.5-0.7-1C181.9,212.4,181.9,212.3,182,212.3L182,212.3z"/>
			<path d="M314.2,257c-1.2-0.1-2.2-0.4-3.3-0.6c-1-0.3-2-0.4-2.8-0.5c-0.4,0-0.8,0-1.2,0.3c-0.4,0.2-0.7,0.7-0.9,1.1
				c-0.4,0.9,0.1,2,0.8,2.7c0.7,0.7,1.6,1.3,2.4,1.8c0.4,0.2,0.9,0.5,1.3,0.7c0.2,0.1,0.5,0.2,0.7,0.3l0.3,0.1c0,0,0.1,0,0.1,0
				c0.1,0,0.1,0,0.1,0c0.1,0,0.2-0.1,0.3-0.3c0.2-0.3,0.5-0.7,0.7-1.2c0.4-0.9,0.7-2,1.1-3l0,0c0-0.1,0.1-0.1,0.1-0.1
				c0,0,0.1,0,0.1,0.1c0.3,1.1,0.3,2.3,0.2,3.4c-0.1,0.6-0.2,1.2-0.6,1.8c-0.2,0.3-0.4,0.6-0.8,0.9c-0.2,0.1-0.4,0.3-0.7,0.3
				c-0.2,0-0.5,0.1-0.7,0.1c-0.2,0-0.5-0.1-0.7-0.1l-0.4-0.2c-0.3-0.1-0.6-0.2-0.8-0.4c-0.5-0.3-1-0.6-1.5-1
				c-0.9-0.7-1.8-1.6-2.3-2.7c-0.5-1.1-0.8-2.3-0.5-3.5l0.1-0.4l0.2-0.4c0.1-0.3,0.3-0.6,0.4-0.9c0.4-0.6,1-1,1.7-1.2
				c0.7-0.2,1.3-0.1,1.9,0c0.6,0.1,1.1,0.3,1.7,0.6c1,0.5,2,1.1,2.8,1.9C314.3,256.8,314.3,256.9,314.2,257
				C314.3,257,314.2,257,314.2,257z"/>
			<path d="M298.5,262c-1.4-0.2-2.7-0.4-3.7-0.2c-0.5,0.1-0.9,0.2-1.3,0.5c-0.5,0.3-0.9,0.9-0.9,1.4c0,0.6,0.4,1.1,0.9,1.4
				c0.5,0.3,1.1,0.5,1.7,0.8c1.1,0.5,2.4,0.8,3.6,1.3l-1.1,0.4c0.2-0.2,0.4-0.5,0.6-0.7l0.7-0.8c0.4-0.5,0.9-1.1,1.4-1.6
				c0,0,0.1,0,0.2,0c0,0,0,0.1,0,0.1c0,0.8-0.1,1.5-0.4,2.2c-0.1,0.4-0.3,0.7-0.4,1c-0.2,0.3-0.3,0.7-0.5,1
				c-0.2,0.3-0.6,0.5-0.9,0.4l-0.2,0c-1.4-0.3-2.7-0.9-3.9-1.7c-1.2-0.8-2.2-2.2-2.3-3.7c-0.1-0.8,0.2-1.5,0.5-2.3
				c0.3-0.8,1.2-1.4,2.1-1.5c0.9-0.1,1.7,0.1,2.3,0.4c0.7,0.3,1.3,0.8,1.7,1.4C298.7,261.9,298.7,261.9,298.5,262
				C298.6,262,298.6,262,298.5,262L298.5,262z"/>
			<path d="M306.3,244.1c0.2,0.5,0.3,0.9,0.3,1.2c0,0.4,0,0.7-0.2,1c-0.2,0.3-0.6,0.6-0.7,0.9c-0.1,0.3,0,0.7,0.2,1
				c0.2,0.3,0.5,0.4,0.6,0.6c0.2,0.1,0.3,0.2,0.5,0.3c0.3,0.3,0.9,0.6,1.6,1.1l0,0c0.1,0,0.1,0.1,0,0.2c0,0,0,0,0,0
				c-0.3,0.4-0.7,0.6-1.2,0.7c-0.4,0.1-1,0.1-1.4-0.1c-1-0.4-1.6-1.7-1.3-2.6c0.1-0.4,0.2-0.8,0.2-1.2c0-0.4-0.3-0.8-0.3-1.2
				c0-0.4,0.1-0.8,0.3-1.1c0.2-0.3,0.5-0.6,1-0.8C306.2,244,306.3,244,306.3,244.1L306.3,244.1z"/>
			<g>
				<path d="M202.2,228.9c0.9,0.7,1.8,1.5,2.7,2.1c0.4,0.3,0.9,0.6,1.3,0.7c0.4,0.1,0.6,0.1,1,0c0.8-0.3,1.8-1.1,2.5-2
					c0.7-0.9,1.1-2,1.4-3.1l0.1,0.5c-0.8-0.8-1.7-1.4-2.6-2c-0.9-0.5-1.9-0.8-2.6-0.7c-0.7,0-1.4,0.6-2,1.5
					C203.1,226.8,202.7,227.9,202.2,228.9z M202,228.9c-0.2-1.3-0.1-2.5,0.3-3.7c0.2-0.6,0.5-1.2,1-1.8c0.5-0.6,1.3-1,2.1-1.1
					c1.6-0.2,2.9,0.5,4,1.2c1.1,0.8,1.8,1.8,2.4,2.9l0.1,0.1c0.1,0.1,0.1,0.3,0,0.4c-0.6,1.1-1.2,2-1.8,3.1
					c-0.3,0.5-0.6,1.1-0.9,1.6c-0.3,0.5-0.7,1.1-1.3,1.5c-0.3,0.2-0.8,0.4-1.2,0.4c-0.4,0-0.9-0.1-1.2-0.2c-0.7-0.3-1.2-0.7-1.7-1.2
					C202.9,231.2,202.3,230.2,202,228.9z"/>
			</g>
			<path d="M219,228.4c-0.1,0.8-0.4,1.5-0.6,2.1c-0.2,0.6-0.4,1.3-0.7,1.8c-0.3,0.5-0.7,1.1-0.5,1.7c0.1,0.1,0.1,0.2,0.3,0.3
				c0.1,0.1,0.3,0.2,0.4,0.3c0.3,0.2,0.6,0.3,0.9,0.4c0.3,0.1,0.6,0.1,0.8,0c0.2,0,0.5-0.1,0.7-0.2c0.5-0.2,0.9-0.6,1.4-1
				c1-0.8,2.1-1.7,3.4-2.5c0.1,0,0.1,0,0.1,0c0,0,0,0.1,0,0.1c-0.3,1.5-1,2.9-2.2,4c-0.6,0.5-1.3,1-2.3,1.2c-0.5,0.1-1,0.1-1.4,0
				c-0.5-0.1-0.9-0.4-1.2-0.7c-0.3-0.3-0.6-0.6-0.8-0.8c-0.1-0.1-0.3-0.3-0.4-0.4c-0.1-0.1-0.3-0.3-0.4-0.5
				c-0.5-0.7-0.7-1.7-0.6-2.5c0.1-0.8,0.5-1.5,1-2.1c0.5-0.6,1-1.1,1.8-1.5C218.9,228.2,219,228.3,219,228.4
				C219,228.3,219,228.4,219,228.4z"/>
			<path d="M200.2,43.8c-0.3,3.8,0,7.5,0.4,11.2c0.4,3.7,1.1,7.4,1.9,11.1c0.7,3.7,1.6,7.4,2.5,11l2.9,11c1,3.7,1.8,7.4,2.5,11.1
				c0.7,3.7,1.4,7.5,1.9,11.2c0.5,3.8,0.9,7.5,1.2,11.3c0.2,3.8,0.5,7.6,0.3,11.4c0,0.1-0.1,0.1-0.1,0.1c0,0-0.1,0-0.1-0.1l0,0
				c-0.4-3.8-1.1-7.5-1.6-11.2l-1.7-11.2l-1.6-11.2l-1.7-11.2c-0.6-3.7-1.4-7.4-2.4-11.1c-0.6-1.8-1.2-3.6-1.8-5.4
				c-0.3-0.9-0.6-1.8-0.9-2.7c-0.3-0.9-0.6-1.8-0.8-2.7c-1-3.7-1.6-7.5-1.8-11.3c-0.2-3.8-0.1-7.7,0.9-11.4c0-0.1,0.1-0.1,0.1-0.1
				C200.2,43.7,200.2,43.8,200.2,43.8L200.2,43.8z"/>
			<path d="M249.2,37.2c0.6,4.4,0.9,8.8,1.1,13.2c0.1,4.4,0.2,8.8-0.1,13.2c-0.3,4.4-0.9,8.8-0.8,13.2c0.1,4.4,0.5,8.8,1.1,13.2
				l3.4,26.2l1.5,13.1l0.7,6.6l0.4,3.3l0.2,1.6c0.1,0.5,0.2,1.2,0.3,1.5l0,0.1c0,0,0,0.1-0.1,0.1c0,0-0.1,0-0.1,0
				c-0.2-0.3-0.3-0.5-0.4-0.8c-0.1-0.3-0.2-0.5-0.2-0.8l-0.4-1.6c-0.3-1.1-0.5-2.1-0.7-3.2c-0.5-2.2-0.9-4.3-1.3-6.5
				c-0.8-4.3-1.5-8.7-2.1-13.1c-0.6-4.4-1-8.8-1.5-13.2c-0.4-4.4-0.7-8.8-0.9-13.2l-0.6-13.2c-0.1-2.2-0.2-4.4-0.2-6.6l0-6.6
				c0-4.4,0.1-8.8,0.2-13.2c0.1-4.4,0.2-8.8,0.3-13.2C249,37.1,249.1,37.1,249.2,37.2C249.2,37.1,249.2,37.1,249.2,37.2z"/>
			<path d="M266.7,148.2c3.8-6.6,7.8-13,11.8-19.5c4-6.4,8.2-12.8,12.4-19.1L304,91l12.8-18.8c1.1-1.6,2.1-3.1,3.3-4.7
				c1.1-1.5,2.2-3.1,3.4-4.6l1.8-2.3l1.9-2.2c1.2-1.5,2.5-2.9,3.8-4.3c5.1-5.7,10.2-11.2,15.5-16.7c10.5-11,21.3-21.6,32.2-32.2l0,0
				c0,0,0.1,0,0.1,0c0,0,0,0.1,0,0.1c-5,5.8-10.1,11.3-15.3,16.9l-15.5,16.6c-5.2,5.5-10.5,11-15.6,16.5l-3.8,4.2l-1.9,2.1l-1.8,2.2
				c-2.4,2.9-4.7,5.9-7,8.9c-4.6,6-9,12.2-13.2,18.5l-3.1,4.8l-3,4.8l-6.1,9.6c-8.2,12.7-16.7,25.3-25.5,37.7c0,0-0.1,0.1-0.1,0
				C266.7,148.3,266.7,148.2,266.7,148.2z"/>
			<path d="M397.2,64.1c-3.5,3.7-7.1,7.3-10.8,10.8c-3.7,3.5-7.3,7-11.1,10.4c-3.8,3.3-7.7,6.6-11.5,10c-3.8,3.4-7.4,6.9-11,10.5
				c-3.6,3.6-7.2,7.2-10.8,10.7c-3.7,3.5-7.3,7.1-11,10.5l-11.2,10.3l-5.6,5.1c-1.8,1.7-3.8,3.4-5.4,5.3l0,0c0,0-0.1,0-0.1,0
				c0,0,0-0.1,0-0.1c0.7-1.1,1.5-2.1,2.3-3c0.8-1,1.7-1.9,2.5-2.9c1.7-1.9,3.5-3.7,5.2-5.6c3.5-3.7,7.1-7.2,10.8-10.8
				c3.7-3.5,7.4-6.9,11.2-10.4c3.7-3.4,7.5-6.8,11.4-10.1c3.8-3.3,7.6-6.7,11.3-10.2c3.7-3.5,7.2-7.2,10.8-10.7
				c3.6-3.5,7.4-6.9,11.2-10.3c3.8-3.4,7.7-6.6,11.7-9.8c0,0,0.1,0,0.1,0C397.3,64.1,397.3,64.1,397.2,64.1z"/>
			<path d="M169.1,161.8c-3.9-3.9-7.7-8-11.5-12c-3.7-4.1-7.5-8.2-11.1-12.4l-5.3-6.4c-1.8-2.1-3.5-4.3-5.4-6.4
				c-3.6-4.2-7.4-8.2-11.3-12.2c-3.8-4-7.7-8-11.5-12l-11.4-12.1L90.5,76c-1.9-2-3.7-4.1-5.7-6.1l-2.9-3l-3-2.9l0,0c0,0,0-0.1,0-0.1
				c0,0,0.1,0,0.1,0c1.1,0.8,2.2,1.7,3.3,2.5c1.1,0.9,2.1,1.8,3.1,2.7c2.1,1.8,4.1,3.8,6.1,5.7c4,3.9,7.9,7.8,11.7,11.9
				c7.6,8.1,14.9,16.4,22.1,24.9c3.6,4.2,7.2,8.4,10.9,12.5c3.7,4.1,7.7,8,11.4,12.1c3.8,4.1,7.4,8.3,11,12.5
				c3.6,4.2,7.1,8.5,10.5,12.9c0,0,0,0.1,0,0.1C169.2,161.8,169.1,161.8,169.1,161.8z"/>
			<path d="M161.1,202c-2.9-1.6-6.1-2.6-9.3-3.3c-1.6-0.3-3.2-0.6-4.8-0.7c-1.6-0.2-3.2-0.2-5-0.4c-3.4-0.4-6.6-1.2-9.9-1.8
				c-3.3-0.6-6.6-1.1-9.9-1.6c-1.7-0.2-3.3-0.5-5-0.7c-1.7-0.3-3.3-0.6-4.9-0.9c-3.3-0.6-6.6-1.2-9.8-2c-6.5-1.5-13-3.3-19.3-5.5
				c-0.1,0-0.1-0.1-0.1-0.1c0,0,0.1-0.1,0.1-0.1c6.6,1,13.2,2.2,19.7,3.6c3.3,0.7,6.5,1.5,9.8,2.2c3.3,0.7,6.5,1.5,9.7,2.4
				c3.2,0.8,6.5,1.5,9.8,2l2.5,0.3l2.5,0.2c0.8,0.1,1.7,0.1,2.5,0.2c0.8,0,1.7,0.1,2.5,0.1l2.5,0.1l1.3,0.1l1.3,0.1
				c0.9,0.1,1.7,0.2,2.5,0.4c0.8,0.2,1.7,0.4,2.5,0.6c3.3,0.9,6.5,2.4,9,4.6c0,0,0,0.1,0,0.1C161.2,202,161.2,202,161.1,202
				L161.1,202z"/>
			<path d="M4.3,98.7c5.2,4.9,10.6,9.4,16.4,13.6c2.9,2.1,5.8,4,8.8,5.8c1.5,0.9,3.1,1.8,4.6,2.7c1.5,0.9,3,1.9,4.5,2.9
				c6,3.9,11.8,8,17.7,12c5.9,3.9,11.9,7.8,18,11.6c6,3.8,12,7.6,18,11.6c5.9,3.9,11.9,7.9,17.7,11.9c5.8,4.1,11.6,8.2,17.3,12.5
				c2.9,2.1,5.7,4.3,8.5,6.5c2.8,2.2,5.5,4.5,8.1,7c0,0,0,0.1,0,0.1c0,0-0.1,0-0.1,0l0,0c-2.7-2.3-5.6-4.3-8.5-6.4l-4.4-3.1l-4.4-3
				c-2.9-2-5.9-4-8.8-6l-8.8-6l-17.6-12.1c-5.9-4-11.7-8.1-17.5-12.2c-2.9-2-5.8-4.1-8.8-6.1c-3-2-5.9-4-8.9-5.9
				c-6-3.8-12.1-7.4-18.2-11.1l-4.6-2.8l-4.6-2.7c-3.1-1.9-6-3.9-8.9-6.1c-5.6-4.4-10.9-9.3-15.6-14.7c0,0,0-0.1,0-0.1
				C4.2,98.7,4.2,98.7,4.3,98.7z"/>
			<path d="M82.6,233.1c6,0.8,12,1.8,17.9,2.8c6,1,11.9,2.1,17.8,3.3l8.9,1.9c3,0.6,5.9,1.2,8.9,1.6c3,0.4,6,1.2,8.9,2.2
				c2.9,0.9,5.8,1.9,8.6,3.1c2.8,1.2,5.6,2.4,8.3,3.9c1.3,0.8,2.7,1.5,3.9,2.5c0.3,0.2,0.6,0.5,0.9,0.8c0.3,0.2,0.5,0.5,0.8,0.7
				c0.6,0.4,1.2,0.9,1.8,1.3c2.5,1.6,5.1,3.1,7.8,4.4c2.7,1.3,5.4,2.6,8.2,3.7c5.5,2.3,11.2,4.2,17,5.8c5.8,1.5,11.8,2.6,17.8,2.9
				c0.1,0,0.1,0,0.1,0.1c0,0.1,0,0.1-0.1,0.1c-6.1,0.3-12.2-0.3-18.2-1.5c-6-1.2-11.8-3.1-17.5-5.3c-5.6-2.3-11.1-5-16.2-8.5
				c-0.6-0.4-1.3-0.9-1.9-1.4c-0.3-0.2-0.6-0.5-0.9-0.8c-0.3-0.3-0.5-0.5-0.8-0.7c-1.1-0.9-2.3-1.7-3.6-2.5c-2.5-1.5-5.2-3-7.9-4.3
				c-2.7-1.3-5.5-2.5-8.3-3.5c-2.8-1-5.8-1.8-8.7-2.2c-6-0.7-12-1.6-18-2.5c-6-1-11.9-2.2-17.8-3.4c-5.9-1.3-11.8-2.6-17.7-4.1
				c-0.1,0-0.1-0.1-0.1-0.1C82.5,233.1,82.6,233.1,82.6,233.1z"/>
			<path d="M186.4,193.9c0,0.9-0.2,1.6-0.3,2.3c-0.2,0.7-0.4,1.5-0.7,2.2c-0.3,0.7-0.6,1.4-1.1,2.1c-0.4,0.7-1,1.3-1.7,1.8
				c-0.3,0.2-0.8,0.6-1.3,0.6c-0.5,0.1-1,0-1.4-0.1c-0.9-0.3-1.5-0.7-2.1-1.2c-1.2-1-2.2-2.1-3.1-3.4c-0.4-0.7-0.8-1.4-1.1-2.2
				c-0.2-0.8-0.3-1.8,0.1-2.7c0.8-1.7,2.5-2.8,4.2-3.1c1.7-0.3,3.4,0,4.8,0.6C184.2,191.6,185.5,192.5,186.4,193.9z M186.2,194
				c-2.5-1.3-5.5-1.9-8-1.6c-1.2,0.2-2.4,0.8-3,1.7c-0.5,0.9-0.5,2.4,0.1,3.7c0.6,1.3,1.6,2.5,2.8,3.2c0.6,0.3,1.3,0.6,1.9,0.6
				c0.3,0,0.6,0,0.8-0.1c0.2-0.1,0.4-0.2,0.6-0.5C183.4,199.3,184.7,196.5,186.2,194z"/>
		</g>
		<path class="st3" d="M74,62.2c0,0,87.9,97.5,89.3,99.3c1.3,1.9,4.5,17.6,4.5,17.6s-14.7,3.8-12.6,8c2.1,4.2,6,8.1,6,8.1l-2.2,1.6
			c0,0-12.7-5.1-14.8-3.3l-59.3-45.4c0,0-55.9-32.7-56.6-33.7c-0.7-1-17.5-19.7-17.5-19.7S47,46.7,74,62.2z"/>
		<path class="st1" d="M153.4,62.2c0,0,16.1,48.5,15.8,57.4s3.1,42,3.1,42v6.9l9.7-10.6c0,0-0.8-8.4,5.8-10.1
			c6.5-1.8,9.3-3.8,9.3-3.8v-28.7L191,41.8l-23.2,9.4L153.4,62.2z"/>
		<path class="st0" d="M203.4,43.8c0,0-2.8,12.3,0,18.4c2.8,6.1,12,54.8,12.1,61.7c0.1,7,1.8,9.2,1.8,9.2l13.4,2.6
			c0,0,18.6-3.5,20.3,0c1.7,3.5,2.2,0,2.2,0l-10.2-67.4l1.7-29.7l-27.3-2.8L203.4,43.8z"/>
	</g>
	<circle class="st1" cx="183.4" cy="348.8" r="11"/>
	<circle class="st4" cx="316.6" cy="311.8" r="6.5"/>
	<circle class="st1" cx="169.1" cy="288.8" r="9"/>
	<circle class="st4" cx="166.2" cy="38.1" r="4.1"/>
	<circle class="st4" cx="89.2" cy="264" r="4.1"/>
	<circle class="st1" cx="122.3" cy="64.1" r="8.6"/>
	<circle class="st1" cx="33.4" cy="168.5" r="8.6"/>
	<circle class="st3" cx="280.2" cy="55.5" r="5.6"/>
</g>
</svg>
