<?xml version="1.0" encoding="utf-8"?>
<!-- Generator: Adobe Illustrator 25.4.1, SVG Export Plug-In . SVG Version: 6.00 Build 0)  -->
<svg version="1.1" id="Capa_1" xmlns="http://www.w3.org/2000/svg" xmlns:xlink="http://www.w3.org/1999/xlink" x="0px" y="0px"
	 viewBox="0 0 360.5 471.9" style="enable-background:new 0 0 360.5 471.9;" xml:space="preserve">
<style type="text/css">
	.st0{fill:#FAE058;}
	.st1{fill:#0049E5;}
	.st2{fill:#77F169;}
	.st3{fill:#ECCEFF;}
</style>
<g>
	<g>
		<path class="st0" d="M301.4,417.7H71.5c-6.5,0-11.8-5.3-11.8-11.8v-312C59.7,87.3,65,82,71.5,82h229.9c6.5,0,11.8,5.3,11.8,11.8
			v312C313.2,412.4,307.9,417.7,301.4,417.7z"/>
	</g>
	<g>
		<circle class="st1" cx="67.5" cy="39.2" r="7.4"/>
	</g>
	<g>
		<circle class="st1" cx="12" cy="162.4" r="7.4"/>
	</g>
	<g>
		<circle class="st2" cx="273.6" cy="54.9" r="6.1"/>
	</g>
	<g>
		<circle class="st2" cx="115" cy="430.9" r="6.1"/>
	</g>
	<g>
		<circle class="st3" cx="349.7" cy="147.8" r="6.3"/>
	</g>
	<g>
		<circle class="st3" cx="204.1" cy="457.5" r="6.3"/>
	</g>
	<g>
		<circle class="st3" cx="155.5" cy="14.4" r="6.3"/>
	</g>
	<g>
		<circle class="st0" cx="322.6" cy="237.8" r="6.6"/>
	</g>
	<g>
		<path d="M291.4,407.8L219,408l-72.4,0.4l-72.4,0.2l-9,0l-2.3,0c-0.8,0-1.5,0-2.3,0c-1.6-0.1-3.2-0.5-4.7-1.3
			c-2.9-1.4-5.2-4-6.3-7.1c-0.6-1.5-0.8-3.2-0.8-4.7l0-4.5l0-36.2l0.3-72.4l0.2-72.4c0.1-24.1,0-48.3,0-72.4l-0.1-36.2l0-18.1
			c0.1-3.1,1.5-6.2,3.8-8.4c2.3-2.2,5.4-3.5,8.6-3.5l144.8-0.4l72.4-0.1l9,0l2.3,0c0.8,0,1.5,0,2.3,0c1.6,0.1,3.3,0.6,4.7,1.3
			c3,1.4,5.3,4,6.4,7.1c0.6,1.5,0.8,3.2,0.8,4.8l0,4.5l0,36.2c0,48.3-0.1,96.5-0.4,144.8l-0.4,72.4l-0.1,36.2l-0.1,18.1
			c-0.1,3.1-1.5,6-3.7,8.1C297.5,406.6,294.4,407.8,291.4,407.8z M291.4,407.6c3,0,6-1.2,8.1-3.3c2.2-2.1,3.5-5,3.6-8l0-18.1
			l-0.1-36.2l-0.4-72.4c-0.3-48.3-0.4-96.5-0.4-144.8l0-36.2l0-4.5c0-1.4-0.2-2.8-0.7-4.1c-0.9-2.6-2.9-4.8-5.4-6
			c-1.2-0.6-2.6-1-3.9-1.1c-0.7-0.1-1.4,0-2.2,0l-2.3,0l-9,0L206.3,73L61.5,72.6c-2.9,0-5.7,1.1-7.8,3.1c-2.1,2-3.4,4.8-3.5,7.7
			l-0.1,18.1l-0.1,36.2c-0.1,24.1-0.1,48.3,0,72.4l0.2,72.4l0.3,72.4l0,36.2l0,4.5c0,1.5,0.2,2.8,0.7,4.1c1,2.6,3,4.8,5.5,6.1
			c1.3,0.6,2.6,1,4,1.1c0.7,0.1,1.4,0,2.2,0l2.3,0l9,0l72.4,0.2l72.4,0.4L291.4,407.6z"/>
	</g>
	<g>
		<g>
			<path d="M201.7,54.9h-14.3v-9.6c0-6-4.7-11.2-10.7-11.3c-6.1-0.1-11.2,4.8-11.2,10.9v10h-14.3c-9.4,0-17,7.6-17,17v13.5
				c0,3.1,2.5,5.6,5.6,5.6h73.3c3.1,0,5.6-2.5,5.6-5.6V72C218.8,62.5,211.1,54.9,201.7,54.9z M176.5,49.7c-2.9,0-5.2-2.3-5.2-5.2
				s2.3-5.2,5.2-5.2s5.2,2.3,5.2,5.2S179.4,49.7,176.5,49.7z"/>
		</g>
	</g>
	<g>
		<g>
			<path d="M96,150.4c-4.2,0-8.4,0.3-12.6,0.5l-1.6,0.1c-0.3,0-0.6,0-0.9,0c-0.3,0-0.6-0.1-0.9-0.1c-1.2-0.2-2.3-0.7-3.2-1.4
				c-1.9-1.4-3-3.8-3-6.2c0.1-4.2,0.4-8.4,0.5-12.6c0-1-0.1-2.1,0.2-3.2c0.2-1.1,0.7-2.1,1.4-3c1.3-1.8,3.5-2.9,5.7-3
				c4.2-0.2,8.4-0.3,12.6-0.4l1.6,0c0.6,0,1.2,0,1.8,0.1c1.2,0.2,2.3,0.7,3.3,1.5c1.9,1.4,3.1,3.9,3.1,6.3c0,4.2-0.1,8.4-0.4,12.6
				l-0.1,1.6c0,0.5-0.1,1.1-0.3,1.7c-0.3,1.1-0.8,2.1-1.6,2.9C100.3,149.5,98.1,150.4,96,150.4z M96,150.2c2.1,0,4.1-1.1,5.2-2.7
				c0.6-0.8,0.9-1.8,1.1-2.7c0.1-0.5,0.1-1,0-1.5l-0.1-1.6c-0.3-4.2-0.4-8.4-0.4-12.6c0-1.8-0.8-3.5-2.2-4.6c-0.7-0.6-1.5-1-2.4-1.2
				c-0.4-0.1-0.9-0.1-1.4-0.2l-1.6,0c-4.2-0.1-8.4-0.2-12.6-0.4c-1.9-0.1-3.9,0.8-5.2,2.3c-0.6,0.8-1.1,1.7-1.3,2.7
				c-0.2,1-0.1,2-0.1,3.1c0.1,4.2,0.4,8.4,0.5,12.6c0.1,1.9,0.9,3.6,2.4,4.8c0.7,0.6,1.5,1,2.4,1.2c0.5,0.1,0.9,0.2,1.4,0.2l1.6,0.1
				C87.6,149.9,91.8,150.2,96,150.2z"/>
		</g>
		<g>
			<g>
				<path d="M204.1,130h-87.4c-0.3,0-0.5-0.2-0.5-0.5s0.2-0.5,0.5-0.5h87.4c0.3,0,0.5,0.2,0.5,0.5S204.4,130,204.1,130z"/>
			</g>
			<g>
				<path d="M160.4,143.5h-43.7c-0.3,0-0.5-0.2-0.5-0.5s0.2-0.5,0.5-0.5h43.7c0.3,0,0.5,0.2,0.5,0.5S160.7,143.5,160.4,143.5z"/>
			</g>
			<g>
				<path d="M213.6,143.5h-43.7c-0.3,0-0.5-0.2-0.5-0.5s0.2-0.5,0.5-0.5h43.7c0.3,0,0.5,0.2,0.5,0.5S213.8,143.5,213.6,143.5z"/>
			</g>
			<g>
				<path d="M259.7,143.5h-89.8c-0.3,0-0.5-0.2-0.5-0.5s0.2-0.5,0.5-0.5h89.8c0.3,0,0.5,0.2,0.5,0.5S260,143.5,259.7,143.5z"/>
			</g>
		</g>
		<g>
			<path d="M96,202.2c-4.2,0-8.4,0.3-12.6,0.5l-1.6,0.1c-0.3,0-0.6,0-0.9,0c-0.3,0-0.6-0.1-0.9-0.1c-1.2-0.2-2.3-0.7-3.2-1.4
				c-1.9-1.4-3-3.8-3-6.2c0.1-4.2,0.4-8.4,0.5-12.6c0-1-0.1-2.1,0.2-3.2c0.2-1.1,0.7-2.1,1.4-3c1.3-1.8,3.5-2.9,5.7-3
				c4.2-0.2,8.4-0.3,12.6-0.4l1.6,0c0.6,0,1.2,0,1.8,0.1c1.2,0.2,2.3,0.7,3.3,1.5c1.9,1.4,3.1,3.9,3.1,6.3c0,4.2-0.1,8.4-0.4,12.6
				l-0.1,1.6c0,0.5-0.1,1.1-0.3,1.7c-0.3,1.1-0.8,2.1-1.6,2.9C100.3,201.3,98.1,202.2,96,202.2z M96,202c2.1,0,4.1-1.1,5.2-2.7
				c0.6-0.8,0.9-1.8,1.1-2.7c0.1-0.5,0.1-1,0-1.5l-0.1-1.6c-0.3-4.2-0.4-8.4-0.4-12.6c0-1.8-0.8-3.5-2.2-4.6c-0.7-0.6-1.5-1-2.4-1.2
				c-0.4-0.1-0.9-0.1-1.4-0.2l-1.6,0c-4.2-0.1-8.4-0.2-12.6-0.4c-1.9-0.1-3.9,0.8-5.2,2.3c-0.6,0.8-1.1,1.7-1.3,2.7
				c-0.2,1-0.1,2-0.1,3.1c0.1,4.2,0.4,8.4,0.5,12.6c0.1,1.9,0.9,3.6,2.4,4.8c0.7,0.6,1.5,1,2.4,1.2c0.5,0.1,0.9,0.2,1.4,0.2l1.6,0.1
				C87.6,201.7,91.8,202.1,96,202z"/>
		</g>
		<g>
			<g>
				<path d="M204.1,181.8h-87.4c-0.3,0-0.5-0.2-0.5-0.5s0.2-0.5,0.5-0.5h87.4c0.3,0,0.5,0.2,0.5,0.5S204.4,181.8,204.1,181.8z"/>
			</g>
			<g>
				<path d="M278.1,195.3H116.7c-0.3,0-0.5-0.2-0.5-0.5s0.2-0.5,0.5-0.5h161.4c0.3,0,0.5,0.2,0.5,0.5S278.4,195.3,278.1,195.3z"/>
			</g>
		</g>
		<g>
			<path d="M96,254c-4.2,0-8.4,0.3-12.6,0.5l-1.6,0.1c-0.3,0-0.6,0-0.9,0c-0.3,0-0.6-0.1-0.9-0.1c-1.2-0.2-2.3-0.7-3.2-1.4
				c-1.9-1.4-3-3.8-3-6.2c0.1-4.2,0.4-8.4,0.5-12.6c0-1-0.1-2.1,0.2-3.2c0.2-1.1,0.7-2.1,1.4-3c1.3-1.8,3.5-2.9,5.7-3
				c4.2-0.2,8.4-0.3,12.6-0.4l1.6,0c0.6,0,1.2,0,1.8,0.1c1.2,0.2,2.3,0.7,3.3,1.5c1.9,1.4,3.1,3.9,3.1,6.3c0,4.2-0.1,8.4-0.4,12.6
				l-0.1,1.6c0,0.5-0.1,1.1-0.3,1.7c-0.3,1.1-0.8,2.1-1.6,2.9C100.3,253.1,98.1,254.1,96,254z M96,253.8c2.1,0,4.1-1.1,5.2-2.7
				c0.6-0.8,0.9-1.8,1.1-2.7c0.1-0.5,0.1-1,0-1.5l-0.1-1.6c-0.3-4.2-0.4-8.4-0.4-12.6c0-1.8-0.8-3.5-2.2-4.6c-0.7-0.6-1.5-1-2.4-1.2
				c-0.4-0.1-0.9-0.1-1.4-0.2l-1.6,0c-4.2-0.1-8.4-0.2-12.6-0.4c-1.9-0.1-3.9,0.8-5.2,2.3c-0.6,0.8-1.1,1.7-1.3,2.7
				c-0.2,1-0.1,2-0.1,3.1c0.1,4.2,0.4,8.4,0.5,12.6c0.1,1.9,0.9,3.6,2.4,4.8c0.7,0.6,1.5,1,2.4,1.2c0.5,0.1,0.9,0.2,1.4,0.2l1.6,0.1
				C87.6,253.5,91.8,253.9,96,253.8z"/>
		</g>
		<g>
			<g>
				<path d="M187.3,233.6h-70.6c-0.3,0-0.5-0.2-0.5-0.5s0.2-0.5,0.5-0.5h70.6c0.3,0,0.5,0.2,0.5,0.5S187.6,233.6,187.3,233.6z"/>
			</g>
			<g>
				<path d="M269.4,233.6h-70.6c-0.3,0-0.5-0.2-0.5-0.5s0.2-0.5,0.5-0.5h70.6c0.3,0,0.5,0.2,0.5,0.5S269.7,233.6,269.4,233.6z"/>
			</g>
			<g>
				<path d="M223,247.1H116.7c-0.3,0-0.5-0.2-0.5-0.5s0.2-0.5,0.5-0.5H223c0.3,0,0.5,0.2,0.5,0.5S223.3,247.1,223,247.1z"/>
			</g>
		</g>
		<g>
			<path d="M96,305.9c-4.2,0-8.4,0.3-12.6,0.5l-1.6,0.1c-0.3,0-0.6,0-0.9,0c-0.3,0-0.6-0.1-0.9-0.1c-1.2-0.2-2.3-0.7-3.2-1.4
				c-1.9-1.4-3-3.8-3-6.2c0.1-4.2,0.4-8.4,0.5-12.6c0-1-0.1-2.1,0.2-3.2c0.2-1.1,0.7-2.1,1.4-3c1.3-1.8,3.5-2.9,5.7-3
				c4.2-0.2,8.4-0.3,12.6-0.4l1.6,0c0.6,0,1.2,0,1.8,0.1c1.2,0.2,2.3,0.7,3.3,1.5c1.9,1.4,3.1,3.9,3.1,6.3c0,4.2-0.1,8.4-0.4,12.6
				l-0.1,1.6c0,0.5-0.1,1.1-0.3,1.7c-0.3,1.1-0.8,2.1-1.6,2.9C100.3,304.9,98.1,305.9,96,305.9z M96,305.7c2.1,0,4.1-1.1,5.2-2.7
				c0.6-0.8,0.9-1.8,1.1-2.7c0.1-0.5,0.1-1,0-1.5l-0.1-1.6c-0.3-4.2-0.4-8.4-0.4-12.6c0-1.8-0.8-3.5-2.2-4.6c-0.7-0.6-1.5-1-2.4-1.2
				c-0.4-0.1-0.9-0.1-1.4-0.2l-1.6,0c-4.2-0.1-8.4-0.2-12.6-0.4c-1.9-0.1-3.9,0.8-5.2,2.3c-0.6,0.8-1.1,1.7-1.3,2.7
				c-0.2,1-0.1,2-0.1,3.1c0.1,4.2,0.4,8.4,0.5,12.6c0.1,1.9,0.9,3.6,2.4,4.8c0.7,0.6,1.5,1,2.4,1.2c0.5,0.1,0.9,0.2,1.4,0.2l1.6,0.1
				C87.6,305.4,91.8,305.7,96,305.7z"/>
		</g>
		<g>
			<g>
				<path d="M152,285.5h-35.3c-0.3,0-0.5-0.2-0.5-0.5s0.2-0.5,0.5-0.5H152c0.3,0,0.5,0.2,0.5,0.5S152.3,285.5,152,285.5z"/>
			</g>
			<g>
				<path d="M245.4,298.9H116.7c-0.3,0-0.5-0.2-0.5-0.5s0.2-0.5,0.5-0.5h128.6c0.3,0,0.5,0.2,0.5,0.5S245.6,298.9,245.4,298.9z"/>
			</g>
		</g>
		<g>
			<path d="M96,357.7c-4.2,0-8.4,0.3-12.6,0.5l-1.6,0.1c-0.3,0-0.6,0-0.9,0c-0.3,0-0.6-0.1-0.9-0.1c-1.2-0.2-2.3-0.7-3.2-1.4
				c-1.9-1.4-3-3.8-3-6.2c0.1-4.2,0.4-8.4,0.5-12.6c0-1-0.1-2.1,0.2-3.2c0.2-1.1,0.7-2.1,1.4-3c1.3-1.8,3.5-2.9,5.7-3
				c4.2-0.2,8.4-0.3,12.6-0.4l1.6,0c0.6,0,1.2,0,1.8,0.1c1.2,0.2,2.3,0.7,3.3,1.5c1.9,1.4,3.1,3.9,3.1,6.3c0,4.2-0.1,8.4-0.4,12.6
				l-0.1,1.6c0,0.5-0.1,1.1-0.3,1.7c-0.3,1.1-0.8,2.1-1.6,2.9C100.3,356.7,98.1,357.7,96,357.7z M96,357.5c2.1,0,4.1-1.1,5.2-2.7
				c0.6-0.8,0.9-1.8,1.1-2.7c0.1-0.5,0.1-1,0-1.5l-0.1-1.6c-0.3-4.2-0.4-8.4-0.4-12.6c0-1.8-0.8-3.5-2.2-4.6c-0.7-0.6-1.5-1-2.4-1.2
				c-0.4-0.1-0.9-0.1-1.4-0.2l-1.6,0c-4.2-0.1-8.4-0.2-12.6-0.4c-1.9-0.1-3.9,0.8-5.2,2.3c-0.6,0.8-1.1,1.7-1.3,2.7
				c-0.2,1-0.1,2-0.1,3.1c0.1,4.2,0.4,8.4,0.5,12.6c0.1,1.9,0.9,3.6,2.4,4.8c0.7,0.6,1.5,1,2.4,1.2c0.5,0.1,0.9,0.2,1.4,0.2l1.6,0.1
				C87.6,357.2,91.8,357.5,96,357.5z"/>
		</g>
		<g>
			<g>
				<path d="M204.1,337.3h-87.4c-0.3,0-0.5-0.2-0.5-0.5s0.2-0.5,0.5-0.5h87.4c0.3,0,0.5,0.2,0.5,0.5S204.4,337.3,204.1,337.3z"/>
			</g>
			<g>
				<path d="M223,350.7H116.7c-0.3,0-0.5-0.2-0.5-0.5s0.2-0.5,0.5-0.5H223c0.3,0,0.5,0.2,0.5,0.5S223.3,350.7,223,350.7z"/>
			</g>
		</g>
	</g>
	<g>
		<path d="M81.2,136.2c1.6,1.1,3.1,2.3,4.5,3.6c0.7,0.6,1.4,1.3,2.1,2c0.7,0.7,1.4,1.3,2,2.1l-1.2,0c1.2-0.9,2.5-1.8,3.7-2.7
			c1.2-0.9,2.4-1.9,3.5-2.9c2.2-2.1,4.2-4.4,6.5-6.4c1.1-1,2.2-2.1,3.3-3.1c1.1-1,2.3-2,3.5-2.9c2.4-1.9,4.8-3.7,7.4-5.3
			c0,0,0.1,0,0.1,0c0,0,0,0.1,0,0.1c-2,2.4-4.1,4.5-6.3,6.6c-1.1,1-2.2,2.1-3.4,3.1c-1.1,1-2.3,1.9-3.5,2.9c-2.3,2-4.9,3.6-7.3,5.5
			c-1.2,1-2.3,2-3.3,3.1c-1.1,1.1-2.1,2.2-3.2,3.3c-0.3,0.3-0.8,0.3-1.1,0l-0.1-0.1c-0.7-0.6-1.4-1.3-2.1-2c-0.7-0.7-1.3-1.4-2-2.1
			c-1.3-1.4-2.5-2.9-3.6-4.5c0,0,0-0.1,0-0.1C81.2,136.1,81.2,136.1,81.2,136.2z"/>
	</g>
	<g>
		<path d="M81.2,186.9c1.6,1.1,3.1,2.3,4.5,3.6c0.7,0.6,1.4,1.3,2.1,2c0.7,0.7,1.4,1.3,2,2.1l-1.2,0c1.2-0.9,2.5-1.8,3.7-2.7
			c1.2-0.9,2.4-1.9,3.5-2.9c2.2-2.1,4.2-4.4,6.5-6.4c1.1-1,2.2-2.1,3.3-3.1c1.1-1,2.3-2,3.5-2.9c2.4-1.9,4.8-3.7,7.4-5.3
			c0,0,0.1,0,0.1,0c0,0,0,0.1,0,0.1c-2,2.4-4.1,4.5-6.3,6.6c-1.1,1-2.2,2.1-3.4,3.1c-1.1,1-2.3,1.9-3.5,2.9c-2.3,2-4.9,3.6-7.3,5.5
			c-1.2,1-2.3,2-3.3,3.1c-1.1,1.1-2.1,2.2-3.2,3.3c-0.3,0.3-0.8,0.3-1.1,0l-0.1-0.1c-0.7-0.6-1.4-1.3-2.1-2c-0.7-0.7-1.3-1.4-2-2.1
			c-1.3-1.4-2.5-2.9-3.6-4.5c0,0,0-0.1,0-0.1C81.2,186.9,81.2,186.9,81.2,186.9z"/>
	</g>
	<g>
		<path d="M81.2,237.6c1.6,1.1,3.1,2.3,4.5,3.6c0.7,0.6,1.4,1.3,2.1,2c0.7,0.7,1.4,1.3,2,2.1l-1.2,0c1.2-0.9,2.5-1.8,3.7-2.7
			c1.2-0.9,2.4-1.9,3.5-2.9c2.2-2.1,4.2-4.4,6.5-6.4c1.1-1,2.2-2.1,3.3-3.1c1.1-1,2.3-2,3.5-2.9c2.4-1.9,4.8-3.7,7.4-5.3
			c0,0,0.1,0,0.1,0c0,0,0,0.1,0,0.1c-2,2.4-4.1,4.5-6.3,6.6c-1.1,1-2.2,2.1-3.4,3.1c-1.1,1-2.3,1.9-3.5,2.9c-2.3,2-4.9,3.6-7.3,5.5
			c-1.2,1-2.3,2-3.3,3.1c-1.1,1.1-2.1,2.2-3.2,3.3c-0.3,0.3-0.8,0.3-1.1,0l-0.1-0.1c-0.7-0.6-1.4-1.3-2.1-2c-0.7-0.7-1.3-1.4-2-2.1
			c-1.3-1.4-2.5-2.9-3.6-4.5c0,0,0-0.1,0-0.1C81.2,237.6,81.2,237.6,81.2,237.6z"/>
	</g>
	<g>
		<path d="M81.2,288.3c1.6,1.1,3.1,2.3,4.5,3.6c0.7,0.6,1.4,1.3,2.1,2c0.7,0.7,1.4,1.3,2,2.1l-1.2,0c1.2-0.9,2.5-1.8,3.7-2.7
			c1.2-0.9,2.4-1.9,3.5-2.9c2.2-2.1,4.2-4.4,6.5-6.4c1.1-1,2.2-2.1,3.3-3.1c1.1-1,2.3-2,3.5-2.9c2.4-1.9,4.8-3.7,7.4-5.3
			c0,0,0.1,0,0.1,0c0,0,0,0.1,0,0.1c-2,2.4-4.1,4.5-6.3,6.6c-1.1,1-2.2,2.1-3.4,3.1c-1.1,1-2.3,1.9-3.5,2.9c-2.3,2-4.9,3.6-7.3,5.5
			c-1.2,1-2.3,2-3.3,3.1c-1.1,1.1-2.1,2.2-3.2,3.3c-0.3,0.3-0.8,0.3-1.1,0l-0.1-0.1c-0.7-0.6-1.4-1.3-2.1-2c-0.7-0.7-1.3-1.4-2-2.1
			c-1.3-1.4-2.5-2.9-3.6-4.5c0,0,0-0.1,0-0.1C81.2,288.3,81.2,288.3,81.2,288.3z"/>
	</g>
</g>
</svg>
