<?xml version="1.0" encoding="utf-8"?>
<!-- Generator: Adobe Illustrator 25.4.1, SVG Export Plug-In . SVG Version: 6.00 Build 0)  -->
<svg version="1.1" id="Capa_1" xmlns="http://www.w3.org/2000/svg" xmlns:xlink="http://www.w3.org/1999/xlink" x="0px" y="0px"
	 viewBox="0 0 338 538.4" style="enable-background:new 0 0 338 538.4;" xml:space="preserve">
<style type="text/css">
	.st0{fill:#77F169;}
	.st1{fill:#F089C0;}
	.st2{fill:#0049E5;}
	.st3{fill:#FAE058;}
</style>
<circle class="st0" cx="29.8" cy="132.4" r="4.2"/>
<circle class="st0" cx="287.5" cy="189.4" r="4.2"/>
<circle class="st0" cx="51.1" cy="376.9" r="4.2"/>
<circle class="st1" cx="84.5" cy="16.4" r="11"/>
<circle class="st2" cx="73.5" cy="175" r="6.5"/>
<circle class="st1" cx="54.2" cy="449.7" r="9"/>
<circle class="st2" cx="254.5" cy="132.4" r="4.1"/>
<circle class="st2" cx="291.6" cy="440.6" r="4.1"/>
<circle class="st1" cx="324.7" cy="240.7" r="8.6"/>
<circle class="st1" cx="13.9" cy="304.4" r="8.6"/>
<circle class="st3" cx="207.4" cy="145.1" r="5.6"/>
<g>
	<g>
		<path class="st2" d="M265.2,261c-5.1-44.7-20-74.7-20-74.7s-32.5-14.5-42.9-14.4c-10.4,0.1-22.1-9.6-22.1-9.6v14.9
			c0,0-19.9,31.1-22.6,32.9c-2.7,1.8-34.9-41.5-34.9-41.5s-5.6,8-7.5,8.7s-40.5,20.3-46.6,24.5c-6.1,4.2-3.7,30.8-10.3,48.2
			s-0.9,44-3.7,56.5c-2.8,12.5,14.9,44.4,18.2,47.8s14.6-7.9,14.6-7.9L86,441.6c53.5,40.2,82.5,30,82.5,30l9.2,10.2
			c46.8-15.6,54.6-54.1,54.6-54.1l5-24.6c0,0,33.2-8.6,33.2-12.5s12.5-1.5,14.1-17C286.2,358,270.3,305.7,265.2,261z M239.7,265.6
			c-0.1,8.7-5,9.4-5,9.4v7c-1.9,7.9-31.2,13.7-40.6,14.6s-12.3,2.9-14.6,4.8c-2.3,1.9-42.5,29.6-42.5,29.6
			c11.1-13,10.6-42.5,10.6-42.5l29-17.5c0,0-1.5,13.5,1.4,0c2.9-13.5,10.4-21.7,13.9-25.7c3.5-4,8.6-22.6,13.5-20.9
			s4.2,5.1,2.1,10.1c-2.1,4.9-7.4,17.7-7.4,17.7s10,0.2,25.3-4.3c15.3-4.5,15.5-3.6,15.1,1.1s-17.9,9-15.1,11.1
			c2.7,2.1,16.2-6.1,17.1-2.3C243.3,261.2,239.7,265.6,239.7,265.6z"/>
	</g>
	<g>
		<path d="M175.6,114.5c1,4.2,1.4,8.6,1,13c-0.3,2.2-0.8,4.4-1.7,6.3c-0.5,1-1.1,1.9-1.7,2.8c-0.6,0.9-1.2,1.8-1.8,2.7
			c-2.4,3.6-4.9,7.2-7.6,10.6c-1.4,1.7-2.9,3.3-4.5,4.8c-1.6,1.5-3.3,2.9-5.3,3.8c0,0-0.1,0-0.1,0c0,0,0,0,0-0.1
			c1.8-1.2,3.3-2.7,4.8-4.3c1.5-1.6,2.9-3.2,4.2-4.9c2.7-3.3,5.3-6.8,8-10.2c0.7-0.9,1.3-1.7,2-2.6c0.7-0.9,1.3-1.7,1.7-2.7
			c0.8-2,1.1-4.2,1.2-6.3C176,123.2,175.8,118.9,175.6,114.5C175.5,114.5,175.5,114.5,175.6,114.5
			C175.6,114.5,175.6,114.5,175.6,114.5z"/>
		<path d="M104.3,126.6c2.3,4.1,4.5,8.2,6.6,12.4c1,2.1,2,4.2,3.1,6.3c1.1,2.1,2.3,4.1,3.6,6c1.3,1.9,2.6,3.9,4.1,5.5
			c1.5,1.6,3.7,2.6,5.8,3.4c4.3,1.6,8.9,2.5,13.5,3.3c0,0,0,0,0,0.1c0,0,0,0-0.1,0c-2.3-0.1-4.7-0.3-7-0.7c-2.3-0.4-4.6-0.9-6.9-1.7
			c-2.2-0.8-4.5-1.9-6.1-3.7c-1.6-1.8-2.8-3.8-3.9-5.9l-3.4-6.1c-1.2-2-2.4-4-3.5-6.1C107.9,135.2,105.9,131,104.3,126.6
			C104.2,126.6,104.2,126.6,104.3,126.6C104.3,126.6,104.3,126.6,104.3,126.6z"/>
		<path d="M175.2,132.8c0.6,2.8,1,5.6,1.1,8.5c0.1,1.4,0,2.8,0.1,4.3c0.1,1.4,0.3,2.8,0.5,4.2c0.4,2.8,0.7,5.6,0.9,8.5
			c0.1,2.8,0.2,5.7-0.1,8.5c0,0,0,0-0.1,0c0,0,0,0,0,0c-0.3-2.8-0.6-5.6-0.8-8.5c-0.2-2.8-0.3-5.7-0.4-8.5c0-1.4-0.1-2.8-0.2-4.3
			c-0.2-1.4-0.4-2.8-0.6-4.2C175.2,138.5,175,135.7,175.2,132.8C175.1,132.8,175.1,132.8,175.2,132.8
			C175.2,132.8,175.2,132.8,175.2,132.8z"/>
		<path d="M173.6,107.2c0,1-0.6-15.9,1.5-18.5c2.1-2.6,3-3.3,4.9-2.1c0,0-6.8-18.2-7.3-23.9c-0.5-5.8-11.4-21.3-22.2-22.5
			c0,0-12.4-7.3-25.7-3S97.8,50.9,93.2,64.1s-9.4,32.5-2.4,41.8c7,9.3,11.2,15.7,11.5,18.7c0.3,3,1.9,2.6,1-0.9
			c-0.9-3.5-5.8-15.7-4.5-19.7s0.2-9.3,1.9-11.2c1.7-1.9,0.5-0.9,0.5-0.9s2.4,3.5,7.5-2.6c5.1-6.1,23.9-27.1,30.2-26.6
			c6.3,0.5,12.9-2.3,12.2,0.9c-0.7,3.1,1.7,3.5,4.2,5.1c2.4,1.6,2.8,9.4,7.7,11.5S173.5,99,173.6,107.2z"/>
		<path d="M180.1,86.6c1.4,0.9,2.6,2.1,3.5,3.4c0.9,1.4,1.6,3,1.6,4.8c0,1.6-0.2,3.2-0.2,4.9c0,1.6,0,3.2,0,4.9c0,1.6,0,3.3-0.1,4.9
			c-0.1,1.6-0.3,3.3-0.8,4.9c-0.3,0.8-0.6,1.7-1.3,2.3c-0.6,0.5-1.2,1.1-2,1.5c-0.4,0.2-0.9,0.4-1.3,0.3c-0.5,0-0.9-0.1-1.3-0.3
			c-0.8-0.3-1.5-0.7-2.2-1.1c0,0,0,0,0-0.1c0,0,0,0,0.1,0c0.8,0.3,1.5,0.5,2.3,0.7c0.8,0.2,1.5,0.1,2.1-0.3c0.6-0.4,1.2-1,1.8-1.5
			c0.5-0.4,0.7-1.2,1-1.9c0.8-3,1.1-6.3,1.4-9.5c0.2-1.6,0.2-3.2,0.2-4.8c0-1.6-0.2-3.2-0.3-4.8C184.2,91.7,182.3,88.9,180.1,86.6
			C180,86.6,180,86.6,180.1,86.6C180.1,86.5,180.1,86.5,180.1,86.6z"/>
		<path d="M176.4,90.1c0.1-0.6,0.3-1.2,0.9-1.7c0.3-0.2,0.7-0.4,1.1-0.3c0.4,0,0.7,0.2,1,0.4c0.5,0.4,0.8,1,1.1,1.5
			c0.3,0.5,0.7,0.9,1.1,1.4c0.8,0.9,1.5,1.9,2,3c0.4,1.1,0.7,2.5,0.2,3.6c0,0,0,0-0.1,0c0,0,0,0,0,0c-0.2-1.2-0.6-2.2-1.1-3.2
			c-0.4-1-1-2-1.5-3.1c-0.3-0.5-0.5-1-0.9-1.5c-0.4-0.4-0.9-0.8-1.3-1c-0.5-0.2-0.8-0.3-1.2-0.1C177.3,89.2,176.9,89.7,176.4,90.1
			C176.4,90.1,176.4,90.1,176.4,90.1C176.4,90.1,176.4,90.1,176.4,90.1z"/>
		<path d="M176.4,97c0.9-0.1,1.7,0.2,2.3,0.7c0.3,0.3,0.6,0.6,0.9,0.9c0.3,0.3,0.6,0.5,1,0.7c0.7,0.5,1.3,1.3,1.2,2.3
			c-0.1,1-0.7,1.7-1.4,2.1c0,0-0.1,0-0.1,0c0,0,0,0,0,0c0.2-0.8,0.5-1.5,0.4-2.1c0-0.6-0.2-1.2-0.6-1.9c-0.2-0.3-0.4-0.6-0.8-0.8
			c-0.3-0.2-0.7-0.3-1.1-0.4C177.6,98.1,177,97.7,176.4,97C176.4,97.1,176.4,97.1,176.4,97C176.4,97,176.4,97,176.4,97z"/>
		<path d="M178.9,101.6c0,0.7-0.1,1.3-0.4,1.8c-0.2,0.2-0.4,0.5-0.6,0.7c-0.1,0.3-0.2,0.6-0.2,0.9c0,0.6,0,1.2,0,1.7
			c-0.1,0.5-0.1,1,0,1.7c0,0,0,0.1,0,0.1c0,0,0,0,0,0c-0.7-0.3-1-1.1-1-1.7c0-0.7,0.2-1.3,0.6-1.8c0.2-0.3,0.3-0.5,0.4-0.8
			c0.1-0.3,0-0.6,0.1-0.9C177.9,102.5,178.2,102,178.9,101.6C178.8,101.6,178.9,101.6,178.9,101.6
			C178.9,101.6,178.9,101.6,178.9,101.6z"/>
		<path d="M138.5,120.3c-1.7,0.6,0.3,3.3-4,3c-2.3-0.2-7.7,1.4-10.5,7.2c-2.8,5.8-2.8,7.3-2.1,7.9c0.7,0.5,3-4.3,17-10
			c7.1-2.9,7.4-3.2,15-4.5c4.5-0.8,4.7-1.9,0.9-3.7C150.9,118.4,148,116.8,138.5,120.3z"/>
		<path d="M118.2,92c0,0,0.3,3.1-0.9,3.1s-11,3.7-11.9,5.2s-1.4,4.7-2.4,4.6c-1-0.1,1-8.3,3.3-9C108.6,95.3,116,91,118.2,92z"/>
		<path d="M132.7,85.5c0.9,0.8,2,1.4,4.4,0c2.4-1.4,11.5-7.3,14.2-6.8c2.6,0.5,4.9,1.2,2-1.1c-3.8-2.9-8.2-1.2-11.9,1.1
			C137.7,81,130.5,83.7,132.7,85.5z"/>
		<path d="M122.9,103.2c-0.7-0.2-1.4-0.4-2.1-0.5c-0.7-0.1-1.4-0.2-2.1-0.4c-0.7-0.1-1.4-0.3-2.2-0.3c-0.7,0-1.4,0.2-2.1,0.5
			c-0.6,0.3-1.1,0.8-1.6,1.3c-0.5,0.5-0.9,1.1-1.3,1.6c-0.8,1.2-1.5,2.4-2.3,3.7c0,0,0,0-0.1,0c0,0,0,0,0-0.1
			c0.2-1.5,0.7-2.9,1.4-4.3c0.8-1.3,2-2.5,3.6-2.9c0.7-0.2,1.5-0.3,2.2-0.3c0.7-0.1,1.5-0.2,2.2-0.2
			C120.3,101.6,121.9,102.1,122.9,103.2C123,103.2,123,103.2,122.9,103.2C123,103.2,122.9,103.2,122.9,103.2z"/>
		<path d="M113.1,104.7c0-0.5,0.1-1.1,0.4-1.7c0.3-0.5,1-0.9,1.7-0.8c0.7,0.1,1.2,0.5,1.6,0.9c0.4,0.4,0.7,1,0.8,1.6
			c0.3,1.3-0.9,2.7-2.3,2.6c-0.7,0-1.4-0.3-1.7-0.9C113.2,105.9,113.1,105.3,113.1,104.7z M113.2,104.7c0,0.5,0.4,1,0.8,1.2
			c0.4,0.2,0.8,0.3,1.2,0.3c0.8,0,1.6-0.6,1.8-1.5c0.1-0.5-0.1-1-0.4-1.3c-0.4-0.3-0.9-0.4-1.3-0.3c-0.4,0.1-0.8,0.2-1.2,0.4
			C113.6,103.7,113.2,104.2,113.2,104.7z"/>
		<path d="M144.2,91.8c0-0.5,0.1-1.1,0.4-1.7c0.3-0.5,1-0.9,1.7-0.8c0.7,0.1,1.2,0.5,1.6,0.9c0.4,0.4,0.7,1,0.8,1.6
			c0.3,1.3-0.9,2.7-2.3,2.6c-0.7,0-1.4-0.3-1.7-0.9C144.3,93,144.2,92.4,144.2,91.8z M144.3,91.8c0,0.5,0.4,1,0.8,1.2
			c0.4,0.2,0.8,0.3,1.2,0.3c0.8,0,1.6-0.6,1.8-1.5c0.1-0.5-0.1-1-0.4-1.3c-0.4-0.3-0.9-0.4-1.3-0.3c-0.4,0.1-0.8,0.2-1.2,0.4
			C144.7,90.8,144.3,91.3,144.3,91.8z"/>
		<path d="M139.5,95c0.6-1.4,1.5-2.6,2.7-3.6c0.6-0.5,1.3-0.8,1.9-1.2c0.6-0.4,1.2-0.8,1.9-1.1c0.7-0.3,1.5-0.5,2.2-0.6
			c0.8-0.1,1.5-0.1,2.3,0.1c1.5,0.3,2.9,0.8,4.2,1.6c0,0,0,0,0,0.1c0,0,0,0-0.1,0c-1.5-0.2-2.9-0.5-4.3-0.7c-1.4-0.2-2.8-0.3-4.2,0
			c-0.7,0.1-1.4,0.5-1.9,0.9c-0.6,0.4-1,1-1.5,1.6C141.7,93.1,140.7,94.1,139.5,95C139.5,95.1,139.5,95.1,139.5,95
			C139.5,95.1,139.5,95.1,139.5,95z"/>
		<path d="M119.9,155.2c0.5,0.5,0.7,1.1,0.8,1.7c0,0.3-0.1,0.7,0,1c0,0.3,0.2,0.6,0.3,0.9c0.3,0.6,0.5,1.1,0.7,1.7
			c0.1,0.6,0.1,1.2,0,1.9c0,0,0,0-0.1,0c0,0,0,0,0,0c-0.5-0.5-0.7-1.1-0.9-1.7c-0.1-0.6-0.2-1.2-0.2-1.9c0-0.3,0-0.6-0.1-0.9
			c-0.1-0.3-0.3-0.6-0.5-0.8C119.6,156.6,119.6,155.9,119.9,155.2C119.8,155.2,119.8,155.2,119.9,155.2
			C119.8,155.2,119.8,155.2,119.9,155.2z"/>
		<path d="M176.7,149.8c1.9,3.4,3.9,6.7,6.3,9.7c1.2,1.5,2.5,2.9,4.2,3.8c1.7,0.9,3.6,1.3,5.3,2.5c1.7,1.2,2.8,2.8,3.9,4.5
			c1,1.7,2,3.4,2.8,5.1c1.7,3.5,2.9,7.2,3.9,11c0.5,1.9,0.8,3.8,1.1,5.7c0.1,0.5,0.1,1,0.1,1.5c0,0.1,0,0.3,0,0.4c0,0,0,0.1,0,0.1
			c0,0.1-0.1,0.2-0.2,0.3c-0.1,0.1-0.2,0.1-0.3,0.1c-0.3,0-0.6,0-0.8,0c-1-0.2-1.9-0.4-2.9-0.7c-1.9-0.6-3.7-1.2-5.5-1.9
			c-0.9-0.3-1.8-0.7-2.7-1.1c-0.9-0.4-1.8-0.8-2.5-1.5c-1.5-1.3-2.8-2.6-4.4-3.8c-0.8-0.6-1.6-1.1-2.5-1.4c-0.4-0.2-0.9-0.3-1.3-0.4
			c-0.5,0-0.9-0.1-1.4,0c-0.9,0.1-1.7,0.6-2.4,1.3c-0.7,0.6-1.4,1.3-2,2c-1.3,1.4-2.6,2.8-3.9,4.3c-2.5,2.9-4.9,6-7,9.2
			c-1,1.6-2.1,3.2-2.8,5c-0.4,0.9-0.7,1.7-0.9,2.6c-0.1,0.4-0.1,0.9-0.2,1.4c-0.1,0.5-0.1,0.9-0.1,1.4c-0.2,3.8-0.2,7.7-0.2,11.6
			l0,11.6l0,46.4c0,0,0,0.1-0.1,0c0,0,0,0,0,0c-0.3-7.7-0.5-15.5-0.6-23.2c-0.2-7.7-0.3-15.5-0.3-23.2c0-7.7,0-15.5,0.3-23.2
			c0-0.5,0-1,0.1-1.5c0.1-0.5,0-1,0.2-1.5c0.2-1,0.6-1.9,1-2.8c0.8-1.8,1.9-3.4,3-5c2.2-3.2,4.6-6.2,7.2-9.1c1.3-1.5,2.6-2.9,4-4.3
			c0.7-0.7,1.4-1.4,2.1-2c0.3-0.3,0.8-0.6,1.2-0.9c0.2-0.2,0.5-0.2,0.7-0.3l0.4-0.1c0.1,0,0.2,0,0.4-0.1c0.5-0.1,1,0,1.5,0
			c0.5,0.1,1,0.2,1.4,0.4c0.9,0.4,1.7,0.9,2.5,1.5c1.6,1.1,3,2.5,4.4,3.7c0.7,0.6,1.6,1,2.5,1.4c0.9,0.4,1.8,0.7,2.7,1
			c1.8,0.6,3.7,1.2,5.5,1.7c0.9,0.2,1.9,0.5,2.8,0.6c0.2,0,0.5,0,0.6,0c0.1,0,0,0,0,0c0,0-0.1,0.1-0.1,0.1c0,0,0,0,0-0.1
			c0-0.1,0-0.2,0-0.3c0-0.5-0.1-0.9-0.2-1.4c-0.3-1.9-0.7-3.8-1.2-5.6c-0.9-3.7-2.3-7.3-3.9-10.8c-0.8-1.7-1.7-3.4-2.7-5.1
			c-1-1.6-2.1-3.2-3.6-4.3c-1.5-1.1-3.4-1.6-5.1-2.5c-1.8-1-3.1-2.5-4.3-4C180.2,156.7,178.3,153.3,176.7,149.8
			C176.6,149.8,176.6,149.8,176.7,149.8C176.7,149.8,176.7,149.8,176.7,149.8z"/>
		<path d="M177.1,154.7c0.9,4,1.3,8.1,1.2,12.3c-0.1,2.1-0.3,4.1-0.6,6.1c-0.3,2-0.6,4.1-1.5,6c-0.2,0.5-0.5,0.9-0.8,1.4l-0.9,1.2
			c-0.6,0.8-1.1,1.7-1.7,2.5c-1.1,1.7-2.1,3.5-3.2,5.2c-2.1,3.5-4.2,7-6.4,10.5c0,0,0,0-0.1,0c0,0,0,0,0-0.1c1.6-3.8,3.5-7.4,5.6-11
			c1-1.8,2.2-3.5,3.3-5.2c0.6-0.8,1.2-1.7,1.8-2.5c0.3-0.4,0.7-0.8,1-1.2c0.3-0.4,0.6-0.8,0.9-1.2c1-1.7,1.5-3.8,1.7-5.8
			c0.2-2,0.2-4.1,0.1-6.1C177.4,162.9,177.2,158.8,177.1,154.7C177,154.7,177,154.7,177.1,154.7
			C177.1,154.7,177.1,154.7,177.1,154.7z"/>
		<path d="M144.8,288.3c2.4-0.9,4.8-2.1,7.1-3.3c2.3-1.2,4.6-2.5,6.9-3.7c4.5-2.6,9-5.2,13.4-8c1.1-0.7,2.2-1.4,3.2-2.2
			c0.3-0.2,0.5-0.4,0.8-0.6c0.2-0.2,0.5-0.4,0.6-0.6c0,0,0,0,0,0c0,0,0-0.1,0-0.1l0-0.2l0.1-0.5l0.2-1c0.6-2.6,1.3-5.1,2.3-7.5
			c0.5-1.2,1.1-2.4,1.7-3.6c0.7-1.2,1.4-2.2,2.1-3.3l4.4-6.5c2.9-4.3,5.8-8.6,8.3-13.2c0.6-1.1,1.1-2.3,1.7-3.5
			c0.6-1.2,1.2-2.3,1.9-3.4c0.8-1.1,1.6-2.1,2.8-2.8c1.1-0.7,2.5-1,3.9-0.8c1.4,0.2,2.5,1.2,3.1,2.4c0.6,1.2,0.7,2.6,0.4,3.9
			c-0.2,1.3-0.8,2.5-1.4,3.7c-0.6,1.2-1,2.4-1.5,3.6c-0.9,2.4-1.8,4.9-2.7,7.3c-0.5,1.2-1,2.4-1.6,3.6c-0.6,1.2-1.3,2.3-2.3,3.3
			l-0.2-0.6c2.2,0,4.5-0.1,6.7-0.2c1.1-0.1,2.2-0.1,3.3-0.2c1.1-0.1,2.1-0.4,3.2-0.7c4.3-1.1,8.7-2.2,13-3.3
			c2.2-0.6,4.3-1.1,6.4-1.9c1.1-0.3,2.2-0.7,3.3-0.9c1.1-0.2,2.4-0.3,3.6,0.2c0.6,0.3,1.1,0.8,1.4,1.4c0.3,0.6,0.5,1.1,0.6,1.7
			c0.2,1.2,0.1,2.4-0.3,3.6c-0.4,1.2-1.3,2.2-2.4,2.7c-1,0.5-2.1,0.9-3.1,1.4l-6.2,2.6c-1,0.4-2.1,0.9-3,1.4
			c-0.2,0.1-0.5,0.3-0.7,0.4c-0.1,0.1-0.2,0.1-0.3,0.2l0,0c0,0,0,0,0,0c0.1-0.1,0-0.3,0-0.4c0-0.1-0.1-0.1-0.1-0.1l0,0
			c0,0,0.1,0,0.2,0c0.1,0,0.3,0,0.4,0c0.3,0,0.5-0.1,0.8-0.1c2.2-0.4,4.4-0.9,6.5-1.5c1.1-0.3,2.1-0.6,3.2-1
			c0.3-0.1,0.5-0.2,0.8-0.3c0.2-0.1,0.5-0.3,0.7-0.4c0.5-0.3,1.1-0.5,1.6-0.6c0.6-0.1,1.2-0.2,1.8,0c0.6,0.2,1.1,0.7,1.4,1.2
			c0.6,1.1,0.7,2.3,0.5,3.5c-0.5,2.3-2.1,4.2-3.8,5.6c-3.5,3-7.9,4.5-12.2,5.6c0,0-0.1,0-0.1,0c0,0,0-0.1,0-0.1
			c4.3-1.2,8.6-2.9,11.9-5.8c1.6-1.5,3.1-3.3,3.5-5.4c0.2-1,0.1-2.1-0.5-3c-0.2-0.4-0.6-0.8-1.1-0.9c-0.4-0.1-1-0.1-1.5,0
			c-0.5,0.1-1,0.4-1.5,0.6c-0.2,0.1-0.5,0.3-0.8,0.4c-0.3,0.1-0.5,0.2-0.8,0.3c-1.1,0.4-2.1,0.7-3.2,1.1c-2.2,0.6-4.3,1.2-6.6,1.6
			c-0.3,0-0.6,0.1-0.9,0.1c-0.1,0-0.3,0-0.5,0c-0.2,0-0.3,0-0.6-0.1l-0.1,0c-0.1,0-0.2-0.1-0.2-0.2c-0.1-0.1-0.1-0.4,0-0.5
			c0-0.1,0.1-0.1,0.1-0.2c0,0,0.1-0.1,0.1-0.1c0.1-0.1,0.3-0.2,0.4-0.3c0.3-0.2,0.5-0.3,0.8-0.4c1-0.5,2-1,3.1-1.4l6.2-2.6
			c1-0.4,2.1-0.9,3-1.4c0.9-0.5,1.6-1.2,1.9-2.2c0.4-0.9,0.4-2,0.2-3c-0.2-1-0.6-2-1.4-2.4c-0.8-0.4-1.9-0.3-3-0.1
			c-1.1,0.2-2.1,0.5-3.2,0.8c-2.1,0.7-4.3,1.3-6.5,1.8c-4.3,1.1-8.7,2.2-13.1,3.2c-1.1,0.2-2.2,0.6-3.4,0.6
			c-1.1,0.1-2.3,0.1-3.4,0.2c-2.2,0.1-4.5,0.1-6.7,0.1c-0.2,0-0.3-0.2-0.3-0.3c0-0.1,0-0.2,0.1-0.2c0.9-0.9,1.6-1.9,2.2-3.1
			c0.6-1.1,1.1-2.3,1.6-3.5c1-2.4,1.9-4.9,2.9-7.3c0.5-1.2,1-2.4,1.6-3.6c0.6-1.2,1.1-2.3,1.3-3.6c0.2-1.3,0.2-2.6-0.4-3.7
			c-0.6-1.1-1.6-2-2.8-2.3c-1.2-0.1-2.6,0.1-3.6,0.8c-1.1,0.7-1.9,1.7-2.6,2.7c-0.7,1.1-1.3,2.2-1.9,3.4c-0.5,1.2-1,2.4-1.6,3.6
			c-2.4,4.7-5.2,9.1-8.1,13.4c-1.4,2.2-2.9,4.3-4.3,6.5c-0.7,1.1-1.5,2.2-2.1,3.3c-0.6,1.1-1.2,2.3-1.7,3.5c-1,2.4-1.7,4.9-2.3,7.4
			l-0.2,0.9l-0.1,0.5l0,0.2c0,0,0,0.1,0,0.1c0,0.1-0.1,0.2-0.1,0.2c-0.3,0.4-0.5,0.5-0.8,0.8c-0.3,0.2-0.5,0.4-0.8,0.6
			c-1.1,0.8-2.2,1.5-3.3,2.2c-4.4,2.8-9,5.3-13.6,7.8c-2.3,1.2-4.6,2.4-7,3.6C149.7,286.5,147.4,287.6,144.8,288.3
			C144.8,288.4,144.8,288.4,144.8,288.3C144.8,288.4,144.8,288.3,144.8,288.3z"/>
		<path d="M225.2,281.9c1.7-1.5,3.8-2.5,5.9-3c1-0.3,2-0.7,3-1.2c0.9-0.6,1.8-1.2,2.6-2c1.5-1.5,3-3.2,3.8-5.1
			c0.4-0.9,0.6-1.9,0.5-2.9c-0.1-1-0.6-2-1.3-2.9c0,0,0-0.1,0-0.1c0,0,0,0,0.1,0c0.9,0.7,1.6,1.6,1.9,2.8c0.3,1.2,0.2,2.4-0.3,3.5
			c-0.4,1.1-1.1,2-1.9,2.9c-0.8,0.8-1.6,1.6-2.5,2.2c-0.9,0.7-1.8,1.2-2.8,1.9c-0.9,0.6-1.8,1.3-2.9,1.7
			C229.3,280.4,227.3,281.2,225.2,281.9C225.2,282,225.2,282,225.2,281.9C225.2,282,225.2,281.9,225.2,281.9z"/>
		<path d="M132.4,335.6c8.2-6.1,16.6-11.9,25-17.7c8.5-5.6,17.1-11.2,25.3-17.3c2.1-1.4,4.5-2.7,7-3.3c1.3-0.3,2.6-0.5,3.9-0.5
			l1.9,0c0.6-0.1,1.3-0.1,1.9-0.1c2.5-0.3,5-0.7,7.5-1.3c2.5-0.5,5-1.1,7.4-1.8c4.9-1.4,9.7-2.9,14.3-5.3c1.1-0.6,2.3-1.2,3.3-1.8
			c1.1-0.7,2.1-1.4,3-2.3c0.9-0.9,1.7-1.9,2.1-3c0.4-1.2,0.4-2.5-0.1-3.7c0,0,0-0.1,0-0.1c0,0,0.1,0,0.1,0c0.5,1.2,0.7,2.5,0.3,3.8
			c-0.4,1.3-1.1,2.4-2.1,3.3c-0.9,0.9-1.9,1.7-3,2.4c-1.1,0.7-2.2,1.4-3.3,2c-4.5,2.5-9.4,4.2-14.3,5.6c-4.9,1.4-10,2.5-15.1,3
			c-0.6,0.1-1.3,0.1-1.9,0.1l-1.9,0c-1.2,0-2.5,0.1-3.7,0.4c-2.4,0.6-4.7,1.7-6.9,3c-2.1,1.3-4.2,2.9-6.3,4.3
			c-2.1,1.4-4.2,2.9-6.3,4.3c-4.2,2.9-8.3,5.9-12.5,8.9C149.5,324.5,141,330.2,132.4,335.6C132.4,335.7,132.4,335.7,132.4,335.6
			C132.3,335.7,132.3,335.7,132.4,335.6L132.4,335.6z"/>
		<path d="M240.5,245.2c-0.3,0.2-0.3,0.3-0.3,0.4c0,0.1,0,0.3-0.1,0.4c-0.1,0.2-0.2,0.4-0.2,0.7c0,0.2,0.1,0.4,0.3,0.6
			c0.3,0.4,0.5,0.8,0.7,1.2c0.2,0.4,0.3,0.9,0.2,1.5c0,0,0,0.1-0.1,0.1c0,0,0,0,0,0c-0.5-0.2-0.9-0.6-1.1-1.1
			c-0.2-0.5-0.3-0.9-0.3-1.5c0-0.3,0-0.5-0.1-0.7c-0.1-0.2-0.3-0.5-0.3-0.8c0-0.3,0-0.6,0.3-0.9
			C239.9,244.9,240.3,244.9,240.5,245.2C240.5,245.1,240.5,245.2,240.5,245.2C240.5,245.2,240.5,245.2,240.5,245.2L240.5,245.2z"/>
		<path d="M200,230.6c0.9-0.2,1.8-0.3,2.8-0.3l1.4-0.1l0.7,0l0.3,0c0,0,0,0,0.1-0.1c0.6-0.4,1.3-1.2,1.6-2c0.4-0.8,0.4-1.8-0.1-2.5
			c-0.5-0.6-1.4-0.8-2.2-0.8c-0.8,0-1.5,0.5-2.1,1.1C201.4,227.1,200.6,228.9,200,230.6z M199.9,230.6c-0.1-1,0.1-1.9,0.4-2.9
			c0.3-0.9,0.8-1.8,1.5-2.6c0.7-0.7,1.7-1.3,2.8-1.3c1.1,0,2.1,0.5,2.7,1.4c0.5,1,0.2,2-0.1,2.9c-0.3,0.9-0.7,1.8-1.5,2.6
			c-0.1,0.1-0.3,0.2-0.5,0.2c-0.1,0-0.3,0-0.4,0c-0.2,0-0.5,0-0.7,0c-0.5,0-0.9,0-1.4-0.1C201.8,231,200.9,230.9,199.9,230.6z"/>
		<path d="M129.4,134c1.6-0.3,3.4-0.7,5.1-0.9c0.9-0.1,1.7-0.2,2.6-0.4c0.8-0.2,1.7-0.5,2.4-0.9c1.5-0.8,3.1-1.6,4.5-2.5
			c1.5-0.9,2.9-1.8,4.3-2.8c0,0,0.1,0,0.1,0c0,0,0,0,0,0.1c-1,1.5-2.3,2.7-3.8,3.7c-0.7,0.5-1.6,0.9-2.4,1.2
			c-0.8,0.4-1.7,0.7-2.5,0.9c-0.9,0.2-1.7,0.4-2.5,0.7c-0.8,0.3-1.7,0.6-2.5,0.9c-0.9,0.2-1.7,0.3-2.6,0.4c-0.4,0-0.9,0-1.3,0
			c-0.2,0-0.4,0-0.7-0.1C129.8,134.2,129.6,134.2,129.4,134C129.3,134.1,129.3,134.1,129.4,134C129.3,134.1,129.3,134.1,129.4,134
			L129.4,134z"/>
		<path d="M160.4,207.4c-7.9-8.2-15.6-16.7-23.1-25.3c-1.8-2.2-3.7-4.3-5.4-6.7c-1.4-2.4-3-4.8-4.8-7.1c-0.9-1.1-1.8-2.2-2.9-3.2
			c-0.5-0.5-1.1-0.9-1.7-1.3c-0.6-0.3-1.3-0.6-1.9-0.6c-0.7,0.1-1.1,0.6-1.5,1.2c-0.4,0.5-0.8,1.2-1.1,1.8c-0.7,1.2-1.2,2.6-1.8,3.9
			l-1.5,4c-0.3,0.7-0.5,1.3-0.9,2c-0.2,0.3-0.3,0.7-0.5,1c-0.1,0.2-0.2,0.3-0.3,0.5c-0.1,0.2-0.2,0.2-0.2,0.4
			c-0.5,1.2-0.7,2.7-0.9,4c-0.2,1.4-0.3,2.8-0.5,4.2c-0.2,2.8-0.3,5.7-0.3,8.5c0.1,2.8,0.1,5.7,0.8,8.3c0.2,0.6,0.5,1.3,0.8,1.6
			c0.3,0.2,1.1,0.2,1.7,0.1c1.3-0.2,2.7-0.7,4-1.1c2.7-1,5.3-2.1,7.8-3.3c2.6-1.2,5.1-2.5,7.6-3.9c1.2-0.7,2.5-1.4,3.7-2.2
			c0.6-0.4,1.2-0.8,1.8-1.2c0.6-0.4,1.1-0.9,1.6-1.4c0,0,0,0,0.1,0c0,0,0,0,0,0.1c-0.4,0.6-1,1.1-1.5,1.5c-0.6,0.5-1.1,0.9-1.7,1.3
			c-1.2,0.8-2.4,1.6-3.6,2.4c-2.4,1.5-4.9,2.9-7.5,4.2c-2.6,1.3-5.2,2.5-7.8,3.5c-1.4,0.5-2.7,1-4.2,1.2c-0.4,0.1-0.8,0.1-1.1,0.1
			c-0.4,0-0.9,0-1.3-0.3c-0.8-0.6-1-1.4-1.2-2.1c-0.4-1.4-0.6-2.9-0.7-4.3c-0.1-1.4-0.2-2.9-0.2-4.3c0-2.9,0.1-5.7,0.4-8.6
			c0.1-1.4,0.3-2.9,0.5-4.3c0.3-1.4,0.4-2.8,1.1-4.3c0.1-0.2,0.3-0.4,0.4-0.5c0.1-0.1,0.2-0.2,0.3-0.4c0.2-0.3,0.4-0.6,0.5-0.9
			c0.3-0.6,0.6-1.3,0.9-1.9l1.7-3.9c0.6-1.3,1.2-2.6,1.9-3.9c0.4-0.6,0.8-1.2,1.2-1.8c0.2-0.3,0.5-0.5,0.7-0.8
			c0.3-0.2,0.7-0.5,1.1-0.5c0.8-0.1,1.5,0.3,2.1,0.6c0.6,0.4,1.2,0.8,1.7,1.3c1.1,1,2,2.1,2.9,3.2c1.8,2.2,3.4,4.6,5,7
			c1.7,2.2,3.6,4.3,5.5,6.5C145.5,190.1,153.1,198.6,160.4,207.4C160.5,207.3,160.5,207.3,160.4,207.4
			C160.4,207.4,160.4,207.4,160.4,207.4z"/>
		<path d="M124.9,346.2c0.7-0.1,1.2-0.6,1.6-1.1c0.5-0.5,0.9-1,1.2-1.6c0.8-1.1,1.4-2.3,2.1-3.5c1.3-2.4,2.5-4.8,3.7-7.2
			c0.6-1.2,1.3-2.4,2-3.5c0.8-1.2,1.4-2.3,2-3.5c1.2-2.4,2.2-4.9,3-7.5c1.7-5.1,3-10.4,3.8-15.7c0.8-5.3,1-10.8,0.3-16.1l0.2,0.1
			c-4.3,0.4-8.6,0.9-12.8,1.5c-2.1,0.3-4.3,0.6-6.4,1.1c-1,0.2-2.1,0.4-3.2,0.5c-1.1,0.1-2.2,0.1-3.2,0.2c-1.1,0.1-2.1,0.2-3.1,0.5
			c-0.9,0.4-1.6,1.1-2,2c-0.4,0.9-0.5,2-0.5,3c-0.1,1.1-0.2,2.2-0.3,3.3c-0.5,4.3-1.4,8.6-2.5,12.8c-1.1,4.2-2.5,8.4-4.3,12.2
			c-1.6,3.9-2.2,8.2-2.5,12.5l-0.1,0.8c0,0.3-0.1,0.6-0.1,0.7c0,0.4,0.3,0.9,0.6,1.3c0.6,0.8,1.4,1.6,2.2,2.2
			c1.6,1.3,3.5,2.4,5.5,3.2C116.2,346.1,120.6,346.6,124.9,346.2z M124.9,346.3c-4.3,0.5-8.7,0-12.8-1.5c-2-0.8-4-1.8-5.7-3.1
			c-0.9-0.7-1.7-1.4-2.4-2.3c-0.3-0.5-0.7-0.9-0.8-1.6c0-0.4,0-0.6,0-0.9l0.1-0.8c0.1-2.1,0.2-4.3,0.6-6.5c0.3-2.2,1-4.3,1.7-6.3
			c1.8-3.9,3.1-8,4.2-12.1c1.1-4.1,2-8.4,2.5-12.6c0.1-1.1,0.2-2.1,0.3-3.2c0.1-1.1,0.2-2.2,0.7-3.3c0.4-1.1,1.4-2,2.5-2.4
			c1.1-0.4,2.2-0.5,3.3-0.5c2.2-0.1,4.3-0.1,6.4-0.6c2.1-0.4,4.3-0.7,6.4-0.9c4.3-0.5,8.6-1,12.9-1.5c0.1,0,0.2,0.1,0.2,0.1
			c0.4,2.7,0.6,5.4,0.6,8.1c0,1.4-0.1,2.7-0.1,4.1c-0.1,1.4-0.2,2.7-0.4,4.1c-0.7,5.4-1.9,10.7-3.7,15.9c-0.9,2.6-1.9,5.1-3.2,7.5
			c-0.6,1.2-1.4,2.4-2.2,3.5c-0.7,1.1-1.4,2.3-2.1,3.4l-4,7.1c-0.7,1.2-1.4,2.4-2.1,3.5c-0.4,0.6-0.8,1.1-1.3,1.6
			C126.1,345.7,125.6,346.2,124.9,346.3z"/>
		<path d="M108.6,337.1c0.7,0.2,1.2,0.5,1.7,0.8c0.5,0.3,1,0.7,1.5,1c0.5,0.4,0.9,0.9,1.4,1.2c0.5,0.4,1,0.6,1.6,0.9
			c1.1,0.4,2.2,0.9,3.3,1.3c1.1,0.4,2.2,0.8,3.4,1c0,0,0,0,0,0.1c0,0,0,0,0,0c-1.2,0.4-2.6,0.2-3.8-0.1c-0.6-0.2-1.2-0.5-1.7-0.8
			c-0.6-0.3-1.1-0.7-1.5-1c-0.5-0.4-1-0.8-1.5-1.1c-0.5-0.3-1.1-0.5-1.7-0.8C110.3,339.1,109.4,338.2,108.6,337.1L108.6,337.1
			C108.6,337.2,108.6,337.2,108.6,337.1C108.6,337.1,108.6,337.1,108.6,337.1z"/>
		<path d="M128.5,342.6l3.2,2.4c1.1,0.8,2.1,1.6,3.2,2.1c0.3,0.1,0.5,0.2,0.6,0.1c0.2-0.2,0.4-0.4,0.7-0.7c0.4-0.5,0.9-1,1.3-1.5
			c0.8-1.1,1.4-2.3,2-3.5c1.2-2.4,2.3-4.8,3.2-7.3c1-2.4,1.9-4.9,2.7-7.5c0,0,0,0,0.1,0c0,0,0,0,0,0.1c-0.1,2.7-0.8,5.4-1.8,7.9
			c-1,2.5-2.3,4.9-3.8,7.2c-0.8,1.1-1.5,2.2-2.2,3.4l-1.1,1.7c-0.2,0.3-0.4,0.6-0.7,0.8c-0.2,0.2-0.5,0.3-0.7,0.3
			c-0.2,0-0.4,0-0.6-0.1c-0.7-0.2-1.3-0.6-1.9-1c-0.6-0.4-1.1-0.8-1.6-1.3C130.2,344.7,129.2,343.7,128.5,342.6
			C128.4,342.7,128.4,342.6,128.5,342.6C128.4,342.6,128.5,342.6,128.5,342.6z"/>
		<path d="M128.2,100.4c0.3,2.3,0.3,4.6,0.3,6.9c-0.1,1.1-0.2,2.3-0.1,3.4c0,1.1,0.2,2.3,0.4,3.4c0.1,0.6,0.3,1.1,0.5,1.6
			c0.1,0.3,0.2,0.5,0.3,0.7c0.1,0.2,0.3,0.4,0.4,0.6c0.7,0.8,1.6,1.5,2.5,2c0.9,0.5,2,0.9,2.8,0.4c0.9-0.5,1.7-1.4,2.4-2.3
			c0,0,0,0,0.1,0c0,0,0,0,0,0.1c-0.4,1.1-1.1,2.1-2.1,2.9c-0.6,0.4-1.3,0.5-1.9,0.4c-0.6-0.1-1.2-0.3-1.8-0.6
			c-1.1-0.6-2-1.4-2.7-2.4c-0.4-0.4-0.7-1.1-0.8-1.7c-0.1-0.3-0.1-0.6-0.2-0.9c0-0.3-0.1-0.6-0.1-0.9c-0.1-1.2-0.1-2.3-0.2-3.5
			c-0.1-1.2-0.3-2.3-0.4-3.5C127.6,105,127.7,102.7,128.2,100.4C128.2,100.4,128.2,100.4,128.2,100.4
			C128.2,100.4,128.2,100.4,128.2,100.4z"/>
		<path d="M139.5,108.4c0.8-0.4,1.7-0.7,2.6-0.9c0.9-0.2,1.9-0.2,2.8,0.1c0.5,0.2,0.9,0.5,1.2,1c0.1,0.1,0.1,0.2,0.2,0.3l0.1,0.4
			c0.1,0.2,0.1,0.5,0.1,0.7c0,0.9-0.1,1.8-0.3,2.7c-0.4,1.9-2.1,3.4-3.9,4c-1.8,0.6-3.8,0.5-5.5,0c0,0,0,0,0-0.1c0,0,0,0,0,0
			c1.8-0.1,3.6-0.3,5.1-0.9c0.8-0.3,1.5-0.6,2.2-1.2c0.6-0.5,1.1-1.2,1.5-2c0.4-0.8,0.6-1.7,0.5-2.5c-0.1-0.9-0.7-1.5-1.5-1.6
			C143.1,108,141.3,108.3,139.5,108.4C139.5,108.5,139.5,108.5,139.5,108.4C139.5,108.4,139.5,108.4,139.5,108.4z"/>
		<path d="M128.1,112.3c-0.6,1.4-1.3,2.6-2,3.9c-0.4,0.6-0.8,1.2-1.1,1.9c-0.3,0.7-0.4,1.4-0.4,2.1c0.1,0.7,0.3,1.3,0.7,1.7
			c0.5,0.4,1,0.6,1.6,0.7c1.3,0.2,2.7-0.2,4.1-0.6c0,0,0.1,0,0.1,0c0,0,0,0,0,0.1c-1.1,1-2.6,1.7-4.2,1.6c-0.8-0.1-1.7-0.5-2.2-1.1
			c-0.1-0.1-0.3-0.3-0.4-0.5c-0.1-0.2-0.2-0.4-0.2-0.6c-0.1-0.4-0.1-0.8,0-1.2c0.1-0.8,0.4-1.5,0.6-2.2c0.2-0.7,0.4-1.4,0.7-2.1
			C126,114.4,126.9,113.2,128.1,112.3C128.1,112.2,128.1,112.2,128.1,112.3C128.1,112.3,128.1,112.3,128.1,112.3z"/>
		<path d="M100.6,120.3c-0.3-0.1-0.7-0.2-1-0.3c-0.3,0-0.6,0.1-0.7,0.3c-0.1,0.5,0.1,1.2,0.3,1.8c0.5,1.3,1.2,2.5,1.7,3.8
			c0.5,1.3,0.9,2.7,1.4,4c0.5,1.3,1.1,2.6,1.7,3.8c1.2,2.5,2.4,5.1,3.2,7.8c0.1,0.3,0.2,0.7,0.3,1c0,0.2,0.1,0.4,0.1,0.6
			c0,0.1,0,0.3,0.1,0.4c0.1,0.5,0.6,0.9,1.2,1c1.2,0.2,2.5-0.5,3.6-1.3c0,0,0.1,0,0.1,0c0,0,0,0,0,0.1c-0.9,1.1-2.1,2.1-3.8,2
			c-0.8,0-1.7-0.6-2-1.4c-0.1-0.2-0.1-0.4-0.2-0.6l-0.1-0.4c-0.1-0.3-0.2-0.6-0.3-1c-0.9-2.6-1.9-5.3-2.7-7.9
			c-0.5-1.3-0.9-2.6-1.5-3.9c-0.6-1.3-1.3-2.5-1.9-3.8c-0.6-1.3-1.2-2.5-1.6-3.9c-0.1-0.3-0.2-0.7-0.2-1.1c0-0.4-0.1-0.8,0.2-1.2
			c0.1-0.1,0.2-0.2,0.3-0.3c0.1,0,0.2-0.1,0.3-0.1c0.2,0,0.4,0,0.6,0.1C100.1,119.8,100.4,120,100.6,120.3
			C100.7,120.2,100.7,120.3,100.6,120.3C100.7,120.3,100.6,120.3,100.6,120.3z"/>
		<path d="M114,175.1l-12.5,6.4l-12.6,6.3c-4.1,2.2-8.6,3.9-12.9,5.6c-2.2,0.8-4.4,1.7-6.5,2.6c-1.1,0.5-2.1,1-3,1.6
			c-0.5,0.3-0.9,0.7-1.2,1c-0.3,0.4-0.2,0.7,0.1,1l0,0c0.2,0.2,0.2,0.5,0,0.6c0,0,0,0-0.1,0c-1.7,1.1-3.3,2.9-3.5,4.9
			c-0.1,0.5,0,1,0,1.6c0.1,0.6,0,1.1,0.1,1.7c0,1.1,0,2.2,0,3.3c-0.1,4.4-0.4,8.8-0.8,13.2c-0.4,4.4-1,8.8-1.8,13.1
			c-0.4,2.2-0.9,4.3-1.6,6.4c-0.3,1.1-0.8,2.1-1.3,3.1l-0.7,1.5c-0.2,0.5-0.4,1-0.5,1.5c-0.6,2.1-0.8,4.3-0.5,6.5
			c0.2,2.2,0.8,4.3,1.3,6.5c0.5,2.1,0.9,4.4,0.6,6.6c-0.3,2.2-0.6,4.4-0.9,6.6c-1.1,8.8-2.1,17.5-3.2,26.3c-0.3,2.2-0.5,4.4-0.8,6.6
			c-0.1,0.9,0.2,2,0.5,3c0.3,1,0.6,2.1,1,3.1c1.4,4.2,3,8.3,4.4,12.5c0.3,1.1,0.7,2.1,1,3.2c0.3,1.1,0.6,2.2,0.7,3.3l0.1,0.9
			c0,0.2,0,0.5,0.1,0.8c0.1,0.5,0.2,1.1,0.3,1.6c0.2,1.1,0.6,2.1,0.9,3.1c1.5,4.1,3.7,8,6.9,10.9c0.8,0.7,1.7,1.4,2.6,1.9
			c0.9,0.5,1.9,1,2.9,1.2c2,0.6,4.2,0.5,6.3,0l12.9-3.1l12.9-3.1l12.9-3c0,0,0.1,0,0.1,0c0,0,0,0.1,0,0.1l-12.8,3.3l-12.8,3.2
			L79.4,356c-2.2,0.5-4.5,0.7-6.8,0.1c-1.1-0.3-2.2-0.7-3.2-1.3c-1-0.6-1.9-1.2-2.8-2c-3.4-3.1-5.6-7.1-7.2-11.3
			c-0.4-1.1-0.7-2.1-1-3.2c-0.1-0.5-0.2-1.1-0.3-1.7c0-0.3-0.1-0.6-0.1-0.9l-0.1-0.8c-0.1-1-0.4-2.1-0.7-3.1c-0.3-1-0.6-2.1-1-3.1
			c-1.4-4.2-2.9-8.3-4.4-12.5c-0.4-1.1-0.7-2.1-1-3.2c-0.1-0.6-0.3-1.1-0.4-1.7c0-0.3-0.1-0.5-0.1-0.9c0-0.3,0-0.7,0-0.9
			c0.3-2.2,0.6-4.4,0.9-6.5c1.1-8.8,2.3-17.5,3.5-26.3l1-6.6c0.3-2.1,0-4.3-0.5-6.5c-0.5-2.1-1-4.3-1.3-6.5
			c-0.2-2.2-0.1-4.5,0.6-6.6c4.1-8,5-16.9,5.7-25.6c0.3-4.4,0.5-8.8,0.6-13.2c0-1.1,0-2.2,0-3.3c0-0.5,0-1.1-0.1-1.6
			c0-0.5-0.1-1.1,0-1.7c0.1-1.2,0.7-2.3,1.4-3.2c0.7-0.9,1.6-1.7,2.5-2.3l-0.1,0.7c-0.2-0.3-0.5-0.6-0.5-1c0-0.4,0.1-0.8,0.3-1.1
			c0.4-0.6,0.9-0.9,1.4-1.3c1-0.7,2.1-1.2,3.2-1.7c2.2-1,4.4-1.8,6.6-2.6c2.2-0.8,4.4-1.6,6.5-2.5c1.1-0.4,2.2-0.9,3.2-1.4l3.2-1.5
			l12.7-6.1L114,175.1C114,175,114,175,114,175.1C114,175,114,175.1,114,175.1z"/>
		<path d="M113,297.4c-3.1,0.8-6.2,1.1-9.4,1.1c-1.6-0.1-3.2-0.2-4.7-0.3c-1.6-0.1-3.1-0.2-4.7-0.4c-3.1-0.4-6.2-1-9.3-1.5
			c-3.1-0.6-6.1-1.2-9.3-1.2c0,0-0.1,0-0.1,0c0,0,0,0,0,0c3.1-0.6,6.4-0.2,9.5,0.2c3.1,0.6,6.2,1.3,9.2,2c1.5,0.4,3.1,0.6,4.7,0.6
			c1.6,0.1,3.1-0.1,4.7-0.2C106.7,297.6,109.8,297.4,113,297.4C113,297.3,113.1,297.4,113,297.4C113.1,297.4,113,297.4,113,297.4z"
			/>
		<path d="M83.5,213c3.2,6.6,6.2,13.4,8.8,20.3c1.3,3.5,2.5,7,3.7,10.4c0.6,1.7,1.2,3.5,1.8,5.2c0.2,0.9,0.6,1.8,0.8,2.7l0.3,1.4
			c0.1,0.5,0.1,0.9,0.2,1.4c0.2,3.7-0.3,7.4-0.4,11.1c-0.1,1.8,0,3.6,0.2,5.4c0.1,0.9,0.3,1.8,0.6,2.6c0.2,0.9,0.5,1.8,0.7,2.7
			c0.9,3.6,1.5,7.2,2,10.9c0.2,1.8,0.4,3.7,0.4,5.5c0,1.8,0,3.7-0.6,5.5c0,0,0,0-0.1,0c0,0,0,0,0-0.1l0,0c0.5-1.8,0.3-3.6,0.2-5.5
			c-0.1-1.8-0.4-3.6-0.7-5.5c-0.6-3.6-1.4-7.2-2.2-10.8c-0.2-0.9-0.4-1.8-0.7-2.7l-0.3-1.4c-0.1-0.5-0.2-0.9-0.2-1.4
			c-0.2-1.9-0.2-3.8-0.1-5.6c0.2-3.7,0.8-7.4,0.8-11c-0.1-0.4-0.1-0.9-0.1-1.3l-0.3-1.3c-0.2-0.9-0.5-1.8-0.7-2.7
			c-0.5-1.8-1.1-3.5-1.7-5.2c-1.2-3.5-2.7-6.8-4.1-10.2C88.8,226.8,86,219.9,83.5,213C83.4,213,83.4,213,83.5,213
			C83.5,212.9,83.5,213,83.5,213z"/>
		<path d="M98.5,252.5c4.2-0.6,8.5-1.1,12.7-1.5c4.2-0.4,8.5-0.9,12.7-1.3c4.2-0.4,8.5-0.7,12.7-1c4.2-0.3,8.5-0.7,12.7-1.1
			c0.1,0,0.2,0.1,0.2,0.1c1,5.6,2.1,11.1,2.8,16.7c0.2,1.4,0.3,2.8,0.3,4.3c0,0.4,0,0.7-0.1,1.2c0,0.1-0.1,0.3-0.2,0.4
			c-0.1,0.1-0.2,0.2-0.2,0.2c-0.2,0.1-0.3,0.3-0.5,0.4c-0.6,0.4-1.2,0.8-1.8,1.2c-2.4,1.5-4.9,2.9-7.4,4.2c-5,2.7-10,5.2-15.3,7.4
			c-0.7,0.3-1.3,0.5-2,0.8c-0.7,0.3-1.3,0.5-2,0.7c-0.3,0.1-0.7,0.2-1.1,0.2l-0.5,0.1c-0.2,0-0.4,0-0.6,0c-0.7,0-1.4-0.1-2.1-0.1
			c-2.8-0.3-5.6-0.8-8.4-1.3c0,0,0,0,0-0.1c0,0,0,0,0.1,0c2.8,0.4,5.6,0.7,8.4,0.9c0.7,0,1.4,0.1,2.1,0c0.2,0,0.3,0,0.5,0l0.5-0.1
			c0.3-0.1,0.7-0.1,1-0.3c0.7-0.2,1.3-0.4,2-0.7c0.7-0.2,1.3-0.5,1.9-0.8c2.6-1.1,5.1-2.4,7.6-3.6c2.5-1.3,5-2.6,7.5-3.9
			c2.5-1.4,5-2.7,7.3-4.1c0.6-0.4,1.2-0.7,1.7-1.1c0.2-0.1,0.2-0.2,0.3-0.3c0,0,0.1-0.1,0.1-0.1c0,0,0,0,0-0.1
			c0.1-0.2,0.1-0.6,0.1-0.9c0-1.4-0.1-2.8-0.2-4.2c-0.6-5.6-1.3-11.2-2.3-16.7l0.2,0.1c-4.2,0.4-8.5,0.8-12.7,1.3
			c-4.2,0.5-8.5,1-12.7,1.4c-4.2,0.4-8.5,0.8-12.7,1.1C107,252,102.8,252.3,98.5,252.5C98.5,252.6,98.5,252.5,98.5,252.5
			C98.5,252.5,98.5,252.5,98.5,252.5z"/>
		<path d="M119.1,267.8c-0.9,0.1-1.4,1-1.6,1.8c-0.2,0.8-0.4,1.6-0.5,2.4c-0.1,0.8,0,1.7,0.6,2.3c0.6,0.6,1.6,0.6,2.3,0.3
			c0.8-0.3,1.3-0.9,1.8-1.6c0.4-0.7,0.6-1.5,0.6-2.3c0-0.8-0.3-1.5-0.8-2.1C120.9,268.1,120,267.8,119.1,267.8z M119.1,267.7
			c0.9,0,1.8,0,2.7,0.4c0.9,0.5,1.4,1.5,1.5,2.5c0.1,1-0.3,2-0.8,2.8c-0.5,0.8-1.4,1.4-2.4,1.6c-0.9,0.1-1.9,0-2.7-0.5
			c-0.8-0.6-1.2-1.6-1.2-2.5c0-1,0.2-1.9,0.7-2.7C117.4,268.5,118.2,267.8,119.1,267.7z"/>
		<path d="M84.5,354.3c0.3,3.9,0.4,7.9,0.3,11.8c-0.1,2-0.2,3.9-0.6,5.9c-0.1,0.5-0.3,1-0.4,1.5c-0.1,0.5-0.3,0.9-0.3,1.4
			c-0.1,0.9-0.2,1.9-0.2,2.9c0,3.9,0.4,7.8,0.7,11.7c0.4,3.9,0.8,7.8,1.1,11.8c0,4-0.1,7.9-0.3,11.8c-0.1,2-0.2,3.9-0.3,5.9
			c-0.1,2-0.3,3.9-0.5,5.9c-0.6,3.9-0.1,7.8-0.1,11.7c0,1-0.1,2-0.3,3c-0.1,0.5-0.3,1-0.5,1.4c-0.3,0.4-0.2,0.8-0.1,1.3
			c0.5,1.8,1.7,3.4,2.9,5c2.4,3.1,5.2,5.9,8.1,8.4c1.5,1.3,3,2.5,4.7,3.5l2.5,1.6l2.5,1.6c6.5,4.3,13.5,7.9,20.9,10.4
			c7.4,2.6,15.1,4.2,22.8,5c7.8,0.8,15.6,0.7,23.5,0.2c0,0,0.1,0,0.1,0c0,0,0,0.1,0,0.1c-7.8,0.9-15.7,1.1-23.6,0.4
			c-7.8-0.6-15.7-2.2-23.1-4.8c-0.9-0.3-1.9-0.6-2.8-1l-2.7-1.1c-0.9-0.4-1.8-0.8-2.7-1.2c-0.9-0.4-1.8-0.8-2.7-1.3
			c-3.5-1.8-6.9-3.9-10.2-6l-2.5-1.6l-2.5-1.6c-1.7-1.1-3.2-2.4-4.7-3.7c-2.9-2.6-5.7-5.5-8.1-8.6c-0.6-0.8-1.2-1.6-1.7-2.5
			c-0.5-0.9-1-1.7-1.2-2.8c-0.1-0.3-0.1-0.5-0.1-0.8c0-0.1,0-0.3,0.1-0.4l0.2-0.4c0.2-0.4,0.4-0.8,0.5-1.3c0.2-0.9,0.3-1.9,0.3-2.9
			c0.1-3.9-0.4-7.9,0.1-11.8c0.5-3.9,0.5-7.8,0.6-11.7c0-3.9,0.1-7.9,0-11.8c-0.5-7.8-1.8-15.6-1.7-23.5c0-1,0.1-2,0.3-3
			c0-0.5,0.2-1,0.4-1.5c0.1-0.5,0.3-0.9,0.4-1.4c0.4-1.9,0.6-3.8,0.8-5.8C84.5,362.2,84.6,358.2,84.5,354.3
			C84.4,354.3,84.5,354.3,84.5,354.3C84.5,354.3,84.5,354.3,84.5,354.3z"/>
		<path d="M163.4,313.8c-0.2,9.9-0.1,19.8,0.1,29.8c0.3,9.9,0.6,19.8,0.7,29.8c0.2,9.9,0.2,19.9,0.4,29.8c0.1,5,0.2,9.9,0.3,14.9
			c0.1,2.5,0.4,4.9,0.7,7.4c0.3,2.5,0.7,4.9,1,7.4c1.4,9.8,3.1,19.6,4.2,29.5c0.3,2.5,0.5,5,0.5,7.5c0.1,2.5,0.3,4.9,0.5,7.4
			c0.1,1.2,0.3,2.4,0.5,3.7c0.1,0.6,0.2,1.2,0.4,1.8c0.2,0.6,0.4,1.1,0.6,1.5c0.1,0.2,0.3,0.3,0.4,0.3c0.1,0,0.1,0,0.2,0l0.4-0.2
			c0.6-0.2,1.2-0.4,1.8-0.6l3.5-1.1c9.4-3.1,18.6-7,27-12.1c4.2-2.6,8.3-5.5,11.9-8.8c3.7-3.3,7-7.1,9.6-11.2c0,0,0,0,0.1,0
			c0,0,0,0,0,0.1c-2.6,4.3-5.7,8.2-9.4,11.6c-3.6,3.4-7.7,6.4-11.9,9.1c-8.4,5.3-17.6,9.3-27.1,12.5l-3.5,1.2
			c-0.6,0.2-1.2,0.4-1.7,0.6l-0.4,0.2c-0.2,0.1-0.4,0.1-0.7,0.1c-0.5,0-0.9-0.4-1.1-0.7c-0.5-0.6-0.6-1.3-0.8-1.9
			c-0.2-0.6-0.3-1.2-0.4-1.9c-0.2-1.2-0.3-2.5-0.5-3.7c-0.2-2.5-0.3-5-0.5-7.5c-0.1-2.5-0.2-4.9-0.5-7.4c-1-9.8-2.5-19.7-3.8-29.5
			c-0.3-2.5-0.6-4.9-0.9-7.4c-0.3-2.5-0.6-4.9-0.6-7.4l-0.3-14.9c-0.2-9.9-0.6-19.8-0.9-29.8l-0.7-29.8
			C162.6,333.6,162.7,323.7,163.4,313.8C163.3,313.8,163.3,313.7,163.4,313.8C163.3,313.7,163.4,313.8,163.4,313.8z"/>
		<path d="M178,304.4c0.4,7.4,0.8,14.9,1.1,22.4c0.3,7.5,0.6,14.9,0.7,22.4l0.2,22.4c0,7.5,0.2,14.9,0.2,22.4c0,1.9,0,3.7-0.1,5.6
			c0,0.9-0.1,1.9-0.2,2.8c0,0.5-0.1,1-0.2,1.4c-0.1,0.5-0.2,0.9-0.3,1.3c-0.5,3.6-0.5,7.4-0.5,11.1c0,3.7,0,7.5-0.2,11.2
			c0,0.9-0.1,1.9-0.2,2.8c-0.1,0.9-0.1,1.8-0.1,2.7c0,1.8,0,3.7,0.1,5.6c0.3,7.4,0.7,14.9,1.2,22.3l1.5,22.3c0,0,0,0.1,0,0.1
			c0,0-0.1,0-0.1,0c-0.8-7.4-1.5-14.9-2.1-22.3c-0.6-7.4-1.2-14.9-1.5-22.3c-0.1-1.9-0.1-3.7-0.1-5.6c0-0.9,0.1-1.9,0.1-2.8
			c0.1-0.9,0.2-1.8,0.2-2.8c0.2-3.7,0.2-7.4,0.3-11.2c0.1-3.7,0.1-7.5,0.7-11.2c0.1-0.5,0.3-1,0.3-1.4c0.1-0.4,0.2-0.9,0.2-1.3
			c0.1-0.9,0.2-1.8,0.2-2.8c0.1-1.9,0.2-3.7,0.2-5.6c0.4-14.9-0.1-29.8-0.6-44.7C178.5,334.2,178,319.3,178,304.4
			C177.9,304.3,177.9,304.3,178,304.4C177.9,304.3,178,304.3,178,304.4z"/>
		<path d="M172.8,189.4c-0.6,3.4-1.2,6.8-1.5,10.2c-0.4,3.4-0.6,6.8-0.2,10.2c0.6,6.9,1.7,13.7,3,20.5c0.6,3.4,1.3,6.8,1.5,10.3
			l-0.1,10.4c0,6.9-0.1,13.8-0.3,20.7c0,0,0,0-0.1,0c0,0,0,0,0,0c-0.4-6.9-0.6-13.8-0.6-20.7c0-1.7,0-3.5,0-5.2l0.1-2.6
			c0.1-0.9,0.1-1.7,0.1-2.6c-0.2-3.4-0.7-6.8-1.1-10.3c-0.5-3.4-1-6.8-1.6-10.2c-0.6-3.4-1.3-6.8-1.7-10.2c-0.5-3.5-0.2-7,0.3-10.4
			C171,196.1,171.8,192.7,172.8,189.4C172.7,189.4,172.8,189.4,172.8,189.4C172.8,189.4,172.8,189.4,172.8,189.4z"/>
		<path d="M165.1,216.3c-0.3-0.1-0.7,0.1-0.9,0.4c-0.2,0.3-0.4,0.6-0.5,0.9l-0.6,2c-0.2,0.6-0.4,1.4-0.2,2c0.1,0.3,0.3,0.6,0.6,0.7
			c0.3,0.1,0.6,0.1,0.9,0c1.2-0.4,2.1-1.6,2.3-2.8c0.1-0.6,0.1-1.2-0.1-1.8C166.4,217,165.8,216.5,165.1,216.3z M165.1,216.2
			c0.7,0.2,1.4,0.5,2,1.1c0.6,0.6,0.8,1.5,0.6,2.4c-0.1,0.8-0.6,1.6-1.1,2.1c-0.6,0.6-1.3,1-2.2,1c-0.4,0-0.8,0-1.2-0.2
			c-0.4-0.2-0.6-0.6-0.8-0.9c-0.3-0.7-0.4-1.5-0.3-2.3c0.1-0.8,0.4-1.5,0.9-2.1c0.2-0.3,0.5-0.6,0.9-0.8
			C164.3,216.3,164.7,216.1,165.1,216.2z"/>
		<path d="M168,267.8c-0.8,0-1.6,0.3-2.1,0.8c-0.5,0.5-0.7,1.1-0.8,1.8c-0.1,0.7,0,1.5,0.4,2.2c0.4,0.6,1.1,1.2,1.8,1
			c1.3-0.4,2.3-1.8,2.8-3.1c0.2-0.7,0.2-1.3-0.1-1.9C169.7,268.1,168.8,267.8,168,267.8z M168,267.7c0.8,0.1,1.7,0,2.5,0.5
			c0.2,0.1,0.4,0.3,0.5,0.5c0.2,0.2,0.2,0.4,0.3,0.7c0.1,0.5,0,1-0.1,1.4c-0.2,0.9-0.8,1.6-1.4,2.2c-0.6,0.6-1.4,1.1-2.4,1.1
			c-0.2,0-0.5-0.1-0.7-0.1c-0.2-0.1-0.4-0.2-0.6-0.3c-0.2-0.1-0.3-0.3-0.5-0.4c-0.1-0.2-0.3-0.3-0.4-0.5c-0.5-0.7-0.9-1.5-1-2.4
			c-0.1-0.9,0.4-1.9,1.2-2.3C166.4,267.7,167.2,267.8,168,267.7z"/>
		<path d="M170.4,325.6c0.8,0,1.6-0.5,2-1.1c0.4-0.7,0.5-1.4,0.6-2.1c0.1-0.7,0-1.6-0.4-2.3c-0.1-0.2-0.2-0.3-0.4-0.5
			c-0.1-0.1-0.3-0.2-0.5-0.3c-0.4-0.2-0.7-0.2-1.1-0.1c-1.4,0.4-2.3,1.9-2.5,3.3c-0.1,0.7-0.1,1.4,0.3,2.1
			C168.8,325.2,169.6,325.6,170.4,325.6z M170.4,325.7c-0.8,0-1.7-0.1-2.5-0.7c-0.8-0.7-0.9-1.7-0.8-2.6c0.1-0.9,0.5-1.8,1.1-2.5
			c0.6-0.7,1.4-1.3,2.4-1.3c1,0,1.8,0.6,2.2,1.3c0.5,0.7,0.9,1.5,0.9,2.5c0.1,0.9-0.2,1.9-0.9,2.5
			C172.2,325.5,171.3,325.7,170.4,325.7z"/>
		<path d="M170.8,370.3c-0.4,0-0.8,0.2-1,0.5l-0.2,0.2l-0.1,0.3c-0.1,0.2-0.1,0.3-0.2,0.5c-0.2,0.7-0.3,1.5-0.4,2.2
			c-0.1,0.7-0.1,1.5,0.4,2.2c0.4,0.6,1.3,0.7,2,0.3c1.2-0.8,2.1-2.2,2.3-3.5c0.1-0.7-0.1-1.3-0.6-1.8
			C172.5,370.5,171.6,370.3,170.8,370.3z M170.8,370.2c0.8,0.1,1.6-0.1,2.5,0.4c0.2,0.1,0.4,0.3,0.6,0.4c0.2,0.2,0.3,0.4,0.4,0.6
			c0.1,0.2,0.1,0.5,0.2,0.7c0,0.2,0,0.5,0,0.7c-0.1,0.9-0.5,1.8-1,2.4c-0.5,0.7-1.2,1.3-2.1,1.5c-0.8,0.3-1.9,0.1-2.4-0.6
			c-0.6-0.7-0.9-1.5-1-2.4c-0.1-0.9,0.1-1.8,0.6-2.5C169.2,370.7,170,370.2,170.8,370.2z"/>
		<path d="M170.8,421c-0.9,0.1-1.7,0.4-2.3,0.9c-0.6,0.6-0.8,1.2-0.8,2c0,0.8,0.2,1.6,0.7,2.3c0.5,0.7,1.3,1.2,2.1,1.2
			c0.8,0,1.5-0.4,1.9-1c0.5-0.6,0.7-1.4,0.8-2.1c0.1-0.8,0-1.6-0.3-2.2C172.6,421.4,171.7,420.9,170.8,421z M170.8,420.9
			c0.9,0,1.9,0.1,2.6,0.8c0.8,0.7,0.9,1.8,0.9,2.8c-0.1,1-0.5,1.9-1.2,2.6c-0.3,0.4-0.7,0.7-1.2,0.8l-0.4,0.1l-0.4,0
			c-0.3,0-0.5,0-0.7-0.1c-0.9-0.2-1.7-0.9-2.3-1.5c-0.6-0.7-1.1-1.5-1.3-2.5c-0.2-1,0.3-2.1,1.3-2.6
			C169.1,420.9,170,421,170.8,420.9z"/>
		<path d="M195.4,168.6c4.8,0.6,9.6,1.2,14.3,2.2c2.4,0.5,4.6,1.4,6.9,2.1l6.9,2.3c4.6,1.5,9.2,3,13.8,4.4c2.3,0.7,4.6,1.4,6.9,1.9
			c0.5,0.1,1.2,0.1,1.8,0.2c0.3,0.1,0.7,0.2,1,0.5c0.3,0.3,0.5,0.7,0.6,1c0.2,1.3,0.1,2.5,0.2,3.7l-0.1-0.2
			c2.2,3.7,4.2,7.6,5.6,11.7c1.5,4,2.9,8.1,4.2,12.2c2.6,8.2,5.1,16.5,6.9,24.9c0.9,4.2,1.6,8.5,2.2,12.7l1.9,12.8
			c1.3,8.5,2.7,17,4.3,25.4c0.8,4.2,1.7,8.4,2.6,12.6c0.9,4.2,2,8.4,3,12.6c1.9,8.4,3.6,16.9,5,25.4c0.7,4.2,1.4,8.5,2,12.8
			c0.7,4.3,1.2,8.5,2,12.7c0.4,2.2,0.3,4.4,0.2,6.5c-0.1,2.2-0.3,4.3-0.6,6.4c-0.3,2.1-0.6,4.3-1,6.4c-0.2,1.1-0.4,2.1-0.7,3.2
			c-0.3,1-0.5,2.1-1,3.1c0,0,0,0-0.1,0c0,0,0,0,0-0.1l0,0c0.5-0.9,0.7-2,0.9-3.1c0.2-1,0.4-2.1,0.6-3.2c0.3-2.1,0.6-4.3,0.8-6.4
			c0.2-2.1,0.4-4.3,0.5-6.4c0.1-2.1,0.1-4.3-0.3-6.4c-0.8-4.2-1.4-8.5-2.2-12.7c-0.7-4.2-1.4-8.5-2.2-12.7
			c-1.5-8.5-3.2-16.9-5.1-25.3c-1-4.2-2-8.4-2.9-12.6c-0.9-4.2-1.8-8.4-2.6-12.7c-1.6-8.5-2.8-17-4-25.5l-1.7-12.8
			c-0.6-4.3-1.2-8.5-2.1-12.7c-0.9-4.2-2-8.4-3.2-12.5c-1.2-4.1-2.5-8.2-3.9-12.3c-2.9-8.1-5.5-16.3-10.1-23.6
			c0-0.1-0.1-0.1-0.1-0.2l0,0c-0.1-1.2,0-2.5-0.2-3.5c-0.1-1-1.4-0.8-2.7-1c-2.4-0.5-4.7-1.3-7-2c-4.6-1.4-9.2-2.9-13.8-4.5
			l-6.8-2.4c-2.3-0.8-4.5-1.7-6.9-2.2C204.9,170.2,200.1,169.4,195.4,168.6C195.3,168.7,195.3,168.7,195.4,168.6
			C195.3,168.7,195.4,168.6,195.4,168.6z"/>
		<path d="M283.3,375.6c-0.2-1.5-0.5-3-1.4-4.2c-0.9-1.2-2.5-1.5-4-1.5c-1.5,0-2.9,0.4-4.4,0.7l-4.4,1c-5.8,1.4-11.7,2.7-17.5,3.9
			l-8.8,1.8l-4.4,0.9l-2.2,0.4c-0.2,0-0.4,0.1-0.5,0.1c-0.1,0-0.2,0.1-0.3,0.3c-0.1,0.3-0.1,0.7-0.1,1c0.1,1.5,0.4,3,0.6,4.4
			c0.2,1.5,0.4,3,0.1,4.5c-0.5,1.4-0.7,2.9-0.9,4.4c-0.2,1.5-0.2,3-0.2,4.5c0,1.5,0.1,3,0.5,4.4c0.2,0.7,0.5,1.4,0.9,1.7
			c0.2,0.1,0.6,0.1,0.9,0.1l1.1-0.1c3-0.3,5.9-0.9,8.8-1.4c2.9-0.6,5.9-1.2,8.8-1.9c2.9-0.7,5.8-1.4,8.6-2.3c1.4-0.5,2.8-1,4-1.7
			c1.3-0.7,2.3-1.7,3.2-2.8c0.5-0.6,0.9-1.2,1.4-1.8c0.5-0.6,1.1-1.2,1.9-1.6c0.8-0.3,1.7-0.2,2.4-0.1c0.7,0.1,1.4,0.2,2.1,0.2
			c0.7,0,1.4-0.2,2-0.5c0.6-0.3,1.1-0.9,1.5-1.5c0.7-1.3,1.1-2.7,1.3-4.2C284.7,381.5,284.2,378.5,283.3,375.6z M283.4,375.6
			c0.9,2.8,1.5,5.9,1.2,8.9c-0.2,1.5-0.5,3-1.2,4.4c-0.4,0.7-0.9,1.3-1.6,1.8c-0.7,0.4-1.5,0.7-2.3,0.7c-0.8,0.1-1.6,0-2.3-0.1
			c-0.7-0.1-1.4-0.1-2,0.1c-1.2,0.5-1.8,2-2.8,3.2c-0.9,1.2-2.1,2.3-3.5,3.1c-1.3,0.8-2.8,1.3-4.2,1.8c-5.8,1.9-11.7,3-17.6,4.1
			c-3,0.5-5.9,1-8.9,1.3l-1.1,0.1c-0.4,0-0.8,0.1-1.3-0.2c-0.4-0.3-0.6-0.7-0.8-1c-0.2-0.4-0.3-0.8-0.4-1.1c-0.3-1.5-0.4-3-0.3-4.6
			c0-1.5,0.1-3,0.3-4.5c0.2-1.5,0.5-3,1-4.4c0.3-1.4,0.2-2.9,0-4.4c-0.2-1.5-0.5-2.9-0.7-4.5c0-0.4,0-0.8,0.1-1.2
			c0.1-0.2,0.2-0.4,0.5-0.5c0.2-0.1,0.4-0.1,0.6-0.1c0.7-0.1,1.5-0.3,2.2-0.5l4.4-1l8.7-2.1c5.8-1.3,11.7-2.6,17.6-3.7l4.4-0.8
			c1.5-0.2,3-0.6,4.5-0.5c0.8,0,1.5,0.1,2.2,0.3c0.7,0.2,1.4,0.7,1.8,1.3C282.9,372.6,283.2,374.1,283.4,375.6z"/>
		<path d="M244,403.6c-0.3,4.9-0.6,9.8-1.2,14.7c-0.3,2.4-0.7,4.9-1.2,7.3c-0.1,0.6-0.3,1.2-0.4,1.8c-0.2,0.6-0.3,1.2-0.6,1.8
			c-0.2,0.6-0.5,1.2-0.9,1.7l-1.1,1.5c-3,3.9-5.8,7.9-8,12.3c-2.3,4.3-3.3,9.1-4.3,14c-1,4.8-1.8,9.7-2.9,14.5
			c-0.3,1.2-0.6,2.4-1,3.6c-0.4,1.2-1.2,2.2-1.4,3.4c-0.1,0.6-0.2,1.2,0,1.8c0.1,0.6,0.3,1.1,0.7,1.6c0.7,1,1.9,1.4,3.1,1.5
			c1.2,0,2.4-0.2,3.4-0.8c1-0.6,1.9-1.5,2.5-2.5c1.3-2,2-4.4,2.6-6.8c1.1-4.8,1.5-9.7,1.9-14.6c0-0.2,0.2-0.4,0.5-0.4
			c0.2,0,0.4,0.2,0.4,0.4l0,0c0.1,2.6,0.4,5.2,0.7,7.7c0.2,1.3,0.4,2.5,0.7,3.8c0.1,0.6,0.3,1.2,0.5,1.8c0.2,0.5,0.5,1.2,0.8,1.3
			c0.3,0.1,0.4,0.4,0.3,0.7c-0.6,1.4-1.2,2.9-1.6,4.4c-0.2,0.8-0.3,1.5-0.4,2.3c-0.1,0.7,0,1.5,0.3,2.1l0,0c0.1,0.2,0.1,0.5-0.1,0.6
			c-0.8,0.8-1.6,1.6-2.3,2.4c-0.4,0.4-0.7,0.8-1.1,1.3c-0.3,0.4-0.7,0.9-0.9,1.3c0,0.1-0.1,0.2-0.2,0.2c-1.7,1-3.4,2.2-4.7,3.6
			c-0.7,0.7-1.3,1.5-1.4,2.3c-0.1,0.4,0,0.8,0.2,1.1c0.1,0.2,0.3,0.3,0.4,0.5c0.2,0.1,0.3,0.2,0.5,0.3c0.8,0.3,1.7,0.1,2.6-0.3
			c0.9-0.4,1.7-0.9,2.6-1.5c0.8-0.6,1.6-1.2,2.6-1.7l2.7-1.4c1.8-0.9,3.5-1.9,5.1-3.2c0.8-0.6,1.5-1.3,2.1-2.1
			c0.5-0.8,0.7-1.8,1.1-2.8c0.6-1.9,1.2-3.9,1.9-5.8c0.7-1.9,1.3-3.9,2.3-5.6c0,0,0,0,0.1,0c0,0,0,0,0,0.1l0,0
			c-1,1.8-1.5,3.8-2.1,5.7c-0.6,1.9-1.1,3.9-1.7,5.9l-0.4,1.5c-0.1,0.5-0.3,1-0.6,1.5c-0.6,0.9-1.3,1.6-2.1,2.3
			c-1.6,1.3-3.4,2.4-5.2,3.3l-2.7,1.4c-0.8,0.5-1.6,1.1-2.5,1.7c-0.8,0.6-1.7,1.1-2.7,1.6c-1,0.4-2.1,0.8-3.3,0.4
			c-0.3-0.1-0.5-0.3-0.8-0.5c-0.2-0.2-0.4-0.4-0.6-0.7c-0.3-0.5-0.5-1.2-0.4-1.8c0.2-1.2,1-2.1,1.7-2.8c1.5-1.5,3.2-2.7,5-3.8
			l-0.2,0.2c0.3-0.6,0.7-1,1-1.5c0.4-0.4,0.7-0.9,1.1-1.3c0.8-0.9,1.5-1.7,2.3-2.5l-0.1,0.6c-0.5-0.9-0.5-1.8-0.4-2.6
			c0.1-0.8,0.2-1.7,0.4-2.5c0.4-1.6,1-3.1,1.7-4.6l0.3,0.7c-0.5-0.2-0.7-0.6-0.9-0.9c-0.2-0.3-0.3-0.6-0.4-1
			c-0.2-0.6-0.4-1.3-0.5-1.9c-0.3-1.3-0.5-2.6-0.6-3.9c-0.3-2.6-0.5-5.2-0.6-7.8l0.9,0c-0.6,4.9-1,9.8-2.2,14.6
			c-0.6,2.4-1.4,4.8-2.8,6.9c-0.7,1-1.6,2-2.7,2.6c-1.1,0.6-2.4,0.9-3.7,0.8c-1.2-0.1-2.6-0.6-3.3-1.7c-0.4-0.5-0.6-1.1-0.7-1.8
			c-0.1-0.6-0.1-1.3,0.1-1.9c0.1-0.6,0.4-1.2,0.7-1.8c0.3-0.6,0.5-1.1,0.7-1.7c0.4-1.2,0.7-2.4,0.9-3.6c1-4.8,1.7-9.7,2.6-14.5
			c0.4-2.4,0.9-4.9,1.5-7.3l0.5-1.8c0.2-0.6,0.4-1.2,0.6-1.8c0.5-1.1,1-2.3,1.5-3.4c2.2-4.5,5.1-8.5,8.1-12.4l1.1-1.5
			c0.3-0.5,0.6-1,0.8-1.5c0.2-0.5,0.4-1.1,0.6-1.7c0.2-0.6,0.3-1.2,0.5-1.8c0.6-2.4,1-4.8,1.4-7.2
			C242.9,413.4,243.5,408.5,244,403.6C243.9,403.5,243.9,403.5,244,403.6C244,403.5,244,403.5,244,403.6z"/>
		<path d="M260.9,469.3c-0.1,1.8-0.8,3.4-1.4,5.1c-0.3,0.8-0.6,1.6-0.8,2.4c-0.2,0.9-0.4,1.7-0.7,2.5c-0.6,1.7-1.2,3.3-1.8,4.9
			l-1.7,4.9c-0.3,0.8-0.6,1.6-1.1,2.4c-0.6,0.8-1.5,1.2-2.2,1.6c-1.6,0.8-3.3,1.4-4.9,1.9l-1.3,0.4c-0.4,0.1-0.8,0.3-1.3,0.3
			c-0.9,0.1-1.8,0.1-2.6,0.1c-1.7,0-3.5,0-5.2-0.1c0,0-0.1,0-0.1,0c0,0,0,0,0-0.1c1.7-0.3,3.5-0.4,5.2-0.6c0.9-0.1,1.7-0.2,2.6-0.3
			c0.3,0,0.8-0.2,1.2-0.3l1.2-0.4c1.6-0.5,3.3-1.1,4.8-1.7c0.8-0.4,1.6-0.7,2-1.3c0.5-0.6,0.9-1.4,1.3-2.2c0.8-1.6,1.4-3.2,1.9-4.8
			c0.5-1.7,0.9-3.4,1.3-5c0.2-0.8,0.4-1.7,0.6-2.5c0.2-0.9,0.6-1.7,1-2.5C259.6,472.5,260.4,471,260.9,469.3
			C260.9,469.3,260.9,469.3,260.9,469.3C260.9,469.3,260.9,469.3,260.9,469.3z"/>
		<path d="M233.1,497c-0.5,0.1-0.9,0.2-1.4,0c-0.2-0.1-0.4-0.2-0.6-0.3c-0.2,0-0.4,0.1-0.6,0.2c-0.4,0.3-0.7,0.5-1.1,0.7
			c-0.4,0.1-0.8,0.3-1.4,0.3c0,0-0.1,0-0.1-0.1c0,0,0,0,0,0c0.2-0.5,0.5-0.9,0.9-1.2c0.4-0.2,1-0.3,1.5-0.2c0.3,0,0.5,0.1,0.7,0
			c0.2,0,0.5-0.2,0.7-0.2C232.3,496.2,232.8,496.4,233.1,497C233.1,496.9,233.1,497,233.1,497C233.1,497,233.1,497,233.1,497
			L233.1,497z"/>
		<path d="M222.6,478.6c0.1-0.3,0.4-0.5,0.7-0.6c0.3-0.1,0.6-0.1,0.9-0.1c0.6,0,1.1,0.1,1.7,0.3c0.5,0.2,1,0.6,1.4,1
			c0.4,0.4,0.9,0.7,1,1.4c0,0.4,0,0.6,0,0.9c0,0.3-0.1,0.5-0.1,0.8c-0.1,0.5-0.2,1.1-0.4,1.6c-0.2,0.5-0.5,1.1-1,1.5
			c-0.5,0.4-1.2,0.5-1.7,0.3c0,0,0,0,0-0.1c0,0,0,0,0,0c1.1-0.3,1.4-1.1,1.7-2.1c0.2-0.5,0.3-1,0.5-1.5c0.1-0.2,0.2-0.5,0.2-0.8
			c0.1-0.2,0.2-0.5,0.3-0.7c0.1-0.4-0.2-0.9-0.6-1.2c-0.4-0.3-1-0.3-1.5-0.4c-0.5-0.1-1-0.2-1.5-0.3
			C223.6,478.5,223.1,478.3,222.6,478.6L222.6,478.6C222.7,478.6,222.7,478.6,222.6,478.6C222.6,478.6,222.6,478.6,222.6,478.6z"/>
		<path d="M270.5,394.5c-2.6,7.7-4.7,15.6-5.3,23.7c-0.2,2-0.2,4-0.1,6.1c0,2-0.1,4.1-0.4,6.1c-0.1,1-0.4,2-0.6,3
			c-0.3,1-0.7,1.9-1.1,2.9c-0.4,0.9-0.7,1.9-0.8,2.9c-0.1,1-0.1,2,0,3c0.4,4,1.1,8,1.7,12.1c0.3,2,0.6,4,0.7,6.1
			c0.1,1,0.1,2.1,0.1,3.1c0,0.5-0.1,1.1-0.3,1.7c-0.2,0.4-0.3,0.9-0.5,1.4c-1.2,3.9-2.2,7.8-3.4,11.7c-0.6,2-1.1,3.9-1.9,5.8
			c-0.3,1-1,1.8-1.7,2.6c-0.7,0.7-1.5,1.4-2.3,2c0,0-0.1,0-0.1,0c0,0,0-0.1,0-0.1c0.8-0.7,1.5-1.4,2.1-2.2c0.6-0.8,1.2-1.6,1.5-2.6
			c0.6-1.9,1.1-3.9,1.6-5.9c1-3.9,1.9-7.9,3.1-11.8c0.2-0.5,0.3-1,0.5-1.5c0.1-0.3,0.2-0.8,0.2-1.3c0-1,0-2-0.1-3
			c-0.1-2-0.4-4-0.6-6c-0.5-4-1.1-8.1-1.3-12.2c0-1-0.1-2.1,0.1-3.1c0.2-1,0.5-2,0.9-3c0.4-0.9,0.8-1.9,1.1-2.8c0.3-1,0.5-2,0.6-3
			c0.6-4-0.2-8.1,0-12.2c0.2-4.1,1-8.2,2-12.1C267.4,402.1,268.8,398.2,270.5,394.5C270.4,394.5,270.5,394.5,270.5,394.5
			C270.5,394.5,270.5,394.5,270.5,394.5z"/>
		<path d="M197.3,235.2c0.5-0.3,1-0.3,1.5-0.2c0.2,0.1,0.5,0.2,0.7,0.3c0.2,0,0.5,0,0.7-0.1c0.5-0.2,0.9-0.4,1.3-0.5l0.6-0.2
			c0.2-0.1,0.5-0.2,0.8-0.2c0,0,0.1,0,0.1,0.1c0,0,0,0,0,0l0,0c-0.1,0.2-0.2,0.5-0.4,0.7c-0.2,0.2-0.4,0.4-0.7,0.5
			c-0.5,0.2-1.1,0.2-1.6,0.1c-0.3-0.1-0.5-0.1-0.8-0.1c-0.2,0-0.5,0.2-0.8,0.2C198.3,235.8,197.8,235.7,197.3,235.2
			C197.3,235.3,197.3,235.2,197.3,235.2C197.3,235.2,197.3,235.2,197.3,235.2z"/>
		<path d="M195.4,238.4c0.6-0.4,1.1-0.5,1.7-0.4c0.3,0,0.6,0.2,0.9,0.2c0.3,0,0.6-0.1,0.8-0.2c0.6-0.2,1.1-0.4,1.7-0.4
			c0.6,0,1.1,0,1.7,0.1c0,0,0.1,0,0.1,0.1c0,0,0,0,0,0c-0.4,0.5-1.1,0.7-1.6,0.9c-0.6,0.1-1.2,0.1-1.8-0.1c-0.3-0.1-0.6-0.1-0.9,0
			c-0.3,0.1-0.6,0.2-0.9,0.3C196.6,238.9,196,238.9,195.4,238.4C195.4,238.5,195.3,238.5,195.4,238.4
			C195.4,238.5,195.4,238.4,195.4,238.4z"/>
		<path d="M243.3,204.4c0.2,3.3,0.2,6.7-0.1,10c-0.2,1.7-0.4,3.3-0.6,5c-0.2,1.7-0.3,3.3-0.4,5c-0.2,3.3-0.5,6.7-1.1,10
			c-0.6,3.3-1.4,6.6-2.8,9.7c0,0,0,0-0.1,0c0,0,0,0,0-0.1c0.8-3.3,1.3-6.5,1.9-9.8l0.8-4.9c0.2-1.6,0.5-3.3,0.8-4.9
			c0.3-1.6,0.5-3.3,0.6-5c0.1-1.7,0.1-3.3,0.1-5C242.5,211,242.8,207.7,243.3,204.4C243.2,204.4,243.3,204.3,243.3,204.4
			C243.3,204.3,243.3,204.4,243.3,204.4z"/>
		<path d="M235.7,276.2c-0.4,4.2-0.7,8.5-0.7,12.7c0,2.1,0.1,4.3,0.5,6.3c0.2,1,0.6,2.1,0.7,3.1c0.2,1.1,0.3,2.1,0.5,3.2
			c0.5,4.3,0.7,8.5,1,12.8l0.8,12.8c0.1,2.1,0.2,4.3,0.2,6.4c0,2.2-0.2,4.3-0.2,6.4l-0.5,12.8c-0.3,8.5-0.9,17-1.2,25.6
			c0,0,0,0.1,0,0.1c0,0,0,0-0.1,0c-0.2-4.3-0.1-8.5-0.1-12.8c0.1-4.3,0.2-8.5,0.4-12.8c0.1-4.3,0.4-8.5,0.6-12.8
			c0.1-2.1,0.3-4.3,0.4-6.4c0-2.1,0-4.3,0-6.4c-0.1-8.5-0.8-17-2.1-25.5c-0.2-1-0.3-2.1-0.5-3.1c-0.2-1.1-0.5-2-0.7-3.1
			c-0.4-2.2-0.4-4.3-0.4-6.5C234.4,284.7,234.8,280.4,235.7,276.2C235.6,276.2,235.6,276.2,235.7,276.2
			C235.7,276.2,235.7,276.2,235.7,276.2z"/>
		<path d="M235.6,434.2c-0.1-2.6,0.1-5.2,0.4-7.8c0.2-1.3,0.4-2.6,0.6-3.9c0.1-1.3,0.2-2.6,0.2-3.9c0-2.6,0-5.2,0.1-7.8
			c0.1-2.6,0.3-5.2,0.5-7.8c0,0,0,0,0.1,0c0,0,0,0,0,0c0.4,2.6,0.5,5.2,0.5,7.8c-0.1,2.6-0.3,5.2-0.6,7.8c-0.2,1.3-0.3,2.6-0.4,3.9
			c-0.1,1.3,0,2.6-0.1,3.9C236.6,429.1,236.3,431.7,235.6,434.2C235.7,434.3,235.6,434.3,235.6,434.2
			C235.6,434.3,235.6,434.2,235.6,434.2z"/>
		<path d="M87.7,449.7c0.2,3.6,0.3,7.1,0.3,10.7c0,3.6,0,7.1-0.4,10.7c0,0.4-0.1,0.9-0.2,1.3c0,0.2-0.1,0.5-0.2,0.7
			c0,0.1-0.1,0.2-0.2,0.4c-0.1,0.1-0.1,0.2-0.2,0.2l-0.1,0.1c-0.2,0.2-0.3,0.7-0.4,1.1c-0.1,0.4-0.1,0.9-0.1,1.3
			c-0.1,1.8,0,3.5,0.1,5.3c0.3,3.5,0.9,7.1,1.6,10.5c1.6,6.9,3.1,13.9,4.5,20.9c1.4,7,2.7,14,3.8,21c0,0,0,0.1,0,0.1
			c0,0-0.1,0-0.1,0c-1.7-6.9-3.3-13.9-4.7-20.8c-1.4-7-2.8-14-4-21c-0.6-3.5-1-7.1-1.4-10.6c-0.2-1.8-0.3-3.6-0.3-5.4
			c0-0.5,0-0.9,0.1-1.4c0.1-0.5,0.1-0.9,0.5-1.4l0.1-0.2c0,0,0,0,0,0l0.1-0.2c0-0.2,0.1-0.4,0.1-0.6c0.1-0.4,0.1-0.9,0.1-1.3
			C87.2,464,87.2,456.8,87.7,449.7C87.6,449.7,87.6,449.7,87.7,449.7C87.6,449.7,87.7,449.7,87.7,449.7z"/>
		<path d="M230.9,481.8c0.5,0.7,0.7,1.5,0.7,2.3c0,0.4-0.1,0.8-0.1,1.2c0,0.4,0.1,0.8,0.2,1.2c0.2,0.8,0.3,1.6,0.2,2.4
			c-0.1,0.4-0.2,0.8-0.4,1.2c-0.2,0.4-0.6,0.7-1,0.9c0,0-0.1,0-0.1,0c0,0,0,0,0,0l0,0c0.3-0.7,0.3-1.4,0.4-2.1
			c0.1-0.7,0.2-1.5,0.3-2.3c0.1-0.4,0.1-0.8,0-1.2c-0.1-0.4-0.3-0.8-0.4-1.1C230.7,483.5,230.7,482.7,230.9,481.8
			C230.8,481.8,230.9,481.8,230.9,481.8C230.9,481.8,230.9,481.8,230.9,481.8z"/>
		<path d="M231,498.6c0.7,2.7,1,5.5,1.2,8.3c0,1.4,0,2.8,0,4.2c0,1.4,0.2,2.8,0.3,4.2c0.3,2.8,0.4,5.6,0.2,8.4
			c-0.1,1.4-0.3,2.8-0.6,4.2c-0.3,1.4-0.7,2.8-1.6,4c0,0,0,0-0.1,0c0,0,0,0,0-0.1c0.5-1.3,0.7-2.7,0.9-4c0.2-1.4,0.2-2.8,0.3-4.1
			c0.2-2.8,0.2-5.6,0.3-8.4c0-1.4,0-2.8-0.1-4.2c-0.1-1.4-0.4-2.8-0.5-4.2C231.1,504.3,230.9,501.5,231,498.6
			C230.9,498.6,231,498.6,231,498.6C231,498.6,231,498.6,231,498.6z"/>
		<path d="M165.5,482.6c0,5.9-0.4,11.7-1.1,17.6c-0.4,2.9-0.8,5.8-1.2,8.7c-0.4,2.9-0.8,5.8-1.3,8.7c-0.1,0.7-0.3,1.4-0.5,2.2
			c-0.1,0.4-0.3,0.7-0.4,1.1c-0.1,0.3-0.3,0.6-0.2,0.7c0,0.1,0.3,0.2,0.6,0.3c0.3,0,0.6,0,1,0c0.7-0.1,1.4-0.3,2-0.5
			c2.7-1,5.1-2.6,7.2-4.5c2.1-1.9,3.9-4.2,5.2-6.8c1.4-2.6,2.2-5.4,2.6-8.3c0,0,0,0,0.1,0c0,0,0,0,0,0.1c-0.1,2.9-0.7,5.9-2,8.6
			c-1.2,2.7-3,5.2-5.2,7.2c-2.2,2-4.8,3.7-7.6,4.6c-0.7,0.2-1.5,0.4-2.2,0.5c-0.4,0-0.8,0.1-1.2,0c-0.2,0-0.4-0.1-0.7-0.2
			c-0.1-0.1-0.2-0.1-0.3-0.2c-0.1-0.1-0.2-0.2-0.2-0.4c-0.2-0.6,0.1-1,0.3-1.4c0.2-0.3,0.3-0.6,0.4-0.9c0.3-0.7,0.5-1.4,0.7-2.1
			c1.5-5.7,1.9-11.6,2.3-17.4C164.1,494.2,164.7,488.4,165.5,482.6C165.4,482.6,165.4,482.5,165.5,482.6
			C165.5,482.5,165.5,482.6,165.5,482.6z"/>
		<path d="M169.5,491c0,2.3-0.2,4.5-0.6,6.8c-0.2,1.1-0.5,2.2-0.7,3.3c-0.2,1.1-0.3,2.2-0.3,3.4c-0.1,2.3-0.4,4.5-0.7,6.8
			c-0.4,2.2-0.8,4.5-1.4,6.7c0,0,0,0-0.1,0c0,0,0,0,0,0c0-2.3,0.2-4.5,0.4-6.8c0.3-2.2,0.7-4.5,1.2-6.7c0.2-1.1,0.5-2.2,0.6-3.4
			c0.1-1.1,0.1-2.3,0.2-3.4C168.4,495.4,168.8,493.2,169.5,491C169.4,490.9,169.4,490.9,169.5,491
			C169.5,490.9,169.5,490.9,169.5,491z"/>
	</g>
	<path class="st2" d="M92.9,462.7"/>
</g>
</svg>
